<svg xmlns="http://www.w3.org/2000/svg" viewBox="0 0 253.25 108.34"><defs><style>.cls-1{fill:#161615;}.cls-2{fill:#00872d;}.cls-3{fill:#de4200;}.cls-4{fill:#d7006c;}.cls-5{fill:#0073c5;}</style></defs><g id="Layer_2" data-name="Layer 2"><g id="Layer_2-2" data-name="Layer 2"><path class="cls-1" d="M16.43,82.76l-1.37,7.16h5.46v1.43H14.75L13.2,99.47H11.58l1.59-8.12H6.68L5.13,99.47H3.55L5.1,91.35H0V89.92H5.39l1.37-7.16H1.41V81.31H7l1.55-8.17H10.2L8.59,81.31h6.58l1.58-8.17H18.3l-1.58,8.17h5.13v1.45ZM6.94,89.92h6.54l1.4-7.16H8.34Z"/><path class="cls-1" d="M41.11,92.68a6.35,6.35,0,0,1-2.42,5.23,10.1,10.1,0,0,1-6.44,1.92,20.19,20.19,0,0,1-7.41-1.06V96.93a18.65,18.65,0,0,0,7.26,1.21,8.12,8.12,0,0,0,5.14-1.49,4.71,4.71,0,0,0,1.91-3.9,4.4,4.4,0,0,0-.64-2.47,5.68,5.68,0,0,0-2-1.8,25,25,0,0,0-4.18-1.74,14.36,14.36,0,0,1-5.57-3,6.44,6.44,0,0,1,.77-9.12,9.2,9.2,0,0,1,5.95-1.86,17.58,17.58,0,0,1,7,1.4l-.67,1.59a16.35,16.35,0,0,0-6.27-1.37,7.39,7.39,0,0,0-4.65,1.35,4.42,4.42,0,0,0-1.73,3.67,4.85,4.85,0,0,0,.53,2.4,4.94,4.94,0,0,0,1.74,1.68,24.06,24.06,0,0,0,4.15,1.8,22.52,22.52,0,0,1,4.63,2.06,6.69,6.69,0,0,1,2.26,2.27A6.25,6.25,0,0,1,41.11,92.68Z"/><path class="cls-1" d="M53.54,99.47H51.68V74.87H43.13V73.14h19v1.73H53.54Z"/><path class="cls-1" d="M80.4,99.47H66V73.14H80.4v1.69H67.84v10H79.7v1.69H67.84v11.3H80.4Z"/><path class="cls-1" d="M97.94,99.47,88.13,75.15H88c.1,1.49.15,3,.15,4.58V99.47H86.36V73.14h2.85L98.54,96.3h.11L108,73.14h2.77V99.47H108.9v-20q0-2.08.21-4.32H109L99.12,99.47Z"/><path class="cls-1" d="M128.55,86.2h9.71v12a21.81,21.81,0,0,1-8.59,1.62q-6.24,0-9.56-3.52t-3.32-10a14.93,14.93,0,0,1,1.65-7.12,11.52,11.52,0,0,1,4.72-4.81,14.42,14.42,0,0,1,7.05-1.69,18.14,18.14,0,0,1,7.73,1.59L137.2,76a16.81,16.81,0,0,0-7.1-1.58,10.87,10.87,0,0,0-8.26,3.21,12.12,12.12,0,0,0-3,8.68c0,4,1,6.94,2.9,8.94s4.77,3,8.52,3a16.44,16.44,0,0,0,6.18-1V87.93h-7.84Z"/><path class="cls-1" d="M146.21,99.47h-1.79v-28h1.79Z"/><path class="cls-1" d="M164.65,99.47l-.45-3.1h-.14a9.35,9.35,0,0,1-3,2.68,8.12,8.12,0,0,1-3.68.78,6.41,6.41,0,0,1-4.49-1.47,5.29,5.29,0,0,1-1.6-4.09,5,5,0,0,1,2.39-4.45,12.92,12.92,0,0,1,6.9-1.68l3.73-.11V86.74a6.66,6.66,0,0,0-1.13-4.22,4.41,4.41,0,0,0-3.66-1.42,12.24,12.24,0,0,0-5.64,1.51l-.66-1.55a14.88,14.88,0,0,1,6.37-1.51,6.38,6.38,0,0,1,4.82,1.67q1.6,1.68,1.6,5.23v13Zm-7.2-1.26a6.23,6.23,0,0,0,6.75-6.77V89.51l-3.42.14q-4.12.21-5.88,1.29a3.72,3.72,0,0,0-1.76,3.4,3.64,3.64,0,0,0,1.13,2.85A4.57,4.57,0,0,0,157.45,98.21Z"/><path class="cls-1" d="M184.45,94.38a4.66,4.66,0,0,1-2,4,9.73,9.73,0,0,1-5.67,1.41,13.63,13.63,0,0,1-6.24-1.2V96.7a13.84,13.84,0,0,0,6.24,1.48,8.23,8.23,0,0,0,4.4-1,2.94,2.94,0,0,0,1.51-2.57,3.12,3.12,0,0,0-1.2-2.48,13.26,13.26,0,0,0-3.94-2,22.4,22.4,0,0,1-4.12-1.83,5.65,5.65,0,0,1-1.8-1.73,4.37,4.37,0,0,1-.6-2.35,4,4,0,0,1,1.85-3.48A9,9,0,0,1,178,79.51a15.45,15.45,0,0,1,6,1.19l-.66,1.62A14.18,14.18,0,0,0,178,81.13a7.7,7.7,0,0,0-3.8.8,2.43,2.43,0,0,0-1.41,2.19,3,3,0,0,0,1.09,2.45,15.15,15.15,0,0,0,4.26,2.06A20.66,20.66,0,0,1,182,90.35a5.71,5.71,0,0,1,1.81,1.74A4.27,4.27,0,0,1,184.45,94.38Z"/><path class="cls-1" d="M204.77,79.89v1.24l-4.05.26a6.9,6.9,0,0,1,1.62,4.43,6,6,0,0,1-1.88,4.58,7.13,7.13,0,0,1-5.06,1.76,11.09,11.09,0,0,1-1.87-.11,4.55,4.55,0,0,0-1.62,1.32,2.64,2.64,0,0,0-.56,1.6,1.5,1.5,0,0,0,.71,1.37,4.85,4.85,0,0,0,2.39.43h3.42a7.93,7.93,0,0,1,4.88,1.29,4.49,4.49,0,0,1,1.7,3.81,5.42,5.42,0,0,1-2.52,4.78c-1.67,1.12-4.06,1.69-7.16,1.69a9.85,9.85,0,0,1-5.72-1.43,4.57,4.57,0,0,1-2-4,4.67,4.67,0,0,1,1.25-3.35,6.41,6.41,0,0,1,3.39-1.82,3.46,3.46,0,0,1-1.41-1.07,2.53,2.53,0,0,1-.53-1.6c0-1.31.83-2.46,2.5-3.46a5.5,5.5,0,0,1-2.66-2.2,6.26,6.26,0,0,1-1-3.45,6.17,6.17,0,0,1,1.87-4.71,7,7,0,0,1,5-1.78,9.32,9.32,0,0,1,3,.38Zm-15.85,22.9q0,4,6,4,7.71,0,7.71-4.92a2.84,2.84,0,0,0-1.21-2.55,7.34,7.34,0,0,0-3.91-.8H194.3Q188.92,98.55,188.92,102.79ZM190.41,86a4.51,4.51,0,0,0,1.38,3.52,5.3,5.3,0,0,0,3.69,1.25,5.22,5.22,0,0,0,3.75-1.24,4.74,4.74,0,0,0,1.31-3.6,4.9,4.9,0,0,0-1.35-3.76,5.29,5.29,0,0,0-3.75-1.25,4.64,4.64,0,0,0-5,5.08Z"/><path class="cls-1" d="M225,89.65c0,3.2-.77,5.69-2.32,7.49a8,8,0,0,1-6.41,2.69,8.29,8.29,0,0,1-4.54-1.24,7.92,7.92,0,0,1-3-3.57,12.93,12.93,0,0,1-1-5.37q0-4.79,2.33-7.46a8.84,8.84,0,0,1,12.71,0A11.15,11.15,0,0,1,225,89.65Zm-15.45,0A10,10,0,0,0,211.3,96a6.71,6.71,0,0,0,10,0,10,10,0,0,0,1.77-6.3,9.82,9.82,0,0,0-1.79-6.28,6.11,6.11,0,0,0-5-2.24,6,6,0,0,0-5,2.23A9.93,9.93,0,0,0,209.53,89.65Z"/><path class="cls-1" d="M246.06,99.47l-4.29-13.09c-.27-.89-.63-2.2-1.06-3.91h-.11l-.38,1.33-.81,2.61-4.36,13.06h-1.76l-5.6-19.58h1.9l3.14,11.35q1.1,4.22,1.44,6.2h.11c.71-2.81,1.22-4.68,1.55-5.6l4-12h1.62l3.84,11.91c.87,2.82,1.39,4.69,1.59,5.6h.1q.15-1.17,1.45-6.27l3-11.24h1.8l-5.32,19.58Z"/><rect class="cls-2" x="213.15" y="20.41" width="51.02" height="10.2" transform="translate(213.15 264.17) rotate(-90)"/><rect class="cls-2" x="202.94" y="10.2" width="30.61" height="10.2" transform="translate(202.94 233.56) rotate(-90)"/><rect class="cls-2" x="172.33" y="20.41" width="51.02" height="10.2" transform="translate(172.33 223.35) rotate(-90)"/><rect class="cls-3" x="131.51" y="40.82" width="51.02" height="10.2"/><rect class="cls-3" x="131.51" y="20.41" width="30.61" height="10.2"/><rect class="cls-3" x="131.51" width="51.02" height="10.2"/><rect class="cls-4" x="100.9" y="10.2" width="30.61" height="10.2" transform="translate(100.9 131.51) rotate(-90)"/><rect class="cls-4" x="70.28" y="20.41" width="51.02" height="10.2" transform="translate(70.28 121.31) rotate(-90)"/><rect class="cls-4" x="60.08" y="10.2" width="30.61" height="10.2" transform="translate(60.08 90.69) rotate(-90)"/><rect class="cls-5" x="9.05" y="20.41" width="51.02" height="10.2"/><rect class="cls-5" x="9.05" width="30.61" height="10.2"/><rect class="cls-5" x="29.46" y="40.82" width="30.61" height="10.2"/></g></g></svg>