<svg xmlns="http://www.w3.org/2000/svg" width="13.624" height="11.052" viewBox="0 0 13.624 11.052">
  <g id="Twitter" transform="translate(-6943.754 -5686.598)">
    <path id="Path_2" data-name="Path 2" d="M6948.068,5697.648a7.875,7.875,0,0,0,7.947-7.8v-.522a6.127,6.127,0,0,0,1.362-1.437,6.216,6.216,0,0,1-1.591.454,2.94,2.94,0,0,0,1.212-1.514,6.977,6.977,0,0,1-1.74.681,2.706,2.706,0,0,0-2.044-.907,2.844,2.844,0,0,0-2.8,2.8,1.48,1.48,0,0,0,.076.605,7.825,7.825,0,0,1-5.753-2.952,2.905,2.905,0,0,0-.378,1.439,3.006,3.006,0,0,0,1.211,2.346,2.553,2.553,0,0,1-1.287-.378h0a2.768,2.768,0,0,0,2.271,2.726,2.38,2.38,0,0,1-.757.075,1.308,1.308,0,0,1-.53-.075,2.867,2.867,0,0,0,2.649,1.967,5.709,5.709,0,0,1-3.481,1.211,2.059,2.059,0,0,1-.682-.076,7.141,7.141,0,0,0,4.314,1.363" transform="translate(0 0)" fill="#fff" fill-rule="evenodd"/>
  </g>
</svg>
