<?xml version="1.0" standalone="no"?>
<!DOCTYPE svg PUBLIC "-//W3C//DTD SVG 20010904//EN"
 "http://www.w3.org/TR/2001/REC-SVG-20010904/DTD/svg10.dtd">
<svg version="1.0" xmlns="http://www.w3.org/2000/svg"
 width="260.000000pt" height="260.000000pt" viewBox="0 0 260.000000 260.000000"
 preserveAspectRatio="xMidYMid meet">
<metadata>
Created by potrace 1.14, written by Peter Selinger 2001-2017
</metadata>
<g transform="translate(0.000000,260.000000) scale(0.100000,-0.100000)"
fill="#000000" stroke="none">
<path d="M0 1377 l0 -732 93 93 93 93 0 530 c-1 291 2 537 5 546 5 15 94 16
1042 16 l1037 -1 90 89 c50 49 90 91 90 93 0 3 -551 5 -1225 5 l-1225 0 0
-732z"/>
<path d="M2505 1830 l-90 -90 0 -528 -1 -527 -1046 -3 -1046 -2 -91 -90 c-50
-50 -91 -92 -91 -93 0 -1 552 -2 1228 -2 l1227 0 3 358 c1 196 1 517 0 712
l-3 355 -90 -90z"/>
<path d="M781 1774 c-259 -53 -396 -357 -290 -641 45 -120 151 -211 277 -239
129 -29 226 -7 308 68 l44 41 2 -34 c0 -19 1 -41 2 -49 1 -12 18 -16 79 -18
l77 -3 -2 233 -3 233 -173 0 c-96 0 -176 -4 -179 -9 -8 -12 -10 -125 -3 -137
4 -5 39 -10 79 -11 40 -1 74 -5 77 -10 7 -10 -30 -80 -54 -101 -46 -41 -161
-54 -219 -23 -78 40 -124 131 -126 245 -1 94 7 134 39 189 79 134 287 129 337
-9 4 -13 23 -16 107 -17 l102 0 -5 35 c-14 83 -88 183 -164 221 -88 44 -207
57 -312 36z"/>
<path d="M1629 1707 c-175 -50 -279 -200 -279 -405 0 -243 141 -404 365 -417
249 -16 425 156 426 414 1 180 -83 322 -228 388 -68 31 -209 41 -284 20z m220
-181 c105 -73 122 -320 28 -422 -38 -42 -96 -64 -151 -57 -118 13 -178 107
-173 270 3 78 7 96 34 143 57 101 170 130 262 66z"/>
</g>
</svg>
