<svg xmlns="http://www.w3.org/2000/svg" width="12.188" height="15" viewBox="0 0 12.188 15">
  <g id="AreaIcon_Blue_" data-name="AreaIcon(Blue)" transform="translate(-97.209 -1029.458)">
    <path id="Path_114" data-name="Path 114" d="M103.27,1038.383a2.594,2.594,0,0,0,2.58-2.608v-.01a2.676,2.676,0,0,0-2.58-2.71,2.593,2.593,0,0,0-2.581,2.607v.01A2.74,2.74,0,0,0,103.27,1038.383Zm-4.333-7.1a6.067,6.067,0,0,1,8.664,0,6.276,6.276,0,0,1,0,8.787l-4.332,4.393-4.333-4.393A6.448,6.448,0,0,1,98.937,1031.278Z" transform="translate(0 0)" fill="#0e64b0" fill-rule="evenodd"/>
  </g>
</svg>
