<svg xmlns="http://www.w3.org/2000/svg" width="16.5" height="16.5" viewBox="0 0 16.5 16.5">
  <g id="AudienceIcon" transform="translate(-264.75 -661.75)">
    <g id="Group_2472" data-name="Group 2472" transform="translate(-616.374 -527.552)">
      <g id="Profile" transform="translate(885.374 1189.552)">
        <path id="Union_1" data-name="Union 1" d="M885.374,1197.552v-1c0-1.1,1.8-2,4-2s4,.9,4,2v1Zm2-6a2,2,0,1,1,2,2A2,2,0,0,1,887.374,1191.552Z" transform="translate(-885.374 -1189.552)" fill="#0064b0" stroke="#fff" stroke-width="0.5"/>
      </g>
    </g>
    <g id="Group_2473" data-name="Group 2473" transform="translate(-620.374 -519.552)">
      <g id="Profile-2" data-name="Profile" transform="translate(885.374 1189.552)">
        <path id="Union_1-2" data-name="Union 1" d="M885.374,1197.552v-1c0-1.1,1.8-2,4-2s4,.9,4,2v1Zm2-6a2,2,0,1,1,2,2A2,2,0,0,1,887.374,1191.552Z" transform="translate(-885.374 -1189.552)" fill="#0064b0" stroke="#fff" stroke-width="0.5"/>
      </g>
    </g>
    <g id="Group_2474" data-name="Group 2474" transform="translate(-612.374 -519.552)">
      <g id="Profile-3" data-name="Profile" transform="translate(885.374 1189.552)">
        <path id="Union_1-3" data-name="Union 1" d="M885.374,1197.552v-1c0-1.1,1.8-2,4-2s4,.9,4,2v1Zm2-6a2,2,0,1,1,2,2A2,2,0,0,1,887.374,1191.552Z" transform="translate(-885.374 -1189.552)" fill="#0064b0" stroke="#fff" stroke-width="0.5"/>
      </g>
    </g>
  </g>
</svg>
