<svg xmlns="http://www.w3.org/2000/svg" xmlns:xlink="http://www.w3.org/1999/xlink" width="72" height="56" viewBox="0 0 72 56">
  <defs>
    <clipPath id="clip-CfEIcon">
      <rect width="72" height="56"/>
    </clipPath>
  </defs>
  <g id="CfEIcon" clip-path="url(#clip-CfEIcon)">
    <g id="Group_9016" data-name="Group 9016" transform="translate(7)">
      <path id="Path_83268" data-name="Path 83268" d="M483.185,20.961l-3.707-18A3.714,3.714,0,0,0,475.1.077l-18,3.707a3.714,3.714,0,0,0-2.885,4.382l3.708,18a3.714,3.714,0,0,0,4.382,2.885l18-3.708a3.713,3.713,0,0,0,2.885-4.382m-3.237,2.672-18,3.707a1.966,1.966,0,0,1-2.32-1.528l-3.708-18a1.966,1.966,0,0,1,1.528-2.32l18-3.708a1.966,1.966,0,0,1,2.32,1.528l3.708,18a1.967,1.967,0,0,1-1.528,2.32" transform="translate(-442.901 0)" fill="#00854b"/>
      <path id="Path_83269" data-name="Path 83269" d="M848.5,295.4a1.3,1.3,0,0,0-.148-.393l-8.115-11.92a.94.94,0,0,0-.464-.417,1.04,1.04,0,0,0-.612-.052.88.88,0,0,0-.581.264,1.218,1.218,0,0,0-.309.609l-2.73,14.332a2.736,2.736,0,0,0,.028.351.883.883,0,0,0,.367.593,1.059,1.059,0,0,0,1.242-.189.962.962,0,0,0,.251-.564l.652-3.432,6.6-1.36,1.972,2.869a1.306,1.306,0,0,0,.5.421.914.914,0,0,0,.582.069.988.988,0,0,0,.759-1.181m-10.006-2.93,1.247-6.5,3.733,5.47Z" transform="translate(-814.872 -275.603)" fill="#00854b"/>
      <path id="Path_83270" data-name="Path 83270" d="M22.087,1221.06H3.71A3.714,3.714,0,0,0,0,1224.77v18.377a3.714,3.714,0,0,0,3.71,3.71H22.087a3.714,3.714,0,0,0,3.71-3.71V1224.77a3.714,3.714,0,0,0-3.71-3.71m1.964,22.087a1.966,1.966,0,0,1-1.964,1.964H3.71a1.966,1.966,0,0,1-1.964-1.964V1224.77a1.966,1.966,0,0,1,1.964-1.964H22.087a1.966,1.966,0,0,1,1.964,1.964Z" transform="translate(0 -1190.857)" fill="#00854b"/>
      <path id="Path_83271" data-name="Path 83271" d="M299.714,1442.038a4.314,4.314,0,0,0-1.975-1.364,3.228,3.228,0,0,0,1.462-1.255,3.5,3.5,0,0,0,.5-1.866,3.723,3.723,0,0,0-1.037-2.837,4.235,4.235,0,0,0-3.022-.982h-5.608a1.043,1.043,0,0,0-1.047,1.047v13.181a1.043,1.043,0,0,0,1.047,1.047h5.608a5.634,5.634,0,0,0,3.437-1.036,4.012,4.012,0,0,0,1.408-3.459,3.794,3.794,0,0,0-.775-2.477m-8.5-6.252h4.124a2.162,2.162,0,0,1,1.56.535,2.442,2.442,0,0,1-.033,3.142,2.157,2.157,0,0,1-1.484.578h-4.168Zm6.329,10.595a2.836,2.836,0,0,1-1.92.622h-4.408v-4.91h4.3q2.75,0,2.75,2.422a2.331,2.331,0,0,1-.72,1.866" transform="translate(-281.84 -1398.27)" fill="#00854b"/>
      <path id="Path_83272" data-name="Path 83272" d="M1206.008,1081.266l-17.936-4a3.715,3.715,0,0,0-4.428,2.814l-4,17.937a3.714,3.714,0,0,0,2.814,4.428l17.937,4a3.714,3.714,0,0,0,4.428-2.814l4-17.937a3.714,3.714,0,0,0-2.814-4.428m1.11,4.048-4,17.937a1.966,1.966,0,0,1-2.344,1.49l-17.936-4a1.966,1.966,0,0,1-1.49-2.344l4-17.937a1.966,1.966,0,0,1,2.345-1.49l17.936,4a1.966,1.966,0,0,1,1.49,2.344" transform="translate(-1150.38 -1050.535)" fill="#00854b"/>
      <path id="Path_83273" data-name="Path 83273" d="M1534.439,1370.74a1.127,1.127,0,0,1-.412.646.85.85,0,0,1-.779.184,1.229,1.229,0,0,1-.542-.277,5.852,5.852,0,0,0-2.688-1.382,5.7,5.7,0,0,0-2.979.074,5.02,5.02,0,0,0-2.346,1.545,6.189,6.189,0,0,0-1.329,2.755,6.384,6.384,0,0,0,.024,3.2,4.91,4.91,0,0,0,1.5,2.381,5.847,5.847,0,0,0,2.62,1.288,5.578,5.578,0,0,0,3.025-.131,1.255,1.255,0,0,1,.582,0,.913.913,0,0,1,.665.529,1.1,1.1,0,0,1,.1.738.915.915,0,0,1-.245.448,1.006,1.006,0,0,1-.451.268,8.127,8.127,0,0,1-2.03.33,8.025,8.025,0,0,1-2.1-.176,8.213,8.213,0,0,1-3.6-1.763,7.1,7.1,0,0,1-2.176-3.28,8.076,8.076,0,0,1-.121-4.32,7.891,7.891,0,0,1,1.857-3.667,7.359,7.359,0,0,1,3.334-2.119,8.187,8.187,0,0,1,7.757,1.762.931.931,0,0,1,.321.966" transform="translate(-1483.315 -1333.846)" fill="#00854b"/>
    </g>
  </g>
</svg>
