<?xml version="1.0" encoding="utf-8"?>
<!-- Generator: Adobe Illustrator 25.0.0, SVG Export Plug-In . SVG Version: 6.00 Build 0)  -->
<svg version="1.1" id="Layer_1" xmlns="http://www.w3.org/2000/svg" xmlns:xlink="http://www.w3.org/1999/xlink" x="0px" y="0px"
	 viewBox="0 0 12 12" style="enable-background:new 0 0 12 12;" xml:space="preserve">
<style type="text/css">
	.st0{fill:#2476BC;}
	.st1{fill:none;stroke:#2476BC;stroke-width:1.2;stroke-linecap:square;stroke-linejoin:bevel;stroke-miterlimit:10;}
	.st2{fill:#FFFFFF;}
</style>
<g>
	<polygon class="st0" points="1.2,22.6 10.8,22.6 10.8,19.9 12,19.9 12,24 0,24 0,19.9 1.2,19.9 	"/>
	<polygon class="st0" points="2.2,16.4 3.2,15.3 5.4,17.8 5.4,12 6.8,12 6.8,18 9,15.3 9.9,16.4 6.2,20.7 	"/>
</g>
<g id="Export_4_" transform="translate(0 74)">
	<path id="Path_151_4_" class="st0" d="M13.4-72.8v9.5h6.8v1.2H12v-12h8.2v1.2H13.4z M19.7-64.1l-1.1-1l2.5-2.2h-5.8v-1.4h6
		l-2.7-2.2l1.1-1l4.3,3.7L19.7-64.1z"/>
</g>
<path id="Path_110_3_" class="st0" d="M-5,8.6l1.3-1.2c0.1-0.1,0.2-0.1,0.3-0.1l0.2,0.1l3,1.4C0,8.9,0,9,0,9.2
	c0,0.7-0.3,1.4-0.9,1.9C-1.5,11.7-2.3,12-3.1,12c-1,0-2.1-0.3-3-0.7c-1.1-0.6-2.1-1.3-3-2.1c-0.6-0.7-1.1-1.5-1.6-2.4
	c-0.4-0.8-0.8-1.5-1.1-2.4C-12,3.7-12,3-12,2.4c0.1-0.6,0.3-1.2,0.7-1.6C-10.7,0.3-10,0-9.2,0C-9,0-8.9,0.1-8.8,0.2l1.6,3
	c0,0.1,0,0.2,0.1,0.2c0,0.1,0,0.2-0.1,0.3L-8.6,5c-0.1,0.2-0.1,0.4,0,0.5c0.4,0.6,0.8,1.2,1.3,1.7c0.5,0.5,1.1,1,1.7,1.4
	C-5.4,8.8-5.1,8.8-5,8.6z"/>
<g id="Down_arrow_44_">
	<g>
		<path id="Path_10_8_" class="st0" d="M3-6.8l4.1-4.1L6-12L0-6l6,6l1.1-1.1L3-5.2h9v-1.6"/>
	</g>
</g>
<g>
	<g id="Information_6_" transform="translate(0 28)">
		<path id="Union_6_6_" class="st0" d="M-7.4-30.4v-0.9h0.9v-3.6h-0.9v-0.9h1.8v4.6h0.9v0.9H-7.4z M-6.9-37c0-0.4,0.3-0.7,0.7-0.7
			c0.4,0,0.7,0.3,0.7,0.7c0,0.4-0.3,0.7-0.7,0.7C-6.6-36.3-6.9-36.6-6.9-37z"/>
	</g>
	<circle class="st1" cx="-6" cy="-6" r="5.4"/>
</g>
<g id="Forward_arrow_small_18_">
	<path id="Path_36_18_" class="st2" d="M6,2.1l6,6l-1.8,1.8L6,5.7L1.8,9.9L0,8.1L6,2.1z"/>
</g>
</svg>
