<svg id="Group_2441" data-name="Group 2441" xmlns="http://www.w3.org/2000/svg" xmlns:xlink="http://www.w3.org/1999/xlink" width="23.356" height="36" viewBox="0 0 23.356 36">
  <defs>
    <clipPath id="clip-path">
      <rect id="Rectangle_1409" data-name="Rectangle 1409" width="23.356" height="36" fill="none"/>
    </clipPath>
  </defs>
  <g id="Group_2440" data-name="Group 2440" clip-path="url(#clip-path)">
    <path id="Path_2458" data-name="Path 2458" d="M54.682,184.914h4.205a.475.475,0,0,0,.473-.473v-5a.475.475,0,0,0-.473-.474H54.682a.475.475,0,0,0-.474.474v5a.475.475,0,0,0,.474.473" transform="translate(-45.106 -148.914)" fill="#571c00" fill-rule="evenodd"/>
    <path id="Path_2459" data-name="Path 2459" d="M59.36,181.964v-2.527a.475.475,0,0,0-.473-.474H54.682a.475.475,0,0,0-.474.474v2.527Z" transform="translate(-45.106 -148.914)" fill="#482511" fill-rule="evenodd"/>
    <path id="Path_2460" data-name="Path 2460" d="M54.682,184.914h2.1v-5.951h-2.1a.475.475,0,0,0-.474.474v5a.475.475,0,0,0,.474.473" transform="translate(-45.106 -148.914)" fill="#8a4422" fill-rule="evenodd"/>
    <path id="Path_2461" data-name="Path 2461" d="M56.783,181.964v-3h-2.1a.475.475,0,0,0-.473.474v2.527Z" transform="translate(-45.105 -148.914)" fill="#7b3f20" fill-rule="evenodd"/>
    <path id="Path_2462" data-name="Path 2462" d="M57.442,0l.716,1.632,1.727.143L58.555,2.961l.4,1.687-1.539-.9-1.481.9.38-1.741L55,1.775,56.772,1.6Z" transform="translate(-45.764 0)" fill="#eda717" fill-rule="evenodd"/>
    <path id="Path_2463" data-name="Path 2463" d="M57.443,3.766l-.029-.017-1.481.9.38-1.741L55,1.777,56.773,1.6l.67-1.6Z" transform="translate(-45.764 -0.001)" fill="#feb713" fill-rule="evenodd"/>
    <path id="Path_2464" data-name="Path 2464" d="M11.678,73l3.273,5.669H8.4Zm7.485,12.965,4.193,7.262H0l4.193-7.262h14.97Z" transform="translate(0 -60.739)" fill="#4e8600" fill-rule="evenodd"/>
    <path id="Path_2465" data-name="Path 2465" d="M38.5,150.839h-15.7l.364-.63H38.14Z" transform="translate(-18.977 -124.988)" fill="#3b7908" fill-rule="evenodd"/>
    <path id="Path_2466" data-name="Path 2466" d="M11.678,78.665H8.4L11.678,73Zm0,14.558V85.961H4.193L0,93.223Z" transform="translate(0 -60.739)" fill="#5c9a00" fill-rule="evenodd"/>
    <path id="Path_2467" data-name="Path 2467" d="M30.654,150.839H22.805l.364-.63h7.485Z" transform="translate(-18.976 -124.988)" fill="#458708" fill-rule="evenodd"/>
    <path id="Path_2468" data-name="Path 2468" d="M31.3,27.132l3.86,6.685,3.86,6.685H23.577l3.86-6.685Z" transform="translate(-19.618 -22.576)" fill="#77a700" fill-rule="evenodd"/>
    <path id="Path_2469" data-name="Path 2469" d="M31.3,40.5H23.576l3.86-6.685,3.86-6.685Z" transform="translate(-19.618 -22.576)" fill="#9fbf00" fill-rule="evenodd"/>
    <path id="Path_2470" data-name="Path 2470" d="M26.827,106.761l4.212,7.3H11.567l4.212-7.3H26.827Z" transform="translate(-9.625 -88.835)" fill="#629700" fill-rule="evenodd"/>
    <path id="Path_2471" data-name="Path 2471" d="M45.922,106.761l.359.621H34.516l.359-.621H45.922Z" transform="translate(-28.72 -88.835)" fill="#4a8408" fill-rule="evenodd"/>
    <path id="Path_2472" data-name="Path 2472" d="M21.3,114.057H11.567l4.212-7.3H21.3Z" transform="translate(-9.625 -88.835)" fill="#72af00" fill-rule="evenodd"/>
    <path id="Path_2473" data-name="Path 2473" d="M34.516,107.382l.359-.621H40.4v.621Z" transform="translate(-28.721 -88.835)" fill="#569608" fill-rule="evenodd"/>
    <path id="Path_2474" data-name="Path 2474" d="M43.71,87.152a.514.514,0,1,1-.514.514.514.514,0,0,1,.514-.514" transform="translate(-35.943 -72.518)" fill="#ccc" fill-rule="evenodd"/>
    <path id="Path_2475" data-name="Path 2475" d="M54.585,80.465a.514.514,0,1,1-.514.514.514.514,0,0,1,.514-.514" transform="translate(-44.992 -66.954)" fill="#ccc" fill-rule="evenodd"/>
    <path id="Path_2476" data-name="Path 2476" d="M65.46,73.777a.514.514,0,1,1-.514.514.514.514,0,0,1,.514-.514" transform="translate(-54.041 -61.389)" fill="#ccc" fill-rule="evenodd"/>
    <path id="Path_2477" data-name="Path 2477" d="M76.335,67.09a.514.514,0,1,1-.514.514.514.514,0,0,1,.514-.514" transform="translate(-63.09 -55.825)" fill="#ccc" fill-rule="evenodd"/>
    <path id="Path_2478" data-name="Path 2478" d="M43.71,87.152a.514.514,0,1,1-.514.514.514.514,0,0,1,.514-.514" transform="translate(-35.943 -72.518)" fill="#fff" fill-rule="evenodd"/>
    <path id="Path_2479" data-name="Path 2479" d="M54.585,80.465a.514.514,0,1,1-.514.514.514.514,0,0,1,.514-.514" transform="translate(-44.992 -66.954)" fill="#fff" fill-rule="evenodd"/>
    <path id="Path_2480" data-name="Path 2480" d="M65.46,73.777a.51.51,0,0,1,.259.07v.889a.514.514,0,1,1-.259-.959" transform="translate(-54.041 -61.389)" fill="#fff" fill-rule="evenodd"/>
    <path id="Path_2481" data-name="Path 2481" d="M32.486,138.469a.514.514,0,1,1-.6.409.514.514,0,0,1,.6-.409" transform="translate(-26.523 -115.211)" fill="#ccc" fill-rule="evenodd"/>
    <path id="Path_2482" data-name="Path 2482" d="M44.423,133.942a.514.514,0,1,1-.6.409.514.514,0,0,1,.6-.409" transform="translate(-36.455 -111.444)" fill="#ccc" fill-rule="evenodd"/>
    <path id="Path_2483" data-name="Path 2483" d="M56.361,129.416a.514.514,0,1,1-.6.409.514.514,0,0,1,.6-.409" transform="translate(-46.389 -107.678)" fill="#ccc" fill-rule="evenodd"/>
    <path id="Path_2484" data-name="Path 2484" d="M68.3,124.889a.514.514,0,1,1-.6.409.514.514,0,0,1,.6-.409" transform="translate(-56.322 -103.912)" fill="#ccc" fill-rule="evenodd"/>
    <path id="Path_2485" data-name="Path 2485" d="M80.235,120.363a.514.514,0,1,1-.6.409.514.514,0,0,1,.6-.409" transform="translate(-66.254 -100.145)" fill="#ccc" fill-rule="evenodd"/>
    <path id="Path_2486" data-name="Path 2486" d="M92.173,115.836a.514.514,0,1,1-.6.409.515.515,0,0,1,.6-.409" transform="translate(-76.188 -96.379)" fill="#ccc" fill-rule="evenodd"/>
    <path id="Path_2487" data-name="Path 2487" d="M32.485,138.468a.514.514,0,1,1-.6.409.514.514,0,0,1,.6-.409" transform="translate(-26.522 -115.211)" fill="#fff" fill-rule="evenodd"/>
    <path id="Path_2488" data-name="Path 2488" d="M44.423,133.942a.514.514,0,1,1-.6.409.514.514,0,0,1,.6-.409" transform="translate(-36.456 -111.444)" fill="#fff" fill-rule="evenodd"/>
    <path id="Path_2489" data-name="Path 2489" d="M56.36,129.416a.514.514,0,1,1-.6.409.514.514,0,0,1,.6-.409" transform="translate(-46.389 -107.678)" fill="#fff" fill-rule="evenodd"/>
    <path id="Path_2490" data-name="Path 2490" d="M68,126.071a.514.514,0,0,1,0-.946Z" transform="translate(-56.321 -104.116)" fill="#fff" fill-rule="evenodd"/>
    <path id="Path_2491" data-name="Path 2491" d="M20.43,179.768a.514.514,0,1,1-.62.38.514.514,0,0,1,.62-.38" transform="translate(-16.472 -149.572)" fill="#ccc" fill-rule="evenodd"/>
    <path id="Path_2492" data-name="Path 2492" d="M32.563,175.794a.514.514,0,1,1-.62.38.514.514,0,0,1,.62-.38" transform="translate(-26.568 -146.265)" fill="#ccc" fill-rule="evenodd"/>
    <path id="Path_2493" data-name="Path 2493" d="M44.7,171.821a.514.514,0,1,1-.62.38.514.514,0,0,1,.62-.38" transform="translate(-36.663 -142.959)" fill="#ccc" fill-rule="evenodd"/>
    <path id="Path_2494" data-name="Path 2494" d="M56.828,167.847a.514.514,0,1,1-.62.38.514.514,0,0,1,.62-.38" transform="translate(-46.759 -139.652)" fill="#ccc" fill-rule="evenodd"/>
    <path id="Path_2495" data-name="Path 2495" d="M68.96,163.872a.514.514,0,1,1-.62.381.514.514,0,0,1,.62-.381" transform="translate(-56.854 -136.345)" fill="#ccc" fill-rule="evenodd"/>
    <path id="Path_2496" data-name="Path 2496" d="M81.093,159.9a.514.514,0,1,1-.62.38.514.514,0,0,1,.62-.38" transform="translate(-66.949 -133.039)" fill="#ccc" fill-rule="evenodd"/>
    <path id="Path_2497" data-name="Path 2497" d="M93.225,155.924a.514.514,0,1,1-.62.38.514.514,0,0,1,.62-.38" transform="translate(-77.044 -129.732)" fill="#ccc" fill-rule="evenodd"/>
    <path id="Path_2498" data-name="Path 2498" d="M20.43,179.768a.514.514,0,1,1-.62.38.514.514,0,0,1,.62-.38" transform="translate(-16.472 -149.572)" fill="#fff" fill-rule="evenodd"/>
    <path id="Path_2499" data-name="Path 2499" d="M32.563,175.794a.514.514,0,1,1-.62.38.514.514,0,0,1,.62-.38" transform="translate(-26.568 -146.265)" fill="#fff" fill-rule="evenodd"/>
    <path id="Path_2500" data-name="Path 2500" d="M44.7,171.821a.514.514,0,1,1-.62.38.514.514,0,0,1,.62-.38" transform="translate(-36.663 -142.959)" fill="#fff" fill-rule="evenodd"/>
    <path id="Path_2501" data-name="Path 2501" d="M56.828,167.846a.514.514,0,1,1-.62.38.514.514,0,0,1,.62-.38" transform="translate(-46.759 -139.652)" fill="#fff" fill-rule="evenodd"/>
    <path id="Path_2502" data-name="Path 2502" d="M68.532,165.3v-.822a.514.514,0,0,0,0,.822" transform="translate(-56.854 -136.857)" fill="#fff" fill-rule="evenodd"/>
    <path id="Path_2503" data-name="Path 2503" d="M95.02,128.535a.922.922,0,1,1-.922.922.922.922,0,0,1,.922-.922" transform="translate(-78.298 -106.953)" fill="#4a8408" fill-rule="evenodd"/>
    <path id="Path_2504" data-name="Path 2504" d="M94.132,127.9a.922.922,0,1,1-.922.922.922.922,0,0,1,.922-.922" transform="translate(-77.559 -106.425)" fill="#d22520" fill-rule="evenodd"/>
    <path id="Path_2505" data-name="Path 2505" d="M42.358,115.346a.936.936,0,1,1-.936.936.936.936,0,0,1,.936-.936" transform="translate(-34.467 -95.978)" fill="#569608" fill-rule="evenodd"/>
    <path id="Path_2506" data-name="Path 2506" d="M41.631,114.483a.936.936,0,1,1-.936.936.936.936,0,0,1,.936-.936" transform="translate(-33.862 -95.26)" fill="#feb713" fill-rule="evenodd"/>
    <path id="Path_2507" data-name="Path 2507" d="M82.462,86.294a.948.948,0,1,1-.948.948.947.947,0,0,1,.948-.948" transform="translate(-67.827 -71.805)" fill="#6b9600" fill-rule="evenodd"/>
    <path id="Path_2508" data-name="Path 2508" d="M81.878,85.592a.948.948,0,1,1-.947.948.948.948,0,0,1,.947-.948" transform="translate(-67.341 -71.22)" fill="#6dc5ca" fill-rule="evenodd"/>
    <path id="Path_2509" data-name="Path 2509" d="M27.8,158.184a.948.948,0,1,1-.948.947.947.947,0,0,1,.948-.947" transform="translate(-22.344 -131.624)" fill="#458708" fill-rule="evenodd"/>
    <path id="Path_2510" data-name="Path 2510" d="M27.216,157.483a.948.948,0,1,1-.948.948.948.948,0,0,1,.948-.948" transform="translate(-21.857 -131.04)" fill="#6dc5ca" fill-rule="evenodd"/>
    <path id="Path_2511" data-name="Path 2511" d="M106.708,171.446a.936.936,0,1,1-.936.936.936.936,0,0,1,.936-.936" transform="translate(-88.012 -142.659)" fill="#3b7908" fill-rule="evenodd"/>
    <path id="Path_2512" data-name="Path 2512" d="M105.981,170.583a.936.936,0,1,1-.936.936.936.936,0,0,1,.936-.936" transform="translate(-87.407 -141.941)" fill="#feb713" fill-rule="evenodd"/>
  </g>
</svg>
