<?xml version="1.0" encoding="utf-8"?>
<!-- Generator: Adobe Illustrator 25.0.0, SVG Export Plug-In . SVG Version: 6.00 Build 0)  -->
<svg version="1.1" id="Layer_1" xmlns="http://www.w3.org/2000/svg" xmlns:xlink="http://www.w3.org/1999/xlink" x="0px" y="0px"
	 viewBox="0 0 72.5 72.5" style="enable-background:new 0 0 72.5 72.5;" xml:space="preserve">
<style type="text/css">
	.st0{fill:#00844B;}
	.st1{fill-rule:evenodd;clip-rule:evenodd;fill:#00844B;}
	.st2{fill:#00844B;stroke:#00844B;stroke-width:0.8439;stroke-miterlimit:10;}
	.st3{fill-rule:evenodd;clip-rule:evenodd;fill:#00844B;stroke:#00844B;stroke-width:0.8439;stroke-miterlimit:10;}
	.st4{fill-rule:evenodd;clip-rule:evenodd;fill:#00844B;stroke:#00844B;stroke-width:0.211;stroke-miterlimit:10;}
	.st5{enable-background:new    ;}
	.st6{fill:#00844B;stroke:#00844B;stroke-width:0.211;stroke-miterlimit:10;}
</style>
<g>
	<path class="st0" d="M-84.3,15.6c-0.6,0-1-0.5-1-1c0-0.6,0.5-1,1-1c0.6,0,1,0.5,1,1C-83.2,15.1-83.7,15.6-84.3,15.6z M-84.3,14.5
		L-84.3,14.5C-84.3,14.6-84.2,14.5-84.3,14.5L-84.3,14.5z"/>
	<path class="st0" d="M-79.4,15.6c-0.6,0-1-0.5-1-1c0-0.6,0.5-1,1-1c0.6,0,1,0.5,1,1C-78.3,15.1-78.8,15.6-79.4,15.6z M-79.4,14.5
		L-79.4,14.5C-79.3,14.6-79.3,14.5-79.4,14.5L-79.4,14.5z"/>
	<path class="st0" d="M-74.4,15.6c-0.6,0-1-0.5-1-1c0-0.6,0.5-1,1-1s1,0.5,1,1C-73.4,15.1-73.8,15.6-74.4,15.6z M-74.5,14.5
		L-74.5,14.5C-74.4,14.6-74.4,14.5-74.5,14.5L-74.5,14.5z"/>
	<path class="st0" d="M-73.3,30.8h-13.2c-0.5,0-1-0.4-1-1c0-0.5,0.4-1,1-1h13.2c0.5,0,1,0.4,1,1C-72.4,30.4-72.8,30.8-73.3,30.8z"/>
	<path class="st0" d="M-73.3,36.3h-13.2c-0.5,0-1-0.4-1-1s0.4-1,1-1h13.2c0.5,0,1,0.4,1,1S-72.8,36.3-73.3,36.3z"/>
	<path class="st0" d="M-73.3,41.8h-13.2c-0.5,0-1-0.4-1-1s0.4-1,1-1h13.2c0.5,0,1,0.4,1,1S-72.8,41.8-73.3,41.8z"/>
	<g>
		<path class="st0" d="M-49.2,8h-35.1c-5.4,0-9.8,4.4-9.8,9.8V19v2v29.7c0,5.4,4.4,9.8,9.8,9.8h35.1c5.4,0,9.8-4.4,9.8-9.8V21v-2
			v-1.2C-39.4,12.4-43.8,8-49.2,8z M-41.4,50.7c0,4.3-3.5,7.8-7.8,7.8h-35.1c-4.3,0-7.8-3.5-7.8-7.8V21h50.6V50.7z M-92.1,19v-1.2
			c0-4.3,3.5-7.8,7.8-7.8h35.1c4.3,0,7.8,3.5,7.8,7.8V19H-92.1z"/>
		<path class="st0" d="M-67.8,26.7v15.2H-46V26.7H-67.8z M-48,28.7v10.6l-4.5-7.2l-4.4,7.4l-4.3-5.2l-4.5,5.4v-11H-48z"/>
		<path class="st0" d="M-47,47.3h-39.5c-0.5,0-1-0.4-1-1s0.4-1,1-1H-47c0.5,0,1,0.4,1,1S-46.5,47.3-47,47.3z"/>
		<path class="st0" d="M-47,52.7h-39.5c-0.5,0-1-0.4-1-1s0.4-1,1-1H-47c0.5,0,1,0.4,1,1S-46.5,52.7-47,52.7z"/>
	</g>
</g>
<g>
	<path class="st1" d="M59,120.4h-9c-1.1,0-1.9,0.9-1.9,1.9v8.9c0,1.1,0.9,1.9,1.9,1.9h9c1.1,0,1.9-0.9,1.9-1.9v-8.9
		C60.9,121.3,60.1,120.4,59,120.4z M50.2,131.3h8.5v-8.7h-8.5V131.3z"/>
	<path class="st1" d="M59,104.9h-9c-1.1,0-1.9,0.9-1.9,1.9v8.9c0,1.1,0.9,1.9,1.9,1.9h9c1.1,0,1.9-0.9,1.9-1.9v-8.9
		C60.9,105.8,60.1,104.9,59,104.9z M50.2,115.8h8.5v-8.7h-8.5V115.8z"/>
	<path class="st1" d="M17,120.3H8c-1.1,0-1.9,0.9-1.9,1.9v8.9c0,1.1,0.9,1.9,1.9,1.9h9c1.1,0,1.9-0.9,1.9-1.9v-8.9
		C18.9,121.1,18.1,120.3,17,120.3z M8.2,131.1h8.5v-8.7H8.2V131.1z"/>
	<path class="st1" d="M17,104.9H8c-1.1,0-1.9,0.9-1.9,1.9v8.9c0,1.1,0.9,1.9,1.9,1.9h9c1.1,0,1.9-0.9,1.9-1.9v-8.9
		C18.9,105.8,18.1,104.9,17,104.9z M8.2,115.8h8.5v-8.7H8.2V115.8z"/>
	<path class="st1" d="M63.9,89c-0.2-0.4-0.6-0.6-1-0.6H40.8L35,82.5h-0.8c0.6-0.2-1.7,1.8-6.7,5.9h-22c-0.4,0-0.8,0.2-1,0.6
		l-6.1,12.6c-0.2,0.3-0.1,0.7,0.1,1.1c0.2,0.3,0.5,0.5,0.9,0.5H2V136c-0.1,0.2-0.1,0.3-0.1,0.5v4.3c0,0.7,0.6,1.3,1.5,1.3h61.7
		c0.8,0,1.5-0.6,1.5-1.3v-4.3c0-0.2,0-0.3-0.1-0.5v-32.8H69c0,0,0,0,0,0c0.6,0,1.1-0.5,1.1-1.1c0-0.2-0.1-0.5-0.2-0.7L63.9,89z
		 M34.2,84.7l11,11.1H45c-0.6,0-1.1,0.5-1.1,1.1v38.2h-5.5v-11.5c0-0.6-0.5-1.1-1.1-1.1h-6.1c-0.6,0-1.1,0.5-1.1,1.1v11.5H24V96.9
		c0-0.5-0.4-1-0.9-1.1L34.2,84.7z M32.3,135.2h3.9v-10.4h-3.9V135.2z M6.2,90.5h19.1l-5.6,5.6c-0.3,0.3-0.4,0.8-0.2,1.2
		c0.2,0.4,0.6,0.7,1,0.7h1.3v2.9H1.2L6.2,90.5z M4.9,103.1h16.9v32H4.2v-32H4.9z M64.4,139.9H4.1l0.1-2.2h60.3L64.4,139.9z
		 M46.1,135.2h18.2v-32H46.1V135.2z M65.4,101H46.1V98h1.7c0.4,0,0.8-0.3,1-0.7c0.2-0.4,0.1-0.9-0.2-1.2L43,90.5h19.3l5,10.4H65.4z"
		/>
	<path class="st1" d="M34.4,104.6c3.6,0,6.6-2.9,6.6-6.6c0-3.6-2.9-6.6-6.6-6.6c-3.6,0-6.6,2.9-6.6,6.6
		C27.8,101.7,30.7,104.6,34.4,104.6z M34.4,93.7c2.4,0,4.4,2,4.4,4.4c0,2.4-2,4.4-4.4,4.4c-2.4,0-4.4-2-4.4-4.4
		C30,95.6,32,93.7,34.4,93.7z"/>
	<path class="st1" d="M33.1,98.4c0.1,0.6,0.6,1.1,1.2,1.1c0.7,0,1.2-0.5,1.2-1.2c0,0,0,0,0,0l1.8-2.2c0.2-0.2,0.2-0.5,0-0.7
		c-0.2-0.2-0.5-0.2-0.7,0l-2.1,1.8c-0.2,0-0.3,0-0.5,0.1l-2-0.9c-0.3-0.1-0.6,0-0.7,0.2c-0.1,0.2-0.1,0.6,0.2,0.7L33.1,98.4"/>
</g>
<g>
	<path class="st0" d="M31.8-48.4L31-66.8c0-0.8,0.6-1.5,1.5-1.5H36c0.8,0,1.5,0.7,1.5,1.5l-0.8,18.4c0,0.8-0.7,1.4-1.5,1.4h-1.9
		C32.5-47,31.9-47.6,31.8-48.4z"/>
	<path class="st0" d="M30.8-39c0-2,1.5-3.4,3.5-3.4c2.1,0,3.5,1.4,3.5,3.4c0,1.9-1.4,3.4-3.5,3.4C32.2-35.6,30.8-37.1,30.8-39z"/>
	<path class="st2" d="M61.9-29.3H6.6c-1.3,0-2.5-0.7-3.1-1.8c-0.6-1.1-0.6-2.5,0-3.6l27.6-47.8c0.6-1.1,1.8-1.7,3.1-1.7
		c1.3,0,2.5,0.7,3.1,1.8L65-34.7c0.6,1.1,0.6,2.5,0,3.6C64.3-30,63.1-29.3,61.9-29.3z M34.3-82.2c-0.6,0-1.1,0.3-1.4,0.7L5.3-33.7
		c-0.3,0.5-0.3,1.1,0,1.6c0.3,0.5,0.8,0.8,1.4,0.8h55.2c0.6,0,1.1-0.3,1.4-0.8c0.3-0.5,0.3-1.1,0-1.6L35.6-81.5
		C35.4-81.9,34.8-82.2,34.3-82.2z"/>
</g>
<g>
	<path class="st3" d="M131.8,25.4h24.7c0.6,0,1.1-0.5,1.1-1.1s-0.5-1.1-1.1-1.1h-24.7c-0.6,0-1.1,0.5-1.1,1.1S131.2,25.4,131.8,25.4
		"/>
	<path class="st3" d="M149.3,65.4h-29.9c-2,0-3.6-1.6-3.6-3.6V18.6c0-2,1.6-3.6,3.6-3.6h1.8v-2.2h-1.8c-3.2,0-5.8,2.6-5.8,5.8v43.3
		c0,3.2,2.6,5.8,5.8,5.8h29.9c3.1,0,5.7-2.5,5.7-5.7h-2.2C152.8,63.8,151.3,65.4,149.3,65.4"/>
	<path class="st3" d="M161.1,8.6L161.1,8.6c-2.1-2.1-6-3.6-8.9-3.6h-23c-3.2,0-5.8,2.6-5.8,5.8v43.3c0,3.2,2.6,5.8,5.8,5.8H159
		c3.2,0,5.8-2.6,5.8-5.8V17.2C164.8,14.4,163.2,10.5,161.1,8.6z M159.6,10.1c0.7,0.7,1.4,1.7,1.9,2.8h-5.2V8.1
		C157.5,8.6,158.7,9.3,159.6,10.1L159.6,10.1z M162.6,53.9c0,2-1.6,3.6-3.6,3.6h-29.8c-2,0-3.6-1.6-3.6-3.6V10.7
		c0-2,1.6-3.6,3.6-3.6h23c0.6,0,1.2,0.1,1.9,0.2v6.7c0,0.6,0.5,1.1,1.1,1.1h7.1c0.2,0.7,0.3,1.4,0.3,2.1V53.9z"/>
	<path class="st3" d="M159.5,29.9h-30.7c-0.6,0-1.1,0.5-1.1,1.1c0,0.6,0.5,1.1,1.1,1.1h30.7c0.6,0,1.1-0.5,1.1-1.1
		C160.6,30.4,160.1,29.9,159.5,29.9"/>
	<path class="st3" d="M159.5,36.7h-30.7c-0.6,0-1.1,0.5-1.1,1.1c0,0.6,0.5,1.1,1.1,1.1h30.7c0.6,0,1.1-0.5,1.1-1.1
		C160.6,37.2,160.1,36.7,159.5,36.7"/>
</g>
<g>
	<path class="st0" d="M174-85.1c-13.8-0.5-28.3,2.8-33.8,7.9c-4.8-4.4-18.3-8.4-33.9-7.2c-1.3,0.1-2.4,1.2-2.4,2.5v46.6
		c0,0.7,0.3,1.4,0.8,1.9c0.5,0.5,1.2,0.7,1.9,0.7c16-1.2,26.8,1.3,31.5,7.4l0.1,0.1c0.2,0.2,0.4,0.4,0.7,0.5c0.1,0,0.1,0.1,0.2,0.1
		l0.2,0.1c0.3,0.1,0.5,0.1,0.8,0.1c0.3,0,0.6,0,0.9-0.2l0.1-0.1c0.1,0,0.1-0.1,0.3-0.1c0.3-0.1,0.5-0.3,0.6-0.5l0.1-0.2
		c4.5-5.9,15.4-8.7,31.5-8.1c0.7,0,1.4-0.2,1.9-0.7c0.5-0.5,0.8-1.2,0.8-1.8v-46.6C176.5-83.9,175.4-85.1,174-85.1z M173.9-35.9
		c-16.9-0.7-28.4,2.5-33.5,8.9l-0.1,0.1l0,0c0,0,0,0,0,0l0,0c0,0,0,0-0.1-0.1c-5.1-6.7-16.7-9.6-33.5-8.3c0,0,0,0-0.1,0
		c0,0,0-0.1,0-0.1v-46.6c0-0.1,0-0.1,0.1-0.1c15-1.2,27.7,2.5,32.1,6.6c0.2,0.2,0.4,0.4,0.7,0.7l0.9,1.1l0.9-1.1
		c0.2-0.2,0.4-0.4,0.6-0.6c4.9-4.7,18.7-7.9,32.2-7.4c0.1,0,0.1,0.1,0.1,0.1V-36C174-35.9,174-35.9,173.9-35.9L173.9-35.9z"/>
	<path class="st0" d="M142.4-73.4c-0.7,0.6-1.4,1.6-1.4,2.7v40.8l1.9-1.7c5.1-4.5,14.4-6.5,27.4-6.2l1.2,0v-42.3l-1.1,0
		C157.1-80.4,146-76.9,142.4-73.4z M170.3-39c-13.3-0.4-22.7,1.8-28.1,6.4v-38.1c0-0.5,0.4-1.2,1.1-1.8c3.3-3.2,13.3-6.4,25.6-6.4
		c0.5,0,1,0,1.5,0V-39z"/>
	<path class="st0" d="M138-73.5c-3.8-3.5-14.9-6.8-27.9-6l-1.1,0.1v42.3l1.2-0.1c12.9-0.8,22.1,1.1,27.4,5.6l1.9,1.7v-40.8
		C139.5-71.6,139-72.6,138-73.5z M138.3-32.6c-4.7-4-12.3-6-22.5-6c-1.8,0-3.7,0.1-5.6,0.2v-39.9c12.7-0.7,23.4,2.4,27,5.7
		c0.7,0.7,1.1,1.3,1.1,1.9V-32.6z"/>
</g>
<g>
	<path class="st4" d="M-30.8-31.9h-5.9v-13.8c0-3.3-2.6-6.1-6.3-7.8c0.1-0.3,0.2-0.6,0.4-0.9c0.2-0.5,0.2-0.8,0.2-0.8l0.2-1.1
		l-1.1-0.2c-4.2-0.6-4.2-5-3.5-12.2l0.1-0.9c0.1-0.6,0.2-1.1,0.2-1.7c0-0.2,0-0.4,0-0.5l0,0c0.2-3.8,0.2-7.7-1.8-10.3
		c-0.4-0.6-0.9-1.1-1.3-1.6c-0.6-1.4-1.8-2.7-3.4-3.5c-1.8-0.9-4-1.3-6.7-1.3c-5.6,0-10.5,3.4-12.1,8.3c-2.7,6.5-1.8,12.2-1.1,16.3
		c0.4,2.7,0.8,4.9-0.1,6c-0.5,0.7-1.6,1.2-3.2,1.4l-1.1,0.2l0.2,1.1c0,0,0.1,0.3,0.2,0.7c0.1,0.2,0.1,0.4,0.2,0.7
		c0,0.1,0.1,0.2,0.1,0.2c-3.7,1.8-6.3,4.5-6.3,7.8v13.8h-5.9c-0.6,0-1.1,0.5-1.1,1.1s0.5,1.1,1.1,1.1h7c0.6,0,1.1-0.5,1.1-1.1
		c0,0,0,0,0,0v-14.8c0-4.1,6.9-7.9,14.4-7.9c0.2,0,0.4,0,0.5-0.1c1.3-0.7,1.8-2.6,2.1-4.2l0-0.2c0,0,0-0.1,0-0.1l0.1-0.4
		c0.2-1,0.5-2.3,0.5-3.8c0-0.3-0.1-0.6-0.3-0.8c-0.3-0.3-0.7-0.6-1.1-1c-1-1-1.7-2.3-2-4.1c6.2-2.6,10.2-5.3,12.8-8.7
		c0.4,1.9,0.8,4.6,0.7,7.1c0,0,0,0.1,0,0.1c-0.3,2.6-1,4.3-2.3,5.6c-0.4,0.4-0.7,0.7-1,1c-0.2,0.2-0.3,0.5-0.3,0.8
		c0,1.5,0.3,2.9,0.5,3.9l0.1,0.7c0.2,1.1,0.6,3.3,2,4.1c0.2,0.1,0.3,0.1,0.5,0.1c7.5,0,14.4,3.8,14.4,7.9v14.8h0c0,0,0,0,0,0
		c0,0.6,0.5,1.1,1.1,1.1h7c0.6,0,1.1-0.5,1.1-1.1S-30.2-31.9-30.8-31.9z M-53.7-58.2c0-0.1,0-0.3-0.1-0.3l-0.1-0.5
		c-0.2-0.8-0.4-1.8-0.5-2.9c0.2-0.2,0.4-0.4,0.7-0.7c1.6-1.6,2.5-3.7,2.9-6.7c0-0.1,0-0.1,0-0.2c0.3-4.4-1-9.1-1.4-10.4
		c-0.1-0.4-0.5-0.7-0.9-0.8c-0.4,0-0.9,0.2-1.1,0.6c-2.3,4.2-6.5,7.3-13.9,10.3c-0.5,0.2-0.8,0.7-0.7,1.2c0.4,2.7,1.3,4.6,2.8,6.1
		c0.3,0.3,0.5,0.5,0.8,0.7c0,1-0.3,2-0.4,2.8l-0.1,0.5c0,0,0,0.1,0,0.1l0,0.1c-0.3,1.7-0.7,2.3-0.9,2.5c-2.7,0-5.5,0.6-8,1.5
		c0-0.1-0.1-0.1-0.1-0.2c1.6-0.4,2.7-1.1,3.4-2c1.4-1.9,1-4.5,0.5-7.7c-0.7-4.1-1.5-9.2,1-15.2c1.3-4.1,5.3-6.9,10.1-6.9
		c2.3,0,4.2,0.4,5.6,1.1c1.2,0.6,2.1,1.5,2.4,2.5l0.1,0.3l0.3,0.2c0.4,0.3,0.7,0.7,1.1,1.3c1.6,2.1,1.6,5.7,1.4,9l0,0.1l0,0.3
		c0,0.1,0,0.2,0,0.3c0,0.4-0.1,0.8-0.2,1.3l-0.1,1.1c-0.5,5.9-1.1,12.6,4.2,14.3c0,0.1-0.1,0.2-0.1,0.2c-2.5-0.9-5.2-1.4-7.9-1.4
		C-53.1-56-53.4-56.7-53.7-58.2z"/>
	<path class="st4" d="M-41.8-46H-78c-0.6,0-1.1,0.5-1.1,1.1V-20c0,0.6,0.5,1.1,1.1,1.1h36.2c0.6,0,1.1-0.5,1.1-1.1v-24.9
		C-40.7-45.5-41.2-46-41.8-46z M-76.9-21.1h34v-22.7h-34V-21.1z"/>
</g>
<g>
	<g>
		<g>
			<g class="st5">
				<g>
					<g>
						<path class="st6" d="M-38.9,139.5h-31.8c-3,0-5.4-2.4-5.4-5.4V92.4c0-3,2.4-5.4,5.4-5.4h31.8c3,0,5.4,2.4,5.4,5.4v41.7
							C-33.5,137-35.9,139.5-38.9,139.5z M-74,130.7v3.4c0,1.9,1.5,3.4,3.4,3.4h31.8c1.9,0,3.4-1.5,3.4-3.4v-3.4H-74z M-74,128.7
							h38.6v-32H-74V128.7z M-74,94.7h38.6v-2.3c0-1.9-1.5-3.4-3.4-3.4h-31.8c-1.9,0-3.4,1.5-3.4,3.4V94.7z M-54.8,135.4
							c-0.7,0-1.3-0.6-1.3-1.3c0-0.7,0.6-1.3,1.3-1.3s1.3,0.6,1.3,1.3C-53.5,134.8-54,135.4-54.8,135.4z M-54.8,133.4
							c-0.4,0-0.7,0.3-0.7,0.7c0,0.4,0.3,0.7,0.7,0.7s0.7-0.3,0.7-0.7C-54,133.7-54.3,133.4-54.8,133.4z"/>
					</g>
				</g>
			</g>
		</g>
	</g>
</g>
<g>
	<path class="st0" d="M71.4,40.8c-0.8-0.7-1.8-0.9-2.8-0.6c-0.3,0.1-0.6,0.2-0.9,0.3c-0.8,0.3-1.6,0.6-2.6,0.6
		c-1.3,0-3.1-0.5-4.1-1.7c-0.8-1-1.2-2.5-0.2-3.5c1.3-1.4,4.2-0.8,5.8-0.1c0.7,0.3,1.4,0.2,2-0.4c0.5-0.5,0.7-1.3,0.5-2
		c-0.2-0.5-0.5-0.8-0.9-0.9c-0.6-0.2-1.4,0-2.5,0.5c-1.4,0.8-2.8,1.1-4,0.9c-0.9-0.1-1.4-0.7-1.6-1.1c-0.4-0.8-0.3-1.9,0.1-2.7
		c0.9-1.7,3-2.1,4.1-2.2c0.7-0.1,1.4,0.1,2.1,0.2c1,0.2,2,0.4,2.9,0.1c1.5-0.5,2.3-2.1,1.7-3.6c-0.2-0.7-0.8-1.3-1.4-1.6
		c-0.7-0.3-1.5-0.4-2.2-0.1c-0.8,0.3-1.4,1-1.9,1.7c-0.1,0.1-0.2,0.3-0.3,0.4c-0.7,0.9-1.6,1.4-2.9,1.8c-1.8,0.6-3,0.4-4.3-0.6
		c-0.7-0.6-1.2-1.5-1.6-2.3c-0.1-0.1-0.1-0.2-0.2-0.4c-0.3-0.5-0.6-1-1-1.5c-0.3-0.4-0.7-0.9-0.9-1.4c-0.6-1-0.7-1.9-0.4-2.7
		c0.3-1,1.3-1.9,2.9-2.7c0.3-0.2,0.7-0.3,1.1-0.4c0.7-0.2,1.5-0.4,2-1c0.5-0.6,0.7-1.3,0.7-2.1c-0.1-0.8-0.4-1.4-1-1.9
		c-0.6-0.5-1.3-0.7-2.1-0.7c-1.2,0.1-2.2,0.9-2.5,2.1c-0.1,0.4-0.2,0.8-0.2,1.1c-0.1,0.6-0.2,1.2-0.4,1.8l-0.1,0.2c-0.5,1-1,2-2,2.5
		c-1.2,0.6-2.5,0-3.7-0.6c-0.1-0.1-0.3-0.1-0.4-0.2c-0.5-0.3-1.1-0.5-1.6-0.7c-0.9-0.4-1.7-0.8-2.6-1.3c-2.6-1.6-1.5-5.2-1.1-6.2
		c0.2-0.5,0.6-1.3,1.1-1.9c0.2-0.2,0.4-0.4,0.6-0.6c0.4-0.3,0.7-0.7,1-1.2c0.5-1,0.2-2.3-0.6-3.1C44.3,0,43-0.2,41.9,0.2
		c-1.6,0.7-2,2.2-1.2,4.4c0.3,0.8,0.5,1.6,0.5,2.5c0,1.7-0.4,3.4-1.2,4.5c-0.7,1-2.3,1.6-3.5,1c-0.5-0.3-0.9-0.8-1.1-1.6
		c-0.2-0.8-0.2-1.5-0.1-2.2c0.1-0.4,0.3-0.7,0.4-1.1c0.2-0.4,0.4-0.8,0.5-1.2c0.1-0.7-0.3-1.5-0.9-1.9c-0.7-0.3-1.5-0.2-2.1,0.3
		c-0.6,0.5-0.8,1.3-0.5,2c0.1,0.4,0.4,0.7,0.6,1c0.2,0.3,0.4,0.5,0.5,0.8c0.6,1.4,0.3,3.1-0.7,4c-0.7,0.7-1.7,0.7-2.8,0.2
		c-2.5-1.3-2.4-4.8-1.8-7.5c0.2-1.1-0.2-2.2-1-2.9c-0.8-0.7-1.8-0.8-2.8-0.5c-1.4,0.5-2.1,2.2-1.7,3.6C23.3,6.5,24,7,24.6,7.5
		l0.2,0.1c1.8,1.5,2.6,3.4,2.4,5.6c-0.1,1.5-1.4,2.3-2.7,3l-0.1,0.1c-0.5,0.3-1.1,0.7-1.5,1.1c-0.6,0.5-1.3,1-2,1.4
		c-1.3,0.6-2.7,0.4-4-0.5c-1-0.7-2.5-2.2-3.2-3.3c-0.2-0.4-0.4-0.9-0.5-1.4c-0.2-0.6-0.3-1.2-0.7-1.7c-0.7-0.9-1.8-1.2-2.9-0.9
		c-1.1,0.3-1.9,1.2-2.1,2.3c-0.1,0.9,0.2,1.9,1,2.5c0.5,0.5,1.1,0.5,1.7,0.6c0.2,0,0.3,0,0.5,0.1c0.8,0.1,1.6,0.4,2.3,0.8
		c1.4,0.7,3.7,2.5,4.1,4.2c0.3,1.2-0.3,2.9-1.3,3.4c-1.4,0.8-2.9-1-3.8-2.1c-0.1-0.1-0.2-0.3-0.3-0.4c-0.7-0.8-1.8-1-2.6-0.3
		c-0.6,0.5-0.8,1.3-0.6,2c0.4,1.3,1.6,1.3,2.6,1.3c1.2,0,1.9,0.2,2.8,1c0.7,0.6,0.7,1.3,0.6,1.8c-0.2,0.9-0.9,1.9-1.9,2.2
		c-1.1,0.4-2.3,0.3-3.4,0c-1.2-0.2-2.2-0.6-3-1.2c-0.3-0.2-0.6-0.5-0.8-0.8c-0.5-0.5-1-1-1.8-1.2c-0.9-0.2-1.8,0.1-2.5,0.8
		c-0.7,0.7-1,1.6-0.8,2.5c0.2,1.3,1.4,2.3,2.7,2.3c0,0,0,0,0.1,0c0.7,0,1.4-0.3,2-0.5c0.6-0.2,1.2-0.5,1.8-0.5
		c1.5-0.1,3.6,0.2,4.9,1.2c0.8,0.5,1.2,1.5,1.2,2.6c0,1.2,0.1,2.4,0.2,3.6c0,0.3,0,0.6,0.1,0.8l0,0.2c0.1,1.1,0.2,2.1-0.5,3
		c-1.3,1.6-3.7,2.2-5.5,2c-0.4,0-0.8-0.1-1.1-0.2c-0.7-0.2-1.4-0.4-2.2-0.1c-1.1,0.4-1.9,1.4-1.9,2.6c0,0.9,0.4,1.8,1.2,2.4
		c0.8,0.6,1.7,0.7,2.6,0.4c0.8-0.3,1.3-0.9,1.7-1.5c0.2-0.3,0.4-0.6,0.7-0.8c1.2-1.3,3-2,4.6-2c0,0,0,0,0,0c1,0,2,0.4,2.6,1.1
		c0.5,0.5,0.7,1.1,0.6,1.7c-0.1,1-0.8,1.6-1.6,2.1c-1,0.7-2.2,0.9-3.4,1.2c-0.1,0-0.3,0.1-0.4,0.1c-0.6,0.1-1.1,0.6-1.3,1.2
		c-0.3,0.8,0.2,1.8,1,2.2c1.4,0.7,2.1-0.5,2.7-1.5l0,0c0.9-1.5,2.2-2.6,3.5-2.9c0.8-0.2,1.5,0,2,0.6c0.8,1,0.8,2.8,0.3,3.9
		c-1.1,2.1-3.2,3.9-5.1,4.5c-1.3,0.4-2.6,0.9-2.8,2.4c-0.2,1.1,0.3,2.3,1.3,2.9c0.8,0.5,2,0.6,2.9,0.1c1.1-0.6,1.3-1.7,1.5-2.8
		c0.1-0.4,0.2-0.9,0.3-1.2c0.3-1,0.9-2,1.7-2.9c0.7-0.8,3.2-3.4,5.5-1.9c1.1,0.7,1.1,1.9,0.8,2.9c-0.4,1.1-1.1,1.8-2.2,2.6
		c-1,0.8-1.3,1.7-0.8,2.5c0.3,0.4,0.7,0.8,1.2,0.9c0.5,0.1,1,0,1.4-0.2c0.9-0.6,0.9-1.5,0.8-2.4c0-0.4-0.1-0.9,0-1.3
		c0.2-1,1-2.9,2.5-2.9c0,0,0,0,0.1,0c2,0,2.8,1.8,2.9,3.4c0.1,1.9-0.7,3.7-2.4,5.6c-1.2,1.3-0.8,2.9,0,3.9c0.5,0.6,1.2,1,2,1
		c0.5,0,1-0.2,1.5-0.5c1-0.7,1.5-2,1.1-3.3l-0.1-0.4c-0.5-1.7-0.9-3.1-0.5-5c0.6-2.6,2.5-3.2,5.2-3.2c0.5,0,1.1-0.1,1.7-0.1
		c1.2-0.2,2.5-0.3,3.6,0.2c1.6,0.7,2.5,3,2.5,4.9c0,0.5-0.1,1.1-0.2,1.7c-0.2,1.1-0.5,2.2,0.1,3.1c0.6,1,1.5,1.5,2.5,1.4
		c1.2-0.1,2.2-1,2.6-2.1c0.3-1,0.1-2-0.8-2.8c-0.3-0.2-0.5-0.4-0.8-0.6c-0.3-0.2-0.6-0.4-0.9-0.7c-1.3-1.4-1.9-3.2-1.8-5.1
		c0.1-1.2,1.1-2.4,2.3-2.6c1.2-0.3,1.6,0,2.2,0.9c0.5,0.8,0.6,1.5,0.7,2.2c0,0.3,0.1,0.6,0.1,0.9c0.1,0.5,0.4,1,0.9,1.3
		c0.5,0.3,1,0.3,1.5,0.1c0.7-0.3,1.2-0.9,1.2-1.6c0-0.8-0.5-1.6-1.3-1.9c-1.1-0.4-2.3-1.4-2.6-2.6c-0.1-0.6,0-1.2,0.5-1.7
		c0.7-0.8,2.1-1.2,3.1-0.9c1.6,0.5,3.1,1.7,4.4,3.6c0.3,0.5,0.6,1.1,0.8,1.8c0.4,1,0.7,2.1,1.6,2.7c1.2,0.8,2.8,0.5,3.7-0.5
		c0.9-1,0.9-2.6,0-3.6c-0.1-0.1-0.2-0.2-0.3-0.3c-0.7-0.5-1.5-0.7-2.3-0.8c-0.6-0.1-1.1-0.2-1.6-0.4c-0.9-0.4-1.8-1-2.6-1.8
		c-0.7-0.7-2.8-3-1.6-5.3c0.2-0.3,0.4-0.7,0.5-1c0.3-0.6,0.7-1.3,1-1.9c0.1-0.2,0.2-0.5,0.3-0.7c0.3-0.7,0.6-1.5,1.1-2.1
		c1-1.2,2.5-1.1,3.6-0.8c1.9,0.4,2.9,1.2,4.3,2.4c0.8,0.7,1.9,0.9,2.9,0.5c0.9-0.3,1.6-1.1,1.8-2.1C72.5,42.4,72.2,41.4,71.4,40.8z
		 M58.4,39.7c-0.3,0-0.6-0.3-0.7-0.8c-0.1-0.5,0.1-0.9,0.5-1c0.3,0,0.6,0.3,0.7,0.8C58.9,39.2,58.7,39.6,58.4,39.7z M55.9,30.5
		c-0.9-0.4-1.5-1.6-1.8-2.5c-0.2-0.7-0.5-2.2,0.4-2.6c0.9-0.4,1.8,0.8,2.2,1.5c0.4,0.7,0.6,1.5,0.7,2.2c0,0.5-0.2,1.1-0.6,1.3
		C56.5,30.6,56.3,30.6,55.9,30.5z M44.5,54.7c0-0.1-0.1-0.2-0.1-0.2c-0.1-0.4-0.1-0.8,0.1-1.1c0.4-0.9,1.2-1.7,2-2.2
		c0.9-0.6,2-1.1,3.1-1c0.9,0.1,1.3,0.8,1,1.7c-0.4,1.2-1.4,2.1-2.5,2.7C47.1,55,45.1,55.8,44.5,54.7z M33.5,20
		c1.5-0.6,4.6-0.5,5,1.6c0.5,2.9-4.4,3.6-6.1,2.5c-0.5-0.3-0.9-0.9-1-1.5c0-0.5,0.2-1,0.5-1.4C32.3,20.7,32.9,20.3,33.5,20z
		 M35.8,15c0.5-0.1,1,0.1,1,0.5c0,0.3-0.3,0.6-0.8,0.7c-0.5,0.1-1-0.1-1-0.5C34.9,15.4,35.3,15.1,35.8,15z M37,39.4
		c0.9,0.2,1.7,0.8,2.1,1.5c0.8,1.6-0.1,3.3-1.6,4c-1.7,0.7-4.1-0.1-4.6-1.9c-0.1-0.4-0.1-0.7-0.1-1.1c0.1-0.7,0.4-1.4,1-1.9
		C34.6,39.3,35.9,39.1,37,39.4z M35.3,27.8c0.7-0.2,1.4,0.1,1.6,0.7c0.2,0.6-0.3,1.3-1,1.5c-0.7,0.2-1.4-0.1-1.6-0.7
		C34.2,28.7,34.6,28,35.3,27.8z M32,55.7c0.2-1.2,2.3-1.3,3.2-1.2c0.9,0.1,2.4,0.5,2.9,1.3c0.9,1.6-2.3,2-3.2,1.9
		c-0.9-0.1-1.9-0.4-2.5-1C32.1,56.5,31.9,56.1,32,55.7C32,55.8,32,55.7,32,55.7z M37.2,50.1c0-0.7,0.7-1.3,1.6-1.3
		c0.9,0,1.6,0.6,1.6,1.3s-0.7,1.3-1.6,1.3C37.9,51.4,37.2,50.8,37.2,50.1z M42.6,28c1.3-0.6,2.9,0.2,3.6,1.7
		c0.7,1.5,0.2,3.3-1.1,3.9c-1.3,0.6-2.9-0.2-3.6-1.7C40.8,30.3,41.3,28.6,42.6,28z M44.2,15.8c1.1,0.2,2.2,0.8,3.1,1.5
		c0.6,0.5,1.3,1.4,0.9,2.2c-0.5,1-2,0.8-2.8,0.6c-1.2-0.3-4.6-2-3.7-3.7C42.1,15.5,43.4,15.6,44.2,15.8z M49.5,25.3
		c-0.3,0.4-1.1,0.4-1.7,0c-0.6-0.5-0.8-1.2-0.5-1.6c0.3-0.4,1.1-0.4,1.7,0C49.6,24.1,49.8,24.9,49.5,25.3z M43.2,38.9
		c0.4-0.5,1.1-0.6,1.5-0.2c0.4,0.4,0.4,1.1,0,1.6c-0.4,0.5-1.1,0.6-1.5,0.2C42.7,40.1,42.7,39.4,43.2,38.9z M50.4,44
		c-0.8-0.2-1.3-1.2-1.4-2c-0.3-1.7,0.7-4.7,2.8-4.8c2.9-0.1,2.1,4.4,1,5.8C52.2,43.7,51.2,44.2,50.4,44z M53.3,47.5
		c0.3-0.4,0.8-0.6,1.1-0.4c0.3,0.2,0.4,0.7,0.1,1.1c-0.3,0.4-0.8,0.6-1.1,0.4C53.1,48.4,53.1,47.9,53.3,47.5z M26.5,17.4
		c0.5,0,0.8,0.2,0.9,0.4c0.5,0.8-1.1,2.6-1.7,3.1c-0.7,0.5-2.3,1.3-3.2,0.7c-0.4-0.3-0.5-0.8-0.3-1.3c0.3-0.8,1.1-1.5,1.7-2
		C24.7,17.8,25.6,17.3,26.5,17.4z M21.9,26.5c0.4,0.2,0.5,0.8,0.2,1.4c-0.3,0.6-0.8,0.9-1.2,0.7c-0.4-0.2-0.5-0.8-0.2-1.4
		C21,26.7,21.5,26.3,21.9,26.5z M21.7,44.4c0.3-0.3,0.8-0.5,1.3-0.6c1.3-0.1,2.7,0.7,3.6,1.6c1.6,1.6,2,3.8,0.9,4.9
		c-0.8,0.8-2,0.7-3,0.3C22.7,49.8,21,48,21.1,46C21.1,45.4,21.3,44.8,21.7,44.4z M26.7,39.3c0.3-0.1,0.6,0.1,0.8,0.5
		c0.1,0.4,0,0.8-0.3,0.9c-0.3,0.1-0.6-0.1-0.8-0.5C26.3,39.8,26.5,39.4,26.7,39.3z M26.8,54.9c0.1-0.3,0.6-0.3,1-0.1
		c0.4,0.2,0.7,0.6,0.6,0.9c-0.1,0.3-0.6,0.3-1,0.1C27,55.5,26.7,55.1,26.8,54.9z M25.3,32.7c-0.2-2.1,2-4.7,4.2-3.5c0,0,0,0,0.1,0
		c1.7,1,1.3,3.2,0.2,4.5C28.4,35.3,25.6,35.2,25.3,32.7z M16.2,43.9c-0.2-0.5-0.1-1,0.2-1.2c0.4-0.2,0.8,0.1,1.1,0.5
		c0.2,0.5,0.1,1-0.2,1.2C16.9,44.6,16.5,44.4,16.2,43.9z M15.9,39.1c-0.7-0.7-0.9-1.8-0.9-2.7c0-0.9,0.2-2.4,1-2.9
		c0.2-0.1,0.4-0.2,0.6-0.2c1.1-0.1,1.6,2.4,1.6,3.1C18.1,37.2,17.4,40.6,15.9,39.1z"/>
</g>
</svg>
