<?xml version="1.0" encoding="utf-8"?>
<!-- Generator: Adobe Illustrator 25.0.0, SVG Export Plug-In . SVG Version: 6.00 Build 0)  -->
<svg version="1.1" id="Layer_1" xmlns="http://www.w3.org/2000/svg" xmlns:xlink="http://www.w3.org/1999/xlink" x="0px" y="0px"
	 viewBox="0 0 72.5 72.5" style="enable-background:new 0 0 72.5 72.5;" xml:space="preserve">
<style type="text/css">
	.st0{fill:#00844B;}
	.st1{fill-rule:evenodd;clip-rule:evenodd;fill:#00844B;}
	.st2{fill:#00844B;stroke:#00844B;stroke-width:0.8439;stroke-miterlimit:10;}
	.st3{fill-rule:evenodd;clip-rule:evenodd;fill:#00844B;stroke:#00844B;stroke-width:0.8439;stroke-miterlimit:10;}
	.st4{fill-rule:evenodd;clip-rule:evenodd;fill:#00844B;stroke:#00844B;stroke-width:0.211;stroke-miterlimit:10;}
	.st5{enable-background:new    ;}
	.st6{fill:#00844B;stroke:#00844B;stroke-width:0.211;stroke-miterlimit:10;}
</style>
<g>
	<path class="st0" d="M-71.3,17.6c-0.6,0-1-0.5-1-1c0-0.6,0.5-1,1-1c0.6,0,1,0.5,1,1C-70.2,17.1-70.7,17.6-71.3,17.6z M-71.3,16.5
		L-71.3,16.5C-71.3,16.6-71.2,16.5-71.3,16.5L-71.3,16.5z"/>
	<path class="st0" d="M-66.4,17.6c-0.6,0-1-0.5-1-1c0-0.6,0.5-1,1-1c0.6,0,1,0.5,1,1C-65.3,17.1-65.8,17.6-66.4,17.6z M-66.4,16.5
		L-66.4,16.5C-66.3,16.6-66.3,16.5-66.4,16.5L-66.4,16.5z"/>
	<path class="st0" d="M-61.4,17.6c-0.6,0-1-0.5-1-1c0-0.6,0.5-1,1-1c0.6,0,1,0.5,1,1C-60.4,17.1-60.8,17.6-61.4,17.6z M-61.5,16.5
		L-61.5,16.5C-61.4,16.6-61.4,16.5-61.5,16.5L-61.5,16.5z"/>
	<path class="st0" d="M-60.3,32.8h-13.2c-0.5,0-1-0.4-1-1c0-0.5,0.4-1,1-1h13.2c0.5,0,1,0.4,1,1C-59.4,32.4-59.8,32.8-60.3,32.8z"/>
	<path class="st0" d="M-60.3,38.3h-13.2c-0.5,0-1-0.4-1-1s0.4-1,1-1h13.2c0.5,0,1,0.4,1,1S-59.8,38.3-60.3,38.3z"/>
	<path class="st0" d="M-60.3,43.8h-13.2c-0.5,0-1-0.4-1-1s0.4-1,1-1h13.2c0.5,0,1,0.4,1,1S-59.8,43.8-60.3,43.8z"/>
	<g>
		<path class="st0" d="M-36.2,10h-35.1c-5.4,0-9.8,4.4-9.8,9.8V21v2v29.7c0,5.4,4.4,9.8,9.8,9.8h35.1c5.4,0,9.8-4.4,9.8-9.8V23v-2
			v-1.2C-26.4,14.4-30.8,10-36.2,10z M-28.4,52.7c0,4.3-3.5,7.8-7.8,7.8h-35.1c-4.3,0-7.8-3.5-7.8-7.8V23h50.6V52.7z M-79.1,21v-1.2
			c0-4.3,3.5-7.8,7.8-7.8h35.1c4.3,0,7.8,3.5,7.8,7.8V21H-79.1z"/>
		<path class="st0" d="M-54.8,28.7v15.2H-33V28.7H-54.8z M-35,30.7v10.6l-4.5-7.2l-4.4,7.4l-4.3-5.2l-4.5,5.4v-11H-35z"/>
		<path class="st0" d="M-34,49.3h-39.5c-0.5,0-1-0.4-1-1s0.4-1,1-1H-34c0.5,0,1,0.4,1,1S-33.5,49.3-34,49.3z"/>
		<path class="st0" d="M-34,54.7h-39.5c-0.5,0-1-0.4-1-1s0.4-1,1-1H-34c0.5,0,1,0.4,1,1S-33.5,54.7-34,54.7z"/>
	</g>
</g>
<g>
	<path class="st1" d="M61,134.5h-9c-1.1,0-1.9,0.9-1.9,1.9v8.9c0,1.1,0.9,1.9,1.9,1.9h9c1.1,0,1.9-0.9,1.9-1.9v-8.9
		C62.9,135.4,62.1,134.5,61,134.5z M52.2,145.4h8.5v-8.7h-8.5V145.4z"/>
	<path class="st1" d="M61,119h-9c-1.1,0-1.9,0.9-1.9,1.9v8.9c0,1.1,0.9,1.9,1.9,1.9h9c1.1,0,1.9-0.9,1.9-1.9v-8.9
		C62.9,119.8,62.1,119,61,119z M52.2,129.8h8.5v-8.7h-8.5V129.8z"/>
	<path class="st1" d="M19,134.3h-9c-1.1,0-1.9,0.9-1.9,1.9v8.9c0,1.1,0.9,1.9,1.9,1.9h9c1.1,0,1.9-0.9,1.9-1.9v-8.9
		C20.9,135.2,20.1,134.3,19,134.3z M10.2,145.2h8.5v-8.7h-8.5V145.2z"/>
	<path class="st1" d="M19,119h-9c-1.1,0-1.9,0.9-1.9,1.9v8.9c0,1.1,0.9,1.9,1.9,1.9h9c1.1,0,1.9-0.9,1.9-1.9v-8.9
		C20.9,119.8,20.1,119,19,119z M10.2,129.8h8.5v-8.7h-8.5V129.8z"/>
	<path class="st1" d="M65.9,103c-0.2-0.4-0.6-0.6-1-0.6H42.8L37,96.5h-0.8c0.6-0.2-1.7,1.8-6.7,5.9h-22c-0.4,0-0.8,0.2-1,0.6
		l-6.1,12.6c-0.2,0.3-0.1,0.7,0.1,1.1c0.2,0.3,0.5,0.5,0.9,0.5H4V150c-0.1,0.2-0.1,0.3-0.1,0.5v4.3c0,0.7,0.6,1.3,1.5,1.3h61.7
		c0.8,0,1.5-0.6,1.5-1.3v-4.3c0-0.2,0-0.3-0.1-0.5v-32.8H71c0,0,0,0,0,0c0.6,0,1.1-0.5,1.1-1.1c0-0.2-0.1-0.5-0.2-0.7L65.9,103z
		 M36.1,98.8l11,11.1H47c-0.6,0-1.1,0.5-1.1,1.1v38.2h-5.5v-11.5c0-0.6-0.5-1.1-1.1-1.1h-6.1c-0.6,0-1.1,0.5-1.1,1.1v11.5H26V111
		c0-0.5-0.4-1-0.9-1.1L36.1,98.8z M34.2,149.2h3.9v-10.4h-3.9V149.2z M8.2,104.6h19.1l-5.6,5.6c-0.3,0.3-0.4,0.8-0.2,1.2
		c0.2,0.4,0.6,0.7,1,0.7h1.3v2.9H3.2L8.2,104.6z M6.9,117.2h16.9v32H6.2v-32H6.9z M66.3,153.9H6.1l0.1-2.2h60.3L66.3,153.9z
		 M48.1,149.2h18.2v-32H48.1V149.2z M67.3,115H48.1v-2.9h1.7c0.4,0,0.8-0.3,1-0.7c0.2-0.4,0.1-0.9-0.2-1.2l-5.6-5.6h19.3l5,10.4
		H67.3z"/>
	<path class="st1" d="M36.4,118.7c3.6,0,6.6-2.9,6.6-6.6c0-3.6-2.9-6.6-6.6-6.6c-3.6,0-6.6,2.9-6.6,6.6
		C29.8,115.7,32.7,118.7,36.4,118.7z M36.4,107.7c2.4,0,4.4,2,4.4,4.4c0,2.4-2,4.4-4.4,4.4c-2.4,0-4.4-2-4.4-4.4
		C32,109.7,33.9,107.7,36.4,107.7z"/>
	<path class="st1" d="M35.1,112.4c0.1,0.6,0.6,1.1,1.2,1.1c0.7,0,1.2-0.5,1.2-1.2c0,0,0,0,0,0l1.8-2.2c0.2-0.2,0.2-0.5,0-0.7
		c-0.2-0.2-0.5-0.2-0.7,0l-2.1,1.8c-0.2,0-0.3,0-0.5,0.1l-2-0.9c-0.3-0.1-0.6,0-0.7,0.2c-0.1,0.2-0.1,0.6,0.2,0.7L35.1,112.4"/>
</g>
<g>
	<path class="st0" d="M33.8-45.4L33-63.8c0-0.8,0.6-1.5,1.5-1.5H38c0.8,0,1.5,0.7,1.5,1.5l-0.8,18.4c0,0.8-0.7,1.4-1.5,1.4h-1.9
		C34.5-44,33.9-44.6,33.8-45.4z"/>
	<path class="st0" d="M32.8-36c0-2,1.5-3.4,3.5-3.4c2.1,0,3.5,1.4,3.5,3.4c0,1.9-1.4,3.4-3.5,3.4C34.2-32.6,32.8-34.1,32.8-36z"/>
	<path class="st2" d="M63.9-26.3H8.6c-1.3,0-2.5-0.7-3.1-1.8c-0.6-1.1-0.6-2.5,0-3.6l27.6-47.8c0.6-1.1,1.8-1.7,3.1-1.7
		c1.3,0,2.5,0.7,3.1,1.8L67-31.7c0.6,1.1,0.6,2.5,0,3.6C66.3-27,65.1-26.3,63.9-26.3z M36.3-79.2c-0.6,0-1.1,0.3-1.4,0.7L7.3-30.7
		c-0.3,0.5-0.3,1.1,0,1.6c0.3,0.5,0.8,0.8,1.4,0.8h55.2c0.6,0,1.1-0.3,1.4-0.8c0.3-0.5,0.3-1.1,0-1.6L37.6-78.5
		C37.4-78.9,36.8-79.2,36.3-79.2z"/>
</g>
<g>
	<path class="st3" d="M128.8,25.4h24.7c0.6,0,1.1-0.5,1.1-1.1s-0.5-1.1-1.1-1.1h-24.7c-0.6,0-1.1,0.5-1.1,1.1S128.2,25.4,128.8,25.4
		"/>
	<path class="st3" d="M146.3,65.4h-29.9c-2,0-3.6-1.6-3.6-3.6V18.6c0-2,1.6-3.6,3.6-3.6h1.8v-2.2h-1.8c-3.2,0-5.8,2.6-5.8,5.8v43.3
		c0,3.2,2.6,5.8,5.8,5.8h29.9c3.1,0,5.7-2.5,5.7-5.7h-2.2C149.8,63.8,148.3,65.4,146.3,65.4"/>
	<path class="st3" d="M158.1,8.6L158.1,8.6c-2.1-2.1-6-3.6-8.9-3.6h-23c-3.2,0-5.8,2.6-5.8,5.8v43.3c0,3.2,2.6,5.8,5.8,5.8H156
		c3.2,0,5.8-2.6,5.8-5.8V17.2C161.8,14.4,160.2,10.5,158.1,8.6z M156.6,10.1c0.7,0.7,1.4,1.7,1.9,2.8h-5.2V8.1
		C154.5,8.6,155.7,9.3,156.6,10.1L156.6,10.1z M159.6,53.9c0,2-1.6,3.6-3.6,3.6h-29.8c-2,0-3.6-1.6-3.6-3.6V10.7
		c0-2,1.6-3.6,3.6-3.6h23c0.6,0,1.2,0.1,1.9,0.2v6.7c0,0.6,0.5,1.1,1.1,1.1h7.1c0.2,0.7,0.3,1.4,0.3,2.1V53.9z"/>
	<path class="st3" d="M156.5,29.9h-30.7c-0.6,0-1.1,0.5-1.1,1.1c0,0.6,0.5,1.1,1.1,1.1h30.7c0.6,0,1.1-0.5,1.1-1.1
		C157.6,30.4,157.1,29.9,156.5,29.9"/>
	<path class="st3" d="M156.5,36.7h-30.7c-0.6,0-1.1,0.5-1.1,1.1c0,0.6,0.5,1.1,1.1,1.1h30.7c0.6,0,1.1-0.5,1.1-1.1
		C157.6,37.2,157.1,36.7,156.5,36.7"/>
</g>
<g>
	<path class="st0" d="M173-77.1c-13.8-0.5-28.3,2.8-33.8,7.9c-4.8-4.4-18.3-8.4-33.9-7.2c-1.3,0.1-2.4,1.2-2.4,2.5v46.6
		c0,0.7,0.3,1.4,0.8,1.9c0.5,0.5,1.2,0.7,1.9,0.7c16-1.2,26.8,1.3,31.5,7.4l0.1,0.1c0.2,0.2,0.4,0.4,0.7,0.5c0.1,0,0.1,0.1,0.2,0.1
		l0.2,0.1c0.3,0.1,0.5,0.1,0.8,0.1c0.3,0,0.6,0,0.9-0.2l0.1-0.1c0.1,0,0.1-0.1,0.3-0.1c0.3-0.1,0.5-0.3,0.6-0.5l0.1-0.2
		c4.5-5.9,15.4-8.7,31.5-8.1c0.7,0,1.4-0.2,1.9-0.7c0.5-0.5,0.8-1.2,0.8-1.8v-46.6C175.5-75.9,174.4-77.1,173-77.1z M172.9-27.9
		c-16.9-0.7-28.4,2.5-33.5,8.9l-0.1,0.1l0,0c0,0,0,0,0,0l0,0c0,0,0,0-0.1-0.1c-5.1-6.7-16.7-9.6-33.5-8.3c0,0,0,0-0.1,0
		c0,0,0-0.1,0-0.1v-46.6c0-0.1,0-0.1,0.1-0.1c15-1.2,27.7,2.5,32.1,6.6c0.2,0.2,0.4,0.4,0.7,0.7l0.9,1.1l0.9-1.1
		c0.2-0.2,0.4-0.4,0.6-0.6c4.9-4.7,18.7-7.9,32.2-7.4c0.1,0,0.1,0.1,0.1,0.1V-28C173-27.9,173-27.9,172.9-27.9L172.9-27.9z"/>
	<path class="st0" d="M141.4-65.4c-0.7,0.6-1.4,1.6-1.4,2.7v40.8l1.9-1.7c5.1-4.5,14.4-6.5,27.4-6.2l1.2,0v-42.3l-1.1,0
		C156.1-72.4,145-68.9,141.4-65.4z M169.3-31c-13.3-0.4-22.7,1.8-28.1,6.4v-38.1c0-0.5,0.4-1.2,1.1-1.8c3.3-3.2,13.3-6.4,25.6-6.4
		c0.5,0,1,0,1.5,0V-31z"/>
	<path class="st0" d="M137-65.5c-3.8-3.5-14.9-6.8-27.9-6l-1.1,0.1v42.3l1.2-0.1c12.9-0.8,22.1,1.1,27.4,5.6l1.9,1.7v-40.8
		C138.5-63.6,138-64.6,137-65.5z M137.3-24.6c-4.7-4-12.3-6-22.5-6c-1.8,0-3.7,0.1-5.6,0.2v-39.9c12.7-0.7,23.4,2.4,27,5.7
		c0.7,0.7,1.1,1.3,1.1,1.9V-24.6z"/>
</g>
<g>
	<path class="st4" d="M-30.8-31.9h-5.9v-13.8c0-3.3-2.6-6.1-6.3-7.8c0.1-0.3,0.2-0.6,0.4-0.9c0.2-0.5,0.2-0.8,0.2-0.8l0.2-1.1
		l-1.1-0.2c-4.2-0.6-4.2-5-3.5-12.2l0.1-0.9c0.1-0.6,0.2-1.1,0.2-1.7c0-0.2,0-0.4,0-0.5l0,0c0.2-3.8,0.2-7.7-1.8-10.3
		c-0.4-0.6-0.9-1.1-1.3-1.6c-0.6-1.4-1.8-2.7-3.4-3.5c-1.8-0.9-4-1.3-6.7-1.3c-5.6,0-10.5,3.4-12.1,8.3c-2.7,6.5-1.8,12.2-1.1,16.3
		c0.4,2.7,0.8,4.9-0.1,6c-0.5,0.7-1.6,1.2-3.2,1.4l-1.1,0.2l0.2,1.1c0,0,0.1,0.3,0.2,0.7c0.1,0.2,0.1,0.4,0.2,0.7
		c0,0.1,0.1,0.2,0.1,0.2c-3.7,1.8-6.3,4.5-6.3,7.8v13.8h-5.9c-0.6,0-1.1,0.5-1.1,1.1s0.5,1.1,1.1,1.1h7c0.6,0,1.1-0.5,1.1-1.1
		c0,0,0,0,0,0v-14.8c0-4.1,6.9-7.9,14.4-7.9c0.2,0,0.4,0,0.5-0.1c1.3-0.7,1.8-2.6,2.1-4.2l0-0.2c0,0,0-0.1,0-0.1l0.1-0.4
		c0.2-1,0.5-2.3,0.5-3.8c0-0.3-0.1-0.6-0.3-0.8c-0.3-0.3-0.7-0.6-1.1-1c-1-1-1.7-2.3-2-4.1c6.2-2.6,10.2-5.3,12.8-8.7
		c0.4,1.9,0.8,4.6,0.7,7.1c0,0,0,0.1,0,0.1c-0.3,2.6-1,4.3-2.3,5.6c-0.4,0.4-0.7,0.7-1,1c-0.2,0.2-0.3,0.5-0.3,0.8
		c0,1.5,0.3,2.9,0.5,3.9l0.1,0.7c0.2,1.1,0.6,3.3,2,4.1c0.2,0.1,0.3,0.1,0.5,0.1c7.5,0,14.4,3.8,14.4,7.9v14.8h0c0,0,0,0,0,0
		c0,0.6,0.5,1.1,1.1,1.1h7c0.6,0,1.1-0.5,1.1-1.1S-30.2-31.9-30.8-31.9z M-53.7-58.2c0-0.1,0-0.3-0.1-0.3l-0.1-0.5
		c-0.2-0.8-0.4-1.8-0.5-2.9c0.2-0.2,0.4-0.4,0.7-0.7c1.6-1.6,2.5-3.7,2.9-6.7c0-0.1,0-0.1,0-0.2c0.3-4.4-1-9.1-1.4-10.4
		c-0.1-0.4-0.5-0.7-0.9-0.8c-0.4,0-0.9,0.2-1.1,0.6c-2.3,4.2-6.5,7.3-13.9,10.3c-0.5,0.2-0.8,0.7-0.7,1.2c0.4,2.7,1.3,4.6,2.8,6.1
		c0.3,0.3,0.5,0.5,0.8,0.7c0,1-0.3,2-0.4,2.8l-0.1,0.5c0,0,0,0.1,0,0.1l0,0.1c-0.3,1.7-0.7,2.3-0.9,2.5c-2.7,0-5.5,0.6-8,1.5
		c0-0.1-0.1-0.1-0.1-0.2c1.6-0.4,2.7-1.1,3.4-2c1.4-1.9,1-4.5,0.5-7.7c-0.7-4.1-1.5-9.2,1-15.2c1.3-4.1,5.3-6.9,10.1-6.9
		c2.3,0,4.2,0.4,5.6,1.1c1.2,0.6,2.1,1.5,2.4,2.5l0.1,0.3l0.3,0.2c0.4,0.3,0.7,0.7,1.1,1.3c1.6,2.1,1.6,5.7,1.4,9l0,0.1l0,0.3
		c0,0.1,0,0.2,0,0.3c0,0.4-0.1,0.8-0.2,1.3l-0.1,1.1c-0.5,5.9-1.1,12.6,4.2,14.3c0,0.1-0.1,0.2-0.1,0.2c-2.5-0.9-5.2-1.4-7.9-1.4
		C-53.1-56-53.4-56.7-53.7-58.2z"/>
	<path class="st4" d="M-41.8-46H-78c-0.6,0-1.1,0.5-1.1,1.1V-20c0,0.6,0.5,1.1,1.1,1.1h36.2c0.6,0,1.1-0.5,1.1-1.1v-24.9
		C-40.7-45.5-41.2-46-41.8-46z M-76.9-21.1h34v-22.7h-34V-21.1z"/>
</g>
<g>
	<g>
		<g>
			<g class="st5">
				<g>
					<g>
						<path class="st6" d="M52.1,62.5H20.4c-3,0-5.4-2.4-5.4-5.4V15.4c0-3,2.4-5.4,5.4-5.4h31.8c3,0,5.4,2.4,5.4,5.4v41.7
							C57.5,60,55.1,62.5,52.1,62.5z M17,53.7v3.4c0,1.9,1.5,3.4,3.4,3.4h31.8c1.9,0,3.4-1.5,3.4-3.4v-3.4H17z M17,51.7h38.6v-32H17
							V51.7z M17,17.7h38.6v-2.3c0-1.9-1.5-3.4-3.4-3.4H20.4c-1.9,0-3.4,1.5-3.4,3.4V17.7z M36.2,58.4c-0.7,0-1.3-0.6-1.3-1.3
							c0-0.7,0.6-1.3,1.3-1.3s1.3,0.6,1.3,1.3C37.5,57.8,37,58.4,36.2,58.4z M36.2,56.4c-0.4,0-0.7,0.3-0.7,0.7
							c0,0.4,0.3,0.7,0.7,0.7s0.7-0.3,0.7-0.7C37,56.7,36.7,56.4,36.2,56.4z"/>
					</g>
				</g>
			</g>
		</g>
	</g>
</g>
</svg>
