<svg xmlns="http://www.w3.org/2000/svg" width="336" height="89.274" viewBox="0 0 336 89.274">
  <g id="DouglasSig" transform="translate(0 0)">
    <g id="Group_2488" data-name="Group 2488" transform="translate(0 0)">
      <path id="Path_2525" data-name="Path 2525" d="M99.669,45.086l-.261-.585c3.87-6.513,7.789-13,11.592-19.551,2.119-3.651,4.082-7.4,6.021-11.147a7.686,7.686,0,0,0,.363-2.422c-.778.43-1.563.848-2.328,1.3-.14.083-.195.306-.3.459C109.25,21.38,103.6,29.531,98.283,37.894a110.028,110.028,0,0,0-8.3,15.159c-1.359,3.139-3.664,4.7-5.954,6.759-2.468-4.391-2.071-6.382,1.479-9.008,1.1-.816,2.173-1.679,3.242-2.541a2.594,2.594,0,0,0,.188-4.1,4.374,4.374,0,0,0-3.564-.686c-1.761.43-3.144,2.6-5.344.876-.208-.162-1.17.415-1.617.827-1.077.994-2.022,2.13-3.084,3.142-1.375,1.311-2.812,2.556-4.221,3.83l-.738-.547a36.982,36.982,0,0,0,.97-3.9,2.871,2.871,0,0,0-.455-2.084c-.227-.262-1.431-.045-1.894.328-2.065,1.665-4.014,3.472-6.021,5.209-.479.415-1.022.756-1.536,1.131a10.279,10.279,0,0,1,.629-3.659c.819-2.911-.7-4.7-3.515-3.8a72.912,72.912,0,0,0-8.8,3.668c-2.322,1.091-2.678,2.89-1.276,5.192a3.025,3.025,0,0,0,4.783.517,53.116,53.116,0,0,0,4.547-5.75c.411-.527.869-1.018,1.306-1.525l.689.5c-.56,1.629-1.218,3.234-1.641,4.9A14.862,14.862,0,0,0,58,55.378c1.17-.156,2.482-.034,3.474-.539A20.14,20.14,0,0,0,64.906,52.1c.868-.724,1.728-1.456,2.929-2.468a6.7,6.7,0,0,0,.126,1.568c.482,1.107.771,2.611,1.635,3.136.645.391,2.2-.289,3.11-.867a40.692,40.692,0,0,0,4.081-3.412c-1.376,3.3-1.212,4.56.533,4.556,2.38,0,2.795,1.431,3.311,3.147.358,1.192.941,2.316,1.5,3.646-3.132,2.349-6.184,4.8-9.412,6.989a12.508,12.508,0,0,1-4.907,2.085c-6.272.96-10.272,4.9-13.58,9.831a1.905,1.905,0,0,0-.14,1.742,2.345,2.345,0,0,0,1.87.558A6.867,6.867,0,0,0,58.7,81.478a57.182,57.182,0,0,0,6.205-4.995c3.514-3.445,7.266-5.88,12.454-4.334,3.414,1.017,6.815,2.08,10.228,3.1,2.7.81,5.413,1.592,8.12,2.386l.374-.874a9.762,9.762,0,0,0-.732-1.361c-3.213-4.246-6.467-8.459-9.646-12.729-.432-.58-.935-1.807-.688-2.076,1.47-1.6,2.94-3.768,4.814-4.288,2.408-.667,3.752-2.105,5.2-3.736.678-.766,1.332-1.555,2.279-2.665.1.892.107,1.166.169,1.427.213.893.447,1.781.673,2.671a11.808,11.808,0,0,0,2.7-.927,25.589,25.589,0,0,0,2.9-2.481c2.286,2.685,4.809,2.434,7.332.983,1.924-1.106,3.642-2.648,6.093-1.261.358.2,1.065-.107,1.57-.29,3.167-1.149,4.229-.723,6.415,2.86-.919.26-1.751.506-2.588.729-3.716.993-7.488,1.819-11.12,3.056-1.218.415-2.14,1.821-3.068,2.887-.235.269.032.975.068,1.479.55-.11,1.343-.026,1.611-.361,2-2.506,4.855-3.189,7.747-3.746,3.685-.708,7.392-1.3,11.322-1.976-.473-3.6-4.191-4.63-5.864-7.438.707-.58,1.347-1.065,1.944-1.6,2.518-2.253,5.062-4.479,7.5-6.819a2.132,2.132,0,0,0,.471-1.951,2.674,2.674,0,0,0-2.048-.958,7.8,7.8,0,0,0-3.1.978c-1.829,1-3.56,2.185-5.458,3.372-1.785-2.2-3.014-1.1-4.135.781a10.691,10.691,0,0,1-1.889,2.7c-2.46,2.125-5,4.164-7.632,6.073a2.46,2.46,0,0,1-2.2-.295c-.293-.2-.173-1.413.123-1.979.974-1.866,2.174-3.614,3.153-5.477a5.092,5.092,0,0,0,.132-1.964,8.921,8.921,0,0,0-1.916.194,11.51,11.51,0,0,0-1.851.974c-1.54.828-3.079,1.658-4.623,2.478-.683.363-1.38.7-2.07,1.053M276.2,44.368l8.183-4.039c.33,1.775.1,3.942,1.069,5,1.727,1.88,4.177.876,6.107-.2,4.374-2.439,7.707-5.777,8.552-11.1a3.23,3.23,0,0,1,.28,1.979c-.754,2.258-1.707,4.452-2.446,6.715A6.8,6.8,0,0,0,298,44.962a5.967,5.967,0,0,0,2.25-.484c1.409-1.017,2.648-2.27,3.975-3.4,4.055-3.468,4.484-3.365,5.976,1.675.931,3.141,2.584,5.733,5.592,7.139,4.382,2.046,16.053.071,20.208-3.571-1.434.372-2.4.576-3.336.874a30.932,30.932,0,0,1-14.408,1.394c-2.423-.385-4.295-1.494-5.149-3.983-.655-1.907-1.442-3.769-2.174-5.65-1.1-2.824-2.172-3.155-4.7-1.53-1.49.957-3.026,1.843-4.812,2.924a7.447,7.447,0,0,1,.155-1.188c2.515-6.852,1.283-8.474-5.742-7.541a2.686,2.686,0,0,1-.81.135c-2.985-.644-4.968,1.058-6.919,2.889-3.579,3.36-7.247,6.6-12.09,8.06-1.419.427-3.2.988-3.647-.989a4.124,4.124,0,0,1,1.366-3.316c2.9-2.387,6.094-4.417,9.069-6.722a61.522,61.522,0,0,0,5.521-4.943c.382-.378.246-1.279.349-1.938-.644.038-1.42-.141-1.907.156a36.657,36.657,0,0,0-3.033,2.362c-3.712,2.841-7.434,5.669-11.763,8.967a14.128,14.128,0,0,0,.6-1.541c.142-.787.25-1.581.372-2.372-.768.279-1.741.352-2.266.875-1.555,1.551-2.958,3.258-4.37,4.946-1.1,1.315-6.106,2.249-7.9,1.32a26.942,26.942,0,0,0,1.9-3.005,15.862,15.862,0,0,0,.766-2.829l-.788-.174L249.146,46.174l-.969-.7c1.158-2.564,2.332-5.121,3.462-7.7.351-.8,1.051-1.892.776-2.443-.822-1.645.2-2.26,1.116-3.215A70.1,70.1,0,0,0,269.373,7.189a11.112,11.112,0,0,0,.756-3.748C270.093.21,268.083-.943,265.4.835a47.994,47.994,0,0,0-6.651,5.308c-11.067,10.607-20.035,22.9-27.969,35.926a7.23,7.23,0,0,1-5.777,3.861,17.781,17.781,0,0,1-4.385.286,15.9,15.9,0,0,1-3.643-1.384,16.012,16.012,0,0,1,2.061-2.659c1.886-1.611,3.913-3.058,5.883-4.571l-.339-.682a8.755,8.755,0,0,0-2.681.675A24.085,24.085,0,0,0,216.9,41.4c-.988,1.088-2.133,3.246-1.674,4.136a5.356,5.356,0,0,0,4.166,2.319,41.607,41.607,0,0,0,10.5-1.547c5.8-1.737,11.448-4.01,17.724-6.261a54.229,54.229,0,0,0-1.3,6.02c-.087.839.587,1.757.916,2.639a8.167,8.167,0,0,0,2.347-1.038c1.7-1.541,3.216-3.274,4.877-4.857.471-.449,1.28-1.016,1.774-.892,2.87.72,5.388-.024,7.929-1.306,2.865-1.445,6.031.449,6.42,3.822l-11.7,4.088q.114.7.228,1.4c6.46-.435,12.826-2.248,19.35-1.741l.3-.853L276.2,44.368M195.361,42.36c-.04.8-.107,1.431-.1,2.064.05,4.354,2.153,5.943,6.387,4.95,1.6-.375,3.249-.526,4.309-.691A10.943,10.943,0,0,1,207.3,46.2c4.245-4.409,8.5-8.807,12.9-13.067a6.238,6.238,0,0,1,3.477-1.43,57.21,57.21,0,0,1,6.279-.063l.136-1.165L223.5,29.255c.47-.619.776-1.03,1.09-1.435,5.51-7.1,10.9-14.282,14.209-22.741.371-.948.038-2.172.032-3.268-1.139.292-2.582.244-3.36.94A66.148,66.148,0,0,0,228.566,9.8c-5.011,6.057-9.8,12.3-14.791,18.371a10.151,10.151,0,0,1-3.59,2.7c-2.171.973-4.506,1.58-6.772,2.342q.094.356.187.712l6.6-1.02c-.631,1.333-1.017,2.114-1.375,2.908-1.279,2.841-2.658,5.643-3.785,8.543-.858,2.208-3.471,4.07-5.708,3.4a2.959,2.959,0,0,1-1.773-2.094c-.041-1.8.506-3.6.646-5.416a2.613,2.613,0,0,0-.7-1.856c-.2-.2-1.2.175-1.658.519-1.467,1.092-2.75,2.462-4.3,3.411-2.081,1.277-4.34,2.264-6.523,3.376l-.634-.856c.576-1.295,1.205-2.569,1.716-3.889.77-1.991.611-2.546-.374-3.165-.8,1.712-1.715,3.415-2.4,5.207a20.8,20.8,0,0,0-.7,3.524c1.3.07,2.76.563,3.855.128,2.945-1.168,5.733-2.732,8.869-4.28M60.878,28.558l.355.717c-2.9,1.909-5.759,3.887-8.71,5.715C39.668,42.948,26.414,50.349,16.76,62.5A86.526,86.526,0,0,0,2.708,86.916a9.884,9.884,0,0,0-.256,2.359c3.031-8.256,7.7-15.359,12.764-22.209,8.417-11.386,19.793-19.248,31.745-26.427,5.818-3.494,11.52-7.183,17.223-10.864.642-.414.946-1.351,1.407-2.046a8.12,8.12,0,0,0-2.614-.877c-3.67.109-7.344.688-11,.57-9.544-.309-19.1-.666-28.609-1.456A100.678,100.678,0,0,1,7.184,23.124c-2.564-.646-5.367-2.282-5.414-5.557-.058-4.019.548-7.982,4.007-10.823-1.126-.9-2.457-1.245-3.27.473-3.832,8.092-4.256,15.125,5.864,18.16a70.588,70.588,0,0,0,15.177,2.356c9.157.654,18.344.938,27.522,1.222,3.263.1,6.539-.251,9.809-.4M171.691,38.913l-.44-.47c3.477-4.343,6.906-8.726,10.446-13.018,2.733-3.314,5.65-6.478,8.379-9.8A10.09,10.09,0,0,0,191.2,12.85L189.689,11.8a8.348,8.348,0,0,1-.87,2.068c-5.786,7.319-11.7,14.542-17.4,21.926-2.812,3.64-6.31,6.677-8.176,11.18-1.836,4.431-4.764,8.407-7.17,12.607a9.363,9.363,0,0,0-.612,1.954c.813.028,1.154-.136,1.325-.407,3.694-5.869,7.085-11.958,11.153-17.553,2.457-3.378,6.849-3.376,11.212-4.33l-10.6,18.392.728.506a13.279,13.279,0,0,0,1.219-1.41c5.492-8.445,10.72-17.075,16.517-25.305,5.436-7.717,11.488-15,17.221-22.512a18.765,18.765,0,0,0,1.572-2.9,19.888,19.888,0,0,0-3.6,2.968c-6.724,8.713-13.324,17.522-20,26.272a3.988,3.988,0,0,1-1.84,1.424c-2.869.832-5.785,1.508-8.683,2.241M14.427,56.243c2.021-2.2,6.176-22.974,4.677-25.786-.877,4.366-1.568,8.108-2.39,11.821-.807,3.64-1.254,7.483-2.821,10.78-.863,1.815-.581,2.242.535,3.185M265.653,24.738l-1.413-.724c-.482,1.056-.995,2.1-1.386,3.189a7.414,7.414,0,0,0,1.249.72l1.55-3.185" transform="translate(0 0)" fill="none"/>
      <path id="Path_2526" data-name="Path 2526" d="M138.336,54.321c.69-.351,1.386-.691,2.07-1.053,1.544-.82,3.083-1.65,4.623-2.478a11.463,11.463,0,0,1,1.851-.973,8.921,8.921,0,0,1,1.916-.194,5.079,5.079,0,0,1-.132,1.963c-.979,1.864-2.178,3.612-3.153,5.477-.3.566-.415,1.777-.123,1.979a2.459,2.459,0,0,0,2.2.295c2.629-1.909,5.173-3.948,7.632-6.073a10.685,10.685,0,0,0,1.889-2.7c1.121-1.877,2.349-2.979,4.134-.781,1.9-1.187,3.629-2.369,5.459-3.371a7.806,7.806,0,0,1,3.1-.979,2.674,2.674,0,0,1,2.048.958,2.129,2.129,0,0,1-.471,1.951c-2.434,2.341-4.978,4.566-7.5,6.819-.6.534-1.237,1.02-1.944,1.6,1.673,2.808,5.392,3.838,5.864,7.438-3.93.68-7.637,1.267-11.322,1.976-2.892.556-5.747,1.239-7.747,3.745-.268.335-1.061.251-1.611.362-.036-.505-.3-1.21-.068-1.48.927-1.066,1.849-2.471,3.068-2.887,3.632-1.237,7.4-2.063,11.12-3.056.837-.224,1.669-.469,2.588-.729-2.186-3.583-3.248-4.01-6.415-2.861-.505.184-1.212.492-1.57.29-2.451-1.386-4.169.155-6.093,1.262-2.523,1.451-5.046,1.7-7.332-.983a25.688,25.688,0,0,1-2.9,2.48,11.808,11.808,0,0,1-2.7.927c-.226-.89-.46-1.778-.673-2.671-.062-.261-.066-.535-.169-1.427-.947,1.11-1.6,1.9-2.279,2.665-1.444,1.63-2.787,3.068-5.2,3.736-1.874.519-3.344,2.688-4.815,4.288-.246.269.257,1.5.689,2.076,3.179,4.27,6.433,8.484,9.646,12.729A9.706,9.706,0,0,1,134.748,86l-.374.874c-2.707-.794-5.418-1.576-8.12-2.386-3.413-1.023-6.813-2.087-10.228-3.1-5.188-1.546-8.94.889-12.454,4.335a57.243,57.243,0,0,1-6.205,4.994,6.867,6.867,0,0,1-2.739,1.129,2.343,2.343,0,0,1-1.87-.558,1.9,1.9,0,0,1,.14-1.741c3.308-4.934,7.308-8.872,13.58-9.831a12.509,12.509,0,0,0,4.907-2.086c3.228-2.19,6.28-4.64,9.412-6.989-.556-1.33-1.14-2.454-1.5-3.646-.516-1.716-.931-3.152-3.311-3.147-1.745,0-1.909-1.253-.533-4.556a40.818,40.818,0,0,1-4.081,3.412c-.911.579-2.465,1.258-3.11.867-.864-.524-1.153-2.029-1.635-3.136a6.715,6.715,0,0,1-.126-1.568c-1.2,1.012-2.06,1.744-2.928,2.468a20.17,20.17,0,0,1-3.428,2.743c-.993.505-2.3.383-3.474.539a14.862,14.862,0,0,1,.154-3.048c.423-1.664,1.081-3.269,1.641-4.9l-.688-.5c-.437.507-.894,1-1.306,1.525a53.183,53.183,0,0,1-4.547,5.75,3.025,3.025,0,0,1-4.783-.517c-1.4-2.3-1.047-4.1,1.276-5.191a72.916,72.916,0,0,1,8.8-3.668c2.819-.9,4.333.892,3.515,3.8a10.293,10.293,0,0,0-.629,3.659c.514-.375,1.057-.715,1.536-1.13,2.007-1.737,3.956-3.544,6.021-5.209.463-.374,1.667-.59,1.894-.328a2.869,2.869,0,0,1,.455,2.083,36.984,36.984,0,0,1-.97,3.9l.738.547c1.41-1.274,2.847-2.519,4.221-3.83,1.062-1.012,2.007-2.148,3.084-3.142.447-.412,1.409-.989,1.617-.827,2.2,1.723,3.583-.446,5.344-.876a4.374,4.374,0,0,1,3.564.687,2.594,2.594,0,0,1-.188,4.1c-1.069.862-2.138,1.725-3.242,2.542-3.55,2.625-3.946,4.616-1.479,9.007,2.29-2.06,4.6-3.619,5.954-6.759a109.969,109.969,0,0,1,8.3-15.159c5.317-8.363,10.966-16.514,16.475-24.755.1-.153.157-.375.3-.459.765-.452,1.55-.871,2.328-1.3a7.686,7.686,0,0,1-.363,2.422c-1.939,3.752-3.9,7.5-6.021,11.147-3.8,6.553-7.721,13.038-11.592,19.551q.13.292.261.585m-7.69,29.391.483-.636-9.675-11.764L112.5,78.435c3.481.842,6.5,1.457,9.45,2.318s5.8,1.963,8.7,2.959m17.406-47.546C143.694,38.92,131.83,57.428,132.146,60.4l15.906-24.238m-42.019,46.02c-4.491.381-9.088,3.831-10.106,7.749l10.106-7.749m53.758-28.581.88,1.11,6.931-5.356-.635-.863-7.177,5.109m-66.1,5.067-.582-.68c-1.737.668-3.615,1.182-3.88,3.452l.59.671,3.871-3.443" transform="translate(-38.667 -9.235)" fill="#fff"/>
      <path id="Path_2527" data-name="Path 2527" d="M450.764,44.368l2.551,2.961-.3.853c-6.524-.507-12.891,1.306-19.35,1.741l-.228-1.4,11.7-4.088c-.389-3.373-3.556-5.266-6.42-3.822-2.542,1.282-5.06,2.027-7.929,1.306-.495-.124-1.3.443-1.775.892-1.661,1.583-3.18,3.316-4.877,4.857a8.152,8.152,0,0,1-2.347,1.038c-.328-.882-1-1.8-.916-2.639a54.382,54.382,0,0,1,1.3-6.02c-6.276,2.251-11.919,4.524-17.724,6.261a41.578,41.578,0,0,1-10.5,1.547,5.355,5.355,0,0,1-4.166-2.319c-.459-.889.687-3.048,1.674-4.135a24.087,24.087,0,0,1,5.005-3.808,8.79,8.79,0,0,1,2.681-.675l.338.682c-1.97,1.514-4,2.959-5.883,4.571a16.04,16.04,0,0,0-2.061,2.659,15.928,15.928,0,0,0,3.643,1.385,17.781,17.781,0,0,0,4.385-.287,7.23,7.23,0,0,0,5.777-3.861c7.934-13.03,16.9-25.318,27.969-35.926A48.074,48.074,0,0,1,439.97.835c2.68-1.778,4.69-.625,4.725,2.606a11.112,11.112,0,0,1-.756,3.748A70.1,70.1,0,0,1,428.1,32.115c-.912.954-1.938,1.57-1.116,3.215.275.55-.425,1.641-.776,2.443-1.129,2.576-2.3,5.133-3.461,7.7l.969.7L434.845,33.5l.788.174a15.914,15.914,0,0,1-.766,2.828,27.081,27.081,0,0,1-1.9,3.006c1.8.928,6.8-.006,7.9-1.321,1.413-1.688,2.816-3.394,4.37-4.946.524-.523,1.5-.6,2.266-.876-.121.791-.229,1.585-.372,2.372a14.086,14.086,0,0,1-.6,1.541c4.329-3.3,8.052-6.125,11.763-8.967a36.869,36.869,0,0,1,3.033-2.362c.486-.3,1.263-.118,1.907-.156-.1.66.033,1.561-.349,1.939a61.53,61.53,0,0,1-5.521,4.942c-2.975,2.3-6.167,4.335-9.069,6.722a4.125,4.125,0,0,0-1.366,3.316c.448,1.977,2.227,1.415,3.647.988,4.843-1.457,8.511-4.7,12.09-8.06,1.95-1.831,3.934-3.532,6.919-2.889a2.684,2.684,0,0,0,.81-.135c7.025-.933,8.257.689,5.742,7.541a7.459,7.459,0,0,0-.155,1.188c1.786-1.081,3.322-1.966,4.813-2.924,2.531-1.626,3.6-1.295,4.7,1.53.732,1.88,1.519,3.742,2.174,5.65.855,2.489,2.727,3.6,5.149,3.983A30.924,30.924,0,0,0,507.23,47.19c.936-.3,1.9-.5,3.336-.874-4.155,3.642-15.827,5.618-20.208,3.571-3.009-1.4-4.661-4-5.592-7.138-1.493-5.041-1.922-5.143-5.977-1.675-1.327,1.134-2.565,2.387-3.975,3.4a5.954,5.954,0,0,1-2.25.484,6.8,6.8,0,0,1-.056-2.242c.739-2.263,1.691-4.456,2.446-6.715a3.23,3.23,0,0,0-.28-1.979c-.844,5.325-4.177,8.663-8.552,11.1-1.93,1.076-4.38,2.082-6.107.2-.972-1.059-.739-3.226-1.069-5l-8.183,4.039M442.931,1.65a27.321,27.321,0,0,0-3.315,1.742c-7.717,5.614-14.07,12.6-19.824,20.138-2.534,3.319-5.584,6.433-5.154,11.248.144,1.612-.588,3.3-.961,5.16,11.814-2.875,30.375-26.869,29.254-38.288M471.189,34c-4.016,2.612-8.421,4.627-10.266,9.843,5.486.139,11.448-5.716,10.266-9.843M405.955,43.32c6.15-2.179,7.538-4.394,5.751-8.613l-5.751,8.613" transform="translate(-174.566 0)" fill="#fff"/>
      <path id="Path_2528" data-name="Path 2528" d="M343.568,43.829c-3.136,1.548-5.924,3.112-8.869,4.279-1.1.435-2.56-.057-3.856-.127a20.751,20.751,0,0,1,.7-3.525c.68-1.791,1.593-3.495,2.395-5.207.985.62,1.144,1.175.374,3.166-.51,1.319-1.139,2.593-1.715,3.888l.634.857c2.183-1.112,4.442-2.1,6.523-3.377,1.546-.949,2.83-2.318,4.3-3.41.463-.344,1.455-.718,1.658-.519a2.611,2.611,0,0,1,.7,1.856c-.14,1.815-.687,3.618-.646,5.415a2.96,2.96,0,0,0,1.773,2.093c2.238.673,4.851-1.188,5.709-3.4,1.127-2.9,2.506-5.7,3.785-8.543.357-.793.743-1.575,1.374-2.908l-6.6,1.02-.187-.712c2.266-.761,4.6-1.368,6.771-2.341a10.165,10.165,0,0,0,3.59-2.7c4.988-6.077,9.78-12.314,14.791-18.371a66.107,66.107,0,0,1,6.909-7.049c.778-.7,2.221-.648,3.36-.94.007,1.1.34,2.32-.032,3.269-3.309,8.459-8.7,15.642-14.209,22.741-.314.4-.62.816-1.09,1.435l6.585,1.225q-.068.581-.136,1.165a57.2,57.2,0,0,0-6.278.063,6.239,6.239,0,0,0-3.477,1.43c-4.393,4.259-8.652,8.658-12.9,13.067a10.927,10.927,0,0,0-1.344,2.478c-1.06.165-2.71.316-4.309.691-4.233.993-6.337-.6-6.387-4.949-.007-.634.059-1.268.1-2.065M362.8,31.314c2.174-.163,3.645-.168,5.073-.416,1.1-.191,2.573-.361,3.136-1.1,5.021-6.623,10.37-13.052,13.631-20.825a18.789,18.789,0,0,0,.688-2.62A124.776,124.776,0,0,0,362.8,31.314m4.887,2.7-.548-1.049c-2.009.342-4.846-.025-5.864,1.166-2.59,3.029-4.367,6.754-6.47,10.2l1.1.853,11.785-11.17" transform="translate(-148.207 -1.469)" fill="#fff"/>
      <path id="Path_2529" data-name="Path 2529" d="M60.878,33.426c-3.27.145-6.547.5-9.809.4-9.179-.283-18.365-.567-27.522-1.222A70.554,70.554,0,0,1,8.37,30.244c-10.119-3.035-9.7-10.068-5.864-18.159.814-1.718,2.145-1.374,3.27-.473-3.458,2.84-4.064,6.8-4.006,10.823.047,3.275,2.85,4.911,5.414,5.557a100.738,100.738,0,0,0,16.185,2.841c9.512.789,19.065,1.147,28.608,1.456,3.656.118,7.33-.461,11-.57a8.124,8.124,0,0,1,2.614.877c-.461.694-.765,1.632-1.407,2.046-5.7,3.681-11.405,7.37-17.223,10.864C35.01,52.684,23.633,60.547,15.216,71.932,10.152,78.783,5.484,85.886,2.452,94.141a9.912,9.912,0,0,1,.256-2.359A86.526,86.526,0,0,1,16.76,67.369c9.655-12.153,22.908-19.554,35.763-27.513,2.951-1.827,5.809-3.806,8.709-5.715Z" transform="translate(0 -4.867)" fill="#fff"/>
      <path id="Path_2530" data-name="Path 2530" d="M297.847,43.788c2.9-.733,5.813-1.408,8.682-2.241a3.993,3.993,0,0,0,1.841-1.423c6.676-8.751,13.276-17.56,20-26.273a19.916,19.916,0,0,1,3.6-2.969,18.737,18.737,0,0,1-1.572,2.9c-5.733,7.512-11.785,14.8-17.222,22.513-5.8,8.229-11.025,16.86-16.517,25.3a13.274,13.274,0,0,1-1.219,1.41l-.729-.506,10.6-18.392c-4.364.954-8.756.952-11.212,4.33-4.069,5.6-7.46,11.684-11.154,17.553-.171.272-.512.436-1.324.407a9.329,9.329,0,0,1,.612-1.954c2.406-4.2,5.334-8.176,7.17-12.607,1.866-4.5,5.364-7.54,8.176-11.18,5.7-7.383,11.614-14.606,17.4-21.925a8.364,8.364,0,0,0,.869-2.068l1.517,1.054a10.094,10.094,0,0,1-1.129,2.778c-2.729,3.318-5.646,6.482-8.379,9.8-3.539,4.292-6.969,8.675-10.446,13.018l.441.47" transform="translate(-126.155 -4.875)" fill="#fff"/>
      <path id="Path_2531" data-name="Path 2531" d="M25.29,80.958c-1.116-.943-1.4-1.37-.535-3.185,1.567-3.3,2.015-7.141,2.821-10.78.823-3.712,1.514-7.455,2.391-11.82,1.5,2.812-2.656,23.585-4.677,25.785" transform="translate(-10.863 -24.716)" fill="#fff"/>
      <path id="Path_2532" data-name="Path 2532" d="M478.954,44.224,477.4,47.41a7.4,7.4,0,0,1-1.249-.72c.391-1.088.9-2.133,1.386-3.189l1.413.724" transform="translate(-213.301 -19.487)" fill="#fff"/>
    </g>
  </g>
</svg>
