<?xml version="1.0" encoding="utf-8"?>
<!-- Generator: Adobe Illustrator 26.1.0, SVG Export Plug-In . SVG Version: 6.00 Build 0)  -->
<svg version="1.1" id="Layer_1" xmlns="http://www.w3.org/2000/svg" xmlns:xlink="http://www.w3.org/1999/xlink" x="0px" y="0px"
	 viewBox="0 0 71.2 48" style="enable-background:new 0 0 71.2 48;" xml:space="preserve">
<style type="text/css">
	.st0{fill:#9EDAEA;}
	.st1{fill:#FFA1D2;}
	.st2{fill:#FFFFFF;}
</style>
<g>
	<g>
		<g>
			<path class="st0" d="M16.4,46.4c-1.1,0-2.3-0.1-3.4-0.4c-4.3-0.9-8-3.7-10.3-7.6C0.7,35,0,30.6,0.5,25.8c0.5-4.4,2-8.9,4.4-13.2
				s5.2-7.5,8.4-9.9c2.7-1.9,5.3-2.9,7.9-2.9c0.7,0,1.4,0.1,2,0.2c1.3,0.4,2.6,1,3.7,1.8c2.7,2,4.8,5.2,6.2,9.7
				c1.3,4.2,1.8,9,1.4,13.7c-0.4,5.1-1.8,9.5-4,13.1c-2.4,3.8-5.8,6.4-9.7,7.5c-0.1,0-0.3,0.1-0.4,0.1C19,46.2,17.7,46.4,16.4,46.4z
				"/>
		</g>
		<g>
			<g>
				<g>
					<g>
						<polygon class="st1" points="31.7,8.5 11.4,4 8.3,7.7 32.9,13.2 						"/>
					</g>
				</g>
			</g>
			<g>
				<g>
					<g>
						<polygon class="st1" points="0.7,25.3 32.9,32.4 33.7,27.8 1.6,20.8 						"/>
					</g>
				</g>
			</g>
			<g>
				<g>
					<g>
						<path class="st1" d="M12.6,45.5c5.9,1.6,10.5-0.7,10.5-0.7l-17.9-4C5.1,40.8,7.5,44.1,12.6,45.5z"/>
					</g>
				</g>
			</g>
			<g>
				<g>
					<g>
						<polygon class="st1" points="5.6,11.8 3.3,15.7 34.1,22.2 34.2,17.9 						"/>
					</g>
				</g>
			</g>
			<g>
				<g>
					<g>
						<polygon class="st1" points="2,35.2 28,41.1 30.5,37.1 0.6,30.3 						"/>
					</g>
				</g>
			</g>
			<g>
				<g>
					<g>
						<path class="st2" d="M27.7,41.4c-0.1,0-0.1,0-0.2,0L4.1,36.2c-0.2-0.1-0.4-0.3-0.3-0.5c0.1-0.2,0.3-0.4,0.5-0.3l23.4,5.2
							c0.2,0.1,0.4,0.3,0.3,0.5C28,41.2,27.8,41.3,27.7,41.4z"/>
					</g>
				</g>
			</g>
			<g>
				<g>
					<g>
						<path class="st2" d="M30.4,37.4c-0.1,0-0.1,0-0.2,0L2.6,31.1c-0.2-0.1-0.4-0.3-0.3-0.5c0.1-0.2,0.3-0.4,0.5-0.3l27.6,6.3
							c0.2,0.1,0.4,0.3,0.3,0.5C30.7,37.2,30.6,37.3,30.4,37.4z"/>
					</g>
				</g>
			</g>
			<g>
				<g>
					<g>
						<path class="st2" d="M34.4,23.2c-0.1,0-0.1,0-0.2,0L3.8,16.5c-0.2-0.1-0.4-0.3-0.3-0.5c0.1-0.2,0.3-0.4,0.5-0.3l30.4,6.8
							c0.2,0.1,0.4,0.3,0.3,0.5C34.7,23.1,34.6,23.2,34.4,23.2z"/>
					</g>
				</g>
			</g>
			<g>
				<g>
					<g>
						<path class="st2" d="M32.1,17.9c-0.1,0-0.1,0-0.2,0l-26-5.7c-0.2-0.1-0.4-0.3-0.3-0.5s0.3-0.4,0.5-0.3l26,5.7
							c0.2,0.1,0.4,0.3,0.3,0.5C32.4,17.7,32.2,17.8,32.1,17.9z"/>
					</g>
				</g>
			</g>
			<g>
				<g>
					<g>
						<path class="st2" d="M31.4,8.4c-0.1,0-0.1,0-0.2,0L12.3,4.2c-0.2-0.1-0.4-0.3-0.3-0.6c0.1-0.2,0.3-0.4,0.5-0.3l18.8,4.2
							c0.2,0.1,0.4,0.3,0.3,0.5C31.6,8.2,31.5,8.3,31.4,8.4z"/>
					</g>
				</g>
			</g>
			<g>
				<g>
					<g>
						<path class="st2" d="M32.5,13.4c-0.1,0-0.1,0-0.2,0L8.7,8.2C8.5,8.1,8.3,7.9,8.4,7.7c0.1-0.2,0.3-0.4,0.5-0.3l23.6,5.3
							c0.2,0.1,0.4,0.3,0.3,0.5C32.8,13.2,32.6,13.4,32.5,13.4z"/>
					</g>
				</g>
			</g>
			<g>
				<g>
					<g>
						<path class="st2" d="M22.6,45c-0.1,0-0.1,0-0.2,0L4.8,41.1c-0.2-0.1-0.4-0.3-0.3-0.5s0.3-0.4,0.5-0.3l17.6,3.9
							c0.2,0.1,0.4,0.3,0.3,0.5C22.9,44.8,22.7,45,22.6,45z"/>
					</g>
				</g>
			</g>
			<g>
				<g>
					<g>
						<path class="st2" d="M32.3,32.7c-0.1,0-0.1,0-0.2,0L1,25.8c-0.2-0.1-0.4-0.3-0.3-0.5C0.8,25.1,1,24.9,1.2,25l31.1,6.9
							c0.2,0.1,0.4,0.3,0.3,0.5C32.6,32.5,32.5,32.7,32.3,32.7z"/>
					</g>
				</g>
			</g>
			<g>
				<g>
					<g>
						<path class="st2" d="M32.2,27.9c-0.1,0-0.1,0-0.2,0L1.7,21.1c-0.2-0.1-0.4-0.3-0.3-0.5c0.1-0.2,0.3-0.4,0.5-0.3L32.2,27
							c0.2,0.1,0.4,0.3,0.3,0.5C32.5,27.7,32.4,27.8,32.2,27.9z"/>
					</g>
				</g>
			</g>
			<g>
				<g>
					<g>
						<path d="M20.7,45.9C20.6,46,20.4,46,20.3,46c-2.5,0.6-4.9,0.6-7.4,0.1c-4.4-1-8.2-3.8-10.5-7.7c-2-3.5-2.8-7.9-2.2-12.8
							c0.5-4.4,2-9,4.4-13.3s5.2-7.6,8.5-10c4.4-3.2,7.9-3.2,10.2-2.7l0,0c1.3,0.3,2.6,0.9,3.7,1.7c2.8,2,4.9,5.3,6.3,9.8
							c1.3,4.3,1.8,9.1,1.4,13.9c-0.4,5.1-1.8,9.6-4.1,13.2C28.2,42.1,24.7,44.8,20.7,45.9z M18.4,0.7c-1.4,0.4-3,1.1-4.8,2.4
							c-3.1,2.3-5.9,5.5-8.2,9.7s-3.8,8.6-4.3,12.9c-0.4,3.3-0.3,8,2.1,12.2c2.1,3.7,5.7,6.4,9.9,7.3l0,0c2.3,0.5,4.7,0.5,7-0.1
							c3.9-1,7.4-3.6,9.8-7.4c2.2-3.5,3.5-7.8,4-12.8c0.4-4.7-0.1-9.4-1.4-13.5c-1.4-4.3-3.4-7.5-6-9.4c-1.1-0.8-2.2-1.3-3.4-1.5
							l0,0C21.9,0.2,20.3,0.2,18.4,0.7z"/>
					</g>
				</g>
			</g>
		</g>
	</g>
	<g>
		<g>
			<g>
				<g>
					<g>
						<polygon class="st0" points="35.7,20.7 35.4,20.9 35.7,25.6 65.8,14.8 63.8,10.6 						"/>
					</g>
				</g>
			</g>
			<g>
				<g>
					<g>
						<polygon class="st0" points="45,43 69.6,34.1 70.9,29 41.2,39.7 						"/>
					</g>
				</g>
			</g>
		</g>
		<g>
			<path class="st1" d="M46.8,33L46.8,33l-2.5-0.3l-1.6,1.8c0,0,0,0-0.1,0h-0.1l-0.1-0.1L42.1,32l-2.2-1l-0.1-0.1c0,0,0-0.1,0.1-0.1
				l2.1-1.1l0.3-2.4c0,0,0-0.1,0.1-0.1h0.1l1.7,1.7l2.4-0.5h0.1v0.1l-1.1,2.2l1.2,2.1C46.9,32.9,46.9,32.9,46.8,33
				C46.9,33,46.9,33,46.8,33L46.8,33z"/>
		</g>
		<g>
			<path class="st1" d="M56.7,29.4L56.7,29.4l-2.5-0.3l-1.6,1.8c0,0,0,0-0.1,0h-0.1l-0.1-0.1l-0.4-2.4l-2.2-1l-0.1-0.1
				c0,0,0-0.1,0.1-0.1l2.1-1.1l0.3-2.4c0,0,0-0.1,0.1-0.1h0.1l1.7,1.7l2.4-0.5h0.1v0.1l-1.1,2.2l1.2,2.1
				C56.8,29.3,56.8,29.3,56.7,29.4C56.8,29.4,56.7,29.4,56.7,29.4L56.7,29.4z"/>
		</g>
		<g>
			<path class="st1" d="M66.7,25.8C66.7,25.8,66.6,25.8,66.7,25.8l-2.5-0.3l-1.6,1.8c0,0,0,0-0.1,0h-0.1l-0.1-0.1l-0.4-2.4l-2.2-1
				l-0.1-0.1c0,0,0-0.1,0.1-0.1l2.1-1.1l0.3-2.4c0,0,0-0.1,0.1-0.1h0.1l1.7,1.7l2.4-0.5h0.1v0.1l-1.1,2.2l1.2,2.1
				C66.8,25.6,66.8,25.7,66.7,25.8C66.7,25.7,66.7,25.8,66.7,25.8L66.7,25.8z"/>
		</g>
		<path d="M67.6,16.4c-2.2-4.4-5.3-8.2-8.7-11.2c-3.7-3.1-7.3-4.8-10.8-5c-1.4-0.1-2.8,0.1-4.1,0.6c-2.2,0.8-5.2,2.8-7.3,7.8
			c-1.5,3.8-2.2,8.2-1.9,13.2c0.3,5,1.4,9.7,3.4,13.8c2.2,4.5,5.2,7.9,8.8,9.8c4.1,2.2,8.9,2.5,13.2,1c1.3-0.5,2.5-1.1,3.6-1.8
			c1-0.7,1.9-1.4,2.7-2.3c3-3.2,4.7-7.5,4.7-12.3C71.2,25.7,70,21.1,67.6,16.4z M65.9,41.7c-1.7,1.8-3.7,3.1-6,3.9
			c-4.1,1.5-8.6,1.1-12.5-0.9c-0.7-0.4-1.4-0.8-2.1-1.3l21.5-7.8c0,0,0.1,0,0.1-0.1c0.2-0.1,0.2-0.3,0.2-0.5
			c-0.1-0.2-0.3-0.4-0.6-0.3l-22.1,7.9h-0.1c-1.1-0.9-2-1.9-2.8-2.9l0,0l25.9-9.2c0,0,0.1,0,0.1-0.1c0.2-0.1,0.2-0.3,0.2-0.5
			c-0.1-0.2-0.3-0.4-0.6-0.3l-26.2,9.3c-0.9-1.3-1.6-2.5-2.1-3.6c-1.9-4-3.1-8.6-3.3-13.5C35.2,17,35.9,12.7,37.3,9
			C39.2,4.2,42,2.4,44,1.6c1.2-0.4,2.4-0.6,3.8-0.5c3.5,0.2,7,1.9,10.5,4.9c1.5,1.3,2.9,2.8,4.3,4.4l-24.4,8.8
			c-0.2,0.1-0.4,0.3-0.3,0.6c0.1,0.2,0.3,0.4,0.6,0.3l24.7-8.9l0.1,0.1c0.8,1,1.5,2.1,2.2,3.2L38.7,24c-0.2,0.1-0.4,0.3-0.3,0.6
			c0.1,0.2,0.3,0.4,0.6,0.3l26.9-9.7l0.1,0.1c0.3,0.5,0.6,1,0.9,1.6c2.3,4.5,3.5,9,3.5,13.2C70.4,34.6,68.8,38.7,65.9,41.7z"/>
	</g>
</g>
</svg>
