<?xml version="1.0" encoding="utf-8"?>
<!-- Generator: Adobe Illustrator 25.0.0, SVG Export Plug-In . SVG Version: 6.00 Build 0)  -->
<svg version="1.1" id="Layer_1" xmlns="http://www.w3.org/2000/svg" xmlns:xlink="http://www.w3.org/1999/xlink" x="0px" y="0px"
	 viewBox="0 0 72.5 72.5" style="enable-background:new 0 0 72.5 72.5;" xml:space="preserve">
<style type="text/css">
	.st0{fill:#00844B;}
	.st1{fill-rule:evenodd;clip-rule:evenodd;fill:#00844B;}
	.st2{fill:#00844B;stroke:#00844B;stroke-width:0.8439;stroke-miterlimit:10;}
	.st3{fill-rule:evenodd;clip-rule:evenodd;fill:#00844B;stroke:#00844B;stroke-width:0.8439;stroke-miterlimit:10;}
	.st4{fill-rule:evenodd;clip-rule:evenodd;fill:#00844B;stroke:#00844B;stroke-width:0.211;stroke-miterlimit:10;}
	.st5{enable-background:new    ;}
	.st6{fill:#00844B;stroke:#00844B;stroke-width:0.211;stroke-miterlimit:10;}
</style>
<g>
	<path class="st0" d="M-84.3,15.6c-0.6,0-1-0.5-1-1c0-0.6,0.5-1,1-1c0.6,0,1,0.5,1,1C-83.2,15.1-83.7,15.6-84.3,15.6z M-84.3,14.5
		L-84.3,14.5C-84.3,14.6-84.2,14.5-84.3,14.5L-84.3,14.5z"/>
	<path class="st0" d="M-79.4,15.6c-0.6,0-1-0.5-1-1c0-0.6,0.5-1,1-1c0.6,0,1,0.5,1,1C-78.3,15.1-78.8,15.6-79.4,15.6z M-79.4,14.5
		L-79.4,14.5C-79.3,14.6-79.3,14.5-79.4,14.5L-79.4,14.5z"/>
	<path class="st0" d="M-74.4,15.6c-0.6,0-1-0.5-1-1c0-0.6,0.5-1,1-1s1,0.5,1,1C-73.4,15.1-73.8,15.6-74.4,15.6z M-74.5,14.5
		L-74.5,14.5C-74.4,14.6-74.4,14.5-74.5,14.5L-74.5,14.5z"/>
	<path class="st0" d="M-73.3,30.8h-13.2c-0.5,0-1-0.4-1-1c0-0.5,0.4-1,1-1h13.2c0.5,0,1,0.4,1,1C-72.4,30.4-72.8,30.8-73.3,30.8z"/>
	<path class="st0" d="M-73.3,36.3h-13.2c-0.5,0-1-0.4-1-1s0.4-1,1-1h13.2c0.5,0,1,0.4,1,1S-72.8,36.3-73.3,36.3z"/>
	<path class="st0" d="M-73.3,41.8h-13.2c-0.5,0-1-0.4-1-1s0.4-1,1-1h13.2c0.5,0,1,0.4,1,1S-72.8,41.8-73.3,41.8z"/>
	<g>
		<path class="st0" d="M-49.2,8h-35.1c-5.4,0-9.8,4.4-9.8,9.8V19v2v29.7c0,5.4,4.4,9.8,9.8,9.8h35.1c5.4,0,9.8-4.4,9.8-9.8V21v-2
			v-1.2C-39.4,12.4-43.8,8-49.2,8z M-41.4,50.7c0,4.3-3.5,7.8-7.8,7.8h-35.1c-4.3,0-7.8-3.5-7.8-7.8V21h50.6V50.7z M-92.1,19v-1.2
			c0-4.3,3.5-7.8,7.8-7.8h35.1c4.3,0,7.8,3.5,7.8,7.8V19H-92.1z"/>
		<path class="st0" d="M-67.8,26.7v15.2H-46V26.7H-67.8z M-48,28.7v10.6l-4.5-7.2l-4.4,7.4l-4.3-5.2l-4.5,5.4v-11H-48z"/>
		<path class="st0" d="M-47,47.3h-39.5c-0.5,0-1-0.4-1-1s0.4-1,1-1H-47c0.5,0,1,0.4,1,1S-46.5,47.3-47,47.3z"/>
		<path class="st0" d="M-47,52.7h-39.5c-0.5,0-1-0.4-1-1s0.4-1,1-1H-47c0.5,0,1,0.4,1,1S-46.5,52.7-47,52.7z"/>
	</g>
</g>
<g>
	<path class="st1" d="M59,120.4h-9c-1.1,0-1.9,0.9-1.9,1.9v8.9c0,1.1,0.9,1.9,1.9,1.9h9c1.1,0,1.9-0.9,1.9-1.9v-8.9
		C60.9,121.3,60.1,120.4,59,120.4z M50.2,131.3h8.5v-8.7h-8.5V131.3z"/>
	<path class="st1" d="M59,104.9h-9c-1.1,0-1.9,0.9-1.9,1.9v8.9c0,1.1,0.9,1.9,1.9,1.9h9c1.1,0,1.9-0.9,1.9-1.9v-8.9
		C60.9,105.8,60.1,104.9,59,104.9z M50.2,115.8h8.5v-8.7h-8.5V115.8z"/>
	<path class="st1" d="M17,120.3H8c-1.1,0-1.9,0.9-1.9,1.9v8.9c0,1.1,0.9,1.9,1.9,1.9h9c1.1,0,1.9-0.9,1.9-1.9v-8.9
		C18.9,121.1,18.1,120.3,17,120.3z M8.2,131.1h8.5v-8.7H8.2V131.1z"/>
	<path class="st1" d="M17,104.9H8c-1.1,0-1.9,0.9-1.9,1.9v8.9c0,1.1,0.9,1.9,1.9,1.9h9c1.1,0,1.9-0.9,1.9-1.9v-8.9
		C18.9,105.8,18.1,104.9,17,104.9z M8.2,115.8h8.5v-8.7H8.2V115.8z"/>
	<path class="st1" d="M63.9,89c-0.2-0.4-0.6-0.6-1-0.6H40.8L35,82.5h-0.8c0.6-0.2-1.7,1.8-6.7,5.9h-22c-0.4,0-0.8,0.2-1,0.6
		l-6.1,12.6c-0.2,0.3-0.1,0.7,0.1,1.1c0.2,0.3,0.5,0.5,0.9,0.5H2V136c-0.1,0.2-0.1,0.3-0.1,0.5v4.3c0,0.7,0.6,1.3,1.5,1.3h61.7
		c0.8,0,1.5-0.6,1.5-1.3v-4.3c0-0.2,0-0.3-0.1-0.5v-32.8H69c0,0,0,0,0,0c0.6,0,1.1-0.5,1.1-1.1c0-0.2-0.1-0.5-0.2-0.7L63.9,89z
		 M34.2,84.7l11,11.1H45c-0.6,0-1.1,0.5-1.1,1.1v38.2h-5.5v-11.5c0-0.6-0.5-1.1-1.1-1.1h-6.1c-0.6,0-1.1,0.5-1.1,1.1v11.5H24V96.9
		c0-0.5-0.4-1-0.9-1.1L34.2,84.7z M32.3,135.2h3.9v-10.4h-3.9V135.2z M6.2,90.5h19.1l-5.6,5.6c-0.3,0.3-0.4,0.8-0.2,1.2
		c0.2,0.4,0.6,0.7,1,0.7h1.3v2.9H1.2L6.2,90.5z M4.9,103.1h16.9v32H4.2v-32H4.9z M64.4,139.9H4.1l0.1-2.2h60.3L64.4,139.9z
		 M46.1,135.2h18.2v-32H46.1V135.2z M65.4,101H46.1V98h1.7c0.4,0,0.8-0.3,1-0.7c0.2-0.4,0.1-0.9-0.2-1.2L43,90.5h19.3l5,10.4H65.4z"
		/>
	<path class="st1" d="M34.4,104.6c3.6,0,6.6-2.9,6.6-6.6c0-3.6-2.9-6.6-6.6-6.6c-3.6,0-6.6,2.9-6.6,6.6
		C27.8,101.7,30.7,104.6,34.4,104.6z M34.4,93.7c2.4,0,4.4,2,4.4,4.4c0,2.4-2,4.4-4.4,4.4c-2.4,0-4.4-2-4.4-4.4
		C30,95.6,32,93.7,34.4,93.7z"/>
	<path class="st1" d="M33.1,98.4c0.1,0.6,0.6,1.1,1.2,1.1c0.7,0,1.2-0.5,1.2-1.2c0,0,0,0,0,0l1.8-2.2c0.2-0.2,0.2-0.5,0-0.7
		c-0.2-0.2-0.5-0.2-0.7,0l-2.1,1.8c-0.2,0-0.3,0-0.5,0.1l-2-0.9c-0.3-0.1-0.6,0-0.7,0.2c-0.1,0.2-0.1,0.6,0.2,0.7L33.1,98.4"/>
</g>
<g>
	<path class="st0" d="M31.8-48.4L31-66.8c0-0.8,0.6-1.5,1.5-1.5H36c0.8,0,1.5,0.7,1.5,1.5l-0.8,18.4c0,0.8-0.7,1.4-1.5,1.4h-1.9
		C32.5-47,31.9-47.6,31.8-48.4z"/>
	<path class="st0" d="M30.8-39c0-2,1.5-3.4,3.5-3.4c2.1,0,3.5,1.4,3.5,3.4c0,1.9-1.4,3.4-3.5,3.4C32.2-35.6,30.8-37.1,30.8-39z"/>
	<path class="st2" d="M61.9-29.3H6.6c-1.3,0-2.5-0.7-3.1-1.8c-0.6-1.1-0.6-2.5,0-3.6l27.6-47.8c0.6-1.1,1.8-1.7,3.1-1.7
		c1.3,0,2.5,0.7,3.1,1.8L65-34.7c0.6,1.1,0.6,2.5,0,3.6C64.3-30,63.1-29.3,61.9-29.3z M34.3-82.2c-0.6,0-1.1,0.3-1.4,0.7L5.3-33.7
		c-0.3,0.5-0.3,1.1,0,1.6c0.3,0.5,0.8,0.8,1.4,0.8h55.2c0.6,0,1.1-0.3,1.4-0.8c0.3-0.5,0.3-1.1,0-1.6L35.6-81.5
		C35.4-81.9,34.8-82.2,34.3-82.2z"/>
</g>
<g>
	<path class="st3" d="M131.8,25.4h24.7c0.6,0,1.1-0.5,1.1-1.1s-0.5-1.1-1.1-1.1h-24.7c-0.6,0-1.1,0.5-1.1,1.1S131.2,25.4,131.8,25.4
		"/>
	<path class="st3" d="M149.3,65.4h-29.9c-2,0-3.6-1.6-3.6-3.6V18.6c0-2,1.6-3.6,3.6-3.6h1.8v-2.2h-1.8c-3.2,0-5.8,2.6-5.8,5.8v43.3
		c0,3.2,2.6,5.8,5.8,5.8h29.9c3.1,0,5.7-2.5,5.7-5.7h-2.2C152.8,63.8,151.3,65.4,149.3,65.4"/>
	<path class="st3" d="M161.1,8.6L161.1,8.6c-2.1-2.1-6-3.6-8.9-3.6h-23c-3.2,0-5.8,2.6-5.8,5.8v43.3c0,3.2,2.6,5.8,5.8,5.8H159
		c3.2,0,5.8-2.6,5.8-5.8V17.2C164.8,14.4,163.2,10.5,161.1,8.6z M159.6,10.1c0.7,0.7,1.4,1.7,1.9,2.8h-5.2V8.1
		C157.5,8.6,158.7,9.3,159.6,10.1L159.6,10.1z M162.6,53.9c0,2-1.6,3.6-3.6,3.6h-29.8c-2,0-3.6-1.6-3.6-3.6V10.7
		c0-2,1.6-3.6,3.6-3.6h23c0.6,0,1.2,0.1,1.9,0.2v6.7c0,0.6,0.5,1.1,1.1,1.1h7.1c0.2,0.7,0.3,1.4,0.3,2.1V53.9z"/>
	<path class="st3" d="M159.5,29.9h-30.7c-0.6,0-1.1,0.5-1.1,1.1c0,0.6,0.5,1.1,1.1,1.1h30.7c0.6,0,1.1-0.5,1.1-1.1
		C160.6,30.4,160.1,29.9,159.5,29.9"/>
	<path class="st3" d="M159.5,36.7h-30.7c-0.6,0-1.1,0.5-1.1,1.1c0,0.6,0.5,1.1,1.1,1.1h30.7c0.6,0,1.1-0.5,1.1-1.1
		C160.6,37.2,160.1,36.7,159.5,36.7"/>
</g>
<g>
	<path class="st0" d="M70,5.9c-13.8-0.5-28.3,2.8-33.8,7.9C31.5,9.4,18,5.4,2.4,6.6C1.1,6.7,0,7.8,0,9.1v46.6c0,0.7,0.3,1.4,0.8,1.9
		c0.5,0.5,1.2,0.7,1.9,0.7c16-1.2,26.8,1.3,31.5,7.4l0.1,0.1c0.2,0.2,0.4,0.4,0.7,0.5c0.1,0,0.1,0.1,0.2,0.1l0.2,0.1
		c0.3,0.1,0.5,0.1,0.8,0.1c0.3,0,0.6,0,0.9-0.2l0.1-0.1c0.1,0,0.1-0.1,0.3-0.1c0.3-0.1,0.5-0.3,0.6-0.5l0.1-0.2
		c4.5-5.9,15.4-8.7,31.5-8.1c0.7,0,1.4-0.2,1.9-0.7c0.5-0.5,0.8-1.2,0.8-1.8V8.4C72.5,7.1,71.4,5.9,70,5.9z M69.9,55.1
		c-16.9-0.7-28.4,2.5-33.5,8.9l-0.1,0.1l0,0c0,0,0,0,0,0l0,0c0,0,0,0-0.1-0.1c-5.1-6.7-16.7-9.6-33.5-8.3c0,0,0,0-0.1,0
		c0,0,0-0.1,0-0.1V9.1c0-0.1,0-0.1,0.1-0.1c15-1.2,27.7,2.5,32.1,6.6c0.2,0.2,0.4,0.4,0.7,0.7l0.9,1.1l0.9-1.1
		c0.2-0.2,0.4-0.4,0.6-0.6c4.9-4.7,18.7-7.9,32.2-7.4C70,8.3,70,8.4,70,8.4V55C70,55.1,70,55.1,69.9,55.1L69.9,55.1z"/>
	<path class="st0" d="M38.4,17.6c-0.7,0.6-1.4,1.6-1.4,2.7v40.8l1.9-1.7c5.1-4.5,14.4-6.5,27.4-6.2l1.2,0V10.9l-1.1,0
		C53.1,10.6,42,14.1,38.4,17.6z M66.3,52c-13.3-0.4-22.7,1.8-28.1,6.4V20.3c0-0.5,0.4-1.2,1.1-1.8c3.3-3.2,13.3-6.4,25.6-6.4
		c0.5,0,1,0,1.5,0V52z"/>
	<path class="st0" d="M34,17.5c-3.8-3.5-14.9-6.8-27.9-6L5,11.5v42.3l1.2-0.1c12.9-0.8,22.1,1.1,27.4,5.6l1.9,1.7V20.3
		C35.5,19.4,35,18.4,34,17.5z M34.3,58.4c-4.7-4-12.3-6-22.5-6c-1.8,0-3.7,0.1-5.6,0.2V12.7c12.7-0.7,23.4,2.4,27,5.7
		c0.7,0.7,1.1,1.3,1.1,1.9V58.4z"/>
</g>
<g>
	<path class="st4" d="M-30.8-31.9h-5.9v-13.8c0-3.3-2.6-6.1-6.3-7.8c0.1-0.3,0.2-0.6,0.4-0.9c0.2-0.5,0.2-0.8,0.2-0.8l0.2-1.1
		l-1.1-0.2c-4.2-0.6-4.2-5-3.5-12.2l0.1-0.9c0.1-0.6,0.2-1.1,0.2-1.7c0-0.2,0-0.4,0-0.5l0,0c0.2-3.8,0.2-7.7-1.8-10.3
		c-0.4-0.6-0.9-1.1-1.3-1.6c-0.6-1.4-1.8-2.7-3.4-3.5c-1.8-0.9-4-1.3-6.7-1.3c-5.6,0-10.5,3.4-12.1,8.3c-2.7,6.5-1.8,12.2-1.1,16.3
		c0.4,2.7,0.8,4.9-0.1,6c-0.5,0.7-1.6,1.2-3.2,1.4l-1.1,0.2l0.2,1.1c0,0,0.1,0.3,0.2,0.7c0.1,0.2,0.1,0.4,0.2,0.7
		c0,0.1,0.1,0.2,0.1,0.2c-3.7,1.8-6.3,4.5-6.3,7.8v13.8h-5.9c-0.6,0-1.1,0.5-1.1,1.1s0.5,1.1,1.1,1.1h7c0.6,0,1.1-0.5,1.1-1.1
		c0,0,0,0,0,0v-14.8c0-4.1,6.9-7.9,14.4-7.9c0.2,0,0.4,0,0.5-0.1c1.3-0.7,1.8-2.6,2.1-4.2l0-0.2c0,0,0-0.1,0-0.1l0.1-0.4
		c0.2-1,0.5-2.3,0.5-3.8c0-0.3-0.1-0.6-0.3-0.8c-0.3-0.3-0.7-0.6-1.1-1c-1-1-1.7-2.3-2-4.1c6.2-2.6,10.2-5.3,12.8-8.7
		c0.4,1.9,0.8,4.6,0.7,7.1c0,0,0,0.1,0,0.1c-0.3,2.6-1,4.3-2.3,5.6c-0.4,0.4-0.7,0.7-1,1c-0.2,0.2-0.3,0.5-0.3,0.8
		c0,1.5,0.3,2.9,0.5,3.9l0.1,0.7c0.2,1.1,0.6,3.3,2,4.1c0.2,0.1,0.3,0.1,0.5,0.1c7.5,0,14.4,3.8,14.4,7.9v14.8h0c0,0,0,0,0,0
		c0,0.6,0.5,1.1,1.1,1.1h7c0.6,0,1.1-0.5,1.1-1.1S-30.2-31.9-30.8-31.9z M-53.7-58.2c0-0.1,0-0.3-0.1-0.3l-0.1-0.5
		c-0.2-0.8-0.4-1.8-0.5-2.9c0.2-0.2,0.4-0.4,0.7-0.7c1.6-1.6,2.5-3.7,2.9-6.7c0-0.1,0-0.1,0-0.2c0.3-4.4-1-9.1-1.4-10.4
		c-0.1-0.4-0.5-0.7-0.9-0.8c-0.4,0-0.9,0.2-1.1,0.6c-2.3,4.2-6.5,7.3-13.9,10.3c-0.5,0.2-0.8,0.7-0.7,1.2c0.4,2.7,1.3,4.6,2.8,6.1
		c0.3,0.3,0.5,0.5,0.8,0.7c0,1-0.3,2-0.4,2.8l-0.1,0.5c0,0,0,0.1,0,0.1l0,0.1c-0.3,1.7-0.7,2.3-0.9,2.5c-2.7,0-5.5,0.6-8,1.5
		c0-0.1-0.1-0.1-0.1-0.2c1.6-0.4,2.7-1.1,3.4-2c1.4-1.9,1-4.5,0.5-7.7c-0.7-4.1-1.5-9.2,1-15.2c1.3-4.1,5.3-6.9,10.1-6.9
		c2.3,0,4.2,0.4,5.6,1.1c1.2,0.6,2.1,1.5,2.4,2.5l0.1,0.3l0.3,0.2c0.4,0.3,0.7,0.7,1.1,1.3c1.6,2.1,1.6,5.7,1.4,9l0,0.1l0,0.3
		c0,0.1,0,0.2,0,0.3c0,0.4-0.1,0.8-0.2,1.3l-0.1,1.1c-0.5,5.9-1.1,12.6,4.2,14.3c0,0.1-0.1,0.2-0.1,0.2c-2.5-0.9-5.2-1.4-7.9-1.4
		C-53.1-56-53.4-56.7-53.7-58.2z"/>
	<path class="st4" d="M-41.8-46H-78c-0.6,0-1.1,0.5-1.1,1.1V-20c0,0.6,0.5,1.1,1.1,1.1h36.2c0.6,0,1.1-0.5,1.1-1.1v-24.9
		C-40.7-45.5-41.2-46-41.8-46z M-76.9-21.1h34v-22.7h-34V-21.1z"/>
</g>
<g>
	<g>
		<g>
			<g class="st5">
				<g>
					<g>
						<path class="st6" d="M-38.9,139.5h-31.8c-3,0-5.4-2.4-5.4-5.4V92.4c0-3,2.4-5.4,5.4-5.4h31.8c3,0,5.4,2.4,5.4,5.4v41.7
							C-33.5,137-35.9,139.5-38.9,139.5z M-74,130.7v3.4c0,1.9,1.5,3.4,3.4,3.4h31.8c1.9,0,3.4-1.5,3.4-3.4v-3.4H-74z M-74,128.7
							h38.6v-32H-74V128.7z M-74,94.7h38.6v-2.3c0-1.9-1.5-3.4-3.4-3.4h-31.8c-1.9,0-3.4,1.5-3.4,3.4V94.7z M-54.8,135.4
							c-0.7,0-1.3-0.6-1.3-1.3c0-0.7,0.6-1.3,1.3-1.3s1.3,0.6,1.3,1.3C-53.5,134.8-54,135.4-54.8,135.4z M-54.8,133.4
							c-0.4,0-0.7,0.3-0.7,0.7c0,0.4,0.3,0.7,0.7,0.7s0.7-0.3,0.7-0.7C-54,133.7-54.3,133.4-54.8,133.4z"/>
					</g>
				</g>
			</g>
		</g>
	</g>
</g>
</svg>
