<?xml version="1.0" encoding="utf-8"?>
<!-- Generator: Adobe Illustrator 25.0.0, SVG Export Plug-In . SVG Version: 6.00 Build 0)  -->
<svg version="1.1" id="Layer_1" xmlns="http://www.w3.org/2000/svg" xmlns:xlink="http://www.w3.org/1999/xlink" x="0px" y="0px"
	 viewBox="0 0 16 12" style="enable-background:new 0 0 16 12;" xml:space="preserve">
<style type="text/css">
	.st0{fill:#2476BC;}
	.st1{fill:none;stroke:#2476BC;stroke-width:1.2;stroke-linecap:square;stroke-linejoin:bevel;stroke-miterlimit:10;}
	.st2{fill:#FFFFFF;}
	.st3{fill-rule:evenodd;clip-rule:evenodd;fill:#FFFFFF;}
</style>
<g>
	<polygon class="st0" points="3.2,28.6 12.8,28.6 12.8,25.9 14,25.9 14,30 2,30 2,25.9 3.2,25.9 	"/>
	<polygon class="st0" points="4.2,22.4 5.2,21.3 7.4,23.8 7.4,18 8.8,18 8.8,24 11,21.3 11.9,22.4 8.2,26.7 	"/>
</g>
<g id="Export_4_" transform="translate(0 74)">
	<path id="Path_151_4_" class="st0" d="M21.4-72.8v9.5h6.8v1.2H20v-12h8.2v1.2H21.4z M27.7-64.1l-1.1-1l2.5-2.2h-5.8v-1.4h6
		l-2.7-2.2l1.1-1l4.3,3.7L27.7-64.1z"/>
</g>
<path id="Path_110_3_" class="st0" d="M-11,8.6l1.3-1.2c0.1-0.1,0.2-0.1,0.3-0.1l0.2,0.1l3,1.4C-6,8.9-6,9-6,9.2
	c0,0.7-0.3,1.4-0.9,1.9C-7.5,11.7-8.3,12-9.1,12c-1,0-2.1-0.3-3-0.7c-1.1-0.6-2.1-1.3-3-2.1c-0.6-0.7-1.1-1.5-1.6-2.4
	c-0.4-0.8-0.8-1.5-1.1-2.4C-18,3.7-18,3-18,2.4c0.1-0.6,0.3-1.2,0.7-1.6c0.6-0.5,1.3-0.7,2-0.7c0.2,0,0.3,0.1,0.4,0.2l1.6,3
	c0,0.1,0,0.2,0.1,0.2c0,0.1,0,0.2-0.1,0.3L-14.6,5c-0.1,0.2-0.1,0.4,0,0.5c0.4,0.6,0.8,1.2,1.3,1.7c0.5,0.5,1.1,1,1.7,1.4
	C-11.4,8.8-11.1,8.8-11,8.6z"/>
<g id="Down_arrow_44_">
	<g>
		<path id="Path_10_8_" class="st0" d="M5-14.8l4.1-4.1L8-20l-6,6l6,6l1.1-1.1L5-13.2h9v-1.6"/>
	</g>
</g>
<g>
	<g id="Information_6_" transform="translate(0 28)">
		<path id="Union_6_6_" class="st0" d="M-12.4-37.4v-0.9h0.9v-3.6h-0.9v-0.9h1.8v4.6h0.9v0.9H-12.4z M-11.9-44
			c0-0.4,0.3-0.7,0.7-0.7s0.7,0.3,0.7,0.7c0,0.4-0.3,0.7-0.7,0.7S-11.9-43.6-11.9-44z"/>
	</g>
	<circle class="st1" cx="-11" cy="-13" r="5.4"/>
</g>
<g id="Forward_arrow_small_18_">
	<path id="Path_36_18_" class="st2" d="M-10,20.1l6,6l-1.8,1.8l-4.2-4.2l-4.2,4.2l-1.8-1.8L-10,20.1z"/>
</g>
<path class="st3" d="M14,2H2l6,5L14,2z M0,2c0-1.1,0.9-2,2-2h12c1.1,0,2,0.9,2,2v8c0,1.1-0.9,2-2,2H2c-1.1,0-2-0.9-2-2V2z"/>
</svg>
