<svg id="Group_2244" data-name="Group 2244" xmlns="http://www.w3.org/2000/svg" width="23.7" height="23.7" viewBox="0 0 23.7 23.7">
  <path id="Path_2300" data-name="Path 2300" d="M22.392,0H1.308A1.308,1.308,0,0,0,0,1.308V22.392A1.308,1.308,0,0,0,1.308,23.7h11.36V14.534H9.582V10.947h3.085V8.307c0-3.061,1.871-4.728,4.6-4.728a26.269,26.269,0,0,1,2.754.139v3.2h-1.88c-1.487,0-1.777.7-1.777,1.741v2.284H19.92l-.462,3.588H16.345V23.7h6.048A1.308,1.308,0,0,0,23.7,22.392h0V1.308A1.308,1.308,0,0,0,22.392,0Z" fill="#409fff"/>
  <path id="f" d="M30.213,28.88V19.715h3.093l.462-3.588H30.213V13.843c0-1.038.29-1.741,1.777-1.741h1.9V8.9a26.236,26.236,0,0,0-2.758-.139c-2.734,0-4.6,1.667-4.6,4.728v2.64H23.45v3.588h3.085V28.88Z" transform="translate(-13.868 -5.18)" fill="none"/>
</svg>
