<svg xmlns="http://www.w3.org/2000/svg" xmlns:xlink="http://www.w3.org/1999/xlink" width="48.662" height="79.59" viewBox="0 0 48.662 79.59">
  <defs>
    <clipPath id="clip-path">
      <rect id="Rectangle_265" data-name="Rectangle 265" width="48.662" height="79.59" transform="translate(7137.236 5917.145)" fill="none"/>
    </clipPath>
  </defs>
  <g id="GCC_Border_" data-name="GCC (Border)" transform="translate(-7137.236 -5917.145)">
    <g id="Group_362" data-name="Group 362">
      <g id="Group_361" data-name="Group 361" clip-path="url(#clip-path)">
        <g id="Group_360" data-name="Group 360">
          <g id="Group_359" data-name="Group 359" clip-path="url(#clip-path)">
            <g id="Group_358" data-name="Group 358">
              <g id="Group_357" data-name="Group 357" clip-path="url(#clip-path)">
                <rect id="Rectangle_257" data-name="Rectangle 257" width="48.662" height="79.59" transform="translate(7137.236 5917.145)" fill="#fff"/>
                <rect id="Rectangle_258" data-name="Rectangle 258" width="43.557" height="9.397" transform="translate(7139.571 5962.877)" fill="#fff"/>
                <rect id="Rectangle_259" data-name="Rectangle 259" width="43.56" height="7.254" transform="translate(7139.568 5986.835)" fill="#fec709"/>
                <path id="Path_667" data-name="Path 667" d="M7183.129,5920.062h-43.561v43.562h6.514v3.584h11.26v-3.584h8.013v3.584h11.259v-3.584h6.515Z" fill="#0e5e5f"/>
                <path id="Path_668" data-name="Path 668" d="M7161.362,5960a18.145,18.145,0,1,1,18.146-18.145A18.145,18.145,0,0,1,7161.362,5960" fill="#fec709"/>
                <path id="Path_669" data-name="Path 669" d="M7146.084,5967.212a5.755,5.755,0,0,0,11.255,0h8.02a5.753,5.753,0,0,0,11.252,0h6.517v19.626h-43.559v-19.626Z" fill="#0e5e5f"/>
                <path id="Path_670" data-name="Path 670" d="M7149.489,5951.449a1.332,1.332,0,0,1,.539-1.433c.518-.41.521-.531.589-.728a.244.244,0,0,0-.116-.331c-.107-.042-.349-.045-.334.272.011.226-.1.212-.215.032-.174-.273-.1-.607.282-.943.508-.451,1.5-.429,2.107-.536a.967.967,0,0,0,.708-.492c.034-.077.054-.135-.059-.068-.073.041-.361.183-.392.122-.048-.089.108-.328.39-.955a2.714,2.714,0,0,0,.062-1.845,8.142,8.142,0,0,0-1.566-2.289,7.2,7.2,0,0,0,.555-.92,2.841,2.841,0,0,0,.205-.681c.007-.289-.025-.785,0-1.171a4.955,4.955,0,0,1,2.047-3.619.738.738,0,0,1,.14-.485.63.63,0,0,1,.469-.28l-.567-1.2a14.344,14.344,0,0,1,1.517-.574l.668,1.884.772-.235-.564-1.9a16.041,16.041,0,0,1,2.361-.489l.284,1.949.876-.1-.158-1.957a18.509,18.509,0,0,1,2.74,0l-.162,1.957.878.1.285-1.949a16.015,16.015,0,0,1,2.361.489l-.564,1.9.773.235.667-1.884a14.281,14.281,0,0,1,1.516.574l-.565,1.2a.629.629,0,0,1,.468.28.754.754,0,0,1,.14.485,4.955,4.955,0,0,1,2.047,3.619c.025.386-.008.882,0,1.171a2.9,2.9,0,0,0,.2.681,7.316,7.316,0,0,0,.555.92,8.182,8.182,0,0,0-1.565,2.289,2.717,2.717,0,0,0,.062,1.845c.282.627.438.866.392.955-.033.061-.32-.081-.394-.122-.114-.067-.091-.009-.057.068a.96.96,0,0,0,.706.492c.609.107,1.6.085,2.107.536.377.336.456.67.283.943-.113.18-.227.194-.216-.032.015-.317-.227-.314-.335-.272a.244.244,0,0,0-.115.331c.068.2.071.3.592.728a1.344,1.344,0,0,1,.536,1.433c-.174.655-.785.829-.812.96a2.1,2.1,0,0,1-.482,1.176,2.014,2.014,0,0,0-.41,1.151c.021.272.048.306.082.356s-.064.124-.152.045a1.042,1.042,0,0,1-.276-.746c.031-.18-.029-.149-.087-.1s-.16.2-.067.512c.045.148-.006.137-.084.11a.8.8,0,0,1-.4-.722c.073-.4.082-.506-.032-.433a4.879,4.879,0,0,1-2.392.865,5.01,5.01,0,0,1-2.358-.468s-.068-.05-.062.019a1.821,1.821,0,0,1-1.173,1.481c-1.112.293-1.447.1-1.828.287a.616.616,0,0,0-.309.447c-.043.3-.245.077-.323-.146a.975.975,0,0,1,.031-.679c.088-.152-.051-.326-.1-.308a3.467,3.467,0,0,1-.737.06,3.589,3.589,0,0,1-.737-.06c-.05-.018-.189.156-.1.308a.975.975,0,0,1,.033.679c-.079.223-.281.443-.325.146a.62.62,0,0,0-.309-.447c-.381-.183-.715.006-1.829-.287a1.816,1.816,0,0,1-1.17-1.481c.006-.069-.063-.019-.063-.019a5.019,5.019,0,0,1-2.359.468,4.867,4.867,0,0,1-2.39-.865c-.115-.073-.106.035-.033.433a.8.8,0,0,1-.4.722c-.077.027-.129.038-.084-.11.094-.311-.009-.46-.068-.512s-.118-.082-.087.1a1.057,1.057,0,0,1-.275.746c-.09.079-.186,0-.152-.045s.06-.084.081-.356a2.01,2.01,0,0,0-.408-1.151,2.121,2.121,0,0,1-.485-1.176c-.027-.131-.637-.305-.811-.96" fill="#0e5e5f"/>
                <path id="Path_671" data-name="Path 671" d="M7161.371,5924.34a.145.145,0,0,1,.086.073,10.686,10.686,0,0,1,.7,1.118,1.324,1.324,0,0,1,.033.683c-.024.225-.108.2-.126.3a.893.893,0,0,0-.02.294c.015.092.1.1.09.29s-.192.275-.169.349.057.058.09.162c.015.057.1.043.129-.009a4.321,4.321,0,0,0,.162-.78c.019-.1.09-.092.172-.113.1-.028.075-.057-.057-.043s-.183-.14-.2-.306a1.01,1.01,0,0,1,.044-.4.668.668,0,0,0,0-.348c-.063-.178.2-.277.262-.115.02.058.022.1.047.118a.116.116,0,0,0,.137-.012c.029-.032.02-.124.031-.161.04-.14.239-.207.293.009.013.054-.014.107,0,.13a.214.214,0,0,0,.176.065c.023,0,0,.009.066-.082s.359-.116.284.148a.194.194,0,0,0-.07.13c0,.05.04.09.079.138s.1.01.155-.006a.164.164,0,1,1,.05.321c-.076.015-.15-.041-.152.045a.349.349,0,0,1-.048.188c-.045.073,0,.118.071.174.107.082-.025.284-.18.18,0,0-.07-.061-.093-.037a1.536,1.536,0,0,1-.473.229c-.067.015-.058.023-.07.062a8.025,8.025,0,0,0-.118.866c.014.062-.008.045.035.087a1.333,1.333,0,0,1,.255.381c.039.137.134.385.152.483,0,0-.012.04.086.04.156,0,.211.133.266.393a9.337,9.337,0,0,1,.1,1.637c-.033.3,0,.354-.218.421-.1.031-.154-.036-.173.024-.013.039.1.193.221.311a.265.265,0,0,1-.128.448,3.046,3.046,0,0,1-1.16-.1.139.139,0,0,0-.162.024c-.1.069-.075.1-.666.123a1.7,1.7,0,0,1-.711-.141s-.086-.076-.1-.024.006.077-.095.109a2.837,2.837,0,0,1-.87.018c-.453-.027-.725-.05-.763-.327a.559.559,0,0,1,.08-.243c.034-.048.092-.138.023-.146,0,0-.181-.058-.181-.473a2,2,0,0,1,.052-.447c.026-.172-.015-.776-.013-.938a1.8,1.8,0,0,1,.129-.64,3.175,3.175,0,0,0,.341-.88c.026-.287.015-.647.148-.773a.842.842,0,0,0,.116-.189c.032-.111-.013-.267.024-.365.023-.063.16-.075.237-.046,0,0,.065.04.09,0,0,0,.018-.085.159-.069s.188.268.3.753a2.408,2.408,0,0,1,.079.353c.012.107.2.065.216.025a.656.656,0,0,0,.029-.328c-.019-.1-.139-.154-.149-.4s.124-.241.118-.368a.709.709,0,0,0-.031-.258,1.022,1.022,0,0,1-.135-.475.832.832,0,0,1,.062-.395c.118-.258.638-.887.778-1.19.029-.069.079-.064.079-.064" fill="#0e5e5f"/>
                <path id="Path_672" data-name="Path 672" d="M7161.457,5938.624h-5.271l.016,3.921a10.1,10.1,0,0,0,1.425,3.791,9.764,9.764,0,0,0,1.872,2.291,1.209,1.209,0,0,1,.562-.431s-.25-.031-.363-.052a3.492,3.492,0,0,1-1.19-.647c-.152-.212-.072-.249-.072-.249.032-.069,0-.068-.048-.135a.468.468,0,0,1,.037-.508.439.439,0,0,1,.594-.086.377.377,0,0,1,.177.318,1.627,1.627,0,0,1-.029.229,1.789,1.789,0,0,0,.25-.051,7.7,7.7,0,0,1,.857-.217,2.1,2.1,0,0,0,.487-.078c.056-.024.032-.046.042-.113s.035-2.007.035-2.007-.419-.616-.635-.589-.338.017-.43.042a1.887,1.887,0,0,0-.348.175c-.1.059-.337.109-.43.008l-.185-.2a.437.437,0,0,0-.225.072.471.471,0,0,1-.363.053c-.068-.033-.164-.337-.164-.337s-.07-.123,0-.148-.045-.021-.092-.044-.193-.064-.217-.143-.118-.258-.076-.373.087-.285.223-.321-.026-.191-.04-.272-.321-.265-.212-.46.237-.141.347-.232.165-.3.357-.324.5.184.638.157-.025-.089-.025-.191.073-.3.391-.222a.419.419,0,0,1,0-.214c.032-.092.146-.048.191-.118s-.117-.2-.064-.373a.4.4,0,0,1,.472-.187c.15.053.389.116.478.035a1.091,1.091,0,0,1,.5-.314c.191-.016.306-.027.348-.109a.4.4,0,0,0,.007-.306c-.034-.055-.239-.018-.343-.175s-.085-.35-.177-.371-.43-.094-.43-.094l.325-.12s.111-.171.258-.151.161.144.254.234.205.019.307.1.2.165.322.277a1.458,1.458,0,0,0,.614.2c.058-.012-.208.3-.241.355s-.113-.02-.16-.065a3.188,3.188,0,0,1-.31-.267c-.023-.044-.206-.006-.214.062a.939.939,0,0,0-.006.351c.035.045.149.032.228.076a.708.708,0,0,1,.217.131c.047.056.092.01.148.032s.025.124.1.124.111-.15.246-.141.262-.005.331.073a.461.461,0,0,1,.1.293c0,.1-.03.172.016.2s.089-.024.123-.071a.125.125,0,0,1,.158-.058c.069.032.1.066.115.111a.556.556,0,0,1,.014.089.261.261,0,0,1,.158-.047c.1,0,.145-.014.226.053s.139.111.2.155.08.067.159.031a.384.384,0,0,1,.364.062c.069.089,0,.181.06.237s.171.019.272.018a.334.334,0,0,1,.275.13.256.256,0,0,1-.006.329c-.065.093-.2.071-.19.163a.427.427,0,0,1-.038.294.854.854,0,0,1-.531.123c-.1-.054-.127-.065-.1.014a.7.7,0,0,1,.03.34c-.034.078-.021.056.036.145a.242.242,0,0,1,.015.273c-.056.067-.144.114-.088.181s.1.021.205.009.149.11.107.259a.489.489,0,0,1-.38.323c-.181.026-.717-.1-.851-.076s-.565.088-.619.238-.237.084-.351.108-.249-.031-.26-.108-.149-.01-.193.06-.122.125-.1.25,0,2.3,0,2.3.013.113.083.133a2.846,2.846,0,0,0,.375.062.217.217,0,0,0,.213-.094c.044-.069.159.031.228.076a.975.975,0,0,0,.525.161,1.6,1.6,0,0,0,.575-.136,1.069,1.069,0,0,1,.438-.143c.1.009.114.02.07.09s-.379.289-.377.437-.031.182.049.247.163.247.106.3-.292.018-.372-.016a2.536,2.536,0,0,0-.784-.076c-.135.048-.65.178-.608.191a2.223,2.223,0,0,1,1.148.722,10.873,10.873,0,0,0,3.356-6.14l.013-3.921Z" fill="#fec709"/>
                <path id="Path_673" data-name="Path 673" d="M7161.6,5926.029c.166.014.374-.036.38.13.007.136-.216.134-.6.14s-.633.062-.632-.085c0-.17.281-.128.447-.173.054-.016.058-.1.058-.1,0-.169,0-.306,0-.481-.017-.553.034-.61.138-.618s.145.048.15.635c0,.183.006.251.01.45,0,0-.027.095.048.1" fill="#fec709"/>
                <path id="Path_674" data-name="Path 674" d="M7161.328,5926.468a2.127,2.127,0,0,1,.489.042c.09.045.077.075.079.155a2.094,2.094,0,0,1-.171.636,1.059,1.059,0,0,1-.268.281.177.177,0,0,1-.2-.039.553.553,0,0,0-.183-.179c-.089-.049-.116-.121-.206-.2a.318.318,0,0,1-.043-.25c.012-.044.087-.129.182-.015a.131.131,0,0,0,.13.064c.118,0,.13-.07.146-.126a.1.1,0,0,0-.079-.133c-.157-.014-.334.023-.35-.058-.009-.054-.006-.112.062-.124a1.175,1.175,0,0,1,.412-.054" fill="#fec709"/>
                <path id="Path_675" data-name="Path 675" d="M7161.378,5927.977a.42.42,0,0,1-.41-.215c-.046-.085.028-.149.115-.085a.743.743,0,0,0,.291.089.671.671,0,0,0,.287-.086c.086-.069.16-.017.117.07a.391.391,0,0,1-.4.227" fill="#fec709"/>
                <path id="Path_676" data-name="Path 676" d="M7162.535,5926.452c-.036.02-.1-.055-.107-.1a.463.463,0,0,1,.122-.419.59.59,0,0,1,.427-.163.549.549,0,0,1,.467.315.583.583,0,0,1-.2.627,1.157,1.157,0,0,1-.435.235c-.125.044-.151.03-.182.281s-.055.528-.082.622c-.016.071-.077.042-.1,0-.043-.05-.043-.078-.035-.166s.078-.576.1-.664.023-.146.13-.193a1.587,1.587,0,0,0,.469-.354.358.358,0,0,0,.048-.375c-.058-.139-.224-.155-.4-.117a.292.292,0,0,0-.186.238c-.007.085.023.2-.033.23" fill="#fec709"/>
                <path id="Path_677" data-name="Path 677" d="M7162.875,5926.146a.105.105,0,0,1,.124.106c.009.1-.06.148-.091.2a.59.59,0,0,1-.213.177c-.071.024-.053-.013-.015-.034a.474.474,0,0,0,.058-.047c.03-.021.034-.1.015-.144a.209.209,0,0,1,.01-.208.138.138,0,0,1,.112-.052" fill="#fec709"/>
                <path id="Path_678" data-name="Path 678" d="M7159.68,5927c0-.059.092-.086.11,0a2.066,2.066,0,0,1,.023.326c0,.056-.054.047-.081.006a.187.187,0,0,1-.058-.135,1.185,1.185,0,0,1,.006-.2" fill="#fec709"/>
                <path id="Path_679" data-name="Path 679" d="M7159.93,5926.972c0-.036.037-.053.071-.006a1.485,1.485,0,0,1,.1.4c.024.141.108.493.123.641a.374.374,0,0,1-.131.312c-.055.048-.134.057-.142.109s-.008.32-.008.365-.04.095-.121.1-.122,0-.147-.09-.135-.733-.154-.885-.068-.339.061-.41c.164-.092.24.046.29.1s.076.082.058.113c-.033.055-.094.028-.129-.037-.022-.04-.069-.057-.089-.026s0,.076.031.135.084.13.127.138.145.027.168-.042.071-.132.013-.217a.561.561,0,0,1-.109-.239,2.592,2.592,0,0,1-.008-.464" fill="#fec709"/>
                <path id="Path_680" data-name="Path 680" d="M7160.1,5929.064c.065.027.078.066.05.1s-.12.011-.187.025-.125.011-.131.07c0,.034.022.073.087.071.1,0,.25-.009.256.072,0,.063-.07.065-.154.057s-.173-.043-.18.033.038.069.116.071.175.022.166.1-.058.062-.114.075-.169-.048-.173.025.048.052.147.089.1.072.086.123-.108.062-.232.059-.157.011-.2-.1-.093-.245-.116-.3a.7.7,0,0,1-.019-.347.238.238,0,0,1,.154-.19.734.734,0,0,1,.445-.029" fill="#fec709"/>
                <path id="Path_681" data-name="Path 681" d="M7159.339,5928.941c-.053.086-.095.171-.111.64a5.315,5.315,0,0,1,.051,1.086c-.033.195-.116.368-.208.4-.045.019-.053-.015-.058-.075a1.733,1.733,0,0,1,.036-.434c.02-.113,0-.659.02-.837a2.674,2.674,0,0,1,.107-.614c.07-.181.193-.217.163-.169" fill="#fec709"/>
                <path id="Path_682" data-name="Path 682" d="M7159.753,5930.26c.034-.03.141.031.323.007a5.774,5.774,0,0,1,.036.871c-.007.042-.308.048-.31-.017a5.34,5.34,0,0,1-.049-.861" fill="#fec709"/>
                <path id="Path_683" data-name="Path 683" d="M7159.49,5931.616a1.068,1.068,0,0,1,.739.185c.062.044.065.117-.02.1s-.41,0-.557-.042-.244.005-.234-.131.072-.115.072-.115" fill="#fec709"/>
                <path id="Path_684" data-name="Path 684" d="M7160.815,5931.626a1.135,1.135,0,0,1,.5.036.421.421,0,0,1,.212.116c.063.044.031.108-.055.092a4.791,4.791,0,0,1-.5-.031c-.106-.026-.206.006-.228-.1-.027-.122.071-.115.071-.115" fill="#fec709"/>
                <path id="Path_685" data-name="Path 685" d="M7162.254,5931.613a.693.693,0,0,1,.442.043.969.969,0,0,1,.218.1c.063.044.12.082.036.1a2,2,0,0,1-.574-.019c-.147-.037-.237-.023-.229-.16,0-.073.039-.057.107-.069" fill="#fec709"/>
                <path id="Path_686" data-name="Path 686" d="M7162.169,5928.061c.118-.056.3.082.464.2.2.151.223.345.276.643.038.213.085.237.042.372s-.258.083-.262-.019a2.056,2.056,0,0,0-.128-.52c-.042-.1-.087-.1-.251-.13s-.19-.189-.205-.286-.008-.226.064-.262" fill="#fec709"/>
                <path id="Path_687" data-name="Path 687" d="M7162.772,5929.6a.865.865,0,0,0,.465-.137c.049-.068.079.2.107.416a4.683,4.683,0,0,1,.03,1.205c-.073.112-.176.089-.314-.019s-.242-.268-.267-.718-.021-.747-.021-.747" fill="#fec709"/>
                <path id="Path_688" data-name="Path 688" d="M7162.459,5929.728c.027.06.129,1.388.188,1.5.036.069-.093.062-.152.062s-.356.058-.352-.161a6.28,6.28,0,0,1,.138-.82,3.894,3.894,0,0,1,.178-.581" fill="#fec709"/>
                <path id="Path_689" data-name="Path 689" d="M7162.224,5928.924s.025-.076.085-.009.011.135,0,.221-.411,1.936-.426,1.988-.168.131-.176.062a.732.732,0,0,1,.045-.265c.025-.067.467-2,.467-2" fill="#fec709"/>
                <path id="Path_690" data-name="Path 690" d="M7161.656,5928.476a.117.117,0,0,0,.06-.028c.031-.025.075-.084.107-.077a1.3,1.3,0,0,1,.195.4,3.551,3.551,0,0,1-.154.9,2.4,2.4,0,0,1-.171.487c.015-.655-.053-1.563-.037-1.674" fill="#fec709"/>
                <path id="Path_691" data-name="Path 691" d="M7161.277,5931.151l.051.049h.138l-.02-2.958-.2,0Z" fill="#fec709"/>
                <path id="Path_692" data-name="Path 692" d="M7160.434,5928.115h.093a1.121,1.121,0,0,0,.2.242c.085.058.2.116.223.166a20.989,20.989,0,0,1,.031,2.745,1.252,1.252,0,0,1-.527,0,5.758,5.758,0,0,1-.12-1.06,1.931,1.931,0,0,1,.047-.732.649.649,0,0,0-.112-.567c-.087-.084-.064-.278-.057-.338.012-.095.225-.3.222-.455" fill="#fec709"/>
                <path id="Path_693" data-name="Path 693" d="M7167.026,5934.473l.7.285.337-.771-.746-.276Z" fill="#fec709"/>
                <path id="Path_694" data-name="Path 694" d="M7166.681,5935.377l.661.259.294-.673-.692-.273Z" fill="#fec709"/>
                <path id="Path_695" data-name="Path 695" d="M7167.919,5936.276a.469.469,0,1,0-.458-.461.46.46,0,0,0,.458.461" fill="#fec709"/>
                <path id="Path_696" data-name="Path 696" d="M7168.352,5936.327c.064-.049.225,0,.345.076.184.119.476.431.41.453s-.139-.022-.269.055a.513.513,0,0,0-.2.247c-.039.079-.049,0-.082-.118a4.7,4.7,0,0,0-.174-.485c-.031-.088-.1-.175-.031-.228" fill="#fec709"/>
                <path id="Path_697" data-name="Path 697" d="M7169.045,5937.525a.229.229,0,0,0,.224-.235.232.232,0,0,0-.232-.223.229.229,0,0,0,.008.458" fill="#fec709"/>
                <path id="Path_698" data-name="Path 698" d="M7168.093,5936.565c.023-.049.156.117.237.4a2.055,2.055,0,0,1,.089.729.2.2,0,0,1-.218.175c-.093,0-.229,0-.235-.379s0-.68,0-.705a1.168,1.168,0,0,1,.12.515c0,.163,0,.219.106.213.077-.008.083-.148.037-.3a4.149,4.149,0,0,1-.139-.643" fill="#fec709"/>
                <path id="Path_699" data-name="Path 699" d="M7168.62,5937.525c.038-.039.129.116.216.158a.5.5,0,0,0,.489-.049c.148-.126.138-.378.2-.236a2.777,2.777,0,0,1,.144.507c.063.247.074.549-.293.624a1.741,1.741,0,0,1-1.22-.18c-.224-.2-.166-.32-.089-.28a.4.4,0,0,0,.337-.036c.214-.131.172-.465.214-.508" fill="#fec709"/>
                <path id="Path_700" data-name="Path 700" d="M7168.069,5938.6a2.315,2.315,0,0,0,.823.249,1.346,1.346,0,0,0,.626-.086c.087-.043.1-.014.129.129a7.234,7.234,0,0,1,.137,2.491c-.164,1.295-.545,3.009-.6,4.013a3.089,3.089,0,0,0,.378,2.274c.352.56.619.676.411.819a2.226,2.226,0,0,1-1.583-.874,5.206,5.206,0,0,1-1.133-3.935.847.847,0,0,0,.262.351c.08.043.144-.033.131-.152a7.7,7.7,0,0,1-.107-1.209c.03-.25.086-.507-.022-.518s-.215.1-.215.274c0,.223.054.534.038.612s-.087.122-.158-.156a5.29,5.29,0,0,1-.112-1.28,3.072,3.072,0,0,1,.414-1.318,5.576,5.576,0,0,0,.582-1.684" fill="#fec709"/>
                <path id="Path_701" data-name="Path 701" d="M7170.447,5941.434c.087-.119.117.173.2.324a5.352,5.352,0,0,1,.248.518,12.121,12.121,0,0,0-.94,1.343,5.494,5.494,0,0,1,.132-.641c.063-.226.175-.709.206-.9a5.908,5.908,0,0,1,.15-.642" fill="#fec709"/>
                <path id="Path_702" data-name="Path 702" d="M7167.478,5946.615s.68,1.149.766,1.231l-.065.433-.68-.94Z" fill="#fec709"/>
                <path id="Path_703" data-name="Path 703" d="M7169.547,5948.777a1.673,1.673,0,0,0,.57.041c.148-.054.251-.074.243-.312s-.02-.271.1-.26c.06.006.627,0,.79.033a7.454,7.454,0,0,1,.8.182c.27.1.378.224.13.224a1.464,1.464,0,0,0-1.134.533,2.018,2.018,0,0,0-.527.851c-.015.128-.1-.041-.132-.107a5.9,5.9,0,0,0-.834-1.185" fill="#fec709"/>
                <path id="Path_704" data-name="Path 704" d="M7163.763,5949.584a2.809,2.809,0,0,1,1.631.066s-.735-.018-1.133.011c-.6.042-.9.075-.5-.077" fill="#fec709"/>
                <path id="Path_705" data-name="Path 705" d="M7167.434,5936.332a.569.569,0,0,0,.354.18c.109.018-.084.873-.006,1.52a3.191,3.191,0,0,1-.215,1.285c-.13.421-.382.745-.445,1.092v-2.177h-.582Z" fill="#fec709"/>
                <path id="Path_706" data-name="Path 706" d="M7164.624,5935.028a13.363,13.363,0,0,1,2.626.817l-.3.672a14.075,14.075,0,0,0-2.478-.774Z" fill="#fec709"/>
                <path id="Path_707" data-name="Path 707" d="M7165.7,5936.31a11.005,11.005,0,0,1,1.161.414l-.294.669s-.813-.321-1.086-.385Z" fill="#fec709"/>
                <path id="Path_708" data-name="Path 708" d="M7163.09,5935.763a13.314,13.314,0,0,1,2.409.484l-.222.7a14.209,14.209,0,0,0-2.264-.456Z" fill="#fec709"/>
                <path id="Path_709" data-name="Path 709" d="M7164.226,5936.93a11.917,11.917,0,0,1,2.252.67l-.28.636a12.9,12.9,0,0,0-2.122-.6Z" fill="#fec709"/>
                <path id="Path_710" data-name="Path 710" d="M7164.15,5932.932s.533.084.789.135.817.181.817.181l-.206.752a15.048,15.048,0,0,0-1.525-.328Z" fill="#fec709"/>
                <path id="Path_711" data-name="Path 711" d="M7163.985,5933.911s.969.165,1.5.32l-.192.708a11.754,11.754,0,0,0-1.432-.3Z" fill="#fec709"/>
                <path id="Path_712" data-name="Path 712" d="M7161.572,5934.688a14.224,14.224,0,0,1,2.845.292l-.152.719a13,13,0,0,0-2.7-.279Z" fill="#fec709"/>
                <path id="Path_713" data-name="Path 713" d="M7161.575,5936.651a12.885,12.885,0,0,1,2.439.237l-.149.708a13.321,13.321,0,0,0-2.29-.214Z" fill="#fec709"/>
                <path id="Path_714" data-name="Path 714" d="M7171.547,5949.229a.759.759,0,0,0,0,.618s-.012.026-.3.127a1.1,1.1,0,0,0-.39.215c-.071.056-.052-.119.011-.27a1.751,1.751,0,0,1,.466-.586c.241-.18.214-.1.214-.1" fill="#fec709"/>
                <path id="Path_715" data-name="Path 715" d="M7171.881,5949.142a1.376,1.376,0,0,0,.536,1.031c.638.489.86,1.038.623,1.535a1.16,1.16,0,0,1-.455.468c-.19.064-.24.033-.086-.153a.619.619,0,0,0,.173-.463,2.1,2.1,0,0,0-.279-.377c-.069-.1-.064-.228.056-.162s.221-.021.193-.131a1.611,1.611,0,0,0-.458-.712,1.142,1.142,0,0,1-.456-.632.441.441,0,0,1,.153-.4" fill="#fec709"/>
                <path id="Path_716" data-name="Path 716" d="M7170.624,5950.628a.543.543,0,0,0-.3.488.59.59,0,0,0,.2.473c.086.093.164.166.111.05a1.871,1.871,0,0,1-.12-.533.787.787,0,0,1,.1-.41c.071-.074,0-.068,0-.068" fill="#fec709"/>
                <path id="Path_717" data-name="Path 717" d="M7170.873,5950.819a1.038,1.038,0,0,1,.61-.435.522.522,0,0,1,.65.507c-.045.442.194.484.267.657.092.218-.191.35-.351.449a4.914,4.914,0,0,1-1.563.529c-.628.087-.732.1-.872.038-.094-.045.117-.155.2-.248.107-.129.019-.168-.152-.172a2.383,2.383,0,0,1-1.209-.476c-.2-.2-.1-.109.083-.111a.629.629,0,0,0,.4-.192c.175-.163.144-.2,0-.163a.43.43,0,0,1-.238,0c-.049-.021.141-.075.243-.214.081-.116.115-.165.088-.232s-.057.014-.16.011a1.275,1.275,0,0,1-1.041-.254c-.528-.432-.777-.641-.777-.641a2.052,2.052,0,0,0-.08-1.261.714.714,0,0,0-1.126-.239c-.169.152-.223.39-.126.5.056.062.193-.067.27-.077s.14.055.06.1c-.049.03-.1.13-.032.162s.2-.011.324.029c.145.048.26.336.142.346-.137.01-.411-.18-.489-.221a3.261,3.261,0,0,0-1.127-.329c-.437-.028-1.338.161-1.23.081s.762-.824,1.033-1.148a12.813,12.813,0,0,0,1.58-2.526c.379-.879.684-1.774.68-1.779.034.076,0,.464.048,1.092a5.013,5.013,0,0,0,.3,1.558c.026.052-.022.886.032,1.328,0,0,.206.3.507.669.271.335.5.692.541.594a4.855,4.855,0,0,1,.119-.645,2.693,2.693,0,0,1,.414.375,7.555,7.555,0,0,1,1.208,1.491c.17.325.213.481.171.559a.834.834,0,0,0-.187.462c-.04.328.166.7.065.815a.368.368,0,0,1-.373.057c-.06-.034-.075.036,0,.126a.756.756,0,0,0,.634.186c.227-.072.234-.209.337-.192s.607.2.88-.154a.711.711,0,0,0-.041-.881.53.53,0,0,0-.647-.083c-.154.1-.061-.05-.061-.05" fill="#fec709"/>
                <path id="Path_718" data-name="Path 718" d="M7171.1,5951.031a.344.344,0,0,1,.424.306.416.416,0,0,1-.408.464c-.156.008-.243-.068-.054-.111a.327.327,0,0,0,.275-.291c0-.291-.335-.324-.237-.368" fill="#fec709"/>
                <path id="Path_719" data-name="Path 719" d="M7168.126,5951.7a2.2,2.2,0,0,0,1.317.638c.085.011-.119.118-.346.1s-.358-.055-1.005-.519Z" fill="#fec709"/>
                <path id="Path_720" data-name="Path 720" d="M7165.948,5948.656c-.124.037,0-.231.331-.275.229-.027.635.2.66.827,0,0,.017.32-.084.34-.07.015-.134-.01-.116-.172a.784.784,0,0,0-.258-.662.615.615,0,0,0-.533-.058" fill="#fec709"/>
                <path id="Path_721" data-name="Path 721" d="M7167.671,5951.886a6.968,6.968,0,0,0,1.71,1.05s.1.066.011.1a4.812,4.812,0,0,1-2.193.072c-.87-.258-1.125-.363-1.12-.458.006-.121.088-.092.264-.2s.661-.475.665-.679c0-.162.1.117.164.186s.211.343.31.3.1-.434.189-.377" fill="#fec709"/>
                <path id="Path_722" data-name="Path 722" d="M7166.733,5951.358c.02-.117.149.074.14.16a.815.815,0,0,1-.291.486c-.192.172-.336.3-.336.236,0-.162.128-.218.185-.28a1.435,1.435,0,0,0,.3-.6" fill="#fec709"/>
                <path id="Path_723" data-name="Path 723" d="M7164.556,5949.1a2.849,2.849,0,0,1,1.88.614c1.074.737,1,.968,1.713,1.236l.343.058c.14.022-.135.086-.291.086a.992.992,0,0,1-.694-.4c-.279-.34-.272.039-.16.13a.824.824,0,0,1,.167.7c-.056.264-.1.121-.188.03a.95.95,0,0,1-.32-.82c.02-.433-.315-.548-.321-.411s.144.465.068.534-.2-.416-.352-.708c-.221-.429-.746-.914-2-.849a1.888,1.888,0,0,0-1.678.811s-.05.035-.015.06.077-.009.11-.019a3.855,3.855,0,0,1,.721-.251,7.059,7.059,0,0,1,1.947-.043c.429.143-.214.2-1.08.215a3.608,3.608,0,0,0-1.284.205,1.311,1.311,0,0,0-.734.613s-.1.157,0,.111a.554.554,0,0,1,.548.086c.2.166.194.3.141.428a.27.27,0,0,1-.27.2c-.162,0-.237-.159-.206-.215.042-.076.068.069.152.053.136-.025.226-.238-.106-.308-.209-.046-.481.229-.546.339a1.868,1.868,0,0,0-.306.707,2.652,2.652,0,0,0,.088,1.439s.053.118.029.153-.163-.006-.189-.064a2.36,2.36,0,0,1-.109-.424,6.214,6.214,0,0,1-.02-.7,4.972,4.972,0,0,1,.19-.748,3.013,3.013,0,0,0-.018-1,5.464,5.464,0,0,1,.3-.531,2.959,2.959,0,0,1,2.478-1.325" fill="#fec709"/>
                <path id="Path_724" data-name="Path 724" d="M7162.76,5950.751a1.536,1.536,0,0,1,.706-.286c.339-.016.7.268,1,.261,0,0,.067.026.086-.026s-.035-.058-.056-.178.016-.1.1-.088a2.8,2.8,0,0,0,.712.133c.255-.013.307,0,.323-.065s-.168-.083-.216-.163c-.013-.021.086-.127.194-.13a.565.565,0,0,1,.516.217.817.817,0,0,1-.015,1.13c-.339.458-1.312.265-1.173-.065.073-.174.187.019.317.091.292.162.529-.226.443-.422a.6.6,0,0,0-.615-.345.673.673,0,0,0-.6.413,1.561,1.561,0,0,0-.006.7c.017.076-.041.086-.1.068s-.6.046-.655.446.053.637-.081.784a2.22,2.22,0,0,1-1.311.507c-.387-.089-.416-1.14-.36-1.286a1.266,1.266,0,0,1,.4-.738.543.543,0,0,0,.459.264.5.5,0,0,0,.475-.56.607.607,0,0,0-.455-.578c-.17.016-.084-.081-.084-.081" fill="#fec709"/>
                <path id="Path_725" data-name="Path 725" d="M7164.61,5951.778a.842.842,0,0,1,.2-.681c.1-.079.477-.21.647.053.119.183-.108.215-.163.161a.308.308,0,0,0-.313-.109c-.236.045-.242.292-.279.6-.017.132-.094-.024-.094-.024" fill="#fec709"/>
                <path id="Path_726" data-name="Path 726" d="M7164.61,5952.228a.474.474,0,0,0-.687.573c.03.189.121.066.12.041s0-.332.141-.44a.368.368,0,0,1,.4-.089c.079.024.031-.085.031-.085" fill="#fec709"/>
                <path id="Path_727" data-name="Path 727" d="M7166,5952.953a4.546,4.546,0,0,0,2.388.519,4.721,4.721,0,0,0,1.937-.552c.219-.047.856-.064,1.093-.106s-.462.465-.528.506a5.066,5.066,0,0,1-2.559,1.047,3.551,3.551,0,0,1-2.709-.809Z" fill="#fec709"/>
                <path id="Path_728" data-name="Path 728" d="M7165.318,5954.1a1.568,1.568,0,0,1-.928.842c-.4.1-.91.037-.725-.054a4.41,4.41,0,0,0,1.557-1c.063-.068.172.022.1.216" fill="#fec709"/>
                <path id="Path_729" data-name="Path 729" d="M7162.575,5955.318a1.53,1.53,0,0,1,.778-.131,2.584,2.584,0,0,0,1.274.011,1.866,1.866,0,0,0,.912-.811c.083-.129.016.255-.169.513s-.461.633-1.6.725c0,0-.986-.167-1.3.394,0,0-.152-.1.043-.368.121-.168.006-.283.063-.333" fill="#fec709"/>
                <path id="Path_730" data-name="Path 730" d="M7161.457,5952.4c-.06,0-.155-.416-.164-.748-.007-.289.017-.679.164-.714s.17.425.162.714c-.008.332-.1.75-.162.748" fill="#fec709"/>
                <path id="Path_731" data-name="Path 731" d="M7160.718,5941.679a.67.67,0,0,1,.279-.232c.1-.036.158-.026.217.088a2.4,2.4,0,0,1,0,.7,2.8,2.8,0,0,1-.056.637c-.056.089-.069,0-.115-.077a3.068,3.068,0,0,1-.3-.8c.02-.127-.071-.125-.073-.18a.359.359,0,0,1,.044-.138" fill="#fec709"/>
                <path id="Path_732" data-name="Path 732" d="M7161.589,5941.585s.043-.115.113-.059.172.166.14.281-.139.489-.206.513-.11.2-.132.286-.063.26-.119.262.025-.509.046-.613.084-.363.095-.464a.584.584,0,0,1,.063-.206" fill="#fec709"/>
                <path id="Path_733" data-name="Path 733" d="M7161.9,5942.407c.1,0,.192.008.16.166a.69.69,0,0,1-.422.359c-.069-.011.1-.274.119-.354s.143-.171.143-.171" fill="#fec709"/>
                <path id="Path_734" data-name="Path 734" d="M7162.441,5942.4a.208.208,0,0,1,.215-.072c.09.033.137.065.127.123s-.1.125-.2.172-.367.348-.426.3.121-.262.2-.343a.336.336,0,0,0,.087-.182" fill="#fec709"/>
                <path id="Path_735" data-name="Path 735" d="M7161.892,5943.379c.219-.092.517-.279.629-.326a.935.935,0,0,1,.587-.147c.295.04.3.142.264.246s-.28.162-.482.167a1.531,1.531,0,0,0-.588.156c-.1.06-.509.11-.555.044s-.024-.067.145-.14" fill="#fec709"/>
                <path id="Path_736" data-name="Path 736" d="M7160.287,5942.3c.068-.034.1-.126.181.065s.376.674.435.763.352.1.466.208.017.316.132.382a.963.963,0,0,0,.544-.031c.09-.036.363-.053.463-.089s.282-.085.261.042-.213.117-.268.173-.065.194-.156.186-.16-.078-.319-.052a4.335,4.335,0,0,0-.61.043c-.011.047-.044.761-.043.852s0,1.814,0,1.859-.305.027-.305.027l0-2.232s-.633-.612-.657-.668.415.367.517.387.148.042.135-.048a2.667,2.667,0,0,0-.253-.9.066.066,0,0,0-.025-.091c-.056-.032-.349-.56-.431-.615s-.125-.1-.127-.156a.159.159,0,0,1,.056-.1" fill="#fec709"/>
                <path id="Path_737" data-name="Path 737" d="M7160.128,5942.9s.229.189.31.277a.964.964,0,0,1,.279.414c.039.181.129.282.073.272s-.3-.38-.391-.345-.285-.074-.275-.165,0-.453,0-.453" fill="#fec709"/>
                <path id="Path_738" data-name="Path 738" d="M7158.761,5947.09a.176.176,0,1,0-.006-.351.176.176,0,1,0,.006.351" fill="#fec709"/>
                <path id="Path_739" data-name="Path 739" d="M7158.731,5947.3s.014-.046.135-.036a3.369,3.369,0,0,0,.646-.023c.134-.025,1.016-.222,1.412-.251.418-.03,1.307.251,1.772.265s.805.053.805.053l.026.192a2.519,2.519,0,0,0-.4-.015c-.148.012-1.39.216-1.637.289a5.111,5.111,0,0,1-1.507.026c-.227-.075-.415-.02-.4-.082a.566.566,0,0,0,.028-.335c-.02-.036-.124.006-.124.006a.41.41,0,0,1-.067.3.741.741,0,0,1-.376-.118c-.018-.017.022-.049.026-.082s-.021-.034-.048-.026c-.043.011-.041.091-.077.08a.578.578,0,0,1-.193-.091c-.065-.048-.038-.114-.029-.154" fill="#fec709"/>
                <path id="Path_740" data-name="Path 740" d="M7161.457,5950.276l-.771-.635a1.743,1.743,0,0,1,.771-.233,1.766,1.766,0,0,1,.771.233Z" fill="#fec709"/>
                <path id="Path_741" data-name="Path 741" d="M7154.847,5933.988l.34.769.7-.284-.291-.762Z" fill="#fec709"/>
                <path id="Path_742" data-name="Path 742" d="M7155.276,5934.963l.3.672.662-.258-.265-.687Z" fill="#fec709"/>
                <path id="Path_743" data-name="Path 743" d="M7155,5936.276a.469.469,0,1,1,.458-.461.46.46,0,0,1-.458.461" fill="#fec709"/>
                <path id="Path_744" data-name="Path 744" d="M7153.868,5937.525a.229.229,0,1,1,.008-.458.229.229,0,0,1-.008.458" fill="#fec709"/>
                <path id="Path_745" data-name="Path 745" d="M7154.82,5936.565c-.023-.049-.155.117-.236.4a2.06,2.06,0,0,0-.09.729.2.2,0,0,0,.219.175c.093,0,.229,0,.235-.379s0-.68,0-.705a1.151,1.151,0,0,0-.119.515c0,.163-.005.219-.107.213-.076-.008-.082-.148-.037-.3a3.867,3.867,0,0,0,.139-.643" fill="#fec709"/>
                <path id="Path_746" data-name="Path 746" d="M7154.294,5937.525c-.039-.039-.129.116-.217.158a.5.5,0,0,1-.488-.049c-.147-.126-.139-.378-.2-.236a2.857,2.857,0,0,0-.145.507c-.062.247-.073.549.294.624a1.737,1.737,0,0,0,1.219-.18c.225-.2.168-.32.09-.28a.4.4,0,0,1-.336-.036c-.213-.131-.172-.465-.214-.508" fill="#fec709"/>
                <path id="Path_747" data-name="Path 747" d="M7154.844,5938.6a2.318,2.318,0,0,1-.823.249,1.342,1.342,0,0,1-.626-.086c-.086-.043-.1-.014-.129.129a7.219,7.219,0,0,0-.136,2.491c.165,1.295.544,3.009.6,4.013a3.094,3.094,0,0,1-.378,2.274c-.352.56-.619.676-.411.819a2.229,2.229,0,0,0,1.582-.874,5.2,5.2,0,0,0,1.132-3.935.829.829,0,0,1-.261.351c-.078.043-.142-.033-.131-.152a7.252,7.252,0,0,0,.107-1.209c-.029-.25-.086-.507.022-.518s.215.1.215.274c0,.223-.052.534-.038.612s.086.122.159-.156a5.316,5.316,0,0,0,.111-1.28,3.055,3.055,0,0,0-.413-1.318,5.57,5.57,0,0,1-.583-1.684" fill="#fec709"/>
                <path id="Path_748" data-name="Path 748" d="M7152.467,5941.434c-.087-.119-.119.173-.2.324-.113.2-.249.518-.249.518a11.885,11.885,0,0,1,.941,1.343,5.42,5.42,0,0,0-.131-.641c-.065-.226-.175-.709-.207-.9a5.592,5.592,0,0,0-.149-.642" fill="#fec709"/>
                <path id="Path_749" data-name="Path 749" d="M7155.435,5946.615s-.679,1.149-.766,1.231l.065.433.68-.94Z" fill="#fec709"/>
                <path id="Path_750" data-name="Path 750" d="M7159.15,5949.584a2.81,2.81,0,0,0-1.631.066s.735-.018,1.133.011c.6.042.9.075.5-.077" fill="#fec709"/>
                <path id="Path_751" data-name="Path 751" d="M7155.48,5936.332a.574.574,0,0,1-.355.18c-.108.018.085.873.007,1.52a3.158,3.158,0,0,0,.215,1.285c.13.421.381.745.444,1.092v-2.177h.583Z" fill="#fec709"/>
                <path id="Path_752" data-name="Path 752" d="M7158.289,5935.028a13.363,13.363,0,0,0-2.626.817l.3.672a14.138,14.138,0,0,1,2.478-.774Z" fill="#fec709"/>
                <path id="Path_753" data-name="Path 753" d="M7157.211,5936.31a11.067,11.067,0,0,0-1.16.414l.294.669s.813-.321,1.088-.385Z" fill="#fec709"/>
                <path id="Path_754" data-name="Path 754" d="M7159.823,5935.763a13.33,13.33,0,0,0-2.409.484l.221.7a14.279,14.279,0,0,1,2.266-.456Z" fill="#fec709"/>
                <path id="Path_755" data-name="Path 755" d="M7158.687,5936.93a11.961,11.961,0,0,0-2.252.67l.28.636a12.88,12.88,0,0,1,2.122-.6Z" fill="#fec709"/>
                <path id="Path_756" data-name="Path 756" d="M7158.764,5932.932s-.534.084-.791.135-.814.181-.814.181l.2.752a15.073,15.073,0,0,1,1.525-.328Z" fill="#fec709"/>
                <path id="Path_757" data-name="Path 757" d="M7158.928,5933.911s-.969.165-1.5.32l.193.708a11.728,11.728,0,0,1,1.43-.3Z" fill="#fec709"/>
                <path id="Path_758" data-name="Path 758" d="M7161.342,5934.688a14.221,14.221,0,0,0-2.845.292l.15.719a13.037,13.037,0,0,1,2.7-.279Z" fill="#fec709"/>
                <path id="Path_759" data-name="Path 759" d="M7161.339,5936.651a12.882,12.882,0,0,0-2.439.237l.149.708a13.293,13.293,0,0,1,2.29-.214Z" fill="#fec709"/>
                <path id="Path_760" data-name="Path 760" d="M7151.366,5949.229a.756.756,0,0,1,0,.618s.013.026.3.127a1.1,1.1,0,0,1,.389.215c.072.056.054-.119-.011-.27a1.713,1.713,0,0,0-.466-.586c-.242-.18-.214-.1-.214-.1" fill="#fec709"/>
                <path id="Path_761" data-name="Path 761" d="M7151.031,5949.142a1.361,1.361,0,0,1-.535,1.031c-.638.489-.86,1.038-.621,1.535a1.144,1.144,0,0,0,.454.468c.189.064.238.033.083-.153a.615.615,0,0,1-.169-.463,2.045,2.045,0,0,1,.277-.377c.069-.1.064-.228-.056-.162s-.221-.021-.193-.131a1.607,1.607,0,0,1,.457-.712,1.147,1.147,0,0,0,.458-.632.438.438,0,0,0-.155-.4" fill="#fec709"/>
                <path id="Path_762" data-name="Path 762" d="M7152.29,5950.628a.546.546,0,0,1,.3.488.59.59,0,0,1-.2.473c-.086.093-.164.166-.112.05a1.866,1.866,0,0,0,.121-.533.783.783,0,0,0-.1-.41c-.069-.074,0-.068,0-.068" fill="#fec709"/>
                <path id="Path_763" data-name="Path 763" d="M7152.039,5950.819a1.029,1.029,0,0,0-.609-.435.524.524,0,0,0-.65.507c.046.442-.193.484-.268.657-.092.218.193.35.351.449a4.942,4.942,0,0,0,1.563.529c.629.087.732.1.872.038.1-.045-.116-.155-.193-.248-.108-.129-.021-.168.15-.172a2.385,2.385,0,0,0,1.209-.476c.205-.2.1-.109-.084-.111a.623.623,0,0,1-.4-.192c-.175-.163-.145-.2,0-.163a.426.426,0,0,0,.237,0c.049-.021-.14-.075-.242-.214-.084-.116-.116-.165-.09-.232s.059.014.161.011a1.275,1.275,0,0,0,1.041-.254c.529-.432.776-.641.776-.641a2.057,2.057,0,0,1,.081-1.261.716.716,0,0,1,1.128-.239c.169.152.221.39.124.5-.055.062-.194-.067-.27-.077s-.14.055-.059.1c.049.03.1.13.031.162s-.2-.011-.325.029c-.144.048-.257.336-.14.346.135.01.41-.18.488-.221a3.28,3.28,0,0,1,1.128-.329c.436-.028,1.338.161,1.231.081s-.766-.824-1.034-1.148a12.767,12.767,0,0,1-1.58-2.526c-.379-.879-.685-1.774-.683-1.779-.032.076,0,.464-.045,1.092a5.051,5.051,0,0,1-.3,1.558c-.026.052.022.886-.032,1.328,0,0-.207.3-.509.669-.27.335-.5.692-.539.594a5.007,5.007,0,0,0-.12-.645,2.67,2.67,0,0,0-.414.375,7.52,7.52,0,0,0-1.208,1.491c-.172.325-.212.481-.172.559a.829.829,0,0,1,.188.462c.04.328-.165.7-.064.815a.365.365,0,0,0,.371.057c.062-.034.077.036,0,.126a.751.751,0,0,1-.631.186c-.228-.072-.235-.209-.337-.192s-.608.2-.881-.154a.708.708,0,0,1,.041-.881.53.53,0,0,1,.647-.083c.153.1.06-.05.06-.05" fill="#fec709"/>
                <path id="Path_764" data-name="Path 764" d="M7151.808,5951.031a.344.344,0,0,0-.423.306.416.416,0,0,0,.409.464c.155.008.241-.068.051-.111a.327.327,0,0,1-.273-.291c0-.291.334-.324.236-.368" fill="#fec709"/>
                <path id="Path_765" data-name="Path 765" d="M7154.788,5951.7a2.2,2.2,0,0,1-1.317.638c-.086.011.119.118.345.1s.358-.055,1-.519Z" fill="#fec709"/>
                <path id="Path_766" data-name="Path 766" d="M7156.965,5948.656c.123.037,0-.231-.332-.275-.228-.027-.633.2-.658.827,0,0-.016.32.084.34.072.015.133-.01.114-.172a.787.787,0,0,1,.26-.662.613.613,0,0,1,.532-.058" fill="#fec709"/>
                <path id="Path_767" data-name="Path 767" d="M7155.241,5951.886a6.952,6.952,0,0,1-1.709,1.05s-.1.066-.01.1a4.8,4.8,0,0,0,2.191.072c.872-.258,1.127-.363,1.122-.458-.006-.121-.089-.092-.266-.2s-.657-.475-.662-.679c0-.162-.1.117-.166.186s-.209.343-.31.3-.1-.434-.19-.377" fill="#fec709"/>
                <path id="Path_768" data-name="Path 768" d="M7156.18,5951.358c-.021-.117-.147.074-.138.16a.8.8,0,0,0,.29.486c.193.172.335.3.335.236,0-.162-.128-.218-.184-.28a1.44,1.44,0,0,1-.3-.6" fill="#fec709"/>
                <path id="Path_769" data-name="Path 769" d="M7158.358,5949.1a2.848,2.848,0,0,0-1.88.614c-1.076.737-1,.968-1.713,1.236,0,0-.268.046-.345.058-.14.022.137.086.293.086a1,1,0,0,0,.694-.4c.278-.34.271.039.159.13a.826.826,0,0,0-.166.7c.055.264.1.121.187.03a.955.955,0,0,0,.321-.82c-.021-.433.315-.548.321-.411s-.144.465-.068.534.2-.416.352-.708c.219-.429.746-.914,1.994-.849a1.889,1.889,0,0,1,1.679.811s.048.035.014.06-.076-.009-.11-.019a3.819,3.819,0,0,0-.722-.251,7.045,7.045,0,0,0-1.945-.043c-.429.143.214.2,1.079.215a3.6,3.6,0,0,1,1.284.205,1.31,1.31,0,0,1,.733.613s.1.157,0,.111a.554.554,0,0,0-.548.086c-.2.166-.194.3-.141.428a.267.267,0,0,0,.27.2c.161,0,.237-.159.205-.215-.042-.076-.067.069-.149.053-.138-.025-.228-.238.1-.308.208-.046.481.229.546.339a1.854,1.854,0,0,1,.3.707,2.662,2.662,0,0,1-.088,1.439s-.053.118-.028.153.162-.006.188-.064a2.349,2.349,0,0,0,.11-.424,6.584,6.584,0,0,0,.02-.7,4.876,4.876,0,0,0-.191-.748,3.067,3.067,0,0,1,.018-1,5.386,5.386,0,0,0-.3-.531,2.922,2.922,0,0,0-1.216-1.047,2.889,2.889,0,0,0-1.262-.278" fill="#fec709"/>
                <path id="Path_770" data-name="Path 770" d="M7160.154,5950.751a1.539,1.539,0,0,0-.7-.286c-.341-.016-.7.268-1,.261,0,0-.069.026-.086-.026s.036-.058.054-.178-.016-.1-.1-.088a2.839,2.839,0,0,1-.714.133c-.254-.013-.307,0-.323-.065s.167-.083.216-.163c.014-.021-.084-.127-.195-.13a.562.562,0,0,0-.514.217.817.817,0,0,0,.013,1.13c.341.458,1.313.265,1.176-.065-.075-.174-.188.019-.319.091-.291.162-.528-.226-.442-.422a.6.6,0,0,1,.616-.345.677.677,0,0,1,.6.413,1.587,1.587,0,0,1,0,.7c-.018.076.041.086.1.068s.6.046.655.446-.053.637.08.784a2.227,2.227,0,0,0,1.313.507c.389-.089.414-1.14.358-1.286a1.252,1.252,0,0,0-.4-.738.542.542,0,0,1-.46.264.5.5,0,0,1-.474-.56.605.605,0,0,1,.455-.578c.171.016.085-.081.085-.081" fill="#fec709"/>
                <path id="Path_771" data-name="Path 771" d="M7158.3,5951.778a.848.848,0,0,0-.2-.681c-.1-.079-.477-.21-.648.053-.119.183.109.215.163.161a.311.311,0,0,1,.314-.109c.235.045.241.292.279.6.015.132.093-.024.093-.024" fill="#fec709"/>
                <path id="Path_772" data-name="Path 772" d="M7158.3,5952.228a.484.484,0,0,1,.568.062.49.49,0,0,1,.119.511c-.031.189-.121.066-.119.041s0-.332-.143-.44a.364.364,0,0,0-.393-.089c-.08.024-.032-.085-.032-.085" fill="#fec709"/>
                <path id="Path_773" data-name="Path 773" d="M7156.915,5952.953a4.549,4.549,0,0,1-2.388.519,4.715,4.715,0,0,1-1.937-.552c-.221-.047-.856-.064-1.095-.106-.222-.041.464.465.529.506a5.071,5.071,0,0,0,2.56,1.047,3.552,3.552,0,0,0,2.708-.809Z" fill="#fec709"/>
                <path id="Path_774" data-name="Path 774" d="M7157.6,5954.1a1.563,1.563,0,0,0,.928.842c.4.1.911.037.723-.054a4.4,4.4,0,0,1-1.553-1c-.064-.068-.174.022-.1.216" fill="#fec709"/>
                <path id="Path_775" data-name="Path 775" d="M7160.337,5955.318a1.524,1.524,0,0,0-.777-.131,2.584,2.584,0,0,1-1.274.011,1.875,1.875,0,0,1-.912-.811c-.083-.129-.016.255.169.513s.462.633,1.6.725c0,0,.986-.167,1.3.394,0,0,.15-.1-.044-.368-.121-.168,0-.283-.065-.333" fill="#fec709"/>
                <path id="Path_776" data-name="Path 776" d="M7161.457,5954.153a4.155,4.155,0,0,1-2.7-.988,2.979,2.979,0,0,1-.846-1.01l-.994-.023a.249.249,0,0,1,.02.1,3.823,3.823,0,0,0,1.217,1.743,6.065,6.065,0,0,0,3.306,1.152,6.238,6.238,0,0,0,3.305-1.152,3.813,3.813,0,0,0,1.216-1.743.249.249,0,0,1,.022-.1l-.994.023a3.017,3.017,0,0,1-.847,1.01,4.435,4.435,0,0,1-2.7.988" fill="#fec709"/>
                <path id="Path_777" data-name="Path 777" d="M7161.457,5937.687a12.752,12.752,0,0,0-3.724.544h7.446a12.735,12.735,0,0,0-3.722-.544" fill="#fec709"/>
                <path id="Path_778" data-name="Path 778" d="M7161.457,5932.73s-.342-.009-.937.025l.041.734c.477-.033.9-.025.9-.025s.417-.008.9.025l.04-.734c-.594-.034-.936-.025-.936-.025" fill="#fec709"/>
                <path id="Path_779" data-name="Path 779" d="M7161.457,5933.71s-.3-.006-.884.023l.04.734s.421-.03.844-.023.843.023.843.023l.041-.734c-.585-.029-.884-.023-.884-.023" fill="#fec709"/>
                <path id="Path_780" data-name="Path 780" d="M7161.457,5935.668a12.369,12.369,0,0,0-1.418.072l.078.729s.721-.075,1.34-.071,1.339.071,1.339.071l.078-.729a11.149,11.149,0,0,0-1.417-.072" fill="#fec709"/>
                <path id="Path_781" data-name="Path 781" d="M7154.561,5936.327c-.063-.049-.224,0-.345.076-.183.119-.475.431-.41.453s.139-.022.27.055a.52.52,0,0,1,.2.247c.039.079.05,0,.083-.118a4.584,4.584,0,0,1,.172-.485c.032-.088.1-.175.032-.228" fill="#fec709"/>
                <path id="Path_782" data-name="Path 782" d="M7153.367,5948.777a1.686,1.686,0,0,1-.571.041c-.149-.054-.251-.074-.243-.312s.022-.271-.1-.26c-.058.006-.625,0-.787.033a7.508,7.508,0,0,0-.8.182c-.271.1-.379.224-.13.224a1.465,1.465,0,0,1,1.134.533,2,2,0,0,1,.526.851c.016.128.1-.041.132-.107a5.932,5.932,0,0,1,.835-1.185" fill="#fec709"/>
                <path id="Path_783" data-name="Path 783" d="M7163.99,5945.93a.306.306,0,0,1-.319.3.3.3,0,0,1-.322-.293l-.28-.066c-.068-.044-.066-.294-.06-.5a1.285,1.285,0,0,1,.076-.542c.065-.081.2-.083.234-.151s-.048-.18-.016-.295a.348.348,0,0,1,.368-.29s.317,0,.345.266-.139.325.076.373c.056.012.1.021.152.224a2.1,2.1,0,0,1,.054.847.787.787,0,0,1-.308.123" fill="#0e5e5f"/>
                <path id="Path_784" data-name="Path 784" d="M7163.392,5944.921a4.4,4.4,0,0,1-.012.777c-.02.028-.194.038-.194.038a1.676,1.676,0,0,1,.011-.761c.024-.026.167-.082.2-.054" fill="#fec709"/>
                <path id="Path_785" data-name="Path 785" d="M7163.675,5944.627a.16.16,0,0,0,.158-.162.164.164,0,0,0-.163-.159.16.16,0,0,0,0,.321" fill="#fec709"/>
                <path id="Path_786" data-name="Path 786" d="M7163.606,5944.9a.945.945,0,0,1,.4-.02c.13.024.206.8.14.821a1.7,1.7,0,0,1-.556-.028,3.115,3.115,0,0,1,.021-.773" fill="#fec709"/>
                <path id="Path_787" data-name="Path 787" d="M7163.531,5945.887a.142.142,0,0,0,.147.181c.117,0,.182-.115.156-.169-.014-.029-.281-.05-.3-.012" fill="#fec709"/>
                <path id="Path_788" data-name="Path 788" d="M7168.341,5938.918c.076-.022.135.009.186.346.054.4.009,1.361.031,1.749.017.314.035.726-.031.732-.095.014-.179-.346-.234-.569-.092-.368-.2-1.091-.236-1.347,0,0,0-.1.1-.07s.061.054.129.044.084-.03.081-.108a2.7,2.7,0,0,0-.069-.4c-.032-.14-.093-.339.042-.378" fill="#0e5e5f"/>
                <path id="Path_789" data-name="Path 789" d="M7154.571,5938.918c-.074-.022-.133.009-.183.346-.057.4-.01,1.361-.031,1.749-.019.314-.037.726.031.732.094.014.177-.346.233-.569.092-.368.2-1.091.235-1.347,0,0-.006-.1-.1-.07s-.062.054-.13.044-.084-.03-.082-.108a2.9,2.9,0,0,1,.072-.4c.032-.14.092-.339-.045-.378" fill="#0e5e5f"/>
                <path id="Path_790" data-name="Path 790" d="M7154.106,5954.221l.479.067.019-.141-.235-.031.074-.524-.245-.031Z" fill="#0e5e5f"/>
                <path id="Path_791" data-name="Path 791" d="M7154.849,5953.624l.042.67.489-.03-.01-.14-.248.014-.01-.135.2-.014-.01-.139-.2.012-.007-.112.22-.013-.007-.142Z" fill="#0e5e5f"/>
                <path id="Path_792" data-name="Path 792" d="M7155.507,5953.573l.03.138.148-.034.111.517.241-.053-.111-.515.149-.033-.028-.138Z" fill="#0e5e5f"/>
                <path id="Path_793" data-name="Path 793" d="M7159.092,5954.368l-.2-.111.022-.042a.138.138,0,0,1-.051.012.239.239,0,0,1-.129-.038.224.224,0,0,1-.123-.165.439.439,0,0,1,.081-.265c.127-.227.263-.258.473-.142a.383.383,0,0,1,.167.16.22.22,0,0,1-.021.2l-.2-.115c.024-.038.062-.1,0-.137s-.126.045-.152.088c-.016.025-.032.052-.047.079a.612.612,0,0,0-.072.157.074.074,0,0,0,.035.084.072.072,0,0,0,.069.005.159.159,0,0,0,.055-.061l.02-.038-.066-.036.06-.1.261.148Z" fill="#0e5e5f"/>
                <path id="Path_794" data-name="Path 794" d="M7159.375,5954.5l.45.187.053-.131-.218-.091.2-.491-.228-.093Z" fill="#0e5e5f"/>
                <path id="Path_795" data-name="Path 795" d="M7160.425,5954.53l.011-.159c0-.021,0-.025.006-.051l-.023.047-.075.143Zm.212.388-.235-.064.013-.189-.133-.036-.085.169-.227-.062.342-.6.348.094Z" fill="#0e5e5f"/>
                <path id="Path_796" data-name="Path 796" d="M7161.07,5954.713a.421.421,0,0,1-.163-.082.187.187,0,0,1-.054-.15c.02-.213.227-.205.312-.2a.665.665,0,0,1,.1.015.241.241,0,0,1,.09.034.17.17,0,0,1,.071.178l-.208-.022c0-.039,0-.051-.011-.067a.087.087,0,0,0-.051-.021c-.04,0-.066.019-.068.046,0,.042.041.059.093.077l.052.018c.086.031.2.073.187.231a.252.252,0,0,1-.03.1.265.265,0,0,1-.283.11h-.008a.454.454,0,0,1-.192-.048.184.184,0,0,1-.088-.2l.227.023a.217.217,0,0,0,0,.05.074.074,0,0,0,.07.06.066.066,0,0,0,.078-.063c0-.047-.027-.058-.092-.081Z" fill="#0e5e5f"/>
                <path id="Path_797" data-name="Path 797" d="M7162.243,5954.912l-.225.028-.006-.048a.233.233,0,0,1-.036.041.269.269,0,0,1-.127.046.234.234,0,0,1-.2-.06.437.437,0,0,1-.093-.263c-.033-.258.057-.364.3-.394a.382.382,0,0,1,.228.026.218.218,0,0,1,.1.175l-.231.029c0-.046-.013-.121-.082-.113s-.073.111-.071.161c0,.031.006.062.01.094a.661.661,0,0,0,.035.168.077.077,0,0,0,.138.011.161.161,0,0,0,.008-.082l-.006-.042-.073.008-.016-.12.3-.037Z" fill="#0e5e5f"/>
                <path id="Path_798" data-name="Path 798" d="M7162.732,5954.222a.049.049,0,0,0-.054-.012c-.052.017-.044.073-.043.094a1.049,1.049,0,0,0,.036.154.534.534,0,0,0,.084.187.055.055,0,0,0,.059.012c.046-.013.043-.063.042-.08a1.245,1.245,0,0,0-.042-.18.52.52,0,0,0-.082-.175m.329.4a.393.393,0,0,1-.229.153.486.486,0,0,1-.116.023c-.144.01-.219-.058-.276-.241s-.095-.365.215-.462a.515.515,0,0,1,.132-.023c.166,0,.222.108.268.26a.4.4,0,0,1,.006.29" fill="#0e5e5f"/>
                <path id="Path_799" data-name="Path 799" d="M7164.112,5954.2l-.251.129-.16-.2c-.028-.038-.035-.047-.071-.1.014.04.018.05.03.092l.075.271-.252.131-.4-.545.206-.107.216.317c.024.037.03.046.048.077-.014-.036-.018-.046-.03-.085l-.111-.371.175-.089.194.252c.039.052.053.068.09.124-.016-.037-.022-.05-.034-.085l-.13-.353.2-.1Z" fill="#0e5e5f"/>
                <path id="Path_800" data-name="Path 800" d="M7165.892,5953.712l.209.108.112-.215.157.081.063-.118-.157-.082.06-.116.171.09.061-.121-.379-.2Z" fill="#0e5e5f"/>
                <path id="Path_801" data-name="Path 801" d="M7166.427,5953.971l.436.15.043-.128-.213-.072.162-.478-.222-.078Z" fill="#0e5e5f"/>
                <path id="Path_802" data-name="Path 802" d="M7167.416,5953.675a.054.054,0,0,0-.042-.036c-.055-.009-.075.044-.084.064a1.034,1.034,0,0,0-.037.156.536.536,0,0,0-.01.205.058.058,0,0,0,.045.039.073.073,0,0,0,.075-.053,1,1,0,0,0,.045-.18.523.523,0,0,0,.008-.2m.11.51a.4.4,0,0,1-.275.03.458.458,0,0,1-.115-.033c-.133-.057-.169-.152-.136-.344s.082-.37.407-.312a.518.518,0,0,1,.128.038c.149.075.148.2.12.356a.4.4,0,0,1-.129.265" fill="#0e5e5f"/>
                <path id="Path_803" data-name="Path 803" d="M7168.354,5953.651l-.01.373a.448.448,0,0,1-.008.1c-.025.124-.106.171-.3.165a.606.606,0,0,1-.1-.008.224.224,0,0,1-.1-.038.228.228,0,0,1-.071-.208l.012-.405.233.006-.012.414c0,.058,0,.067.006.08a.047.047,0,0,0,.044.03.049.049,0,0,0,.049-.024.151.151,0,0,0,.013-.082l.008-.415Z" fill="#0e5e5f"/>
                <path id="Path_804" data-name="Path 804" d="M7168.649,5953.884l.022,0c.037-.008.085-.018.069-.1s-.061-.071-.1-.065l-.024,0Zm.385.181c.03.079.036.09.059.108l-.237.044a.065.065,0,0,1-.033-.037.663.663,0,0,1-.026-.066l-.009-.026a.292.292,0,0,0-.035-.079.06.06,0,0,0-.068-.024l-.015,0,.045.256-.224.04-.116-.629.34-.063a.641.641,0,0,1,.073-.01.144.144,0,0,1,.174.125.151.151,0,0,1-.113.185.143.143,0,0,1,.094.018.242.242,0,0,1,.079.123Z" fill="#0e5e5f"/>
                <rect id="Rectangle_260" data-name="Rectangle 260" width="0.224" height="0.612" transform="translate(7168.987 5953.552) rotate(-18.935)" fill="#0e5e5f"/>
                <path id="Path_805" data-name="Path 805" d="M7169.606,5953.738a.366.366,0,0,1-.156.007.16.16,0,0,1-.1-.09c-.077-.168.083-.251.151-.282a.477.477,0,0,1,.079-.029.213.213,0,0,1,.08-.013.147.147,0,0,1,.131.106l-.166.071c-.016-.031-.022-.04-.038-.046a.059.059,0,0,0-.046.006.049.049,0,0,0-.033.064c.016.032.058.025.1.017l.046-.008c.078-.013.182-.028.24.094a.248.248,0,0,1,.02.091c0,.121-.108.175-.168.2l0,0a.462.462,0,0,1-.163.045.161.161,0,0,1-.152-.115l.181-.079a.162.162,0,0,0,.02.037.062.062,0,0,0,.077.016.056.056,0,0,0,.033-.079c-.016-.037-.044-.034-.1-.023Z" fill="#0e5e5f"/>
                <path id="Path_806" data-name="Path 806" d="M7170.025,5953.152l.1.175-.079.044-.1-.173-.173.1.273.474.175-.1-.115-.2.078-.044.115.2.174-.1-.273-.471Z" fill="#0e5e5f"/>
                <path id="Path_807" data-name="Path 807" d="M7167.9,5936.058a.242.242,0,0,0,.237-.246.239.239,0,0,0-.243-.235.241.241,0,1,0,.006.481" fill="#0e5e5f"/>
                <path id="Path_808" data-name="Path 808" d="M7155.018,5936.058a.241.241,0,0,1-.236-.246.237.237,0,0,1,.244-.235.24.24,0,0,1,.237.244.243.243,0,0,1-.245.237" fill="#0e5e5f"/>
                <path id="Path_809" data-name="Path 809" d="M7167.917,5935.912a.1.1,0,1,0-.1-.094.1.1,0,0,0,.1.094" fill="#fec709"/>
                <path id="Path_810" data-name="Path 810" d="M7155,5935.912a.1.1,0,0,1-.1-.1.1.1,0,0,1,.1-.093.094.094,0,0,1,.1.1.1.1,0,0,1-.1.094" fill="#fec709"/>
                <path id="Path_811" data-name="Path 811" d="M7169.069,5937.4a.108.108,0,0,0,.106-.111.109.109,0,0,0-.111-.106.108.108,0,0,0,0,.217" fill="#0e5e5f"/>
                <path id="Path_812" data-name="Path 812" d="M7153.845,5937.4a.108.108,0,0,1-.106-.111.109.109,0,0,1,.11-.106.108.108,0,0,1,0,.217" fill="#0e5e5f"/>
                <path id="Path_813" data-name="Path 813" d="M7161.544,5926.7s.2-.029.221.046.013.1-.04.129c-.068.036-.078.086-.139.083-.038,0-.1-.015-.12-.052a.3.3,0,0,1,.006-.183.1.1,0,0,1,.072-.023" fill="#0e5e5f"/>
                <path id="Path_814" data-name="Path 814" d="M7161.264,5927.216l.195-.008s.008-.141-.032-.152a.339.339,0,0,0-.107-.01s-.06.012-.062.064a.539.539,0,0,0,.006.106" fill="#0e5e5f"/>
                <path id="Path_815" data-name="Path 815" d="M7161.217,5927.4l.3-.012s.023-.081,0-.078-.084-.025-.152-.024a.45.45,0,0,0-.154.033c-.061.02,0,.081,0,.081" fill="#0e5e5f"/>
                <path id="Path_816" data-name="Path 816" d="M7160.011,5947.3c.029-.039.292.16.474.133s-.075.138-.154.174-.244.16-.29.137.008-.175,0-.262c-.008-.06-.054-.145-.029-.182" fill="#0e5e5f"/>
                <path id="Path_817" data-name="Path 817" d="M7161.457,5949.038a2.06,2.06,0,0,0-1.1.348l-.449-.4a1.91,1.91,0,0,1,1.549-.738,2.316,2.316,0,0,1,1.549.738l-.452.4a2.074,2.074,0,0,0-1.1-.35" fill="#fec709"/>
                <path id="Path_818" data-name="Path 818" d="M7146.617,5982.512l-.041-.676a2.3,2.3,0,0,1-1.988.845c-2.2,0-2.684-1.711-2.684-3.846,0-2.864.909-4.069,3.509-4.069,1.647,0,2.705.783,2.705,2.008,0,.295-.2.424-.6.444l-1.058.062c-.032-.833-.286-1.615-1.246-1.615-1.142,0-1.5.92-1.5,3.254,0,1.639.265,2.864,1.5,2.864.94,0,1.373-.666,1.373-1.544v-.728h-1.215v-1h2.78v4Z" fill="#fff"/>
                <path id="Path_819" data-name="Path 819" d="M7149.326,5982.512v-7.576l1.479-.106v7.682Z" fill="#fff"/>
                <path id="Path_820" data-name="Path 820" d="M7154.976,5980.008l-.656.072c-.612.086-1.024.276-1.024.953,0,.57.285.834.729.834a.945.945,0,0,0,.951-1.035Zm.422,2.5c-.348,0-.454-.1-.485-.655a2.1,2.1,0,0,1-1.724.781,1.306,1.306,0,0,1-1.4-1.468,1.338,1.338,0,0,1,.571-1.2,3.628,3.628,0,0,1,1.775-.444l.845-.074v-.6c0-.571-.242-.8-.771-.8-.593,0-.771.337-.835.823l-1.025.138c-.306.041-.413-.106-.413-.287a1,1,0,0,1,.307-.77,3.052,3.052,0,0,1,2.081-.581,2.7,2.7,0,0,1,1.723.422,1.484,1.484,0,0,1,.422,1.289v2.453a2.133,2.133,0,0,0,.181.982Z" fill="#fff"/>
                <path id="Path_821" data-name="Path 821" d="M7159.371,5982.638a2.667,2.667,0,0,1-1.785-.527.836.836,0,0,1-.317-.645c0-.191.127-.285.38-.307l1.056-.084c.032.635.319.888.857.888.506,0,.781-.253.781-.634,0-.5-.337-.635-1.225-.857-1.036-.252-1.659-.7-1.659-1.5,0-1.142.824-1.607,2.114-1.607a2.236,2.236,0,0,1,1.806.6.873.873,0,0,1,.191.529c0,.179-.107.211-.4.233l-.92.074c-.042-.487-.211-.782-.739-.782-.454,0-.708.253-.708.591,0,.508.359.581,1.289.813,1,.242,1.585.688,1.585,1.544,0,1.248-.94,1.668-2.3,1.668" fill="#fff"/>
                <path id="Path_822" data-name="Path 822" d="M7165.775,5979.162a.97.97,0,0,0-.845-1.046c-.474,0-.983.264-.983,1.86,0,1.237.233,1.849.835,1.849a.963.963,0,0,0,.993-.951Zm-1.224,5.5a3.1,3.1,0,0,1-1.67-.455,1.046,1.046,0,0,1-.444-.77c0-.255.148-.329.4-.348l1.1-.1c.021.634.254,1.046.887,1.046.7,0,.95-.54.95-1.353v-.908a1.9,1.9,0,0,1-1.627.729c-.941,0-1.721-.549-1.721-2.452s.728-2.694,1.954-2.694a1.652,1.652,0,0,1,1.438.8v-.667h1.436v4.565c0,1.955-.792,2.6-2.7,2.6" fill="#fff"/>
                <path id="Path_823" data-name="Path 823" d="M7170.743,5978.053c-.793,0-.982.676-.982,2.061,0,1.257.222,1.839,1.014,1.839.74,0,.961-.7.961-2.051s-.274-1.849-.993-1.849m-.02,4.586c-1.671,0-2.484-.74-2.484-2.505,0-1.88.846-2.767,2.6-2.767s2.421.844,2.421,2.557c0,1.827-.73,2.715-2.536,2.715" fill="#fff"/>
                <path id="Path_824" data-name="Path 824" d="M7179.981,5982.512h-1.692c-.251-1.121-.549-2.357-.824-3.476-.295,1.109-.613,2.419-.856,3.476H7174.9l-1.213-5.008h1.51c.243,1.087.592,2.937.761,4,.3-1.321.719-3.17.941-4h1.279c.316,1.247.611,2.577.886,4.025.234-1.342.518-2.938.751-4.025h1.4Z" fill="#fff"/>
                <path id="Path_825" data-name="Path 825" d="M7145.143,5991.009a1.35,1.35,0,0,1-.445.99,1.848,1.848,0,0,1-1.116.281,1.391,1.391,0,0,1-1.142-.419,2.322,2.322,0,0,1-.341-1.442,2.516,2.516,0,0,1,.328-1.443,1.493,1.493,0,0,1,1.305-.539,1.549,1.549,0,0,1,1.129.36.947.947,0,0,1,.278.7c0,.132-.1.205-.314.215l-.539.032a1.415,1.415,0,0,0-.133-.632.478.478,0,0,0-.443-.238.591.591,0,0,0-.589.4,3.453,3.453,0,0,0-.144,1.192q0,1.386.672,1.386c.4,0,.612-.293.641-.878Z" fill="#0e5e5f"/>
                <rect id="Rectangle_261" data-name="Rectangle 261" width="0.822" height="3.681" transform="translate(7146.029 5988.518)" fill="#0e5e5f"/>
                <path id="Path_826" data-name="Path 826" d="M7150.47,5989.083h-1.007v3.117h-.822v-3.117h-1.006v-.565h2.835Z" fill="#0e5e5f"/>
                <path id="Path_827" data-name="Path 827" d="M7154.205,5988.518l-1.192,2.295v1.386h-.821v-1.375l-1.223-2.306h.936l.631,1.295c.021.044.055.126.1.246l.1-.241.6-1.3Z" fill="#0e5e5f"/>
                <path id="Path_828" data-name="Path 828" d="M7159.695,5991.009a1.355,1.355,0,0,1-.447.99,1.843,1.843,0,0,1-1.115.281,1.391,1.391,0,0,1-1.142-.419,2.321,2.321,0,0,1-.341-1.442,2.512,2.512,0,0,1,.328-1.443,1.493,1.493,0,0,1,1.305-.539,1.55,1.55,0,0,1,1.128.36.939.939,0,0,1,.278.7c0,.132-.1.205-.313.215l-.538.032a1.408,1.408,0,0,0-.134-.632.479.479,0,0,0-.441-.238.593.593,0,0,0-.591.4,3.465,3.465,0,0,0-.144,1.192q0,1.386.672,1.386.6,0,.643-.878Z" fill="#0e5e5f"/>
                <path id="Path_829" data-name="Path 829" d="M7162.822,5990.27a3.068,3.068,0,0,0-.114-1,.568.568,0,0,0-.574-.4.574.574,0,0,0-.55.319,1.862,1.862,0,0,0-.165.673c-.017.174-.025.368-.025.578a3.044,3.044,0,0,0,.113.987.627.627,0,0,0,1.152.058,3.239,3.239,0,0,0,.163-1.223m.876-.073a3.154,3.154,0,0,1-.251,1.493,1.445,1.445,0,0,1-1.36.59,1.5,1.5,0,0,1-1.3-.492,2.239,2.239,0,0,1-.271-1.262,6.317,6.317,0,0,1,.051-.945,1.37,1.37,0,0,1,.422-.805,1.75,1.75,0,0,1,1.164-.338,1.54,1.54,0,0,1,1.183.389,2.049,2.049,0,0,1,.362,1.37" fill="#0e5e5f"/>
                <path id="Path_830" data-name="Path 830" d="M7167.508,5990.874a1.672,1.672,0,0,1-.2.925,1.433,1.433,0,0,1-1.263.482,1.31,1.31,0,0,1-1.217-.482,1.938,1.938,0,0,1-.154-.925v-2.356h.821v2.584c0,.461.2.693.6.693s.618-.232.618-.693v-2.584h.795Z" fill="#0e5e5f"/>
                <path id="Path_831" data-name="Path 831" d="M7171.4,5992.2h-.91l-1-2.137c-.033-.075-.1-.245-.195-.512q.03.245.041,1.047l.016,1.6h-.8v-3.681h.934l.981,2.095a3.164,3.164,0,0,1,.19.5,7.28,7.28,0,0,1-.051-1.048l-.006-1.55h.8Z" fill="#0e5e5f"/>
                <path id="Path_832" data-name="Path 832" d="M7175.437,5991.009a1.351,1.351,0,0,1-.447.99,1.837,1.837,0,0,1-1.114.281,1.394,1.394,0,0,1-1.143-.419,2.321,2.321,0,0,1-.342-1.442,2.51,2.51,0,0,1,.33-1.443,1.492,1.492,0,0,1,1.3-.539,1.554,1.554,0,0,1,1.129.36.945.945,0,0,1,.276.7c0,.132-.1.205-.312.215l-.539.032a1.414,1.414,0,0,0-.134-.632.478.478,0,0,0-.441-.238.593.593,0,0,0-.591.4,3.483,3.483,0,0,0-.143,1.192q0,1.386.672,1.386c.4,0,.612-.293.641-.878Z" fill="#0e5e5f"/>
                <rect id="Rectangle_262" data-name="Rectangle 262" width="0.821" height="3.681" transform="translate(7176.323 5988.518)" fill="#0e5e5f"/>
                <path id="Path_833" data-name="Path 833" d="M7180.5,5992.2h-2.311v-3.681h.821v3.118h1.49Z" fill="#0e5e5f"/>
              </g>
            </g>
          </g>
        </g>
      </g>
    </g>
  </g>
</svg>
