<svg xmlns="http://www.w3.org/2000/svg" width="300" height="75.502" viewBox="0 0 300 75.502">
  <g id="Group_1143" data-name="Group 1143" transform="translate(-154 -309.034)">
    <path id="Path_1119" data-name="Path 1119" d="M235.975,316.371a7.338,7.338,0,1,1-7.348-7.337,7.345,7.345,0,0,1,7.348,7.337" transform="translate(3.254)" fill="#d0599c"/>
    <path id="Path_1120" data-name="Path 1120" d="M249.024,324.387a6.431,6.431,0,1,1-6.437-6.426,6.433,6.433,0,0,1,6.437,6.426" transform="translate(3.947)" fill="#d0599c"/>
    <path id="Path_1121" data-name="Path 1121" d="M186.843,356.734c3.556,0,4.962,1.807,4.962,5.418,0,10.892-7.1,19.072-18.393,19.072-11.454,0-19.412-9.084-19.412-20.764,0-11.74,7.9-20.768,19.412-20.768,8.524,0,15.517,4.006,15.517,7.958,0,2.426-1.521,3.951-3.5,3.951-3.836,0-4.627-4.121-12.02-4.121-7.052,0-10.609,6.152-10.609,12.98,0,6.883,3.447,12.981,10.609,12.981,4.457,0,9.594-2.486,9.594-8.918h-5.757a3.895,3.895,0,1,1,0-7.789Z" transform="translate(0 3.312)" fill="#d0599c"/>
    <path id="Path_1122" data-name="Path 1122" d="M195.325,344.773a4.232,4.232,0,0,1,4.4-4.4h14.445a3.9,3.9,0,0,1,0,7.788H203.793V356.4h8.744a3.788,3.788,0,0,1,4.062,3.836,3.842,3.842,0,0,1-4.062,3.947h-8.744v12.3a4.237,4.237,0,1,1-8.468,0Z" transform="translate(0 3.312)" fill="#d0599c"/>
    <path id="Path_1123" data-name="Path 1123" d="M278.742,345.339a3.914,3.914,0,0,1-3.786,4.172c-2.311,0-4.117-1.691-7.5-1.691-2.43,0-4.631,1.3-4.631,3.668,0,5.81,18.847,2.09,18.847,16.644,0,8.071-6.656,13.092-14.445,13.092-4.347,0-13.71-1.016-13.71-6.318a3.764,3.764,0,0,1,3.776-4.006c2.656,0,5.817,2.2,9.483,2.2,3.722,0,5.753-2.09,5.753-4.851,0-6.663-18.846-2.655-18.846-15.746,0-7.9,6.491-12.81,13.994-12.81,3.161,0,11.064,1.186,11.064,5.647" transform="translate(5.063 3.312)" fill="#d0599c"/>
    <path id="Path_1124" data-name="Path 1124" d="M299.443,350.425a.776.776,0,1,1,0-1.552h2.793c.866,0,1.213.326,1.213,1.361,0,3.246-1.166,6.455-5.733,6.455-3.868,0-5.89-3.342-5.89-6.834s1.921-6.832,6.129-6.832c2.757,0,4.613,1.435,4.613,2.151a.783.783,0,0,1-.795.8c-.836,0-1.511-1.512-3.928-1.512-3.019,0-4.246,2.831-4.246,5.4s1.19,5.4,4.324,5.4a3.906,3.906,0,0,0,3.873-4.039v-.791Z" transform="translate(6.59 1.924)" fill="#74155a"/>
    <path id="Path_1125" data-name="Path 1125" d="M306.575,355.8a.8.8,0,0,1-.836.885.794.794,0,0,1-.828-.885V342.893a.8.8,0,0,1,.828-.887.806.806,0,0,1,.836.887Z" transform="translate(6.964 1.899)" fill="#74155a"/>
    <path id="Path_1126" data-name="Path 1126" d="M312.736,355.253c2.035,0,2.752-2,2.752-3.7s-.717-3.7-2.752-3.7-2.758,2-2.758,3.7.723,3.7,2.758,3.7m4.319.621a.77.77,0,0,1-.776.813.757.757,0,0,1-.771-.813v-.693h-.037a3.252,3.252,0,0,1-2.735,1.506c-2.835,0-4.426-2.467-4.426-5.131s1.591-5.133,4.426-5.133a3.509,3.509,0,0,1,2.735,1.336h.037v-.527a.756.756,0,0,1,.771-.809.769.769,0,0,1,.776.809Z" transform="translate(7.302 2)" fill="#74155a"/>
    <path id="Path_1127" data-name="Path 1127" d="M322.427,346.423c1.373,0,3.336.737,3.336,1.774a.675.675,0,0,1-.754.676c-.716,0-1-1.016-2.582-1.016-.947,0-1.765.416-1.765,1.266,0,1.755,5.367,1.566,5.367,4.47,0,2.094-1.793,3.1-3.662,3.1-2.109,0-3.777-1.059-3.777-1.906a.705.705,0,0,1,.679-.752c.741,0,1.342,1.222,3.158,1.222,1.2,0,1.938-.679,1.938-1.359,0-1.959-5.357-1.85-5.357-4.642,0-1.85,1.737-2.829,3.419-2.829" transform="translate(7.752 2)" fill="#74155a"/>
    <path id="Path_1128" data-name="Path 1128" d="M331.587,355.253c2.04,0,2.757-2,2.757-3.7s-.717-3.7-2.757-3.7-2.758,2-2.758,3.7.717,3.7,2.758,3.7m4.245.6c0,2.98-1.811,4.8-4.529,4.8-1.72,0-3.852-.985-3.852-1.834a.7.7,0,0,1,.7-.772c.764,0,1.5,1.168,3.282,1.168,2.114,0,2.738-1.658,2.738-3.093v-.87h-.037a2.868,2.868,0,0,1-2.544,1.436c-2.841,0-4.42-2.469-4.42-5.133s1.579-5.133,4.42-5.133a3.408,3.408,0,0,1,2.544,1.262h.037v-.453a.8.8,0,0,1,.892-.809.772.772,0,0,1,.772.809Z" transform="translate(8.192 2.137)" fill="#74155a"/>
    <path id="Path_1129" data-name="Path 1129" d="M342.062,355.253c2.04,0,2.757-2,2.757-3.7s-.717-3.7-2.757-3.7-2.757,2-2.757,3.7.726,3.7,2.757,3.7m0-8.83c2.839,0,4.42,2.467,4.42,5.133s-1.581,5.133-4.42,5.133-4.419-2.469-4.419-5.133,1.587-5.133,4.419-5.133" transform="translate(8.693 2)" fill="#74155a"/>
    <path id="Path_1130" data-name="Path 1130" d="M347.3,347.8a2.6,2.6,0,0,1-.139-.64.748.748,0,0,1,.8-.739c.357,0,.7.131.927.85l2.124,6.851h.045l2.1-6.6c.221-.719.367-1.1.974-1.1s.754.377.983,1.1l2.1,6.6h.037l2.131-6.851c.23-.719.57-.85.929-.85a.733.733,0,0,1,.79.739,2.519,2.519,0,0,1-.129.64l-2.766,8.02c-.221.64-.487.865-.955.865-.45,0-.735-.225-.938-.865l-2.15-6.776h-.047l-2.15,6.776c-.2.64-.486.865-.945.865s-.737-.225-.956-.865Z" transform="translate(9.315 2)" fill="#74155a"/>
    <path id="Path_1131" data-name="Path 1131" d="M368.592,355.8a.833.833,0,1,1-1.662,0V344.043a.818.818,0,0,1,.88-.907h4.715a.776.776,0,1,1,0,1.55h-3.933v4.4h3.492a.776.776,0,1,1,0,1.55h-3.492Z" transform="translate(9.993 1.926)" fill="#74155a"/>
    <path id="Path_1132" data-name="Path 1132" d="M378.582,355.253c2.049,0,2.756-2,2.756-3.7s-.707-3.7-2.756-3.7-2.758,2-2.758,3.7.717,3.7,2.758,3.7m4.318.621a.768.768,0,0,1-.772.813.757.757,0,0,1-.763-.813v-.693h-.045a3.255,3.255,0,0,1-2.738,1.506c-2.832,0-4.411-2.467-4.411-5.131s1.579-5.133,4.411-5.133a3.522,3.522,0,0,1,2.738,1.336h.045v-.527a.756.756,0,0,1,.763-.809.767.767,0,0,1,.772.809Z" transform="translate(10.418 2)" fill="#74155a"/>
    <path id="Path_1133" data-name="Path 1133" d="M391.023,350.175a2.147,2.147,0,1,0-4.281,0V355.8a.833.833,0,1,1-1.664,0v-8.5a.833.833,0,1,1,1.664,0v.309l.037.033a2.855,2.855,0,0,1,2.527-1.225,3.073,3.073,0,0,1,2.755,1.7,3.552,3.552,0,0,1,6.572,2.115V355.8a.833.833,0,1,1-1.663,0v-5.629a2.148,2.148,0,1,0-4.283,0V355.8a.833.833,0,1,1-1.664,0Z" transform="translate(13.16 2)" fill="#74155a"/>
    <path id="Path_1134" data-name="Path 1134" d="M402.455,355.8a.828.828,0,1,1-1.653,0v-8.5a.828.828,0,1,1,1.653,0Zm-.817-12.781a1.021,1.021,0,0,1,0,2.041,1.021,1.021,0,1,1,0-2.041" transform="translate(13.16 1.924)" fill="#74155a"/>
    <path id="Path_1135" data-name="Path 1135" d="M406.3,355.8a.791.791,0,0,1-.819.885.8.8,0,0,1-.835-.885V342.893a.8.8,0,0,1,.835-.887.793.793,0,0,1,.819.887Z" transform="translate(13.16 1.899)" fill="#74155a"/>
    <path id="Path_1136" data-name="Path 1136" d="M407.941,348.042a2.821,2.821,0,0,1-.23-.921.736.736,0,0,1,.764-.7.858.858,0,0,1,.827.618l2.3,6.9h.046l2.261-6.9a.807.807,0,0,1,.789-.618.727.727,0,0,1,.754.7,2.837,2.837,0,0,1-.229.921l-4.181,11.987a.851.851,0,0,1-.818.625.735.735,0,0,1-.754-.7,2.574,2.574,0,0,1,.249-.924l1.056-2.815Z" transform="translate(13.16 2.137)" fill="#74155a"/>
    <path id="Path_1137" data-name="Path 1137" d="M293.995,378.421a.834.834,0,1,1-1.664,0V366.535a.834.834,0,1,1,1.664,0Z" transform="translate(6.384 3.312)" fill="#74155a"/>
    <path id="Path_1138" data-name="Path 1138" d="M296.182,369.929a.831.831,0,1,1,1.659,0v.4l.036.037a3.528,3.528,0,0,1,6.267,2.49v5.564a.832.832,0,1,1-1.659,0v-5.466a2.327,2.327,0,1,0-4.644,0v5.466a.832.832,0,1,1-1.659,0Z" transform="translate(6.709 3.312)" fill="#74155a"/>
    <path id="Path_1139" data-name="Path 1139" d="M308.514,378.421a.834.834,0,1,1-1.664,0v-7.83h-.68c-.546,0-.826-.261-.826-.717s.28-.716.826-.716h.68V366.8a2.052,2.052,0,0,1,2.21-2.172h.511c.432,0,.943.264.943.719s-.286.719-.907.719h-.413c-.514,0-.68.24-.68.656v2.436h1.039c.543,0,.827.265.827.716s-.284.717-.827.717h-1.039Z" transform="translate(7.071 3.312)" fill="#74155a"/>
    <path id="Path_1140" data-name="Path 1140" d="M315.185,377.878c2.04,0,2.757-2.007,2.757-3.7s-.717-3.693-2.757-3.693-2.757,2-2.757,3.693.722,3.7,2.757,3.7m0-8.83c2.834,0,4.417,2.467,4.417,5.127s-1.583,5.137-4.417,5.137-4.416-2.471-4.416-5.137,1.584-5.127,4.416-5.127" transform="translate(7.421 3.312)" fill="#74155a"/>
    <path id="Path_1141" data-name="Path 1141" d="M321.348,369.929a.835.835,0,1,1,1.668,0v.846h.027a2.985,2.985,0,0,1,2.264-1.727.845.845,0,0,1,.928.85c0,.469-.339.768-1.033.9a2.6,2.6,0,0,0-2.186,2.844v4.775a.836.836,0,1,1-1.668,0Z" transform="translate(7.811 3.312)" fill="#74155a"/>
    <path id="Path_1142" data-name="Path 1142" d="M333.232,372.8a2.153,2.153,0,1,0-4.293,0v5.625a.829.829,0,1,1-1.654,0v-8.492a.829.829,0,1,1,1.654,0v.305l.047.037a2.838,2.838,0,0,1,2.527-1.225,3.07,3.07,0,0,1,2.756,1.7,3.545,3.545,0,0,1,6.561,2.113v5.564a.829.829,0,1,1-1.653,0V372.8a2.152,2.152,0,1,0-4.291,0v5.625a.829.829,0,1,1-1.654,0Z" transform="translate(8.344 3.312)" fill="#74155a"/>
    <path id="Path_1143" data-name="Path 1143" d="M346.988,377.878c2.031,0,2.746-2.007,2.746-3.7s-.715-3.695-2.746-3.695-2.758,2-2.758,3.695.718,3.7,2.758,3.7m4.319.621a.772.772,0,0,1-.772.813.76.76,0,0,1-.781-.813v-.7h-.027a3.265,3.265,0,0,1-2.739,1.512c-2.84,0-4.42-2.471-4.42-5.137s1.58-5.127,4.42-5.127a3.523,3.523,0,0,1,2.739,1.336h.027v-.527a.758.758,0,0,1,.781-.809.771.771,0,0,1,.772.809Z" transform="translate(8.923 3.312)" fill="#74155a"/>
    <path id="Path_1144" data-name="Path 1144" d="M354,366.99a.811.811,0,0,1,.847-.891.8.8,0,0,1,.826.891v2.168h.689c.543,0,.819.267.819.716s-.276.717-.819.717h-.689v7.83a.8.8,0,0,1-.826.891.807.807,0,0,1-.847-.891v-7.83h-.662c-.56,0-.836-.261-.836-.717s.276-.716.836-.716H354Z" transform="translate(9.258 3.312)" fill="#74155a"/>
    <path id="Path_1145" data-name="Path 1145" d="M360.047,378.421a.834.834,0,1,1-1.664,0v-8.492a.833.833,0,1,1,1.664,0Zm-.836-12.775a1.019,1.019,0,1,1,0,2.037,1.019,1.019,0,0,1,0-2.037" transform="translate(9.436 3.312)" fill="#74155a"/>
    <path id="Path_1146" data-name="Path 1146" d="M366.213,377.878c2.039,0,2.756-2.007,2.756-3.7s-.717-3.693-2.756-3.693-2.758,2-2.758,3.693.717,3.7,2.758,3.7m0-8.83c2.83,0,4.41,2.467,4.41,5.127s-1.58,5.137-4.41,5.137-4.421-2.471-4.421-5.137,1.591-5.127,4.421-5.127" transform="translate(9.836 3.312)" fill="#74155a"/>
    <path id="Path_1147" data-name="Path 1147" d="M372.369,369.929a.833.833,0,1,1,1.664,0v.4l.037.037a3.528,3.528,0,0,1,6.267,2.49v5.564a.829.829,0,1,1-1.653,0v-5.466a2.33,2.33,0,1,0-4.651,0v5.466a.834.834,0,1,1-1.664,0Z" transform="translate(10.305 3.312)" fill="#74155a"/>
    <path id="Path_1148" data-name="Path 1148" d="M393.937,367.212a.723.723,0,0,1-.726.737c-.736,0-.975-.867-2.637-.867a1.948,1.948,0,0,0-2.133,1.906c0,2.963,6.378,1.549,6.378,6.08a4.23,4.23,0,0,1-4.55,4.244c-1.781,0-3.739-.68-3.739-1.621,0-.455.23-.85.7-.85.57,0,1.36,1.037,3.061,1.037a2.645,2.645,0,0,0,2.756-2.738c0-3.189-6.377-1.641-6.377-6.043a3.758,3.758,0,0,1,3.96-3.451c1.654,0,3.309.7,3.309,1.566" transform="translate(13.16 3.312)" fill="#74155a"/>
    <path id="Path_1149" data-name="Path 1149" d="M402.869,373.574a2.824,2.824,0,0,0-2.665-3.094c-2.06-.08-2.793,1.564-2.849,3.094Zm-5.514,1.246a2.859,2.859,0,0,0,2.959,3.058c2.215,0,2.775-1.365,3.409-1.365a.662.662,0,0,1,.6.736c0,.819-2.057,2.063-4.025,2.063-3.207,0-4.6-2.471-4.6-5.137,0-2.715,1.7-5.127,4.513-5.127,2.739,0,4.319,2.467,4.319,4.883,0,.584-.2.889-.927.889Z" transform="translate(13.16 3.312)" fill="#74155a"/>
    <path id="Path_1150" data-name="Path 1150" d="M406.1,369.929a.829.829,0,1,1,1.655,0v.846h.047a2.968,2.968,0,0,1,2.259-1.727.845.845,0,0,1,.928.85c0,.469-.34.768-1.048.9a2.613,2.613,0,0,0-2.186,2.844v4.775a.83.83,0,1,1-1.655,0Z" transform="translate(13.16 3.312)" fill="#74155a"/>
    <path id="Path_1151" data-name="Path 1151" d="M411.544,370.5a1.858,1.858,0,0,1-.175-.68.739.739,0,0,1,.754-.768.822.822,0,0,1,.873.637l2.279,6.939h.035l2.29-6.939a.8.8,0,0,1,.864-.637.737.737,0,0,1,.763.768,1.843,1.843,0,0,1-.176.68l-2.885,8.1c-.165.5-.34.721-.872.721s-.7-.225-.864-.721Z" transform="translate(13.16 3.312)" fill="#74155a"/>
    <path id="Path_1152" data-name="Path 1152" d="M422.066,378.421a.8.8,0,0,1-.836.891.793.793,0,0,1-.828-.891v-8.492a.791.791,0,0,1,.828-.881.8.8,0,0,1,.836.881Zm-.836-12.775a1.019,1.019,0,1,1-1.011,1.021,1.02,1.02,0,0,1,1.011-1.021" transform="translate(13.16 3.312)" fill="#74155a"/>
    <path id="Path_1153" data-name="Path 1153" d="M428.342,369.048c1.7,0,2.693.582,2.693,1.258a.7.7,0,0,1-.672.7c-.642,0-.89-.527-2.021-.527-2.058,0-2.876,2-2.876,3.693s.818,3.7,2.876,3.7c1.167,0,1.47-.57,2-.57a.622.622,0,0,1,.632.7c0,.625-.918,1.305-2.636,1.305-3.06,0-4.53-2.471-4.53-5.137s1.47-5.127,4.53-5.127" transform="translate(13.16 3.312)" fill="#74155a"/>
    <path id="Path_1154" data-name="Path 1154" d="M439.186,373.574a2.822,2.822,0,0,0-2.656-3.094c-2.067-.08-2.8,1.564-2.858,3.094Zm-5.514,1.246a2.864,2.864,0,0,0,2.959,3.058c2.215,0,2.775-1.365,3.409-1.365a.664.664,0,0,1,.6.736c0,.819-2.06,2.063-4.017,2.063-3.216,0-4.614-2.471-4.614-5.137,0-2.715,1.7-5.127,4.522-5.127,2.73,0,4.31,2.467,4.31,4.883,0,.584-.2.889-.918.889Z" transform="translate(13.16 3.312)" fill="#74155a"/>
    <path id="Path_1155" data-name="Path 1155" d="M242.6,333.606c-3.63,0-6.313,2.339-6.465,6.459a4.146,4.146,0,0,1-.055,8.29v1.853a4.029,4.029,0,0,1,4.131,4.385v21.893a4.419,4.419,0,0,1-1.251,3.291,6.66,6.66,0,0,0,3.64,1.111c3.74,0,6.516-2.435,6.516-6.781V340.391c0-4.347-2.776-6.785-6.516-6.785" transform="translate(3.945 3.312)" fill="#d0599c"/>
    <path id="Path_1156" data-name="Path 1156" d="M231.743,376.486V354.593a4.045,4.045,0,0,1,4.232-4.4c.036,0,.064.017.1.019v-1.855c-.037,0-.069.022-.106.022a4.173,4.173,0,0,1,0-8.345c.037,0,.069.021.106.021v-5.41c0-4.962-3.166-7.743-7.439-7.743s-7.443,2.781-7.443,7.743v38.5c0,4.963,3.179,7.742,7.443,7.742a7.763,7.763,0,0,0,4.284-1.185,4.453,4.453,0,0,1-1.178-3.217" transform="translate(3.252 3.312)" fill="#d0599c"/>
  </g>
</svg>
