<svg xmlns="http://www.w3.org/2000/svg" width="260.153" height="40.439" viewBox="0 0 260.153 40.439">
  <g id="Logo" transform="translate(-6055.482 -3276.044)">
    <g id="Group_476" data-name="Group 476" transform="translate(6055.483 3276.045)">
      <g id="Group_339" data-name="Group 339" transform="translate(4.198 5.317)">
        <path id="Path_646" data-name="Path 646" d="M6119.666,3281.556v35.122h-59.832l4.529-4.522h50.781v-26.071Z" transform="translate(-6059.834 -3281.556)" fill="#fff"/>
      </g>
      <g id="Group_340" data-name="Group 340">
        <path id="Path_647" data-name="Path 647" d="M6115.149,3276.045l-4.529,4.529h-50.615v26.822l-4.522,4.529v-35.879Z" transform="translate(-6055.483 -3276.045)" fill="#fff"/>
      </g>
      <g id="Group_341" data-name="Group 341" transform="translate(11.843 9.078)">
        <path id="Path_648" data-name="Path 648" d="M6070.54,3304.135a11.436,11.436,0,0,1-2.78-7.849,11.27,11.27,0,0,1,3.07-8.08,9.643,9.643,0,0,1,7.094-2.751c5.33,0,8.515,2.838,9.182,7.182h-4.982a3.814,3.814,0,0,0-4.025-2.954c-3.418,0-5.125,2.838-5.125,6.6,0,3.794,1.969,6.6,5.212,6.6a4.246,4.246,0,0,0,4.489-3.621v-.058h-3.882v-3.764h8.631v11.12h-3.591l-.29-2.491h-.059a6.469,6.469,0,0,1-5.878,2.954A9.283,9.283,0,0,1,6070.54,3304.135Z" transform="translate(-6067.759 -3285.455)" fill="#fff"/>
        <path id="Path_649" data-name="Path 649" d="M6089.814,3297.041c0-5.759,3.688-10.038,9.5-10.038,5.84,0,9.526,4.279,9.526,10.038s-3.687,10.039-9.526,10.039C6093.5,3307.08,6089.814,3302.8,6089.814,3297.041Zm14.183,0c0-3.5-1.534-6.189-4.656-6.189-3.1,0-4.683,2.691-4.683,6.189s1.588,6.163,4.683,6.163C6102.462,3303.2,6104,3300.54,6104,3297.041Z" transform="translate(-6068.537 -3285.51)" fill="#fff"/>
      </g>
    </g>
    <text id="GLASGOW_ONLINE" data-name="GLASGOW ONLINE" transform="translate(6129.635 3303.833)" fill="#fff" font-size="21" font-family="NHaasGroteskDSPro-75Bd, Neue Haas Grotesk Display Pro"><tspan x="0" y="0">GLASGOW ONLINE</tspan></text>
    <g id="Group_837" data-name="Group 837" transform="translate(6055.482 3276.044)">
      <g id="Group_339-2" data-name="Group 339" transform="translate(4.198 5.317)">
        <path id="Path_646-2" data-name="Path 646" d="M6119.666,3281.556v35.122h-59.832l4.529-4.522h50.781v-26.071Z" transform="translate(-6059.834 -3281.556)" fill="#fff"/>
      </g>
      <g id="Group_340-2" data-name="Group 340">
        <path id="Path_647-2" data-name="Path 647" d="M6115.149,3276.045l-4.529,4.529h-50.615v26.822l-4.522,4.529v-35.879Z" transform="translate(-6055.483 -3276.045)" fill="#fff"/>
      </g>
      <g id="Group_341-2" data-name="Group 341" transform="translate(11.843 9.078)">
        <path id="Path_648-2" data-name="Path 648" d="M6070.54,3304.135a11.436,11.436,0,0,1-2.78-7.849,11.27,11.27,0,0,1,3.07-8.08,9.643,9.643,0,0,1,7.094-2.751c5.33,0,8.515,2.838,9.182,7.182h-4.982a3.814,3.814,0,0,0-4.025-2.954c-3.418,0-5.125,2.838-5.125,6.6,0,3.794,1.969,6.6,5.212,6.6a4.246,4.246,0,0,0,4.489-3.621v-.058h-3.882v-3.764h8.631v11.12h-3.591l-.29-2.491h-.059a6.469,6.469,0,0,1-5.878,2.954A9.283,9.283,0,0,1,6070.54,3304.135Z" transform="translate(-6067.759 -3285.455)" fill="#fff"/>
        <path id="Path_649-2" data-name="Path 649" d="M6089.814,3297.041c0-5.759,3.688-10.038,9.5-10.038,5.84,0,9.526,4.279,9.526,10.038s-3.687,10.039-9.526,10.039C6093.5,3307.08,6089.814,3302.8,6089.814,3297.041Zm14.183,0c0-3.5-1.534-6.189-4.656-6.189-3.1,0-4.683,2.691-4.683,6.189s1.588,6.163,4.683,6.163C6102.462,3303.2,6104,3300.54,6104,3297.041Z" transform="translate(-6068.537 -3285.51)" fill="#fff"/>
      </g>
    </g>
  </g>
</svg>
