<svg xmlns="http://www.w3.org/2000/svg" width="16" height="9.424" viewBox="0 0 16 9.424">
  <g id="Glow-03" transform="translate(-66.839 -77.2)">
    <g id="Group_2246" data-name="Group 2246" transform="translate(72.629 78.603)">
      <path id="Path_2301" data-name="Path 2301" d="M239.634,120.117a2.017,2.017,0,1,0-2.017,2.017A2.016,2.016,0,0,0,239.634,120.117Zm-3.153,0a1.139,1.139,0,1,1,1.139,1.139A1.138,1.138,0,0,1,236.482,120.117Z" transform="translate(-235.6 -118.1)" fill="#0d64b0"/>
      <path id="Path_2302" data-name="Path 2302" d="M302.817,235.8a1.317,1.317,0,1,0,1.317,1.317A1.318,1.318,0,0,0,302.817,235.8Zm0,2.058a.744.744,0,1,1,.744-.744A.744.744,0,0,1,302.817,237.858Z" transform="translate(-299.239 -231.762)" fill="#0d64b0"/>
      <path id="Path_2303" data-name="Path 2303" d="M273.444,308.5a.744.744,0,1,0,.744.744A.744.744,0,0,0,273.444,308.5Zm0,1.163a.419.419,0,1,1,.419-.419A.42.42,0,0,1,273.444,309.663Z" transform="translate(-271.427 -301.968)" fill="#0d64b0"/>
    </g>
    <path id="Path_2304" data-name="Path 2304" d="M351.733,120.2h.834a.026.026,0,0,1,.014.007l1.091,2.23c0,.01.017.01.024,0l1.112-2.089c0-.01.017-.01.024,0l1.125,2.082c.007.01.021.01.024,0l1.135-2.223s.007-.007.01-.007h.806a.015.015,0,0,1,.014.021l-1.938,3.921a.013.013,0,0,1-.024,0l-1.108-2.13c0-.01-.017-.01-.024,0l-1.156,2.13c-.007.01-.021.01-.024,0l-1.949-3.925C351.715,120.21,351.722,120.2,351.733,120.2Z" transform="translate(-275.107 -41.525)" fill="#0d64b0"/>
    <path id="Path_2305" data-name="Path 2305" d="M192.409,82.559v-.9a.015.015,0,0,0-.014-.014c-.264.007-.264-.206-.264-.206v-4.23a.015.015,0,0,0-.014-.014h-.7a.015.015,0,0,0-.014.014V82h0c0,.017.062.566.995.573A.023.023,0,0,0,192.409,82.559Z" transform="translate(-120.287)" fill="#0d64b0"/>
    <path id="Path_2306" data-name="Path 2306" d="M68.248,119.04a1.958,1.958,0,0,0-1.112.878,2.122,2.122,0,0,0-.055,2.028,1.971,1.971,0,0,0,1.228.9,1.95,1.95,0,0,0,1.249-.148.017.017,0,0,1,.021.01v.792h0a.814.814,0,0,1-.36.539.9.9,0,0,1-.642.1,1.08,1.08,0,0,1-.614-.336.031.031,0,0,0-.041,0l-.456.508a.027.027,0,0,0,0,.038,1.728,1.728,0,0,0,.961.515,1.674,1.674,0,0,0,1.259-.3,1.727,1.727,0,0,0,.672-1.063v-3.719a.013.013,0,0,0,0-.01A2.005,2.005,0,0,0,68.248,119.04Zm1.324,2.806a.013.013,0,0,1,0,.01,1.146,1.146,0,0,1-.545.34,1.227,1.227,0,0,1-1.112-.408,1.227,1.227,0,0,1,.367-1.918,1.218,1.218,0,0,1,1.286.192.013.013,0,0,1,0,.01Z" transform="translate(0 -40.338)" fill="#0d64b0"/>
  </g>
</svg>
