<svg xmlns="http://www.w3.org/2000/svg" width="466.387" height="274.7" viewBox="0 0 466.387 274.7">
  <g id="Glow-03" transform="translate(-66.839 -77.2)">
    <g id="Group_2246" data-name="Group 2246">
      <path id="Path_2301" data-name="Path 2301" d="M353.2,176.9a58.8,58.8,0,1,0-58.8,58.8A58.767,58.767,0,0,0,353.2,176.9Zm-91.9,0a33.2,33.2,0,1,1,33.2,33.2A33.182,33.182,0,0,1,261.3,176.9Z" fill="#fff"/>
      <path id="Path_2302" data-name="Path 2302" d="M339.9,235.8a38.4,38.4,0,1,0,38.4,38.4A38.41,38.41,0,0,0,339.9,235.8Zm0,60a21.7,21.7,0,1,1,21.7-21.7A21.68,21.68,0,0,1,339.9,295.8Z" fill="#fff"/>
      <path id="Path_2303" data-name="Path 2303" d="M294.4,308.5a21.7,21.7,0,1,0,21.7,21.7A21.68,21.68,0,0,0,294.4,308.5Zm0,33.9a12.2,12.2,0,1,1,12.2-12.2A12.249,12.249,0,0,1,294.4,342.4Z" fill="#fff"/>
    </g>
    <path id="Path_2304" data-name="Path 2304" d="M352.1,120.2h24.3a.758.758,0,0,1,.4.2l31.8,65c.1.3.5.3.7,0l32.4-60.9c.1-.3.5-.3.7,0l32.8,60.7c.2.3.6.3.7,0L509,120.4c.1-.1.2-.2.3-.2h23.5a.441.441,0,0,1,.4.6L476.7,235.1a.385.385,0,0,1-.7,0L443.7,173c-.1-.3-.5-.3-.7,0l-33.7,62.1c-.2.3-.6.3-.7,0L351.8,120.7C351.6,120.5,351.8,120.2,352.1,120.2Z" fill="#fff"/>
    <path id="Path_2305" data-name="Path 2305" d="M220.8,233.4V207.3a.43.43,0,0,0-.4-.4c-7.7.2-7.7-6-7.7-6V77.6a.43.43,0,0,0-.4-.4H191.8a.43.43,0,0,0-.4.4V217.2h0c.1.5,1.8,16.5,29,16.7A.664.664,0,0,0,220.8,233.4Z" fill="#fff"/>
    <path id="Path_2306" data-name="Path 2306" d="M107.9,121c-19.9,5.6-30,21.6-32.4,25.6-.8,1.3-18,30.9-1.6,59.1,11.9,20.5,33,25.6,35.8,26.2a56.843,56.843,0,0,0,36.4-4.3.486.486,0,0,1,.6.3V251h0c-.5,2-2.1,10.6-10.5,15.7-7.8,4.8-15.6,3.5-18.7,3a31.478,31.478,0,0,1-17.9-9.8.913.913,0,0,0-1.2,0L85.1,274.7a.785.785,0,0,0,0,1.1,50.369,50.369,0,0,0,28,15c4.3.7,21.2,2.9,36.7-8.7a50.338,50.338,0,0,0,19.6-31V142.7a.367.367,0,0,0-.1-.3C153.5,122.7,129.6,114.9,107.9,121Zm38.6,81.8a.367.367,0,0,1-.1.3c-2.5,2.7-8.1,8-15.9,9.9-17.7,4.3-31.6-10.9-32.4-11.9-1.4-1.6-11.2-13.1-8.7-29.4.3-1.6,3.3-18.8,19.4-26.5,12.1-5.8,26.6-3.2,37.5,5.6a.367.367,0,0,1,.1.3Z" fill="#fff"/>
  </g>
</svg>
