<svg xmlns="http://www.w3.org/2000/svg" xmlns:xlink="http://www.w3.org/1999/xlink" width="220" height="220" viewBox="0 0 220 220">
  <defs>
    <clipPath id="clip-GO-Social">
      <rect width="220" height="220"/>
    </clipPath>
  </defs>
  <g id="GO-Social" clip-path="url(#clip-GO-Social)">
    <rect width="220" height="220" fill="#fff"/>
    <g id="Group_2476" data-name="Group 2476" transform="translate(6.117 -5.048)">
      <g id="Group_929" data-name="Group 929" transform="translate(23.643 65)">
        <path id="Path_646" data-name="Path 646" d="M6212.4,3281.692v88.454H6059.836l11.547-11.4h129.49v-65.72Z" transform="translate(-6051.457 -3270.328)" fill="#00854b"/>
        <path id="Path_647" data-name="Path 647" d="M6207.627,3276.045l-11.547,11.421H6067.016v67.643l-11.532,11.423v-90.487Z" transform="translate(-6055.483 -3276.045)" fill="#00854b"/>
        <g id="Group_341" data-name="Group 341" transform="translate(28.193 20.003)">
          <path id="Path_648" data-name="Path 648" d="M6074.967,3333.869c-4.654-5.105-7.208-12.161-7.208-20.343,0-8.406,2.855-15.837,7.957-20.94,4.428-4.5,10.659-7.13,18.386-7.13,13.816,0,22.071,7.355,23.8,18.614h-12.914c-.974-4.353-4.579-7.656-10.43-7.656-8.859,0-13.284,7.357-13.284,17.113,0,9.833,5.1,17.116,13.509,17.116,6.98,0,11.108-4.654,11.633-9.385v-.15h-10.06v-9.756h22.369v28.821h-9.306l-.75-6.456h-.152c-3.529,5.48-8.782,7.656-15.235,7.656C6085.624,3341.373,6079.394,3338.672,6074.967,3333.869Z" transform="translate(-6067.758 -3285.456)" fill="#1d1d1b"/>
          <path id="Path_649" data-name="Path 649" d="M6089.814,3313.019c0-14.927,9.557-26.015,24.622-26.015,15.137,0,24.69,11.089,24.69,26.015s-9.553,26.019-24.69,26.019C6099.371,3339.038,6089.814,3327.945,6089.814,3313.019Zm36.758,0c0-9.065-3.976-16.041-12.066-16.041-8.021,0-12.137,6.976-12.137,16.041s4.116,15.972,12.137,15.972C6122.6,3328.991,6126.572,3322.088,6126.572,3313.019Z" transform="translate(-6034.67 -3283.134)" fill="#1d1d1b"/>
        </g>
      </g>
    </g>
  </g>
</svg>
