<svg xmlns="http://www.w3.org/2000/svg" width="17.5" height="11.053" viewBox="0 0 17.5 11.053">
  <g id="Group_695" data-name="Group 695" transform="translate(-6055.483 -3276.045)">
    <g id="Group_339" data-name="Group 339" transform="translate(6056.63 3277.498)">
      <path id="Path_646" data-name="Path 646" d="M6076.188,3281.557v9.6h-16.354l1.238-1.236h13.879v-7.126Z" transform="translate(-6059.834 -3281.557)" fill="#0d64b0"/>
    </g>
    <g id="Group_340" data-name="Group 340" transform="translate(6055.483 3276.045)">
      <path id="Path_647" data-name="Path 647" d="M6071.792,3276.045l-1.238,1.237H6056.72v7.332l-1.236,1.237v-9.806Z" transform="translate(-6055.483 -3276.045)" fill="#0d64b0"/>
    </g>
    <g id="Group_341" data-name="Group 341" transform="translate(6058.72 3278.526)">
      <path id="Path_648" data-name="Path 648" d="M6068.52,3290.561a3.12,3.12,0,0,1-.761-2.146,3.08,3.08,0,0,1,.839-2.208,2.635,2.635,0,0,1,1.939-.751,2.283,2.283,0,0,1,2.509,1.963h-1.362a1.042,1.042,0,0,0-1.1-.808c-.935,0-1.4.775-1.4,1.8s.539,1.805,1.425,1.805a1.161,1.161,0,0,0,1.227-.989v-.016h-1.062v-1.029h2.359v3.04h-.981l-.079-.681h-.016a1.769,1.769,0,0,1-1.608.808A2.535,2.535,0,0,1,6068.52,3290.561Z" transform="translate(-6067.759 -3285.456)" fill="#0d64b0"/>
      <path id="Path_649" data-name="Path 649" d="M6089.815,3289.747a2.6,2.6,0,1,1,2.6,2.744A2.546,2.546,0,0,1,6089.815,3289.747Zm3.876,0c0-.957-.419-1.691-1.272-1.691s-1.28.735-1.28,1.691.435,1.684,1.28,1.684S6093.691,3290.7,6093.691,3289.747Z" transform="translate(-6084 -3286.595)" fill="#0d64b0"/>
    </g>
  </g>
</svg>
