<svg xmlns="http://www.w3.org/2000/svg" width="64.371" height="39.922" viewBox="0 0 64.371 39.922">
  <g id="Group_518" data-name="Group 518" transform="translate(-72 -100)">
    <path id="Path_646" data-name="Path 646" d="M6119.87,3281.556l.984,35.41h-61.02l4.619-4.559h51.79v-26.285Z" transform="translate(-5984.483 -3177.045)" fill="#18a538"/>
    <path id="Path_647" data-name="Path 647" d="M6116.333,3276.045l-4.619,4.568h-51.62v27.054l-4.612,4.568v-36.19Z" transform="translate(-5983.483 -3176.045)" fill="#18a538"/>
    <g id="Group_341" data-name="Group 341" transform="translate(-5984.483 -3177.455)">
      <path id="Path_648" data-name="Path 648" d="M6070.641,3304.818a11.853,11.853,0,0,1-2.882-8.136,11.682,11.682,0,0,1,3.182-8.375,10,10,0,0,1,7.354-2.852c5.525,0,8.826,2.942,9.517,7.445h-5.164a3.953,3.953,0,0,0-4.172-3.062c-3.543,0-5.313,2.942-5.313,6.844,0,3.933,2.041,6.845,5.4,6.845a4.4,4.4,0,0,0,4.653-3.753v-.06H6079.2v-3.9h8.946v11.527h-3.722l-.3-2.582h-.061a6.706,6.706,0,0,1-6.093,3.062A9.622,9.622,0,0,1,6070.641,3304.818Z" fill="#1d1d1b"/>
      <path id="Path_649" data-name="Path 649" d="M6089.814,3297.408c0-5.97,3.822-10.405,9.847-10.405,6.054,0,9.875,4.435,9.875,10.405s-3.821,10.406-9.875,10.406C6093.636,3307.814,6089.814,3303.378,6089.814,3297.408Zm14.7,0c0-3.626-1.59-6.416-4.826-6.416-3.208,0-4.854,2.79-4.854,6.416s1.646,6.388,4.854,6.388C6102.925,3303.8,6104.515,3301.035,6104.515,3297.408Z" fill="#1d1d1b"/>
    </g>
  </g>
</svg>
