<svg xmlns="http://www.w3.org/2000/svg" width="892.715" height="140" viewBox="0 0 892.715 140">
  <g id="Logo" transform="translate(-6055.483 -3276.045)">
    <g id="Group_476" data-name="Group 476" transform="translate(6055.483 3276.045)">
      <g id="Group_339" data-name="Group 339" transform="translate(14.532 18.408)">
        <path id="Path_646" data-name="Path 646" d="M6266.971,3281.556v121.592H6059.834l15.68-15.655h175.8v-90.258Z" transform="translate(-6059.834 -3281.556)" fill="#00854b"/>
      </g>
      <g id="Group_340" data-name="Group 340">
        <path id="Path_647" data-name="Path 647" d="M6262.049,3276.045l-15.678,15.678h-175.23v92.856l-15.656,15.678V3276.045Z" transform="translate(-6055.484 -3276.045)" fill="#00854b"/>
      </g>
      <g id="Group_341" data-name="Group 341" transform="translate(41 31.43)">
        <path id="Path_648" data-name="Path 648" d="M6077.385,3350.126c-6.215-6.821-9.625-16.246-9.625-27.175,0-11.228,3.811-21.154,10.629-27.972,5.914-6.014,14.238-9.524,24.559-9.524,18.453,0,29.48,9.825,31.787,24.865h-17.246c-1.3-5.815-6.117-10.228-13.936-10.228-11.832,0-17.744,9.827-17.744,22.858,0,13.136,6.818,22.862,18.045,22.862,9.324,0,14.84-6.216,15.543-12.535v-.2h-13.439v-13.032h29.881v38.5h-12.432l-1-8.624h-.2c-4.713,7.321-11.73,10.228-20.352,10.228C6091.623,3360.148,6083.3,3356.541,6077.385,3350.126Z" transform="translate(-6067.76 -3285.455)" fill="#1d1d1b"/>
        <path id="Path_649" data-name="Path 649" d="M6089.814,3321.754c0-19.938,12.766-34.751,32.889-34.751,20.219,0,32.98,14.813,32.98,34.751s-12.762,34.755-32.98,34.755C6102.58,3356.509,6089.814,3341.694,6089.814,3321.754Zm49.1,0c0-12.11-5.311-21.428-16.117-21.428-10.717,0-16.213,9.317-16.213,21.428s5.5,21.335,16.213,21.335C6133.6,3343.089,6138.914,3333.868,6138.914,3321.754Z" transform="translate(-6016.152 -3281.834)" fill="#1d1d1b"/>
      </g>
    </g>
    <text id="GLASGOW_ONLINE" data-name="GLASGOW ONLINE" transform="translate(6312.198 3370.009)" fill="#1d1d1b" font-size="72" font-family="NHaasGroteskDSPro-75Bd, Neue Haas Grotesk Display Pro"><tspan x="0" y="0">GLASGOW ONLINE</tspan></text>
  </g>
</svg>
