<svg id="Group_476" data-name="Group 476" xmlns="http://www.w3.org/2000/svg" width="238.933" height="150.904" viewBox="0 0 238.933 150.904">
  <path id="Path_646" data-name="Path 646" d="M6283.1,3281.556v131.062H6059.834l16.9-16.875h189.494v-97.288Z" transform="translate(-6044.17 -3261.714)" fill="#fff"/>
  <path id="Path_647" data-name="Path 647" d="M6278.137,3276.045l-16.9,16.9H6072.359v100.087l-16.875,16.9V3276.045Z" transform="translate(-6055.484 -3276.045)" fill="#fff"/>
  <g id="Group_341" data-name="Group 341" transform="translate(44.193 33.877)">
    <path id="Path_648" data-name="Path 648" d="M6078.133,3355.162c-6.7-7.352-10.373-17.511-10.373-29.291,0-12.1,4.106-22.8,11.456-30.15,6.375-6.483,15.348-10.266,26.471-10.266,19.89,0,31.776,10.59,34.262,26.8h-18.588c-1.407-6.268-6.595-11.024-15.021-11.024-12.754,0-19.126,10.593-19.126,24.638,0,14.159,7.35,24.643,19.45,24.643,10.049,0,15.995-6.7,16.754-13.511v-.216h-14.487v-14.047h32.208v41.5h-13.4l-1.082-9.3h-.215c-5.081,7.891-12.646,11.023-21.938,11.023C6093.481,3365.965,6084.511,3362.077,6078.133,3355.162Z" transform="translate(-6067.76 -3285.455)" fill="#fff"/>
    <path id="Path_649" data-name="Path 649" d="M6089.814,3324.46c0-21.492,13.76-37.458,35.45-37.458,21.794,0,35.549,15.966,35.549,37.458s-13.755,37.461-35.549,37.461C6103.574,3361.922,6089.814,3345.953,6089.814,3324.46Zm52.922,0c0-13.053-5.723-23.1-17.371-23.1-11.551,0-17.476,10.043-17.476,23.1s5.924,23,17.476,23C6137.014,3347.457,6142.736,3337.517,6142.736,3324.46Z" transform="translate(-6010.415 -3281.431)" fill="#fff"/>
  </g>
</svg>
