<?xml version="1.0" encoding="utf-8"?>
<!-- Generator: Adobe Illustrator 28.1.0, SVG Export Plug-In . SVG Version: 6.00 Build 0)  -->
<svg version="1.1" id="Layer_1" xmlns="http://www.w3.org/2000/svg" xmlns:xlink="http://www.w3.org/1999/xlink" x="0px" y="0px"
	 viewBox="0 0 64.4 39.9" style="enable-background:new 0 0 64.4 39.9;" xml:space="preserve">
<style type="text/css">
	.st0{fill:#FFFFFF;}
</style>
<g id="Group_518" transform="translate(-72 -100)">
	<path id="Path_646" class="st0" d="M135.4,104.5l1,35.4h-61l4.6-4.6h51.8v-26.3L135.4,104.5z"/>
	<path id="Path_647" class="st0" d="M132.9,100l-4.6,4.6H76.6v27.1l-4.6,4.6V100L132.9,100z"/>
	<g id="Group_341" transform="translate(-5984.483 -3177.455)">
		<path id="Path_648" class="st0" d="M6070.6,3304.8c-1.9-2.3-3-5.2-2.9-8.1c-0.1-3.1,1.1-6.1,3.2-8.4c2-1.9,4.6-2.9,7.4-2.9
			c5.5,0,8.8,2.9,9.5,7.4h-5.2c-0.4-1.9-2.2-3.2-4.2-3.1c-3.5,0-5.3,2.9-5.3,6.8c0,3.9,2,6.8,5.4,6.8c2.3,0.2,4.3-1.5,4.7-3.8v-0.1
			h-4v-3.9h8.9v11.5h-3.7l-0.3-2.6h-0.1c-1.3,2.1-3.7,3.2-6.1,3.1C6075.2,3307.9,6072.5,3306.8,6070.6,3304.8z"/>
		<path id="Path_649" class="st0" d="M6089.8,3297.4c0-6,3.8-10.4,9.8-10.4c6.1,0,9.9,4.4,9.9,10.4s-3.8,10.4-9.9,10.4
			C6093.6,3307.8,6089.8,3303.4,6089.8,3297.4z M6104.5,3297.4c0-3.6-1.6-6.4-4.8-6.4c-3.2,0-4.9,2.8-4.9,6.4s1.6,6.4,4.9,6.4
			C6102.9,3303.8,6104.5,3301,6104.5,3297.4L6104.5,3297.4z"/>
	</g>
</g>
</svg>
