<svg id="Group_537" data-name="Group 537" xmlns="http://www.w3.org/2000/svg" width="58.347" height="56" viewBox="0 0 58.347 56">
  <path id="Path_870" data-name="Path 870" d="M18.69,17.581a.99.99,0,1,1,0-1.981,1.065,1.065,0,0,1,.99.99A.933.933,0,0,1,18.69,17.581Zm0-1.09h0c0,.1.1,0,0,0Z" transform="translate(-8.984 -10.053)" fill="#00844b"/>
  <path id="Path_871" data-name="Path 871" d="M23.59,17.581a.99.99,0,1,1,.99-.99A.933.933,0,0,1,23.59,17.581Zm0-1.09h0c.1.1.1,0,0,0Z" transform="translate(-7.947 -10.053)" fill="#00844b"/>
  <path id="Path_872" data-name="Path 872" d="M28.59,17.581a.99.99,0,1,1,.99-.99A.993.993,0,0,1,28.59,17.581Zm-.1-1.09h0c.1.1.1,0,0,0Z" transform="translate(-7.599 -10.053)" fill="#00844b"/>
  <path id="Path_873" data-name="Path 873" d="M29.565,32.781H16.49a.99.99,0,1,1,0-1.981H29.565a.993.993,0,0,1,.99.99A1.061,1.061,0,0,1,29.565,32.781Z" transform="translate(-8.963 -8.551)" fill="#00844b"/>
  <path id="Path_874" data-name="Path 874" d="M29.565,38.281H16.49a.993.993,0,0,1-.99-.99.936.936,0,0,1,.99-.99H29.565a.99.99,0,0,1,0,1.981Z" transform="translate(-8.963 -8.167)" fill="#00844b"/>
  <path id="Path_875" data-name="Path 875" d="M29.565,43.781H16.49a.993.993,0,0,1-.99-.99.936.936,0,0,1,.99-.99H29.565a.99.99,0,0,1,0,1.981Z" transform="translate(-8.963 -7.784)" fill="#00844b"/>
  <g id="Group_536" data-name="Group 536">
    <path id="Path_876" data-name="Path 876" d="M56.793,10H19.353A10.47,10.47,0,0,0,8.9,20.453V55.547A10.47,10.47,0,0,0,19.353,66h37.44A10.47,10.47,0,0,0,67.247,55.547V20.453A10.47,10.47,0,0,0,56.793,10Zm8.32,45.547a8.331,8.331,0,0,1-8.32,8.32H19.353a8.331,8.331,0,0,1-8.32-8.32V23.867H65.007v31.68ZM11.033,21.733v-1.28a8.331,8.331,0,0,1,8.32-8.32h37.44a8.331,8.331,0,0,1,8.32,8.32v1.28Z" transform="translate(-8.9 -10)" fill="#00844b"/>
    <path id="Path_877" data-name="Path 877" d="M35.2,28.7V43.755H56.792V28.7Zm19.611,1.981v10.5l-4.457-7.131L46,41.378l-4.259-5.15L37.28,41.576v-10.9H54.811Z" transform="translate(-4.983 -8.173)" fill="#00844b"/>
    <path id="Path_878" data-name="Path 878" d="M59.681,49.281H16.591a1.048,1.048,0,0,1-1.091-.99.986.986,0,0,1,1.091-.99H59.681a1,1,0,1,1,0,1.981Z" transform="translate(-8.963 -7.401)" fill="#00844b"/>
    <path id="Path_879" data-name="Path 879" d="M59.681,54.681H16.591a1.048,1.048,0,0,1-1.091-.99.986.986,0,0,1,1.091-.99H59.681a1,1,0,1,1,0,1.981Z" transform="translate(-8.963 -6.407)" fill="#00844b"/>
  </g>
</svg>
