<?xml version="1.0" encoding="UTF-8"?>
<svg id="Layer_2" data-name="Layer 2" xmlns="http://www.w3.org/2000/svg" viewBox="0 0 46.75 48">
  <defs>
    <style>
      .cls-1 {
        fill: #f57125;
      }

      .cls-2 {
        fill: #fb9d2c;
      }
    </style>
  </defs>
  <g id="Layer_1-2" data-name="Layer 1">
    <g>
      <g>
        <path d="M19.55,11.39C19.72,5.27,23.05,1.42,26.02,.02c0,0,3.35-.33,3.32,1.57,0,0-4.9,4.02,0,13.47l-9.8-3.67Z"/>
        <path class="cls-2" d="M38.44,44.28h0c-.17,.03-.34,.06-.52,.08,0,0-.11,.09-.3,.24h0c-.98,.74-4.21,2.85-7.76,1.71-.18-.06-.36-.12-.55-.2-.01,0-.03-.01-.04-.02,0,0-1.56,1.9-5.89,1.9-2.99,0-4.66-.91-5.4-1.47-.33-.25-.48-.43-.48-.43-.14,.06-.28,.12-.43,.16-3.55,1.24-6.8-.82-7.87-1.61-.24-.17-.36-.29-.36-.29-.17-.02-.33-.05-.49-.08C-4.21,42.07,.22,20.06,3.64,14.42c2.92-4.81,5.59-4.83,6.36-4.72,.14,.02,.22,.05,.22,.05,.21-.15,.43-.29,.65-.41t0,0c2.93-1.6,6.02-.2,6.89,.27,.16,.08,.24,.14,.24,.14,0,0,.18-.1,.51-.24,.81-.34,2.53-.92,4.85-.92,2.53,0,4.35,.68,5.05,1,.21,.09,.32,.16,.32,.16,0,0,.1-.06,.29-.16,.96-.5,4.13-1.89,7.08-.11,.14,.09,.28,.18,.42,.28,0,0,.13-.04,.36-.06,.91-.08,3.46,.17,6.22,4.74,3.42,5.64,7.84,27.62-4.67,29.87Z"/>
        <g>
          <path class="cls-1" d="M17.97,46.53c-.33-.25-.48-.43-.48-.43-.14,.06-.28,.12-.43,.16-3.22-4.7-4.72-11.33-4.26-18.98,.4-6.67,2.31-13.41,4.96-17.68,.16,.08,.24,.14,.24,.14,0,0,.18-.1,.51-.24-2.73,4.15-4.72,11.01-5.13,17.81-.48,7.86,1.15,14.6,4.59,19.21Z"/>
          <path class="cls-1" d="M29.85,46.31c-.18-.06-.36-.12-.55-.2,4.58-13.71,2.18-27.2-.88-36.53,.21,.09,.32,.16,.32,.16,0,0,.1-.06,.29-.16,2.02,6.22,3.15,12.43,3.35,18.47,.21,6.44-.64,12.58-2.54,18.26Z"/>
          <path class="cls-1" d="M40.77,36.82c-.47,2.78-1.26,5.28-2.34,7.46h0c-.17,.03-.34,.06-.52,.08,0,0-.11,.09-.3,.24,2.53-4.77,3.57-11.3,2.93-18.65-.61-7.01-2.6-13.15-4.43-16.49,.14,.09,.28,.18,.42,.28,0,0,.13-.04,.36-.06,2.08,4.01,3.71,10.17,4.24,16.23,.34,3.9,.22,7.57-.35,10.92Z"/>
          <path class="cls-1" d="M9.2,44.65c-.24-.17-.36-.29-.36-.29-.17-.02-.33-.05-.49-.08-1.46-2.84-2.48-5.88-3.02-9.07-.58-3.4-.63-6.98-.16-10.65,.89-6.93,3.4-12.27,4.83-14.86,.14,.02,.22,.05,.22,.05,.21-.15,.43-.29,.65-.41-4.26,7.24-8.93,22.01-1.67,35.32Z"/>
        </g>
      </g>
      <path d="M36.11,28.12c0,3.57-1.83,6.75-4.7,8.84l-.03-1.09-2.72-.26,.28,2.76c-1.68,.73-3.56,1.14-5.56,1.14-7.03,0-12.74-5.1-12.74-11.39,0-.02,0-.05,0-.07,1.19,1.7,2.92,3.13,5.01,4.16l-.82,1.57,2.26,1.55,.94-2.17h0c1.65,.51,3.46,.8,5.35,.8,5.49,0,10.26-2.38,12.73-5.9,0,.02,0,.05,0,.07Z"/>
      <g>
        <polygon points="13.05 25.89 17.76 18.56 19.51 26.85 13.05 25.89"/>
        <polygon points="33.7 25.89 28.98 18.56 27.24 26.85 33.7 25.89"/>
      </g>
    </g>
  </g>
</svg>