<svg xmlns="http://www.w3.org/2000/svg" width="64.585" height="56.844" viewBox="0 0 64.585 56.844">
  <g id="Group_539" data-name="Group 539" transform="translate(0.467 0.422)">
    <path id="Path_887" data-name="Path 887" d="M31.758-49.451,31-66.879A1.4,1.4,0,0,1,32.421-68.3h3.315a1.457,1.457,0,0,1,1.421,1.421L36.4-49.451a1.376,1.376,0,0,1-1.421,1.326h-1.8A1.44,1.44,0,0,1,31.758-49.451Z" transform="translate(-2.253 85.253)" fill="#00844b"/>
    <path id="Path_888" data-name="Path 888" d="M30.8-39.18a3.16,3.16,0,0,1,3.315-3.22,3.108,3.108,0,0,1,3.315,3.22,3.16,3.16,0,0,1-3.315,3.22A3.16,3.16,0,0,1,30.8-39.18Z" transform="translate(-2.239 85.992)" fill="#00844b"/>
    <path id="Path_889" data-name="Path 889" d="M63.079-28.2H6.671a3.6,3.6,0,0,1-3.162-1.836,3.9,3.9,0,0,1,0-3.672L31.662-82.466A3.515,3.515,0,0,1,34.824-84.2a3.6,3.6,0,0,1,3.162,1.836L66.241-33.708a3.9,3.9,0,0,1,0,3.672A3.862,3.862,0,0,1,63.079-28.2ZM34.926-82.16a1.785,1.785,0,0,0-1.428.714L5.345-32.688a1.565,1.565,0,0,0,0,1.632,1.628,1.628,0,0,0,1.428.816H63.079a1.628,1.628,0,0,0,1.428-.816,1.565,1.565,0,0,0,0-1.632L36.252-81.446A1.592,1.592,0,0,0,34.926-82.16Z" transform="translate(-3.05 84.2)" fill="#00844b" stroke="#00844b" stroke-miterlimit="10" stroke-width="0.844"/>
  </g>
</svg>
