<?xml version="1.0" encoding="utf-8"?>
<!-- Generator: Adobe Illustrator 25.1.0, SVG Export Plug-In . SVG Version: 6.00 Build 0)  -->
<svg version="1.1" id="Layer_1" xmlns="http://www.w3.org/2000/svg" xmlns:xlink="http://www.w3.org/1999/xlink" x="0px" y="0px"
	 viewBox="0 0 400 200" style="enable-background:new 0 0 400 200;" xml:space="preserve">
<style type="text/css">
	.st0{fill:#F9F8F7;}
	.st1{fill:#CF7739;}
	.st2{fill:#262626;}
</style>
<rect class="st0" width="400" height="200"/>
<g>
	<path class="st1" d="M230.6,179.6c0,0,33.1,0,42.1-39.7c7.2-31.9-14.8-58.3-23.2-67.1c2.3,3,5,8.5,5.9,17.6
		c1.5,16.4-15.8,38.2-17-9.3C237.2,33.7,202.8,20,202.8,20c11.4,12.2,9.3,27.7,5.4,38.9c-3.1,8.8-14.6,18.8-22.5,26.9
		c-8.4,8.6-20.5,21.8-20.2,40.7c0.8,49.9,46.2,53.1,46.2,53.1"/>
</g>
<g>
	<g>
		<g>
			<path class="st2" d="M304.1,65.2c1.5,2.4,2.3,5.2,2.5,8.3l0,1.9c0,4.2-1.6,8.3-4.6,11.4c-3.1,3-6.9,4.7-11.3,4.8l-25.8,0.2
				l-0.1-6.7l25.8-0.2c2.5,0,4.7-1,6.6-2.8c1.7-1.8,2.7-4,2.7-6.6l0-1.9c0-5.1-4.2-9.3-9.4-9.2l-26.6,0.2l-0.1-6.7l26.6-0.2
				C296.2,57.6,301.2,60.7,304.1,65.2z"/>
		</g>
		<g>
			<path class="st2" d="M180.7,58.4l0.1,6.7l-24.6,0.2c-1.3,0-2.5-0.7-3-1.9c-4.8-10.1-15.1-16.6-26.2-16.5
				c-10.3,0.1-19.6,5.6-24.7,14.2l20.6-0.2c1.9,0,3.4,1.5,3.3,3.4l0.2,22.8c0,0.8-0.3,1.7-1,2.4c-0.7,0.7-1.5,1-2.4,1l-20.6,0.2
				c5.2,8.5,14.6,13.9,24.9,13.8c11.1-0.1,21.5-6.8,26.1-16.9c0.5-1.2,1.7-2,3-2l12.1-0.1l0.1,6.7l-10.1,0.1
				c-6.1,11.4-18.2,18.8-31.1,18.8c-14.7,0.1-28.1-9-33.4-22.8c-0.3-1-0.3-2.2,0.4-3c0.7-0.8,1.7-1.5,2.7-1.5l22.4-0.2l-0.1-16
				L97,67.8c-1.2,0-2.2-0.5-2.9-1.4c-0.7-1-0.8-2-0.5-3c5.1-13.8,18.4-23.1,33-23.2c13-0.1,25.1,7.1,31.4,18.4L180.7,58.4z"/>
		</g>
		<g>
			
				<rect x="267.6" y="71.3" transform="matrix(1 -7.115338e-03 7.115338e-03 1 -0.5244 1.9879)" class="st2" width="23.1" height="6.7"/>
		</g>
	</g>
	<g>
		<g>
			<g>
				<path class="st2" d="M192.9,64.7l-1.1,6.6c-0.2,0-6.9-0.7-10.5,10.7c-4,12.3,1.5,28.8,2.5,31.5l11.2,16.4
					c0.3,0.5,0.7,1.2,0.7,1.9l0.1,8.1l-6.7,0.1l-0.1-7.1L178.1,117c-0.2-0.2-0.3-0.5-0.3-0.7c-0.3-0.8-7.8-20.8-2.8-36.4
					C180.3,62.7,192.4,64.5,192.9,64.7z"/>
			</g>
			<g>
				
					<rect x="205.2" y="60.6" transform="matrix(1 -7.102430e-03 7.102430e-03 1 -0.4764 1.4833)" class="st2" width="6.7" height="14.5"/>
			</g>
		</g>
		<g>
			<g>
				<path class="st2" d="M226.3,50.1c1.2,1.9,1.8,3.9,1.8,6.3l-6.7,0.1c0-2.7-2.2-5.1-4.9-4.9c-2.5,0-4.7,2.3-4.8,5l0.1,18l-6.7,0.1
					l0.1-18.4c-0.1-6.4,5.1-11.8,11.4-11.9C220.6,44.5,224.3,46.7,226.3,50.1z"/>
			</g>
			<g>
				
					<rect x="221.4" y="56.3" transform="matrix(1 -7.138437e-03 7.138437e-03 1 -0.4683 1.6064)" class="st2" width="6.7" height="20.2"/>
			</g>
		</g>
		<g>
			<g>
				<path class="st2" d="M242.6,53.5c1.2,1.9,1.8,3.9,1.8,6.3l-6.7,0.1c0-2.7-2.2-5.1-4.9-4.9c-2.5,0-4.7,2.3-4.8,5l-6.7,0.1
					c-0.1-6.4,5.1-11.8,11.4-11.9C236.9,48.1,240.6,50.3,242.6,53.5z"/>
			</g>
			<g>
				
					<rect x="237.6" y="59.8" transform="matrix(1 -7.121488e-03 7.121488e-03 1 -0.4784 1.7178)" class="st2" width="6.7" height="16.5"/>
			</g>
		</g>
		<g>
			<g>
				<path class="st2" d="M258.7,58.2c1.2,1.9,1.8,3.9,1.8,6.3l-6.7,0.1c0-2.7-2.2-5.1-4.9-4.9c-2.5,0-4.7,2.3-4.8,5l-6.7,0.1
					c-0.1-6.4,5.1-11.8,11.4-11.9C253,52.6,256.7,54.8,258.7,58.2z"/>
			</g>
			<g>
				<path class="st2" d="M260.6,64.3l0.5,55.6c0,0.5-0.2,1-0.3,1.5l-6.3,12.4l0.1,6.6l-6.7,0.1l-0.1-7.4c0-0.5,0.2-1,0.3-1.5
					l6.3-12.4L254,64.4L260.6,64.3z"/>
			</g>
		</g>
		<g>
			<path class="st2" d="M265.1,137.5c0.3,0.5,0.5,1.2,0.5,1.7l0.2,19.9l-6.7,0.1l-0.1-16.5l-72.3,0.5l0.1,16.5l-6.7,0.1l-0.2-19.9
				c0-1.9,1.5-3.4,3.4-3.3l79.1-0.5C263.5,136,264.5,136.6,265.1,137.5z"/>
		</g>
		<g>
			
				<rect x="232.5" y="148.1" transform="matrix(1 -7.129258e-03 7.129258e-03 1 -1.0739 1.7305)" class="st2" width="19.4" height="6.7"/>
		</g>
		<g>
			<path class="st2" d="M228.5,149.9c0.2,0.2,0.2,0.3,0.3,0.7c0.2,0.2,0.2,0.3,0.2,0.7c0,0.2,0,0.5,0,0.7c0,0.2,0,0.5,0,0.7
				c0,0.2-0.2,0.5-0.2,0.7c-0.2,0.2-0.2,0.3-0.3,0.5c-0.2,0.2-0.3,0.3-0.5,0.5c-0.2,0.2-0.3,0.3-0.5,0.3c-0.7,0.5-1.7,0.7-2.5,0.5
				c-0.2,0-0.5-0.2-0.7-0.2c-0.2-0.2-0.3-0.2-0.5-0.3c-0.2-0.2-0.3-0.3-0.5-0.3c-0.3-0.3-0.5-0.7-0.7-1.2c0-0.2-0.2-0.3-0.2-0.7
				c0-0.2,0-0.5,0-0.7c0-0.2,0-0.5,0.2-0.7c0.2-0.8,0.7-1.7,1.5-2.2c0.7-0.5,1.7-0.7,2.5-0.5c0.2,0,0.3,0.2,0.7,0.2
				c0.2,0.2,0.3,0.2,0.5,0.3c0.2,0.2,0.3,0.3,0.5,0.5C228.3,149.6,228.3,149.7,228.5,149.9z"/>
		</g>
		<g>
			<path class="st2" d="M210,54.3c1.2,1.9,1.8,3.9,1.8,6.3l-6.7,0.1c0-2.7-2.2-5.1-4.9-4.9c-1.2,0-2.4,0.5-3.4,1.5
				c-0.8,1-1.4,2.2-1.4,3.5l0.2,25.1c0,0.2,0,0.3,0,0.3l-0.9,8.3l-6.7-0.7l0.9-8.1l-0.2-24.8c0-3,1.2-6.1,3.3-8.2
				c2.2-2.3,5.1-3.5,8.1-3.5C204.5,48.7,208,51,210,54.3z"/>
		</g>
	</g>
</g>
</svg>
