<svg xmlns="http://www.w3.org/2000/svg" width="23.699" height="23.699" viewBox="0 0 23.699 23.699">
  <g id="Instagram" transform="translate(-6943.754 -5724.516)">
    <path id="Path_3" data-name="Path 3" d="M6955.6,5726.643a36.071,36.071,0,0,1,4.73.131,6.112,6.112,0,0,1,2.234.4,4.609,4.609,0,0,1,2.233,2.233,6.1,6.1,0,0,1,.4,2.234c0,1.182.131,1.577.131,4.729a36.076,36.076,0,0,1-.131,4.73,6.1,6.1,0,0,1-.4,2.234,4.609,4.609,0,0,1-2.233,2.233,6.112,6.112,0,0,1-2.234.4c-1.182,0-1.577.131-4.73.131a36.071,36.071,0,0,1-4.73-.131,6.107,6.107,0,0,1-2.233-.4,4.616,4.616,0,0,1-2.234-2.233,6.088,6.088,0,0,1-.394-2.234c0-1.182-.132-1.577-.132-4.73a36.232,36.232,0,0,1,.132-4.729,6.091,6.091,0,0,1,.394-2.234,4.764,4.764,0,0,1,.92-1.314,2.219,2.219,0,0,1,1.314-.919,6.107,6.107,0,0,1,2.233-.4,36.071,36.071,0,0,1,4.73-.131m0-2.1a38.826,38.826,0,0,0-4.861.131,8.135,8.135,0,0,0-2.89.525,5.52,5.52,0,0,0-3.417,3.417,5.983,5.983,0,0,0-.525,2.89,89.373,89.373,0,0,0,0,9.723,8.113,8.113,0,0,0,.526,2.891,5.514,5.514,0,0,0,3.416,3.416,8.124,8.124,0,0,0,2.891.526,90.683,90.683,0,0,0,9.722,0,8.121,8.121,0,0,0,2.891-.527,5.511,5.511,0,0,0,3.416-3.415,8.119,8.119,0,0,0,.526-2.892c0-1.312.13-1.707.13-4.86a38.93,38.93,0,0,0-.131-4.861,8.114,8.114,0,0,0-.527-2.891,5.518,5.518,0,0,0-3.415-3.416,8.139,8.139,0,0,0-2.89-.525,38.837,38.837,0,0,0-4.862-.131m0,5.781a5.946,5.946,0,0,0-6.044,5.847c0,.065,0,.131,0,.2a6.044,6.044,0,1,0,6.044-6.043h0m0,9.986a3.872,3.872,0,0,1-3.942-3.8q0-.072,0-.144a3.872,3.872,0,0,1,3.8-3.942h.143a3.871,3.871,0,0,1,3.942,3.8c0,.048,0,.1,0,.143a3.871,3.871,0,0,1-3.8,3.943h-.144m6.307-11.694a1.446,1.446,0,1,0,1.446,1.446h0a1.458,1.458,0,0,0-1.446-1.446" fill="#0d64b0" fill-rule="evenodd"/>
  </g>
</svg>
