<svg xmlns="http://www.w3.org/2000/svg" width="15.001" height="15.001" viewBox="0 0 15.001 15.001">
  <g id="JobTitleIcon_Blue_" data-name="JobTitleIcon(Blue)" transform="translate(-886.021 -1170.201)">
    <g id="Lock" transform="translate(886.021 1170.201)">
      <path id="Path_49" data-name="Path 49" d="M893.522,1172.307a2.131,2.131,0,0,0-2.143,2.106h4.286A2.132,2.132,0,0,0,893.522,1172.307Zm5.358,12.9H888.164a2.131,2.131,0,0,1-2.143-2.106v-6.577a2.132,2.132,0,0,1,2.143-2.106h1.072a4.286,4.286,0,0,1,8.572,0h1.072a2.132,2.132,0,0,1,2.143,2.106v6.577A2.131,2.131,0,0,1,898.88,1185.2Z" transform="translate(-886.021 -1170.201)" fill="#0e64b0" fill-rule="evenodd"/>
    </g>
  </g>
</svg>
