<svg xmlns="http://www.w3.org/2000/svg" width="43.573" height="56.844" viewBox="0 0 43.573 56.844">
  <g id="Group_540" data-name="Group 540" transform="translate(0.422 0.422)">
    <path id="Path_890" data-name="Path 890" d="M131.612,25.025H152.1a.912.912,0,1,0,0-1.825H131.612a.912.912,0,1,0,0,1.825" transform="translate(-113.252 -6.903)" fill="#00844b" stroke="#00844b" stroke-miterlimit="10" stroke-width="0.844" fill-rule="evenodd"/>
    <path id="Path_891" data-name="Path 891" d="M143.208,60.256h-24.8a3.112,3.112,0,0,1-2.986-3.248V18.033a3.112,3.112,0,0,1,2.986-3.248H119.9V12.8H118.41a5.039,5.039,0,0,0-4.81,5.233V57.1a5.039,5.039,0,0,0,4.81,5.233h24.8a4.944,4.944,0,0,0,4.727-5.143H146.11a3,3,0,0,1-2.9,3.067" transform="translate(-113.6 -6.331)" fill="#00844b" stroke="#00844b" stroke-miterlimit="10" stroke-width="0.844" fill-rule="evenodd"/>
    <path id="Path_892" data-name="Path 892" d="M154.666,8.248h0A11.2,11.2,0,0,0,147.285,5H128.21a5.039,5.039,0,0,0-4.81,5.233V49.3a5.038,5.038,0,0,0,4.81,5.233h24.715a5.039,5.039,0,0,0,4.81-5.233V16.007A12.456,12.456,0,0,0,154.666,8.248ZM153.422,9.6A8.943,8.943,0,0,1,155,12.127h-4.313V7.8a9.936,9.936,0,0,1,2.737,1.8Zm2.488,39.517a3.112,3.112,0,0,1-2.986,3.248H128.21a3.112,3.112,0,0,1-2.986-3.248V10.143a3.112,3.112,0,0,1,2.986-3.248h19.075a10.45,10.45,0,0,1,1.576.18V13.12a.963.963,0,0,0,.912.992h5.888a7.432,7.432,0,0,1,.249,1.895Z" transform="translate(-115.006 -5)" fill="#00844b" stroke="#00844b" stroke-miterlimit="10" stroke-width="0.844" fill-rule="evenodd"/>
    <path id="Path_893" data-name="Path 893" d="M154.073,29.9H128.612a.912.912,0,0,0,0,1.825h25.461a.912.912,0,1,0,0-1.825" transform="translate(-112.74 -7.603)" fill="#00844b" stroke="#00844b" stroke-miterlimit="10" stroke-width="0.844" fill-rule="evenodd"/>
    <path id="Path_894" data-name="Path 894" d="M154.073,36.7H128.612a.912.912,0,0,0,0,1.825h25.461a.912.912,0,1,0,0-1.825" transform="translate(-112.74 -8.314)" fill="#00844b" stroke="#00844b" stroke-miterlimit="10" stroke-width="0.844" fill-rule="evenodd"/>
  </g>
</svg>
