<svg id="OfficePhone" xmlns="http://www.w3.org/2000/svg" width="18.573" height="15.716" viewBox="0 0 18.573 15.716">
  <path id="Path_72009" data-name="Path 72009" d="M1.291,12.7l1.333-.5L3.751,6.83l-3,.608-.2-3.709,3.2-2.52,5.125-.8,4.7.544L17,2.457l1.22,2.313-.4,2.668L14.98,7.1l.922,5.112,1.514.5v2.43H1.291Z" fill="#0d64b0"/>
  <path id="Path_72006" data-name="Path 72006" d="M20.857,21.715a2.857,2.857,0,1,1,2.857-2.857,2.861,2.861,0,0,1-2.857,2.857m0-5A2.143,2.143,0,1,0,23,18.857a2.145,2.145,0,0,0-2.143-2.143" transform="translate(-11.571 -10.285)" fill="#fff"/>
  <path id="Path_72007" data-name="Path 72007" d="M9.287,0C4.079,0,0,2.181,0,4.964a13.834,13.834,0,0,0,.225,2,1.061,1.061,0,0,0,.46.709,1.077,1.077,0,0,0,.833.155L3.3,7.426l-.992,4.3a.538.538,0,0,1-.527.418A1.073,1.073,0,0,0,.714,13.216v1.429a1.073,1.073,0,0,0,1.072,1.072h15a1.073,1.073,0,0,0,1.072-1.072V13.216a1.073,1.073,0,0,0-1.072-1.072h0a.537.537,0,0,1-.526-.418l-.992-4.3,1.787.405a1.072,1.072,0,0,0,1.293-.864,13.834,13.834,0,0,0,.225-2C18.573,2.181,14.494,0,9.287,0m7.5,12.858h0a.358.358,0,0,1,.357.357v1.429a.358.358,0,0,1-.357.357h-15a.358.358,0,0,1-.357-.357V13.216a.358.358,0,0,1,.358-.357,1.248,1.248,0,0,0,1.222-.972L4.927,3.572l1.5-.01A1.429,1.429,0,0,0,7.858,5h2.857a1.429,1.429,0,0,0,1.429-1.429h1.5l1.919,8.315a1.248,1.248,0,0,0,1.222.972m.857-6.012a.353.353,0,0,1-.153.236.349.349,0,0,1-.278.051L15.09,6.653l-.748-3.241a.711.711,0,0,0-.7-.554h-1.5a.725.725,0,0,0-.511.213.694.694,0,0,0-.2.5.715.715,0,0,1-.714.72H7.858a.715.715,0,0,1-.714-.72.694.694,0,0,0-.2-.5.725.725,0,0,0-.511-.213h-1.5a.711.711,0,0,0-.7.554L3.483,6.653l-2.122.482A.357.357,0,0,1,.93,6.847,13.188,13.188,0,0,1,.714,4.964c0-2.3,3.926-4.25,8.572-4.25s8.572,1.946,8.572,4.25a13.188,13.188,0,0,1-.215,1.883" fill="#fff"/>
  <path id="Path_72008" data-name="Path 72008" d="M21.073,34.714H10.357a.357.357,0,0,1,0-.714H21.073a.357.357,0,0,1,0,.714" transform="translate(-6.428 -21.856)" fill="#fff"/>
</svg>
