<svg id="OldLinkIcon" xmlns="http://www.w3.org/2000/svg" xmlns:xlink="http://www.w3.org/1999/xlink" width="144.734" height="173" viewBox="0 0 144.734 173">
  <defs>
    <clipPath id="clip-path">
      <rect id="Rectangle_4191" data-name="Rectangle 4191" width="144.734" height="173" fill="#fff"/>
    </clipPath>
  </defs>
  <g id="Group_6951" data-name="Group 6951" transform="translate(0 0)" clip-path="url(#clip-path)">
    <path id="Path_72010" data-name="Path 72010" d="M131.758,24.406a42.712,42.712,0,0,0-30.51-12.983c-12.021.012-23.581,4.987-33.042,13.335l0,27.813,11.2-11.2C86.23,34.545,94.2,31.2,101.248,31.216c5.851.054,11.276,2.029,16.512,7.185v0c5.143,5.222,7.118,10.649,7.172,16.5.022,7.053-3.331,15.03-10.147,21.861L65.337,126.217c-6.821,6.816-14.79,10.159-21.851,10.137-5.848-.054-11.283-2.034-16.5-7.177-5.15-5.227-7.13-10.662-7.185-16.512-.022-7.053,3.324-15.023,10.142-21.826l15.993-16v-28L15.948,76.829C6.019,86.741.02,99.439,0,112.665A42.756,42.756,0,0,0,12.988,143.18a42.753,42.753,0,0,0,30.29,12.973h.208c13.228-.017,25.92-6.014,35.849-15.936L128.8,90.762c9.912-9.939,15.914-22.625,15.936-35.859a42.708,42.708,0,0,0-12.973-30.5" transform="translate(0 16.845)" fill="#fff"/>
    <path id="Path_72011" data-name="Path 72011" d="M19.318,0l11.2,45.3L36.29,1.874Z" transform="translate(28.491 -0.001)" fill="#fff"/>
    <path id="Path_72012" data-name="Path 72012" d="M16.507,7.739,7.892,23.885,46.124,45.269Z" transform="translate(11.64 11.414)" fill="#fff"/>
    <path id="Path_72013" data-name="Path 72013" d="M7.826,23.121l7.185,9.108L29.37,24.351Z" transform="translate(11.543 34.1)" fill="#fff"/>
  </g>
</svg>
