<svg id="ParentPay" xmlns="http://www.w3.org/2000/svg" xmlns:xlink="http://www.w3.org/1999/xlink" width="66.56" height="52" viewBox="0 0 66.56 52">
  <defs>
    <clipPath id="clip-path">
      <rect id="Rectangle_4044" data-name="Rectangle 4044" width="66.56" height="52" fill="none"/>
    </clipPath>
  </defs>
  <g id="Group_5680" data-name="Group 5680" clip-path="url(#clip-path)">
    <path id="Path_71613" data-name="Path 71613" d="M205.793,142.734a.638.638,0,0,0-.082-.143.978.978,0,0,0-.126-.133,1.5,1.5,0,0,0-.162-.123l-11.888-7.519a1.15,1.15,0,0,0-.161-.086,1.351,1.351,0,0,0-.184-.066,1.748,1.748,0,0,0-.2-.048,1.712,1.712,0,0,0-.211-.025q-.107-.008-.214-.005c-.069,0-.139.011-.205.02a1.591,1.591,0,0,0-.191.041,1.072,1.072,0,0,0-.171.061l-6.356,2.828a3.876,3.876,0,0,1,1.152,1.173l5.866-2.684,10.226,6.638-.23.127-.792.437-.075.043-1.516.836-.077.041-.3.166-.9.5-1.552.86-13.966,7.713-4.917-4.371-1.339-1.191-.74-.656-.374-.334-.068-.059-1.3-1.152-.068-.061-.642-.573-.326-.289,5.17-2.365-2.069-.865-5.561,2.475a1.852,1.852,0,0,0-.2.107,1.388,1.388,0,0,0-.166.125.9.9,0,0,0-.125.141.686.686,0,0,0-.082.153.491.491,0,0,0-.034.155.451.451,0,0,0,.018.153.505.505,0,0,0,.066.146.627.627,0,0,0,.111.134l.988.912.626.58.068.061,1.284,1.184.066.061.344.319.72.665,1.329,1.225,1.252,1.157,2.654,2.452,1.914,1.766a1.453,1.453,0,0,0,.194.146c.038.021.075.043.116.062s.077.036.116.052.05.018.075.027c.061.021.121.039.184.055a1.8,1.8,0,0,0,.28.043,1.9,1.9,0,0,0,.285,0,1.069,1.069,0,0,0,.111-.011,1.678,1.678,0,0,0,.17-.027.694.694,0,0,0,.087-.021.32.32,0,0,0,.048-.013,1,1,0,0,0,.13-.041c.032-.011.062-.025.093-.037l.032-.014c.039-.018.079-.037.118-.059l15.23-8.7,1.555-.888.885-.5.269-.155.075-.043,1.517-.865.075-.043.781-.446,1.02-.583a.775.775,0,0,0,.141-.1.656.656,0,0,0,.1-.121.422.422,0,0,0,.062-.276.466.466,0,0,0-.041-.144" transform="translate(-149.709 -118.071)" fill="#11854b"/>
    <path id="Path_71614" data-name="Path 71614" d="M61.516,0H5.042A6.748,6.748,0,0,0,0,6.508V45.274A6.743,6.743,0,0,0,6.727,52H59.833a6.742,6.742,0,0,0,6.727-6.725V6.508A6.746,6.746,0,0,0,61.516,0M57.279,4.24a2.038,2.038,0,1,1-2.037,2.037A2.038,2.038,0,0,1,57.279,4.24m-5.174,0a2.038,2.038,0,1,1-2.039,2.037A2.037,2.037,0,0,1,52.105,4.24m-5.174,0a2.038,2.038,0,1,1-2.04,2.037,2.036,2.036,0,0,1,2.04-2.037M64.543,45.274a4.725,4.725,0,0,1-4.71,4.708H6.727a4.728,4.728,0,0,1-4.71-4.708V10.755H64.543l0,34.519Z" transform="translate(0 0.001)" fill="#11854b"/>
    <path id="Path_71615" data-name="Path 71615" d="M205.832,220.529a.43.43,0,0,0-.039-.145.668.668,0,0,0-.082-.141.982.982,0,0,0-.127-.134,1.147,1.147,0,0,0-.162-.123l-.9-.572-1.862,1.063-.885.5-1.566.9L184.571,230.8c-.045.027-.091.048-.139.071-.014.007-.028.016-.044.023l-.032.014c-.054.023-.107.045-.162.066l-.109.036-.084.029-.118.027-.082.021h0l-.057.009a2.2,2.2,0,0,1-.246.034c-.034.005-.069.009-.105.011l-.111.005-.059,0h-.039l-.059,0q-.064,0-.128-.006a.037.037,0,0,0-.014,0c-.071-.005-.139-.013-.21-.025s-.136-.023-.2-.039a2.521,2.521,0,0,1-.337-.1l-.053-.02-.1-.046c-.043-.02-.087-.041-.128-.062s-.091-.048-.132-.073a2.186,2.186,0,0,1-.335-.251l-6.1-5.63-1.338-1.236-.719-.663-1.694-1.564-.376.168a1.212,1.212,0,0,0-.2.105,1.091,1.091,0,0,0-.166.127.712.712,0,0,0-.125.141.624.624,0,0,0-.082.15.509.509,0,0,0-.032.141c0,.005,0,.011,0,.016a.449.449,0,0,0,.018.153.5.5,0,0,0,.066.146.634.634,0,0,0,.111.134l1.015.936.719.663,1.35,1.247,8.161,7.535a1.456,1.456,0,0,0,.194.146,1.538,1.538,0,0,0,.232.114,1.783,1.783,0,0,0,.259.082,2.018,2.018,0,0,0,.28.043c.046,0,.1.005.143.007s.095,0,.143-.005a1.815,1.815,0,0,0,.28-.037c.043-.009.084-.02.125-.03l.009,0c.046-.013.089-.027.132-.043s.062-.025.093-.037l.032-.014a1.236,1.236,0,0,0,.118-.061L202,223.044l1.591-.908.885-.5,1.052-.6a.767.767,0,0,0,.141-.1.624.624,0,0,0,.1-.121.423.423,0,0,0,.062-.276Z" transform="translate(-149.709 -192.493)" fill="#11854b"/>
    <path id="Path_71616" data-name="Path 71616" d="M136.867,151.544a1.5,1.5,0,0,1-.177-.4,1.415,1.415,0,0,1-.046-.435,1.494,1.494,0,0,1,.089-.433,1.565,1.565,0,0,1,.195-.362,1.7,1.7,0,0,1,.253-.285,2.31,2.31,0,0,1,.291-.225,2.761,2.761,0,0,1,.321-.171l.05-.021-.71-.655a1.622,1.622,0,0,1-.267-.319,1.446,1.446,0,0,1-.175-.4,1.394,1.394,0,0,1-.046-.432c0-.025,0-.052.007-.077a1.484,1.484,0,0,1,.08-.353,1.638,1.638,0,0,1,.2-.367,1.837,1.837,0,0,1,.255-.287,1.923,1.923,0,0,1,.293-.223,2.258,2.258,0,0,1,.312-.168l-.655-.6a1.614,1.614,0,0,1-.266-.319,1.444,1.444,0,0,1-.177-.4,1.415,1.415,0,0,1-.046-.435,1.434,1.434,0,0,1,.089-.432,1.63,1.63,0,0,1,.195-.366,1.87,1.87,0,0,1,.253-.284,2.262,2.262,0,0,1,.61-.394l5.923-2.643,5.737,2.4a2.7,2.7,0,0,0,3.035-.464.419.419,0,0,0,.027-.032,1.8,1.8,0,0,0,.144-.185l.045-.07a1.793,1.793,0,0,0,.126-.239.048.048,0,0,1,.005-.009l.309-.733s0-.006,0-.009a2.331,2.331,0,0,0,.084-.255c.006-.028.013-.055.018-.084a1.632,1.632,0,0,0,.032-.23c0-.014,0-.03.005-.043a2.7,2.7,0,0,0-1.781-2.5s-7.617-3.185-7.654-3.2a2.625,2.625,0,0,0-2.862.3c-2.481,2.247-5.355,4.715-7.435,6.664a2.136,2.136,0,0,0-.617,1.65v11.767a2.453,2.453,0,0,0,2.7,2.106h6.944l-5.443-5.024a1.664,1.664,0,0,1-.266-.319" transform="translate(-116.624 -117.667)" fill="#11854b"/>
    <path id="Path_71617" data-name="Path 71617" d="M205.793,247.177a.667.667,0,0,0-.082-.141.965.965,0,0,0-.126-.134,1.141,1.141,0,0,0-.162-.123l-.935-.592-1.605.915.005.005-.326.18L184.571,257.56c-.045.025-.091.046-.139.069a.2.2,0,0,1-.044.023l-.032.014c-.053.023-.107.046-.162.068-.036.013-.071.023-.109.034L184,257.8c-.039.011-.079.02-.118.028s-.054.014-.082.02h0c-.02.005-.037.007-.057.011-.08.014-.162.027-.246.034-.034,0-.069.009-.105.009s-.075.005-.111.007h-.1c-.02,0-.039,0-.059,0-.043,0-.086,0-.128-.007h-.014c-.071-.005-.139-.014-.211-.025s-.136-.023-.2-.039a2.825,2.825,0,0,1-.337-.1l-.053-.018-.1-.048c-.043-.02-.087-.039-.128-.062a1.31,1.31,0,0,1-.132-.073,2.1,2.1,0,0,1-.335-.251l-9.823-9.069-.4.179a1.54,1.54,0,0,0-.2.107,1.214,1.214,0,0,0-.166.127.811.811,0,0,0-.125.139.706.706,0,0,0-.082.152.5.5,0,0,0-.034.157.45.45,0,0,0,.018.153.505.505,0,0,0,.066.146.626.626,0,0,0,.111.133l11.244,10.381a1.462,1.462,0,0,0,.194.146,1.775,1.775,0,0,0,.232.116,2.1,2.1,0,0,0,.259.08,1.831,1.831,0,0,0,.28.043,2.133,2.133,0,0,0,.285,0c.038,0,.075-.007.111-.011a1.682,1.682,0,0,0,.17-.027.673.673,0,0,0,.087-.021l.048-.011c.046-.013.087-.027.13-.043a.887.887,0,0,0,.093-.039l.032-.011c.039-.02.079-.039.118-.063l21.408-12.221a.774.774,0,0,0,.141-.1.657.657,0,0,0,.1-.121.421.421,0,0,0,.062-.276.493.493,0,0,0-.041-.146" transform="translate(-149.709 -215.98)" fill="#11854b"/>
    <path id="Path_71618" data-name="Path 71618" d="M284.712,205.267l-.268-.1c-.089-.037-.171-.073-.25-.109s-.126-.061-.186-.093a3.277,3.277,0,0,1-1.63.728c.093.061.189.12.294.177s.216.114.332.169.239.111.367.162.239.095.351.136.223.08.328.118l.3.1c.093.032.18.064.264.095l.043.016.041.016.041.016.041.016-.432.217a.8.8,0,0,0-.255.194.5.5,0,0,0-.114.237.417.417,0,0,0,.036.248.613.613,0,0,0,.191.232.989.989,0,0,0,.316.169,1.558,1.558,0,0,0,.38.079,1.619,1.619,0,0,0,.393-.02,1.264,1.264,0,0,0,.36-.118l.3-.153c.043.091.084.191.127.3s.078.23.116.362.073.273.105.426.062.321.091.5a.471.471,0,0,0,.066.184.7.7,0,0,0,.139.164,1.014,1.014,0,0,0,.2.137,1.43,1.43,0,0,0,.252.1,1.341,1.341,0,0,0,.282.052,1.489,1.489,0,0,0,.281,0,1.328,1.328,0,0,0,.271-.048,1.2,1.2,0,0,0,.243-.1l5.2-2.813a.678.678,0,0,0,.23-.193.412.412,0,0,0,.08-.232.436.436,0,0,0-.066-.241.748.748,0,0,0-.212-.223,1.236,1.236,0,0,0-.326-.161,1.56,1.56,0,0,0-.373-.073,1.658,1.658,0,0,0-.378.016,1.137,1.137,0,0,0-.337.112l-3.781,1.992c-.02-.061-.043-.12-.064-.178s-.046-.116-.068-.171-.048-.107-.073-.161-.052-.1-.077-.153-.045-.082-.066-.121-.045-.078-.07-.118-.048-.075-.071-.111-.05-.073-.075-.109l1.807-.933a.679.679,0,0,0,.237-.187.45.45,0,0,0,.094-.227.459.459,0,0,0-.053-.236.706.706,0,0,0-.2-.216,1.125,1.125,0,0,0-.312-.157,1.584,1.584,0,0,0-.366-.071,1.647,1.647,0,0,0-.376.016,1.189,1.189,0,0,0-.341.109l-1.71.863c-.068-.036-.132-.068-.2-.1s-.13-.061-.2-.089l-.194-.079-.187-.071c-.109-.039-.211-.073-.312-.109l-.293-.1-.282-.1" transform="translate(-247.731 -179.775)" fill="#11854b"/>
    <path id="Path_71619" data-name="Path 71619" d="M304.94,181.044c0,.014,0,.027,0,.037a3.119,3.119,0,0,1-.048.332.026.026,0,0,0,0,.011c-.006.021-.011.045-.016.068s-.007.03-.011.046c-.029.107-.061.205-.1.3.061-.006.121-.013.18-.016.082,0,.164-.005.244,0s.159.009.233.018.152.021.223.036a1.466,1.466,0,0,0,.246.036,1.557,1.557,0,0,0,.244-.007,1.368,1.368,0,0,0,.228-.041.985.985,0,0,0,.2-.073.751.751,0,0,0,.093-.052.669.669,0,0,0,.08-.059.6.6,0,0,0,.066-.068.711.711,0,0,0,.05-.075.345.345,0,0,0,.039-.223.431.431,0,0,0-.1-.21.794.794,0,0,0-.227-.175,1.285,1.285,0,0,0-.328-.116,4.976,4.976,0,0,0-.508-.084c-.169-.02-.339-.032-.506-.038-.093,0-.184,0-.275,0a2.715,2.715,0,0,1,0,.317.369.369,0,0,1,0,.041" transform="translate(-267.369 -158.514)" fill="#11854b"/>
    <path id="Path_71620" data-name="Path 71620" d="M89.334,202.815H85.719a.678.678,0,0,0-.676.676V216.1a.679.679,0,0,0,.676.678h3.615a.678.678,0,0,0,.676-.678V203.491a.677.677,0,0,0-.676-.676m-1.455,3.144a1.012,1.012,0,1,1,1.013-1.013,1.011,1.011,0,0,1-1.013,1.013" transform="translate(-74.608 -177.93)" fill="#11854b"/>
  </g>
</svg>
