<svg xmlns="http://www.w3.org/2000/svg" width="14.22" height="14.219" viewBox="0 0 14.22 14.219">
  <path id="Path_110" data-name="Path 110" d="M6947.737,3544.563l1.522-1.4a.465.465,0,0,1,.381-.127l.254.127,3.552,1.65c.254.127.254.254.254.507a3.215,3.215,0,0,1-1.015,2.285,3.632,3.632,0,0,1-2.664,1.015,7.718,7.718,0,0,1-3.552-.888,16.639,16.639,0,0,1-3.552-2.539,21.653,21.653,0,0,1-1.9-2.792,17.474,17.474,0,0,1-1.268-2.793,7.81,7.81,0,0,1-.254-2.411,3.343,3.343,0,0,1,.888-1.905,3.856,3.856,0,0,1,2.41-.888.658.658,0,0,1,.507.254l1.9,3.554a.44.44,0,0,0,.127.254.467.467,0,0,1-.126.381l-1.65,1.523a.568.568,0,0,0,0,.634,12.123,12.123,0,0,0,1.523,2.032,12.855,12.855,0,0,0,2.03,1.65C6947.356,3544.816,6947.61,3544.816,6947.737,3544.563Z" transform="translate(-6939.481 -3534.407)" fill="#2376bc"/>
</svg>
