<?xml version="1.0" encoding="utf-8"?>
<!-- Generator: Adobe Illustrator 25.0.0, SVG Export Plug-In . SVG Version: 6.00 Build 0)  -->
<svg version="1.1" id="Layer_1" xmlns="http://www.w3.org/2000/svg" xmlns:xlink="http://www.w3.org/1999/xlink" x="0px" y="0px"
	 viewBox="0 0 12 12" style="enable-background:new 0 0 12 12;" xml:space="preserve">
<style type="text/css">
	.st0{fill:#2476BC;}
	.st1{fill:#FFFFFF;}
	.st2{fill:none;stroke:#2476BC;stroke-width:1.2;stroke-linecap:square;stroke-linejoin:bevel;stroke-miterlimit:10;}
	.st3{fill-rule:evenodd;clip-rule:evenodd;fill:#FFFFFF;}
</style>
<g>
	<polygon class="st0" points="1.2,28.6 10.8,28.6 10.8,25.9 12,25.9 12,30 0,30 0,25.9 1.2,25.9 	"/>
	<polygon class="st0" points="2.2,22.4 3.2,21.3 5.4,23.8 5.4,18 6.8,18 6.8,24 9,21.3 9.9,22.4 6.2,26.7 	"/>
</g>
<g id="Export_4_" transform="translate(0 74)">
	<path id="Path_151_4_" class="st0" d="M19.4-72.8v9.5h6.8v1.2H18v-12h8.2v1.2H19.4z M25.7-64.1l-1.1-1l2.5-2.2h-5.8v-1.4h6
		l-2.7-2.2l1.1-1l4.3,3.7L25.7-64.1z"/>
</g>
<path id="Path_110_3_" class="st1" d="M7,8.6l1.3-1.2c0.1-0.1,0.2-0.1,0.3-0.1l0.2,0.1l3,1.4C12,8.9,12,9,12,9.2
	c0,0.7-0.3,1.4-0.9,1.9C10.5,11.7,9.7,12,8.9,12c-1,0-2.1-0.3-3-0.7c-1.1-0.6-2.1-1.3-3-2.1C2.3,8.4,1.8,7.6,1.3,6.7
	C0.9,6,0.5,5.2,0.2,4.4C0,3.7,0,3,0,2.4c0.1-0.6,0.3-1.2,0.7-1.6C1.3,0.3,2,0,2.8,0C3,0,3.1,0.1,3.2,0.2l1.6,3c0,0.1,0,0.2,0.1,0.2
	c0,0.1,0,0.2-0.1,0.3L3.4,5c-0.1,0.2-0.1,0.4,0,0.5c0.4,0.6,0.8,1.2,1.3,1.7c0.5,0.5,1.1,1,1.7,1.4C6.6,8.8,6.9,8.8,7,8.6z"/>
<g id="Down_arrow_44_">
	<g>
		<path id="Path_10_8_" class="st0" d="M3-14.8l4.1-4.1L6-20l-6,6l6,6l1.1-1.1L3-13.2h9v-1.6"/>
	</g>
</g>
<g>
	<g id="Information_6_" transform="translate(0 28)">
		<path id="Union_6_6_" class="st0" d="M-14.4-37.4v-0.9h0.9v-3.6h-0.9v-0.9h1.8v4.6h0.9v0.9H-14.4z M-13.9-44
			c0-0.4,0.3-0.7,0.7-0.7s0.7,0.3,0.7,0.7c0,0.4-0.3,0.7-0.7,0.7S-13.9-43.6-13.9-44z"/>
	</g>
	<circle class="st2" cx="-13" cy="-13" r="5.4"/>
</g>
<g id="Forward_arrow_small_18_">
	<path id="Path_36_18_" class="st1" d="M-12,20.1l6,6l-1.8,1.8l-4.2-4.2l-4.2,4.2l-1.8-1.8L-12,20.1z"/>
</g>
<path class="st3" d="M30-17H18l6,5L30-17z M16-17c0-1.1,0.9-2,2-2h12c1.1,0,2,0.9,2,2v8c0,1.1-0.9,2-2,2H18c-1.1,0-2-0.9-2-2V-17z"
	/>
</svg>
