<?xml version="1.0" encoding="utf-8"?>
<!-- Generator: Adobe Illustrator 27.0.1, SVG Export Plug-In . SVG Version: 6.00 Build 0)  -->
<svg version="1.1" id="Layer_1" xmlns="http://www.w3.org/2000/svg" xmlns:xlink="http://www.w3.org/1999/xlink" x="0px" y="0px"
	 viewBox="0 0 96 48" style="enable-background:new 0 0 96 48;" xml:space="preserve">
<style type="text/css">
	.st0{fill:#DD0B17;}
	.st1{fill:#F9C7AA;}
	.st2{fill:#FFFFFF;stroke:#C1C0C1;stroke-width:0.5;stroke-miterlimit:10;}
	.st3{fill:#FFFFFF;}
	.st4{fill:#1D1D1B;}
	.st5{fill:#C1C0C1;}
</style>
<g>
	<g>
		<path class="st0" d="M64.2,14.1C64,4.4,58.6,0,50.1,0c-7.8,0-14.3,7.5-14.4,18.8c-0.1,10.5-1.7,20.4-3,23.5l1.2,0.9
			c5.1-5.8,11-14.3,8.3-29.2H64.2z"/>
		<path class="st1" d="M42.4,16.9c-0.2,4.4,0.9,11.3,10.4,11.3c9.5,0,10.7-6.9,10.4-11.3H42.4z"/>
		<path class="st2" d="M63.6,16.9H63c0.3,3.8-0.8,9.9-10.2,9.9c-9.4,0-10.4-6-10.2-9.9h-0.6c-4,5.9-2,15.2,0.3,19.2
			c1.5,2.7,6.6,5,10.5,10.2c3.8-5.2,9-7.5,10.5-10.2C65.6,32.1,67.6,22.8,63.6,16.9z"/>
		<g>
			<path vector-effect="non-scaling-stroke" class="st3" d="M46.7,19c-1,0.1-2.1,0.3-2.3,0.7c-0.1,0.5,0.1,0.8,0.6,0.8
				c0.5,0.1,2.3-0.5,3.7-0.1c0.9,0.2,1.2-0.6,0.6-0.9C48.9,19.1,47.7,18.9,46.7,19z"/>
			<path vector-effect="non-scaling-stroke" class="st3" d="M59,19c1,0.1,2.1,0.3,2.3,0.7c0.1,0.5-0.1,0.8-0.6,0.8
				c-0.5,0.1-2.3-0.5-3.7-0.1c-0.9,0.2-1.2-0.6-0.6-0.9C56.8,19.1,58,18.9,59,19z"/>
			<g>
				<path class="st4" d="M45.4,23.2l-0.3-0.1l0-0.2c0.2-1,0.8-1.5,1.8-1.5c1,0,1.7,0.4,2,1.3l0.1,0.1L48.7,23l-0.1-0.1
					c-0.3-0.8-0.9-1.1-1.7-1.1c-0.8,0-1.3,0.4-1.5,1.3L45.4,23.2z"/>
				<path class="st4" d="M60.3,23.2l0-0.2c-0.2-0.8-0.7-1.2-1.5-1.3c-0.9,0-1.4,0.3-1.7,1.1L57,23l-0.3-0.1l0.1-0.1
					c0.4-0.9,1-1.3,2-1.3c1,0,1.6,0.5,1.8,1.5l0,0.2L60.3,23.2z"/>
			</g>
		</g>
		<path vector-effect="non-scaling-stroke" class="st2" d="M52.9,11.5c-5.6,0.2-11.3,0.5-11.6,1c-0.6,1-0.7,5,0,5.6
			c0.4,0.3,6,0.3,11.6,0.3c5.6,0,11.2,0,11.6-0.3c0.7-0.7,0.6-4.6,0-5.6C64.2,12,58.5,11.7,52.9,11.5z"/>
		<g>
			<path vector-effect="non-scaling-stroke" class="st3" d="M52.9,25.5c-2.1-1.3-4.1-1.8-5.9-1.6c-2.9,0.4-6.3,1.4-7.9,0
				c2.1,3.3,5,4.9,8.7,5c2.4,0.1,4.1-0.8,5.1-2.5c1.1,1.8,2.8,2.6,5.1,2.5c3.7-0.1,6.6-1.8,8.7-5c-1.6,1.4-5,0.4-7.9,0
				C56.9,23.6,55,24.2,52.9,25.5z"/>
			<path class="st5" d="M57.8,28.9c-2.2,0-3.9-0.8-4.9-2.5c-1.1,1.7-2.8,2.5-5.1,2.5c-3.8-0.1-6.7-1.8-8.7-5.1l-0.2-0.3l0.3,0.2
				c1.9,1.6,6.3-0.1,8.7-0.1c1.6,0,3.3,0.6,5.1,1.6c1.8-1.1,3.5-1.6,5.1-1.6c2.4,0,6.9,1.7,8.7,0.1l0.3-0.2l-0.2,0.3
				C64.6,27.3,61.5,28.9,57.8,28.9z M52.9,26.2c1.1,1.9,2.9,2.6,5.1,2.6c3.6-0.1,6.4-1.7,8.5-4.7c-1.7,1.2-5,0.2-7.7-0.2
				c-2.1-0.3-4.1,0.5-5.9,1.6c-1.8-1.1-3.8-1.9-5.9-1.6c-2.8,0.3-6,1.3-7.7,0.2c2,3.1,4.9,4.7,8.5,4.7C50,28.9,51.7,28.1,52.9,26.2z
				"/>
		</g>
		<path vector-effect="non-scaling-stroke" class="st0" d="M52.9,23.7c1.4,0,2.6,1.2,2.6,2.6c0,1.4-1.2,2.6-2.6,2.6
			c-1.4,0-2.6-1.2-2.6-2.6C50.3,24.9,51.4,23.7,52.9,23.7z"/>
		<path class="st4" d="M52.9,31.5c-1.7,0-2.1-1.6-2.1-1.6l0-0.1l0.3-0.1l0,0.1c0,0.1,0.4,1.4,1.9,1.4c1.4,0,1.8-1.3,1.9-1.4l0-0.1
			l0.3,0.1l0,0.1C55,29.9,54.5,31.5,52.9,31.5z"/>
	</g>
	<g vector-effect="non-scaling-stroke">
		<circle class="st3" cx="33.4" cy="43.7" r="4.1"/>
		<path class="st5" d="M33.4,39.8c2.1,0,3.8,1.7,3.8,3.8c0,2.1-1.7,3.8-3.8,3.8c-2.1,0-3.8-1.7-3.8-3.8
			C29.6,41.5,31.3,39.8,33.4,39.8 M33.4,39.3c-2.4,0-4.3,1.9-4.3,4.3c0,2.4,1.9,4.3,4.3,4.3c2.4,0,4.3-1.9,4.3-4.3
			C37.8,41.3,35.8,39.3,33.4,39.3L33.4,39.3z"/>
	</g>
</g>
</svg>
