<svg xmlns="http://www.w3.org/2000/svg" xmlns:xlink="http://www.w3.org/1999/xlink" width="52.224" height="52" viewBox="0 0 52.224 52">
  <defs>
    <clipPath id="clip-path">
      <rect id="Rectangle_4043" data-name="Rectangle 4043" width="52.224" height="52" fill="#00854b"/>
    </clipPath>
  </defs>
  <g id="School_Clerical_Guidance_and_Training" data-name="School Clerical Guidance and Training" transform="translate(0 0)">
    <g id="Group_5677" data-name="Group 5677" transform="translate(0 0)" clip-path="url(#clip-path)">
      <path id="Path_71607" data-name="Path 71607" d="M30.873,9.827a3.267,3.267,0,0,0-3.262-3.262H5.228A5.233,5.233,0,0,0,0,11.793V28.349H3.612V45.784H16.558V13.089H27.611a3.267,3.267,0,0,0,3.262-3.262M14.809,11.34V44.034h-3.85V29.13H9.209v14.9H5.361V24.51H3.612V26.6H1.749V11.793A3.484,3.484,0,0,1,5.228,8.314H27.611a1.513,1.513,0,0,1,0,3.026Z" transform="translate(0 4.918)" fill="#00854b"/>
      <path id="Path_71608" data-name="Path 71608" d="M7.883,9.892A4.946,4.946,0,1,0,2.938,4.947,4.95,4.95,0,0,0,7.883,9.892m0-8.142a3.2,3.2,0,1,1-3.2,3.2,3.2,3.2,0,0,1,3.2-3.2" transform="translate(2.201 -0.001)" fill="#00854b"/>
      <path id="Path_71609" data-name="Path 71609" d="M9.727,2.328V4.077h33.46V27.686H12.814v1.749H44.937V2.328Z" transform="translate(7.287 1.743)" fill="#00854b"/>
      <rect id="Rectangle_4040" data-name="Rectangle 4040" width="11.448" height="1.749" transform="translate(35.33 18.309)" fill="#00854b"/>
      <rect id="Rectangle_4041" data-name="Rectangle 4041" width="11.448" height="1.749" transform="translate(35.33 12.942)" fill="#00854b"/>
      <rect id="Rectangle_4042" data-name="Rectangle 4042" width="18.641" height="1.749" transform="translate(28.139 23.674)" fill="#00854b"/>
      <path id="Path_71610" data-name="Path 71610" d="M22.252,23.622a3.589,3.589,0,1,0-3.589,3.588,3.594,3.594,0,0,0,3.589-3.588m-5.429,0a1.84,1.84,0,1,1,1.84,1.838,1.842,1.842,0,0,1-1.84-1.838" transform="translate(11.293 15.008)" fill="#00854b"/>
      <path id="Path_71611" data-name="Path 71611" d="M36.547,25.149H28.805a3.232,3.232,0,0,0-2.379,1.05,3.231,3.231,0,0,0-2.377-1.05H16.307A3.259,3.259,0,0,0,13.052,28.4v4.756H14.8V28.4a1.507,1.507,0,0,1,1.506-1.5h7.742a1.5,1.5,0,0,1,1.5,1.5v4.76H27.3V28.4a1.507,1.507,0,0,1,1.506-1.5h7.742a1.5,1.5,0,0,1,1.5,1.5v4.76H39.8V28.4a3.253,3.253,0,0,0-3.25-3.25" transform="translate(9.778 18.841)" fill="#00854b"/>
      <path id="Path_71612" data-name="Path 71612" d="M29.4,23.622a3.588,3.588,0,1,0-3.589,3.588A3.593,3.593,0,0,0,29.4,23.622m-5.428,0a1.839,1.839,0,1,1,1.838,1.838,1.842,1.842,0,0,1-1.838-1.838" transform="translate(16.646 15.008)" fill="#00854b"/>
    </g>
  </g>
</svg>
