<svg id="Group_538" data-name="Group 538" xmlns="http://www.w3.org/2000/svg" width="104.298" height="86.585" viewBox="0 0 104.298 86.585">
  <path id="Path_880" data-name="Path 880" d="M65.932,122.4H52.86a2.758,2.758,0,0,0-2.76,2.76v12.927a2.758,2.758,0,0,0,2.76,2.76H65.932a2.758,2.758,0,0,0,2.76-2.76V125.16A2.758,2.758,0,0,0,65.932,122.4ZM53.15,138.232H65.5V125.6H53.15Z" transform="translate(22.244 -67.333)" fill="#fff" fill-rule="evenodd"/>
  <path id="Path_881" data-name="Path 881" d="M65.932,106.9H52.86a2.758,2.758,0,0,0-2.76,2.76v12.927a2.758,2.758,0,0,0,2.76,2.76H65.932a2.758,2.758,0,0,0,2.76-2.76V109.66A2.758,2.758,0,0,0,65.932,106.9ZM53.15,122.732H65.5V110.1H53.15Z" transform="translate(22.244 -74.346)" fill="#fff" fill-rule="evenodd"/>
  <path id="Path_882" data-name="Path 882" d="M23.932,122.3H10.86a2.758,2.758,0,0,0-2.76,2.76v12.927a2.758,2.758,0,0,0,2.76,2.76H23.932a2.758,2.758,0,0,0,2.76-2.76V125.06A2.671,2.671,0,0,0,23.932,122.3ZM11.15,137.986H23.5V125.35H11.15Z" transform="translate(3.242 -67.378)" fill="#fff" fill-rule="evenodd"/>
  <path id="Path_883" data-name="Path 883" d="M23.932,106.9H10.86a2.758,2.758,0,0,0-2.76,2.76v12.927a2.758,2.758,0,0,0,2.76,2.76H23.932a2.758,2.758,0,0,0,2.76-2.76V109.66A2.758,2.758,0,0,0,23.932,106.9ZM11.15,122.732H23.5V110.1H11.15Z" transform="translate(3.242 -74.346)" fill="#fff" fill-rule="evenodd"/>
  <path id="Path_884" data-name="Path 884" d="M95.584,93.947a1.6,1.6,0,0,0-1.452-.871h-32.1l-8.424-8.569H52.447c.871-.29-2.469,2.614-9.731,8.569H10.762a1.6,1.6,0,0,0-1.452.871l-8.86,18.3a1.612,1.612,0,0,0,.145,1.6,1.525,1.525,0,0,0,1.307.726H5.678v47.64a1.309,1.309,0,0,0-.145.726v6.245a2,2,0,0,0,2.179,1.888H97.327a2.094,2.094,0,0,0,2.179-1.888v-6.245a1.31,1.31,0,0,0-.145-.726v-47.64h3.631a1.612,1.612,0,0,0,1.6-1.6,2.693,2.693,0,0,0-.29-1.017ZM52.447,87.7l15.977,16.122h-.29a1.612,1.612,0,0,0-1.6,1.6V160.9H58.547V144.2a1.612,1.612,0,0,0-1.6-1.6h-8.86a1.612,1.612,0,0,0-1.6,1.6v16.7h-8.86V105.421a1.7,1.7,0,0,0-1.307-1.6Zm-2.76,73.348h5.665V145.944H49.687ZM11.778,96.126H39.52l-8.134,8.134A1.545,1.545,0,0,0,31.1,106a1.749,1.749,0,0,0,1.452,1.017h1.888v4.212H4.516Zm-1.888,18.3H34.436V160.9H8.873V114.426Zm86.42,53.45H8.728l.145-3.2H96.455Zm-26.58-6.826H96.165V114.572H69.73Zm28.032-49.673H69.73v-4.357H72.2A1.749,1.749,0,0,0,73.652,106a1.545,1.545,0,0,0-.29-1.743l-8.134-8.134H93.26l7.262,15.105h-2.76Z" transform="translate(-0.291 -84.486)" fill="#fff" fill-rule="evenodd"/>
  <path id="Path_885" data-name="Path 885" d="M39.386,112.572a9.586,9.586,0,1,0-9.586-9.586A9.577,9.577,0,0,0,39.386,112.572Zm0-15.832A6.391,6.391,0,1,1,33,103.131,6.354,6.354,0,0,1,39.386,96.741Z" transform="translate(13.06 -80.453)" fill="#fff" fill-rule="evenodd"/>
  <path id="Path_886" data-name="Path 886" d="M35.941,101.825a1.857,1.857,0,0,0,1.743,1.6,1.678,1.678,0,0,0,1.743-1.743h0l2.614-3.2a.719.719,0,1,0-1.017-1.017l-3.05,2.614a1.309,1.309,0,0,0-.726.145l-2.9-1.307a.833.833,0,0,0-1.017.29c-.145.29-.145.871.29,1.017l2.324,1.6" transform="translate(14.616 -78.712)" fill="#fff" fill-rule="evenodd"/>
</svg>
