<svg id="Group_538" data-name="Group 538" xmlns="http://www.w3.org/2000/svg" width="67.456" height="56" viewBox="0 0 67.456 56">
  <path id="Path_880" data-name="Path 880" d="M59.608,122.4H51.757a1.656,1.656,0,0,0-1.657,1.657v7.763a1.656,1.656,0,0,0,1.657,1.657h7.851a1.656,1.656,0,0,0,1.657-1.657v-7.763A1.656,1.656,0,0,0,59.608,122.4Zm-7.676,9.508h7.414v-7.589H51.932Z" transform="translate(-1.834 -86.096)" fill="#00844b" fill-rule="evenodd"/>
  <path id="Path_881" data-name="Path 881" d="M59.608,106.9H51.757a1.656,1.656,0,0,0-1.657,1.657v7.763a1.656,1.656,0,0,0,1.657,1.657h7.851a1.656,1.656,0,0,0,1.657-1.657v-7.763A1.656,1.656,0,0,0,59.608,106.9Zm-7.676,9.508h7.414v-7.589H51.932Z" transform="translate(-1.834 -85.438)" fill="#00844b" fill-rule="evenodd"/>
  <path id="Path_882" data-name="Path 882" d="M17.608,122.3H9.757A1.656,1.656,0,0,0,8.1,123.957v7.763a1.656,1.656,0,0,0,1.657,1.657h7.851a1.656,1.656,0,0,0,1.657-1.657v-7.763A1.6,1.6,0,0,0,17.608,122.3Zm-7.676,9.421h7.414v-7.589H9.932v7.589Z" transform="translate(-1.288 -86.092)" fill="#00844b" fill-rule="evenodd"/>
  <path id="Path_883" data-name="Path 883" d="M17.608,106.9H9.757A1.656,1.656,0,0,0,8.1,108.557v7.763a1.656,1.656,0,0,0,1.657,1.657h7.851a1.656,1.656,0,0,0,1.657-1.657v-7.763A1.656,1.656,0,0,0,17.608,106.9Zm-7.676,9.508h7.414v-7.589H9.932v7.589Z" transform="translate(-1.288 -85.438)" fill="#00844b" fill-rule="evenodd"/>
  <path id="Path_884" data-name="Path 884" d="M61.923,90.605a1.033,1.033,0,0,0-.939-.564H40.223L34.775,84.5h-.752c.564-.188-1.6,1.691-6.294,5.542H7.063a1.033,1.033,0,0,0-.939.564L.393,102.441a1.043,1.043,0,0,0,.094,1.033.987.987,0,0,0,.845.47H3.775v30.812a.847.847,0,0,0-.094.47v4.039a1.3,1.3,0,0,0,1.409,1.221H63.05a1.355,1.355,0,0,0,1.409-1.221v-4.039a.847.847,0,0,0-.094-.47V103.944h2.348a1.043,1.043,0,0,0,1.033-1.033,1.742,1.742,0,0,0-.188-.658Zm-27.9-4.039L44.356,96.993h-.188a1.042,1.042,0,0,0-1.033,1.033v35.884H37.969v-10.8a1.042,1.042,0,0,0-1.033-1.033h-5.73a1.042,1.042,0,0,0-1.033,1.033v10.8h-5.73V98.026a1.1,1.1,0,0,0-.845-1.033ZM32.238,134H35.9v-9.77H32.238ZM7.721,92.014H25.663L20.4,97.275a1,1,0,0,0-.188,1.127,1.131,1.131,0,0,0,.939.658h1.221v2.724H3.024ZM6.5,103.85H22.375v30.06H5.842V103.85ZM62.393,138.42H5.748l.094-2.067H62.487ZM45.2,134H62.3v-30.06H45.2Zm18.13-32.127H45.2V99.06h1.6a1.131,1.131,0,0,0,.939-.658,1,1,0,0,0-.188-1.127L42.29,92.014H60.42l4.7,9.77H63.332Z" transform="translate(-0.291 -84.486)" fill="#00844b" fill-rule="evenodd"/>
  <path id="Path_885" data-name="Path 885" d="M35.557,104.914A5.757,5.757,0,1,0,29.8,99.157,5.751,5.751,0,0,0,35.557,104.914Zm0-9.508a3.838,3.838,0,1,1-3.838,3.838A3.816,3.816,0,0,1,35.557,95.406Z" transform="translate(-1.634 -85.625)" fill="#00844b" fill-rule="evenodd"/>
  <path id="Path_886" data-name="Path 886" d="M34.862,100a1.115,1.115,0,0,0,1.047.96,1.008,1.008,0,0,0,1.047-1.047h0l1.57-1.919a.432.432,0,0,0-.611-.611l-1.832,1.57a.786.786,0,0,0-.436.087L33.9,98.253a.5.5,0,0,0-.611.174c-.087.174-.087.523.174.611l1.4.96" transform="translate(-2.079 -85.194)" fill="#00844b" fill-rule="evenodd"/>
</svg>
