<svg xmlns="http://www.w3.org/2000/svg" xmlns:xlink="http://www.w3.org/1999/xlink" width="150" height="86.585" viewBox="0 0 150 86.585">
  <defs>
    <clipPath id="clip-path">
      <rect id="Rectangle_3904" data-name="Rectangle 3904" width="150" height="86.585" fill="#fff"/>
    </clipPath>
  </defs>
  <g id="Schoolicon_White_" data-name="Schoolicon(White)" transform="translate(-565 -113.012)">
    <g id="Group_5605" data-name="Group 5605" transform="translate(565 113.012)">
      <g id="Group_5604" data-name="Group 5604" clip-path="url(#clip-path)">
        <path id="Path_3102" data-name="Path 3102" d="M639.106,329.614H629.35a1.83,1.83,0,0,1-1.829-1.829V315.589a1.83,1.83,0,0,1,1.829-1.829h9.756a1.83,1.83,0,0,1,1.829,1.829v12.195a1.83,1.83,0,0,1-1.829,1.829m-7.927-3.659h6.1v-8.537h-6.1Z" transform="translate(-549.472 -274.736)" fill="#fff"/>
        <path id="Path_3103" data-name="Path 3103" d="M482.225,329.614h-9.756a1.83,1.83,0,0,1-1.829-1.829V315.589a1.83,1.83,0,0,1,1.829-1.829h9.756a1.83,1.83,0,0,1,1.829,1.829v12.195a1.83,1.83,0,0,1-1.829,1.829m-7.927-3.659h6.1v-8.537h-6.1Z" transform="translate(-412.103 -274.736)" fill="#fff"/>
        <path id="Path_3104" data-name="Path 3104" d="M874.425,310h-9.756a1.83,1.83,0,0,1-1.829-1.829v-12.2a1.83,1.83,0,0,1,1.829-1.829h9.756a1.83,1.83,0,0,1,1.829,1.829v12.2A1.83,1.83,0,0,1,874.425,310m-7.927-3.659h6.1v-8.537h-6.1Z" transform="translate(-755.523 -257.565)" fill="#fff"/>
        <path id="Path_3105" data-name="Path 3105" d="M246.905,310h-9.756a1.83,1.83,0,0,1-1.829-1.829v-12.2a1.83,1.83,0,0,1,1.829-1.829h9.756a1.83,1.83,0,0,1,1.829,1.829v12.2A1.83,1.83,0,0,1,246.905,310m-7.927-3.659h6.1v-8.537h-6.1Z" transform="translate(-206.052 -257.565)" fill="#fff"/>
        <path id="Path_3106" data-name="Path 3106" d="M952.866,310H943.11a1.829,1.829,0,0,1,0-3.659h7.927v-8.537H943.11a1.829,1.829,0,0,1,0-3.659h9.756a1.83,1.83,0,0,1,1.829,1.829v12.2A1.83,1.83,0,0,1,952.866,310" transform="translate(-824.208 -257.565)" fill="#fff"/>
        <path id="Path_3107" data-name="Path 3107" d="M168.466,310H158.71a1.83,1.83,0,0,1-1.829-1.829v-12.2a1.83,1.83,0,0,1,1.829-1.829h9.756a1.829,1.829,0,0,1,0,3.659H160.54v8.537h7.927a1.829,1.829,0,0,1,0,3.659" transform="translate(-137.369 -257.565)" fill="#fff"/>
        <path id="Path_3108" data-name="Path 3108" d="M1031.305,310h-9.756a1.829,1.829,0,1,1,0-3.659h7.927v-8.537h-7.927a1.829,1.829,0,1,1,0-3.659h9.756a1.83,1.83,0,0,1,1.829,1.829v12.2a1.83,1.83,0,0,1-1.829,1.829" transform="translate(-892.891 -257.565)" fill="#fff"/>
        <path id="Path_3109" data-name="Path 3109" d="M90.025,310H80.269a1.83,1.83,0,0,1-1.829-1.829v-12.2a1.83,1.83,0,0,1,1.829-1.829h9.756a1.829,1.829,0,0,1,0,3.659H82.1v8.537h7.927a1.829,1.829,0,0,1,0,3.659" transform="translate(-68.684 -257.565)" fill="#fff"/>
        <path id="Path_3110" data-name="Path 3110" d="M874.425,486.494h-9.756a1.83,1.83,0,0,1-1.829-1.829v-12.2a1.83,1.83,0,0,1,1.829-1.829h9.756a1.83,1.83,0,0,1,1.829,1.829v12.2a1.83,1.83,0,0,1-1.829,1.829m-7.927-3.658h6.1V474.3h-6.1Z" transform="translate(-755.523 -412.103)" fill="#fff"/>
        <path id="Path_3111" data-name="Path 3111" d="M246.905,486.494h-9.756a1.83,1.83,0,0,1-1.829-1.829v-12.2a1.83,1.83,0,0,1,1.829-1.829h9.756a1.83,1.83,0,0,1,1.829,1.829v12.2a1.83,1.83,0,0,1-1.829,1.829m-7.927-3.658h6.1V474.3h-6.1Z" transform="translate(-206.052 -412.103)" fill="#fff"/>
        <path id="Path_3112" data-name="Path 3112" d="M952.866,486.494H943.11a1.829,1.829,0,0,1,0-3.658h7.927V474.3H943.11a1.829,1.829,0,0,1,0-3.658h9.756a1.83,1.83,0,0,1,1.829,1.829v12.2a1.83,1.83,0,0,1-1.829,1.829" transform="translate(-824.208 -412.103)" fill="#fff"/>
        <path id="Path_3113" data-name="Path 3113" d="M168.466,486.494H158.71a1.83,1.83,0,0,1-1.829-1.829v-12.2a1.83,1.83,0,0,1,1.829-1.829h9.756a1.829,1.829,0,0,1,0,3.658H160.54v8.537h7.927a1.829,1.829,0,0,1,0,3.658" transform="translate(-137.369 -412.103)" fill="#fff"/>
        <path id="Path_3114" data-name="Path 3114" d="M1031.305,486.494h-9.756a1.829,1.829,0,1,1,0-3.658h7.927V474.3h-7.927a1.829,1.829,0,1,1,0-3.658h9.756a1.83,1.83,0,0,1,1.829,1.829v12.2a1.83,1.83,0,0,1-1.829,1.829" transform="translate(-892.891 -412.103)" fill="#fff"/>
        <path id="Path_3115" data-name="Path 3115" d="M90.025,486.494H80.269a1.83,1.83,0,0,1-1.829-1.829v-12.2a1.83,1.83,0,0,1,1.829-1.829h9.756a1.829,1.829,0,0,1,0,3.658H82.1v8.537h7.927a1.829,1.829,0,0,1,0,3.658" transform="translate(-68.684 -412.103)" fill="#fff"/>
        <path id="Path_3116" data-name="Path 3116" d="M538.616,135.953a9.146,9.146,0,1,1,9.146-9.146,9.158,9.158,0,0,1-9.146,9.146m0-14.634a5.488,5.488,0,1,0,5.488,5.488,5.5,5.5,0,0,0-5.488-5.488" transform="translate(-463.616 -103.026)" fill="#fff"/>
        <path id="Path_3117" data-name="Path 3117" d="M442.81,86.586a1.83,1.83,0,0,1-1.829-1.829V26.977L418.42,4.416,395.859,26.977V84.756a1.829,1.829,0,1,1-3.659,0V26.22a1.828,1.828,0,0,1,.536-1.293L417.126.536a1.829,1.829,0,0,1,2.587,0l24.39,24.39a1.827,1.827,0,0,1,.536,1.293V84.756a1.83,1.83,0,0,1-1.829,1.829" transform="translate(-343.42 0)" fill="#fff"/>
        <path id="Path_3118" data-name="Path 3118" d="M501.738,515.86a1.83,1.83,0,0,1-1.829-1.829V493.909H474.3V514.03a1.829,1.829,0,1,1-3.658,0V492.079a1.83,1.83,0,0,1,1.829-1.829h29.268a1.83,1.83,0,0,1,1.829,1.829V514.03a1.83,1.83,0,0,1-1.829,1.829" transform="translate(-412.103 -429.274)" fill="#fff"/>
        <path id="Path_3119" data-name="Path 3119" d="M590.129,515.86a1.83,1.83,0,0,1-1.829-1.829V492.079a1.829,1.829,0,0,1,3.659,0V514.03a1.83,1.83,0,0,1-1.829,1.829" transform="translate(-515.129 -429.274)" fill="#fff"/>
        <path id="Path_3120" data-name="Path 3120" d="M903.695,219.369H864.67a1.829,1.829,0,0,1,0-3.659h39.024a1.829,1.829,0,1,1,0,3.659" transform="translate(-755.524 -188.881)" fill="#fff"/>
        <path id="Path_3121" data-name="Path 3121" d="M40.854,219.369H1.829a1.829,1.829,0,1,1,0-3.659H40.854a1.829,1.829,0,0,1,0,3.659" transform="translate(0 -188.881)" fill="#fff"/>
        <path id="Path_3122" data-name="Path 3122" d="M148.171,138.1H1.829A1.83,1.83,0,0,1,0,136.269v-56.1a1.828,1.828,0,0,1,.367-1.1L15,59.561a1.829,1.829,0,0,1,1.462-.731H55.488a1.829,1.829,0,1,1,0,3.659H17.378L3.659,80.781V134.44H146.341V80.781l-13.72-18.293H94.512a1.829,1.829,0,0,1,0-3.659h39.024a1.829,1.829,0,0,1,1.463.731l14.634,19.512a1.828,1.828,0,0,1,.367,1.1v56.1a1.83,1.83,0,0,1-1.829,1.829" transform="translate(0 -51.513)" fill="#fff"/>
      </g>
    </g>
  </g>
</svg>
