<svg xmlns="http://www.w3.org/2000/svg" width="23" height="22.992" viewBox="0 0 23 22.992">
  <path id="Path_11" data-name="Path 11" d="M6855.323,3321.843l5.122-5.128a9.061,9.061,0,0,1-1.179-4.508,9.2,9.2,0,1,1,9.2,9.2,9.068,9.068,0,0,1-4.509-1.184l-5.125,5.127a2.122,2.122,0,0,1-3,.068l-.068-.068-.437-.438a2.1,2.1,0,0,1-.1-2.976C6855.263,3321.9,6855.29,3321.871,6855.323,3321.843Zm20.583-9.648a7.45,7.45,0,1,0-7.443,7.456h0A7.453,7.453,0,0,0,6875.906,3312.195Z" transform="translate(-6854.662 -3303.009)" fill="#fff"/>
</svg>
