<svg xmlns="http://www.w3.org/2000/svg" width="18" height="17.993" viewBox="0 0 18 17.993">
  <path id="SearchIcon" d="M6872.145,3317.749l-4.008-4.013a7.091,7.091,0,0,0,.922-3.528,7.2,7.2,0,1,0-7.2,7.2,7.1,7.1,0,0,0,3.529-.927l4.011,4.013a1.661,1.661,0,0,0,2.346.053l.053-.053.342-.343a1.647,1.647,0,0,0,.076-2.329C6872.192,3317.795,6872.17,3317.771,6872.145,3317.749Zm-16.108-7.551a5.83,5.83,0,1,1,5.825,5.835h0A5.832,5.832,0,0,1,6856.036,3310.2Z" transform="translate(-6854.662 -3303.009)" fill="#777"/>
</svg>
