<svg xmlns="http://www.w3.org/2000/svg" width="15" height="12.453" viewBox="0 0 15 12.453">
  <g id="SectorIcon_Blue_" data-name="SectorIcon(Blue)" transform="translate(-0.291 -84.486)">
    <path id="Path_880" data-name="Path 880" d="M52.377,122.4H50.5a.4.4,0,0,0-.4.4v1.859a.4.4,0,0,0,.4.4h1.88a.4.4,0,0,0,.4-.4V122.8A.4.4,0,0,0,52.377,122.4Zm-1.838,2.277h1.776V122.86H50.539Z" transform="translate(-39.405 -29.994)" fill="#0e64b0" fill-rule="evenodd"/>
    <path id="Path_881" data-name="Path 881" d="M52.377,106.9H50.5a.4.4,0,0,0-.4.4v1.859a.4.4,0,0,0,.4.4h1.88a.4.4,0,0,0,.4-.4V107.3A.4.4,0,0,0,52.377,106.9Zm-1.838,2.277h1.776V107.36H50.539Z" transform="translate(-39.405 -17.732)" fill="#0e64b0" fill-rule="evenodd"/>
    <path id="Path_882" data-name="Path 882" d="M10.377,122.3H8.5a.4.4,0,0,0-.4.4v1.859a.4.4,0,0,0,.4.4h1.88a.4.4,0,0,0,.4-.4V122.7A.384.384,0,0,0,10.377,122.3Zm-1.838,2.256h1.776v-1.817H8.539v1.817Z" transform="translate(-6.178 -29.915)" fill="#0e64b0" fill-rule="evenodd"/>
    <path id="Path_883" data-name="Path 883" d="M10.377,106.9H8.5a.4.4,0,0,0-.4.4v1.859a.4.4,0,0,0,.4.4h1.88a.4.4,0,0,0,.4-.4V107.3A.4.4,0,0,0,10.377,106.9Zm-1.838,2.277h1.776V107.36H8.539v1.817Z" transform="translate(-6.178 -17.732)" fill="#0e64b0" fill-rule="evenodd"/>
    <path id="Path_884" data-name="Path 884" d="M14,85.847a.23.23,0,0,0-.209-.125H9.171L7.959,84.489H7.792c.125-.042-.355.376-1.4,1.232H1.8a.23.23,0,0,0-.209.125L.314,88.479a.232.232,0,0,0,.021.23.219.219,0,0,0,.188.1h.543v6.852a.188.188,0,0,0-.021.1v.9a.288.288,0,0,0,.313.272H14.247a.3.3,0,0,0,.313-.272v-.9a.188.188,0,0,0-.021-.1V88.813h.522a.232.232,0,0,0,.23-.23.387.387,0,0,0-.042-.146Zm-6.2-.9,2.3,2.319h-.042a.232.232,0,0,0-.23.23v7.98H8.669v-2.4a.232.232,0,0,0-.23-.23H7.165a.232.232,0,0,0-.23.23v2.4H5.661V87.5a.245.245,0,0,0-.188-.23ZM7.4,95.5H8.21V93.325H7.4ZM1.943,86.16h3.99l-1.17,1.17a.222.222,0,0,0-.042.251.252.252,0,0,0,.209.146H5.2v.606H.9Zm-.272,2.632H5.2v6.684H1.525V88.792ZM14.1,96.479H1.5l.021-.46h12.6ZM10.278,95.5h3.8V88.813h-3.8Zm4.032-7.144H10.278v-.627h.355a.252.252,0,0,0,.209-.146.222.222,0,0,0-.042-.251L9.63,86.16h4.032l1.044,2.172h-.4Z" transform="translate(0 0)" fill="#0e64b0" fill-rule="evenodd"/>
    <path id="Path_885" data-name="Path 885" d="M31.179,96.157A1.379,1.379,0,1,0,29.8,94.779,1.377,1.377,0,0,0,31.179,96.157Zm0-2.277a.919.919,0,1,1-.919.919A.914.914,0,0,1,31.179,93.88Z" transform="translate(-23.345 -7.052)" fill="#0e64b0" fill-rule="evenodd"/>
    <path id="Path_886" data-name="Path 886" d="M33.629,97.908a.267.267,0,0,0,.251.23.241.241,0,0,0,.251-.251h0l.376-.46a.1.1,0,1,0-.146-.146l-.439.376a.188.188,0,0,0-.1.021L33.4,97.49a.12.12,0,0,0-.146.042c-.021.042-.021.125.042.146l.334.23" transform="translate(-26.067 -10.097)" fill="#0e64b0" fill-rule="evenodd"/>
  </g>
</svg>
