<svg xmlns="http://www.w3.org/2000/svg" width="48.487" height="56.211" viewBox="0 0 48.487 56.211">
  <g id="Group_542" data-name="Group 542" transform="translate(0.105 0.105)">
    <path id="Path_898" data-name="Path 898" d="M-42.348-42.356H-47.1V-53.606c0-2.69-2.092-4.973-5.069-6.359a2.915,2.915,0,0,1,.322-.734,1.982,1.982,0,0,0,.161-.652l.161-.9-.885-.163c-3.379-.489-3.379-4.076-2.816-9.946l.08-.734a8.135,8.135,0,0,0,.161-1.386v-.408h0c.161-3.1.161-6.278-1.448-8.4-.322-.489-.724-.9-1.046-1.3A5.83,5.83,0,0,0-60.21-87.44,11.8,11.8,0,0,0-65.6-88.5a10.112,10.112,0,0,0-9.736,6.767c-2.172,5.3-1.448,9.946-.885,13.289.322,2.2.644,3.995-.08,4.892a3.654,3.654,0,0,1-2.575,1.141l-.885.163.161.9s.08.245.161.571a5.251,5.251,0,0,1,.161.571.286.286,0,0,0,.08.163c-2.977,1.467-5.069,3.669-5.069,6.359v11.251h-4.747a.9.9,0,0,0-.885.9.9.9,0,0,0,.885.9h5.632a.9.9,0,0,0,.885-.9h0V-53.606c0-3.343,5.552-6.441,11.586-6.441a.6.6,0,0,0,.4-.082c1.046-.571,1.448-2.12,1.69-3.424V-63.8l.08-.326a15.25,15.25,0,0,0,.4-3.1.933.933,0,0,0-.241-.652c-.241-.245-.563-.489-.885-.815a5.926,5.926,0,0,1-1.609-3.343c4.988-2.12,8.207-4.321,10.3-7.093a25.179,25.179,0,0,1,.563,5.788v.082a7.216,7.216,0,0,1-1.851,4.566l-.8.815a.933.933,0,0,0-.241.652,16.15,16.15,0,0,0,.4,3.18l.08.571c.161.9.483,2.69,1.609,3.343a.717.717,0,0,0,.4.082c6.034,0,11.586,3.1,11.586,6.441V-41.54h0a.9.9,0,0,0,.885.9h5.632a.9.9,0,0,0,.885-.9C-41.624-42.03-41.866-42.356-42.348-42.356ZM-60.774-63.8c0-.082,0-.245-.08-.245l-.08-.408a15.873,15.873,0,0,1-.4-2.364l.563-.571a8.992,8.992,0,0,0,2.333-5.462v-.163a26.3,26.3,0,0,0-1.126-8.479.987.987,0,0,0-.724-.652,1.006,1.006,0,0,0-.885.489c-1.851,3.424-5.23,5.951-11.184,8.4a.887.887,0,0,0-.563.978A8.4,8.4,0,0,0-70.67-67.3a4.046,4.046,0,0,0,.644.571,17.272,17.272,0,0,1-.322,2.283l-.08.408v.163a3.98,3.98,0,0,1-.724,2.038,19.2,19.2,0,0,0-6.437,1.223c0-.082-.08-.082-.08-.163a4.783,4.783,0,0,0,2.736-1.631c1.126-1.549.8-3.669.4-6.278-.563-3.343-1.207-7.5.8-12.392A8.293,8.293,0,0,1-65.6-86.706a10.073,10.073,0,0,1,4.506.9,3.629,3.629,0,0,1,1.931,2.038l.08.245.241.163a4.042,4.042,0,0,1,.885,1.06c1.287,1.712,1.287,4.647,1.126,7.337v.571a5.68,5.68,0,0,1-.161,1.06l-.08.9c-.4,4.81-.885,10.272,3.379,11.658a.286.286,0,0,1-.08.163,18.661,18.661,0,0,0-6.356-1.141A6.251,6.251,0,0,1-60.774-63.8Z" transform="translate(89.9 88.5)" fill="#00844b" stroke="#00844b" stroke-miterlimit="10" stroke-width="0.211" fill-rule="evenodd"/>
    <path id="Path_899" data-name="Path 899" d="M-47.883-46h-30.3a.883.883,0,0,0-.921.822v18.6a.883.883,0,0,0,.921.822h30.3a.883.883,0,0,0,.921-.822v-18.6A.883.883,0,0,0-47.883-46ZM-77.259-27.4H-48.8v-16.96H-77.259Z" transform="translate(87.169 81.753)" fill="#00844b" stroke="#00844b" stroke-miterlimit="10" stroke-width="0.211" fill-rule="evenodd"/>
  </g>
</svg>
