<?xml version="1.0" encoding="utf-8"?>
<!-- Generator: Adobe Illustrator 25.1.0, SVG Export Plug-In . SVG Version: 6.00 Build 0)  -->
<svg version="1.1" id="Layer_1" xmlns="http://www.w3.org/2000/svg" xmlns:xlink="http://www.w3.org/1999/xlink" x="0px" y="0px"
	 viewBox="0 0 400 200" style="enable-background:new 0 0 400 200;" xml:space="preserve">
<style type="text/css">
	.st0{fill:#F9F8F7;}
	.st1{fill:#5ABA5A;}
	.st2{fill:#262626;}
</style>
<rect class="st0" width="400" height="200"/>
<polygon class="st1" points="247,102.5 262.1,150.5 221.7,122.7 181.3,150.5 196.4,102.5 156,69.6 204,69.6 221.7,19.1 239.4,69.6 
	287.4,69.6 "/>
<g>
	<g>
		<g>
			<path class="st2" d="M281.8,51.8c0.7,0.7,1,1.5,1,2.3l0.6,41.2c0,1.2-0.6,2.3-1.6,2.9c-1,0.7-2.3,0.7-3.3,0.1l-10.3-5.7l-4.7,0.1
				l-0.1-6.7l5.5-0.1c0.5,0,1.2,0.1,1.7,0.5l6.1,3.2l-0.5-29.7l-5.9,3.4c-0.5,0.3-1,0.5-1.7,0.5l-4.8,0.1l-0.1-6.7l4-0.1l10.1-6
				c1-0.7,2.3-0.7,3.3-0.1C281.3,51.4,281.5,51.6,281.8,51.8z"/>
		</g>
		<g>
			<path class="st2" d="M177.1,62.2l0.1,6.7l-34.3,0.5l0.2,15l24.2-0.4l0.1,6.7l-27.5,0.4c-1.8,0-3.4-1.4-3.4-3.3l-0.3-21.7
				c0-0.8,0.3-1.7,1-2.3c0.7-0.7,1.5-1,2.3-1L177.1,62.2z"/>
		</g>
		<g>
			<path class="st2" d="M132.3,27.4c0.3,0.3,0.7,1,0.9,1.5c0,0.2,0.5,2.2,0.6,6c0.1,8.8-6.4,15.1-6.8,15.3c-0.7,0.5-2.3,2.5-2.1,4.4
				c0,0.3,0,1.7,1.9,3.1c0,0,6.4,5.1,12.7,5l0.1,6.7c-8.8,0.1-16.8-6.2-17.1-6.6c-3.5-2.9-4.3-6.1-4.3-8.1c-0.1-5.2,3.9-8.9,4.4-9.4
				c0,0,4.6-4.4,4.5-10.2c0-0.7,0-1.3,0-1.8l-26.5,0.4c0,0.5,0,1.2,0,1.8c0.1,5.8,4.8,10.1,4.8,10.1c0.5,0.3,4.6,4.1,4.6,9.3
				c0,2.2-0.6,5.2-3.9,8.2c-5.3,4.7-6,9.6-6.2,10.4l0.2,14.8c0.3,20.2,17.4,33.6,23.4,37.6l2.1-2.2c-6.6-7.4-6.8-18.6-6.8-19.1
				c-0.2-13.5,13.2-19,20.5-20.2l1.1,6.6c-0.7,0.2-15,2.6-14.8,13.6c0,0.2,0.2,11.3,6.9,16.4c0.8,0.7,1.2,1.5,1.4,2.5
				c0,1-0.3,1.8-1,2.5l-6.4,6.6c-1,1-2.6,1.4-4,0.6c-1.2-0.6-28.6-16.4-29-44.7l-0.2-15c0-0.2,0-0.2,0-0.3c0-0.3,0.7-8,8.4-15
				c1.8-1.5,1.8-2.9,1.8-3.2c0-1.8-1.7-3.8-2.4-4.3c-0.3-0.2-7.1-6.2-7.2-15.1c-0.1-4.7,0.2-6,0.7-6.7c0.5-1.2,1.6-1.9,3-1.9
				l32.3-0.5C130.7,26.6,131.6,26.9,132.3,27.4z M100.8,31.4L100.8,31.4L100.8,31.4z"/>
		</g>
	</g>
	<g>
		<g>
			<g>
				<path class="st2" d="M193,64.2l-1.2,6.5c-0.2,0-7-0.9-10.8,10.7c-4.1,12.4,1.3,29.1,2.3,31.8l11.1,16.7c0.3,0.5,0.5,1.2,0.5,1.8
					l0,8.2l-6.7-0.1l0.1-7l-10.8-16.2c-0.2-0.2-0.3-0.5-0.3-0.7c-0.3-0.8-7.7-21-2.4-36.6C180.3,62,192.5,64,193,64.2z"/>
			</g>
			<g>
				
					<rect x="201.4" y="64" transform="matrix(1.038552e-03 -1 1 1.038552e-03 141.2012 276.0134)" class="st2" width="14.7" height="6.7"/>
			</g>
		</g>
		<g>
			<g>
				<path class="st2" d="M224.7,47.3c0.2,0.2,0.2,0.2,0.3,0.3c2.2,2.3,3.2,5.1,3.3,8.3l-6.7-0.1c0-1.3-0.5-2.7-1.4-3.6
					s-2.2-1.5-3.4-1.4c-2.7,0-4.8,2.2-4.9,5.1L212,74l-6.7-0.1l0.1-18.2c0.1-6.5,5.2-11.7,11.5-11.8
					C219.9,44.1,222.7,45.2,224.7,47.3z"/>
			</g>
			<g>
				<rect x="221.7" y="55.8" class="st2" width="6.7" height="20.3"/>
			</g>
		</g>
		<g>
			<g>
				<path class="st2" d="M241.1,50.9c2.2,2.1,3.6,5.3,3.6,8.6l-6.7-0.1c0-2.8-2.1-5.1-4.9-5.1c-1.3,0-2.5,0.5-3.3,1.4
					c-1,1-1.5,2.2-1.4,3.7l-6.7-0.1c0-3.2,1.2-6,3.4-8.2c2.1-2.2,5.1-3.4,8.1-3.5C236.3,47.8,239.1,48.9,241.1,50.9z"/>
			</g>
			<g>
				
					<rect x="233.1" y="64.5" transform="matrix(1.012098e-03 -1 1 1.012098e-03 173.3631 309.1717)" class="st2" width="16.7" height="6.7"/>
			</g>
		</g>
		<g>
			<g>
				<path class="st2" d="M257.4,55.8c2.2,2.1,3.6,5.3,3.6,8.6l-6.7-0.1c0-2.8-2.1-5.1-4.9-5.1c-1.3,0-2.5,0.5-3.3,1.4
					c-1,1-1.5,2.2-1.4,3.7l-6.7-0.1c0-3.2,1.2-6,3.4-8.2c2.1-2.2,5.1-3.4,8.1-3.5C252.7,52.6,255.3,53.7,257.4,55.8z"/>
			</g>
			<g>
				<path class="st2" d="M261,64.3l-0.1,56c0,0.5-0.2,1-0.3,1.5l-6.5,12.4l-0.1,6.7l-6.7-0.1l0-7.5c0-0.5,0.2-1,0.3-1.5l6.5-12.4
					l0-55.2L261,64.3z"/>
			</g>
		</g>
		<g>
			<path class="st2" d="M264.5,137.4c0.7,0.7,1,1.5,1,2.3l0,20.2l-6.7-0.1l0.1-16.8l-72.8,0l-0.1,16.8l-6.7-0.1l0-20.2
				c0-1.8,1.4-3.4,3.3-3.4l79.5,0.1C263,136.6,263.8,136.9,264.5,137.4z"/>
		</g>
		<g>
			
				<rect x="238.6" y="142.3" transform="matrix(1.000980e-03 -1 1 1.000980e-03 89.6318 393.7833)" class="st2" width="6.7" height="19.5"/>
		</g>
		<g>
			<path class="st2" d="M227.5,149.6c0.2,0.2,0.3,0.3,0.3,0.5c0.2,0.2,0.2,0.3,0.3,0.5c0,0.2,0.2,0.3,0.2,0.7c0,0.2,0,0.5,0,0.7
				c0,0.8-0.3,1.7-1,2.3c-0.7,0.7-1.5,1-2.3,1c-0.2,0-0.5,0-0.7,0c-0.2,0-0.5-0.2-0.7-0.2c-0.2,0-0.3-0.2-0.5-0.3
				c-1-0.7-1.5-1.6-1.5-2.8c0-0.8,0.3-1.7,1-2.3c0.7-0.7,1.5-1,2.3-1C226,148.6,226.8,149,227.5,149.6z"/>
		</g>
		<g>
			<path class="st2" d="M208.5,51.4c2.2,2.1,3.6,5.3,3.6,8.6l-6.7-0.1c0-2.8-2.2-5.1-4.9-5.1c-2.7,0-4.8,2.2-4.9,5.1l-0.1,25.2
				c0,0.2,0,0.3,0,0.3l-1,8.3l-6.7-0.7l1-8l-0.1-25c0.1-6.5,5.2-11.7,11.5-11.8C203.6,48.3,206.4,49.4,208.5,51.4z"/>
		</g>
	</g>
</g>
</svg>
