<?xml version="1.0" encoding="utf-8"?>
<!-- Generator: Adobe Illustrator 25.3.1, SVG Export Plug-In . SVG Version: 6.00 Build 0)  -->
<svg version="1.1" id="Ñëîé_1" xmlns="http://www.w3.org/2000/svg" xmlns:xlink="http://www.w3.org/1999/xlink" x="0px" y="0px"
	 viewBox="0 0 3000 1765" style="enable-background:new 0 0 3000 1765;" xml:space="preserve">
<style type="text/css">
	.st0{fill:#FFFFFF;}
	.st1{fill:#F5E9D3;}
	.st2{opacity:0.6;fill:#EDCCAD;}
	.st3{fill:#FF5B97;}
	.st4{fill:#B82952;}
	.st5{fill:#2A1E68;}
	.st6{fill:#452B99;}
	.st7{opacity:0.6;clip-path:url(#SVGID_2_);fill:#D1B499;}
	.st8{clip-path:url(#SVGID_2_);}
	.st9{fill:#FBAA00;}
	.st10{fill:#B2563D;}
	.st11{fill:#93412B;}
	.st12{fill:#1F143F;}
	.st13{fill:#FFD64A;}
	.st14{fill:#DEE4F6;}
	.st15{opacity:0.3;fill:#DEE4F6;}
</style>
<g>
	<rect class="st0" width="3000" height="1765"/>
	<g>
		<path class="st1" d="M883.93,1427.82c-171.44-105.87-285.69-295.47-285.69-511.76c0-331.96,269.1-601.06,601.06-601.06
			c179.92,0,341.38,79.06,451.53,204.33c47.91-12.29,98.12-18.83,149.86-18.83c331.96,0,601.06,269.1,601.06,601.06
			c0,120.28-35.34,232.3-96.18,326.26H883.93z"/>
		<path class="st2" d="M972.84,597.61c-7.45,0-13.48,6.04-13.48,13.48v21.86v7.27v790.81h7.54h14.35h623.98V653.71v-20.76v-35.34
			H972.84z"/>
		<g>
			<rect x="1000.13" y="592.17" class="st3" width="645.88" height="833.58"/>
			<path class="st4" d="M1018.47,556.83H1646v56.1h-627.54c-10.13,0-18.34-8.21-18.34-18.34v-19.43
				C1000.13,565.04,1008.34,556.83,1018.47,556.83z"/>
			<rect x="1007.67" y="604.6" class="st4" width="14.35" height="821.16"/>
			<path class="st0" d="M1013.13,604.6h606.89c-3.68-11.27-3.68-22.54,0-33.8h-606.89V604.6z"/>
			<g>
				
					<ellipse transform="matrix(0.7071 -0.7071 0.7071 0.7071 -168.0468 1176.1882)" class="st0" cx="1335.76" cy="790.94" rx="64.95" ry="64.95"/>
				<polygon class="st0" points="1394.22,1192.15 1394.22,909.36 1394.22,897.86 1273.81,897.86 1228.84,897.86 1228.84,909.36 
					1273.81,909.36 1273.81,1192.15 1273.81,1203.64 1394.22,1203.64 1439.18,1203.64 1439.18,1192.15 				"/>
			</g>
		</g>
		<path class="st0" d="M1816.01,735.91c0-24.39-12.2-36.59-36.59-36.59c24.39,0,36.59-12.2,36.59-36.59
			c0,24.39,12.2,36.59,36.59,36.59C1828.2,699.32,1816.01,711.52,1816.01,735.91z"/>
		<path class="st0" d="M1184.81,479.74c0-16.64-8.32-24.95-24.95-24.95c16.64,0,24.95-8.32,24.95-24.95
			c0,16.64,8.32,24.95,24.95,24.95C1193.13,454.78,1184.82,463.1,1184.81,479.74z"/>
		<path class="st0" d="M789.93,899.83c0-11.55-5.78-17.33-17.33-17.33c11.55,0,17.33-5.78,17.33-17.33
			c0,11.55,5.78,17.33,17.33,17.33C795.71,882.5,789.93,888.28,789.93,899.83z"/>
		<path class="st5" d="M2454.89,1437.88c0,3.35-1.36,6.38-3.55,8.57c-2.2,2.2-5.23,3.55-8.58,3.55H557.24
			c-6.7,0-12.12-5.42-12.12-12.12c0-3.35,1.36-6.38,3.55-8.58c2.2-2.2,5.23-3.55,8.58-3.55h1885.52
			C2449.46,1425.76,2454.89,1431.19,2454.89,1437.88z"/>
		<path class="st6" d="M1046.41,1156.23c-2.15-2.21-4.42-3.88-6.76-5.12l0.01,0c0,0-13.22-12-29.97-7.65
			c-12.78,3.32-16.09,16.98-16.94,23.27c-6.47,3.29-22.35,13.2-36.58,36.81c-0.34,0.57-0.67,1.15-1,1.72
			c-0.8,0.46-1.61,0.94-2.43,1.44c-0.11,1.15-0.16,2.2-0.14,3.16c-8.12,15.25-14.06,33.15-17.7,53.36
			c-0.08-0.06-0.17-0.12-0.25-0.18c-0.16-6.48-0.31-13.21-0.45-20.19c-1.11-57.5,3.09-81.03,6.44-90.61
			c1.51,0.89,3.12,1.73,4.84,2.49c25.78,11.34,28.94,19.25,28.94,19.25s13.32-11.6,8.83-41.27c-4.48-29.67-36.79-20.57-41.4-10.29
			c-22.4-6.93-22.4,15.91-3.02,28.7c-3.71,10.18-7.81,34.36-6.7,91.77c0.13,6.53,0.27,12.83,0.42,18.92
			c-0.21-0.11-0.44-0.21-0.66-0.31c-1.57-12.92-3.21-23.91-4.82-33.21c1.26-5.75,0.03-11.62-3.03-15.82
			c-0.52-2.46-1.04-4.75-1.53-6.87c-3.63-15.43-7.01-24.26-9.34-29.12c0.45-2.3,6.31-35.74-29.08-39.43
			c-22.84-2.38-38.56,14.22-47.17,27.08c-9.57,9.86-11.16,20.57-11.16,20.57c34.55-25.69,73.85-13.38,84.56-9.26
			c2.2,4.08,6.11,13.14,10.35,31.35c0.21,0.9,0.42,1.83,0.64,2.79c-5.6-4.52-14.48-4.73-24.74,4.5
			c-1.23-3.52-5.24-12.55-14.72-15.18c-11.53-3.2-32.75,6.29-22.85,47.07c-5.94,0.04-10.51,1.1-12.88,1.79
			c-1.84-4.25-7.44-12.99-21.59-10.04c-18.46,3.84-23.91,47.56-23.91,47.56c14.24-31.65,46.28-35.34,46.28-35.34
			s-0.07-0.27-0.22-0.72c2.35-0.67,6.89-1.68,12.7-1.69c0.18,0.71,0.37,1.42,0.57,2.15c6.2,18.33,16.88,29.54,16.88,29.54
			s5.41-8.93,15.9-19.06c5.9,4.94,11.84,11.77,17.35,21.16c-0.12,3.43,0.04,7.08,0.42,10.77c-1.67-0.87-3.38-1.56-5.14-2.07
			c-12.74-3.72-24.52,3.09-29.3,6.47c-0.39-2.54-2.16-6.48-9.34-6.33c-10.55,0.23-21.8,22.2-21.8,46.73c0,0,20.04-10.81,37.01-16.7
			c14.84-5.15,9.71-23.54-3.69-23.32c5.18-3.38,15.58-8.62,26.7-5.36c1.99,0.58,3.92,1.41,5.78,2.47
			c1.36,11.04,4.65,22.21,8.57,28.85c0,0,3.87-2.92,9.34-7.61c0.68,1.37,1.34,2.8,1.99,4.29c0.17,14.99,1.24,30.8,3.22,47.37h-19.99
			c0,52.74,11.08,58.9,16.18,58.9c5.1,0,10.55,0,10.55,0s5.45,0,10.55,0c5.1,0,16.18-6.15,16.18-58.9h-23.5
			c1.11-34.54,10.53-58.73,28.01-71.94c9.25,8.86,26.44,14.36,26.44,14.36s6.24-14.41,5.4-25.43c7.24-0.41,13.52,0.34,17.61,1.07
			c0.04,1.09,0.56,2.17,1.58,2.85c6.64,4.41,18.4,15.05,21.55,36.37c0,0,7.52-60.32-21.49-42.32c-0.64,0.4-1.09,0.96-1.36,1.58
			c-4.2-0.75-10.64-1.51-18.06-1.08c-0.6-4.12-2.34-7.61-6.02-9.43c-10.22-5.08-15.79,1.46-17.94,5.05
			c-5.46-3.94-10.25-3.59-12.39,1.19c-2.45,5.46-0.4,10.43,3.59,14.69c-17.77,13.54-27.34,38.09-28.46,73.05h-1.68h-0.7
			c-0.39-9.28-0.82-18.12-1.29-26.54c1.35-14.34,2.75-27.04,4.16-38.27c3.96-4.04,7.88-8.42,11.28-12.9
			c9.29-12.22,3.41-20.49-6.08-22.42c4.75-27.29,9.05-39.79,11.32-44.99c3.83,3.19,9.45,7.12,17.25,13.89
			c18.88,16.37,55.65,28.92,55.65,28.92s-11.49-93.13-73.44-61.22c12.81-20.68,27.03-30.37,33.76-34.08
			c-0.03,0.45-0.04,0.7-0.04,0.7s49.57-15.3,72.07,41.49C1064.52,1211.44,1067.16,1177.5,1046.41,1156.23z M937.18,1366.86h-0.89
			c0.16-2.04,0.32-4.06,0.49-6.04C936.91,1362.95,937.05,1364.97,937.18,1366.86z M932.7,1311.63c0.47-0.42,0.95-0.85,1.43-1.3
			c0.23,5.48,0.46,10.67,0.69,15.57c-0.68-1.88-1.39-3.7-2.12-5.44C932.67,1317.46,932.67,1314.52,932.7,1311.63z M929.72,1260.75
			c-1.43-0.39-3-0.59-4.73-0.52c-3.3-8.42-6.22-14.03-8.48-17.67c4.46-2.7,7.45-6.26,9.18-10.08
			C927.04,1240.63,928.4,1250.01,929.72,1260.75z M893.86,1259.08c5.6-5.27,12.57-10.78,20.84-15.48c2.14,3.45,4.96,8.79,8.15,16.85
			c-1.34,0.22-2.76,0.6-4.26,1.18c-5.15,2.01-7.67,8.62-8.35,16.94C905.01,1270.08,899.42,1263.77,893.86,1259.08z M930.6,1313.5
			c0,0.74-0.01,1.48-0.01,2.23c-0.25-0.53-0.5-1.05-0.76-1.56C930.08,1313.95,930.34,1313.73,930.6,1313.5z M935.09,1331.47
			c0.34,6.89,0.69,13.15,1.02,18.79c-0.3,3.43-0.6,6.95-0.89,10.56c-1.38-12.81-2.16-24.78-2.43-35.96
			C933.59,1326.96,934.35,1329.17,935.09,1331.47z M936.44,1308.2c1.47-1.38,2.97-2.82,4.48-4.32c-0.99,8.06-1.97,16.86-2.94,26.46
			C937.5,1322.58,936.99,1315.21,936.44,1308.2z M946.34,1266.47c-2.44-0.3-5.06-0.21-7.69,0.32c-0.48-0.59-1.1-1.28-1.86-1.99
			c3.81-21.79,9.84-38.57,16.25-51.3c0.72,2.74,2.31,4.8,4.96,7.16C955.65,1225.75,951.23,1238.21,946.34,1266.47z"/>
		<g>
			<path class="st6" d="M2277.09,1128.42c0,0,53.76-2.09,86.57,38.4c0,0-2.79-32.23-25.13-51.32
				C2316.19,1096.42,2280.58,1114.11,2277.09,1128.42z"/>
			<path class="st6" d="M2245.94,1208.86c0,0-92.39,0-125.44,35.61c0,0,5.12-44.22,47.24-56.32
				C2209.87,1176.05,2245.94,1208.86,2245.94,1208.86z"/>
			<path class="st6" d="M2282.37,1078.25c0,0,29.12-18.09,59.95-5.81c0,0-19.61-22.2-42.92-17.56
				C2276.1,1059.52,2282.37,1078.25,2282.37,1078.25z"/>
			<path class="st6" d="M2213.04,1042.64c0,0-53.58-10.65-75.58,5.06c0,0,18.85-31.24,53.76-28.8
				C2226.13,1021.35,2213.04,1042.64,2213.04,1042.64z"/>
			<path class="st6" d="M2277.44,1036.81c0,0,38.68-17.47,62.8-20.08c0,0-35.89-10.29-46.11-2.5S2277.44,1036.81,2277.44,1036.81z"
				/>
			<path class="st6" d="M2239.35,1016.37c0,0-27.55-15.42-45.25-18.9c0,0,27.25-5.33,34.33,1.1
				C2235.51,1004.99,2239.35,1016.37,2239.35,1016.37z"/>
			<path class="st6" d="M2282.74,1184.85c0,0,31.26-14.96,61.22-5.99c0,0-14.88-23.69-34.55-19.7
				C2289.75,1163.16,2283.98,1173.83,2282.74,1184.85z"/>
			<path class="st6" d="M2238.25,1089.96c0,0-41-3.4-70.44,19.22c0,0,6.5-32.57,30.01-36.45
				C2221.32,1068.85,2232.22,1078.25,2238.25,1089.96z"/>
			<path class="st6" d="M2237.3,1257.15c0,0,9.95,9.6,7.16,24.61c-2.79,15.01-39.62,26.88-57.77,24.96
				C2186.68,1306.72,2188.95,1229.75,2237.3,1257.15z"/>
			<path class="st6" d="M2293.93,1235.2c0,0,10.12,8.15,23.04,3.49s20.01-23.39,20.01-23.39S2263.79,1199.36,2293.93,1235.2z"/>
			<path class="st6" d="M2282.12,1270.3c0,0-6.17,7.33-0.81,16.41c5.35,9.08,36.65,17.8,36.65,17.8s3.72-24.32-2.79-30.37
				C2308.65,1268.09,2286.78,1262.39,2282.12,1270.3z"/>
			<path class="st6" d="M2236.57,1132.62c14.31-1.16,37.58-4.42,34.15,7.33s-45.67,29.9-45.67,29.9s-46.08-27.11-32.46-37.12
				C2206.2,1122.72,2236.57,1132.62,2236.57,1132.62z"/>
			<path class="st6" d="M2248.75,1006.1c-12.59-6.4-17.56-36.8,4.52-49.04c22.08-12.24,46.04-8.89,46.04-8.89
				s-10.64,29.55-12.49,39.99C2284.96,998.61,2273.19,1018.53,2248.75,1006.1z"/>
			<g>
				<rect x="2253.06" y="1003.49" class="st6" width="2.7" height="333.72"/>
			</g>
			<g>
				<path class="st6" d="M2253.6,1076.13c-16.18-21.2-43.07-34.84-43.34-34.98l0.91-1.81c0.27,0.14,27.57,13.98,44.04,35.56
					L2253.6,1076.13z"/>
			</g>
			<g>
				<path class="st6" d="M2255.3,1288l-1.79-0.95c7.06-13.28,29.92-14.01,30.89-14.03l0.05,2.02
					C2284.22,1275.04,2261.8,1275.76,2255.3,1288z"/>
			</g>
			<g>
				<path class="st6" d="M2232.93,1261.39l-1.74-1.03c0.21-0.36,5.27-8.79,12.94-10.15c3.73-0.66,7.4,0.47,10.92,3.36l-1.28,1.56
					c-3.03-2.5-6.15-3.48-9.27-2.94C2237.74,1253.39,2232.98,1261.31,2232.93,1261.39z"/>
			</g>
			<g>
				<path class="st6" d="M2253.55,1220.87c-7.45-11.71-11.11-12.04-11.15-12.04l-0.09-2.02c0.75-0.05,4.88,0.3,12.94,12.97
					L2253.55,1220.87z"/>
			</g>
			<g>
				<path class="st6" d="M2255.18,1246.52l-1.54-1.31c14.65-17.32,34.16-25.74,34.35-25.82l0.79,1.86
					C2288.58,1221.33,2269.5,1229.58,2255.18,1246.52z"/>
			</g>
			<g>
				<path class="st6" d="M2255.3,1062.83l-1.8-0.93c8.64-16.69,28.05-29,28.87-29.52l1.07,1.71
					C2283.26,1034.21,2263.68,1046.63,2255.3,1062.83z"/>
			</g>
			<g>
				<path class="st6" d="M2255.28,1106.85l-1.76-1c11.18-19.68,29.52-30.3,29.7-30.4l1,1.76
					C2284.05,1077.31,2266.18,1087.67,2255.28,1106.85z"/>
			</g>
			<g>
				<path class="st6" d="M2253.72,1101.74c-8.78-8.16-20.87-13.14-20.99-13.19l0.76-1.87c0.51,0.21,12.55,5.17,21.6,13.58
					L2253.72,1101.74z"/>
			</g>
			<g>
				<path class="st6" d="M2255.3,1150.98l-1.79-0.95c8.17-15.37,28.86-26.48,29.74-26.95l0.95,1.79
					C2283.99,1124.98,2263.17,1136.16,2255.3,1150.98z"/>
			</g>
			<g>
				<path class="st6" d="M2255.13,1203.86l-1.46-1.4c12.05-12.51,31.03-20.74,31.22-20.82l0.8,1.86
					C2285.51,1183.57,2266.89,1191.65,2255.13,1203.86z"/>
			</g>
			<path class="st6" d="M2303.12,1321.03h-48.72h-48.72c0,0,5.43,104.72,28.82,104.72h19.9h19.9
				C2297.69,1425.76,2303.12,1321.03,2303.12,1321.03z"/>
			<g>
				<path class="st6" d="M2253.45,1040.13c-4.92-13.69-17.78-26.31-17.91-26.44l1.41-1.45c0.54,0.53,13.32,13.07,18.4,27.2
					L2253.45,1040.13z"/>
			</g>
		</g>
		<g>
			<path class="st4" d="M1721.81,1425.76h-354.14c-13.81,0-25-11.19-25-25v-113.99c0-13.81,11.19-25,25-25h354.14l-24.36,13.54
				l-0.66,135.46L1721.81,1425.76z"/>
			<path class="st3" d="M2063.99,1279.24v-17.48h-354.14c-13.81,0-25,11.19-25,25v113.99c0,13.81,11.19,25,25,25h354.14v-17.48
				h-359.62v-129.04H2063.99z"/>
			<rect x="1704.37" y="1279.24" class="st0" width="348.27" height="129.04"/>
			<rect x="1708.32" y="1389.19" class="st2" width="344.32" height="1.98"/>
			<rect x="1779.42" y="1338.49" class="st2" width="273.22" height="6.91"/>
			<rect x="1726.09" y="1299.98" class="st2" width="326.54" height="2.96"/>
			<rect x="1893.31" y="1318.09" class="st2" width="159.32" height="1.65"/>
			<rect x="1826.82" y="1366.15" class="st2" width="225.81" height="2.3"/>
		</g>
		<g>
			<defs>
				<polygon id="SVGID_1_" points="1757.26,1261.76 1454.87,1261.76 1360.41,955.1 1588.15,709.42 1755.93,698 2074.57,999.1 
					2153.22,1425.76 1887.86,1425.76 				"/>
			</defs>
			<clipPath id="SVGID_2_">
				<use xlink:href="#SVGID_1_"  style="overflow:visible;"/>
			</clipPath>
			<path class="st7" d="M2113.78,1457.79c0-31.92-25.87-57.79-57.79-57.79c-11.54,0-22.28,3.4-31.3,9.23
				c-1.77-5.24-4.45-10.27-8.09-14.85l-17.97-22.64l-156.27-196.87c-14.72-18.55-40.56-24-61.52-12.99l-23.81,12.51
				c-10.9-13.39-27.65-19.76-44.02-17.82l0.66-0.35l0,0h125.74h79.87l26.34-77.43c17.83-7.36,30.39-24.9,30.39-45.39
				c0-8.95-2.41-17.34-6.59-24.56l5.05-14.84h-18.27c-8.17-6.08-18.3-9.68-29.27-9.68s-21.1,3.6-29.27,9.68h-144.62h-12.04
				l-6.77,19.91l-62.68-26.71c-6.94-7.57-15.05-14.05-24.05-19.15l-3.12-3.12v-4.08c25.51-11.02,43.36-36.4,43.36-65.96
				c0-8.52-1.49-16.69-4.21-24.27h1.15c17.23,0,31.19-13.97,31.19-31.19v-1.33c0-16.35-12.57-29.75-28.58-31.08
				c0.28-2.08,0.44-4.19,0.44-6.35c0-25.67-20.81-46.48-46.48-46.48c-19.35,0-35.93,11.82-42.93,28.63
				c-2.38-0.75-4.91-1.16-7.54-1.16c-13.78,0-24.95,11.17-24.95,24.95c0,0.1,0.01,0.19,0.01,0.29c0,0,0,0-0.01,0
				c-22.23,0-40.25,18.02-40.25,40.25c0,8.65,2.73,16.65,7.37,23.21c-4.59,5.17-7.37,11.97-7.37,19.42c0,13.8,9.55,25.37,22.4,28.47
				c4.23,12.31,11.71,23.1,21.42,31.36c-2.92,0.39-5.74,1.7-7.99,3.94c-3.08,3.08-4.42,7.25-4.01,11.27
				c-10.47,4.98-19.92,11.76-27.94,19.95c-7.28,2.7-13.8,7.62-18.45,14.57l-55.43,82.94c-6.18,9.24-8.02,20.72-5.05,31.43
				c2.97,10.71,10.46,19.6,20.52,24.34l30.44,14.35v26.87v52.51v14.2v47.86c0,27.61,22.38,49.99,49.99,49.99h47.86
				c8.05,0,15.88-0.98,23.37-2.82c0,0,0.01,0,0.01,0c11.72,3.32,24.68,2.32,36.32-3.8l71.56-37.59l86.72,109.25l37.15,46.8
				c0.57,0.72,1.16,1.42,1.76,2.09v0.32h56.13c0,0,0,0,0,0h115.57c0-0.1-0.01-0.2-0.01-0.3H2113.78z M1697.18,1122.75v-2.79v-38.79
				l12.35,5.26L1697.18,1122.75z"/>
			<g class="st8">
				<path class="st5" d="M1973.7,1382.98h75.54c10.21-9.08,23.65-14.6,38.38-14.6c31.92,0,57.79,25.87,57.79,57.79h-115.57
					c0,0,0,0,0,0h-56.13V1382.98z"/>
				<g>
					<g>
						<g>
							<path class="st5" d="M1624.11,1284.88c1.56,2.97,3.37,5.7,5.42,8.2c6.5,8.02,15.25,13.6,24.81,16.3
								c11.72,3.32,24.68,2.32,36.32-3.8l71.56-37.59l59.94-31.49l82.24,103.61l62.5,78.74l4.12,5.19c0.58,0.72,1.17,1.43,1.77,2.1
								h73.68c15.64-17.56,16.88-44.34,1.76-63.4l-17.97-22.64l-156.27-196.87c-14.72-18.55-40.56-24-61.52-12.99l-23.81,12.51
								l-59.85,31.44l-4.32,2.26l-79.67,41.86c-11.29,5.93-19.31,15.62-23.36,26.71
								C1616.85,1257.64,1617.38,1272.07,1624.11,1284.88z"/>
						</g>
						<g>
							<path class="st9" d="M1802.86,1077.77c-5.12,0-10.21-1.03-14.97-3.06l-118.84-50.63c-19.41-8.27-28.44-30.7-20.17-50.11
								c8.27-19.41,30.71-28.44,50.11-20.17l107.63,45.86l112.08-24.44c20.61-4.49,40.96,8.57,45.46,29.18
								c4.49,20.61-8.57,40.96-29.18,45.46L1811,1076.89C1808.31,1077.48,1805.59,1077.77,1802.86,1077.77z"/>
						</g>
						<g>
							<g>
								<path class="st6" d="M1630.96,1312.2c54.04,0,97.85-43.81,97.85-97.85v-126.02c0-54.04-43.81-97.85-97.85-97.85
									s-97.85,43.81-97.85,97.85v126.02C1533.11,1268.39,1576.92,1312.2,1630.96,1312.2z"/>
							</g>
						</g>
						<g>
							<path class="st9" d="M1630.96,1245.49c54.04,0,97.85-43.81,97.85-97.85v-126.02c0-54.04-43.81-97.85-97.85-97.85
								s-97.85,43.81-97.85,97.85v126.02C1533.11,1201.68,1576.92,1245.49,1630.96,1245.49z"/>
						</g>
						<g>
							<path class="st0" d="M1680.55,971.51c-3.57,0-7.13-1.36-9.85-4.08l-25.8-25.8c-5.44-5.44-5.44-14.27,0-19.71
								c5.44-5.44,14.27-5.44,19.71,0l25.8,25.8c5.44,5.44,5.44,14.27,0,19.71C1687.68,970.15,1684.11,971.51,1680.55,971.51z"/>
						</g>
						<g>
							<g>
								<path class="st10" d="M1619.06,919.61v21.38c0,14.94,11.47,27.15,26.1,28.32c0.78,0.08,1.56,0.12,2.34,0.12
									c15.76,0,28.48-12.72,28.48-28.44v-21.38c0-15.72-12.72-28.44-28.48-28.44C1631.78,891.17,1619.06,903.88,1619.06,919.61z"
									/>
							</g>
						</g>
						<path class="st11" d="M1619.06,923.78v17.2c0,14.94,11.47,27.15,26.1,28.32v-45.53H1619.06z"/>
						<circle class="st10" cx="1647.52" cy="863.26" r="71.82"/>
						<path class="st11" d="M1647.52,791.44c3.71,0,7.32,0.37,10.87,0.91c-34.49,5.25-60.95,34.95-60.95,70.91
							c0,35.96,26.46,65.66,60.95,70.91c-3.56,0.54-7.17,0.91-10.87,0.91c-39.66,0-71.82-32.15-71.82-71.82
							C1575.7,823.6,1607.86,791.44,1647.52,791.44z"/>
						<g>
							<path class="st0" d="M1628.67,971.51c-3.57,0-7.13-1.36-9.85-4.08l-25.8-25.8c-5.44-5.44-5.44-14.27,0-19.71
								c5.44-5.44,14.27-5.44,19.71,0l25.8,25.8c5.44,5.44,5.44,14.27,0,19.71C1635.81,970.15,1632.24,971.51,1628.67,971.51z"/>
						</g>
						<circle class="st12" cx="1597.45" cy="815.53" r="40.25"/>
						<path class="st12" d="M1615.78,838.99h99.84c17.6,0,31.86-14.26,31.86-31.86v0c0-17.6-14.26-31.86-31.86-31.86h-99.84V838.99z
							"/>
						
							<ellipse transform="matrix(0.7071 -0.7071 0.7071 0.7071 -53.8295 1408.139)" class="st12" cx="1672.86" cy="769.05" rx="46.48" ry="46.48"/>
						<circle class="st12" cx="1622.4" cy="774.99" r="24.95"/>
						
							<ellipse transform="matrix(0.7071 -0.7071 0.7071 0.7071 -142.1414 1373.1636)" class="st12" cx="1586.48" cy="858.16" rx="29.29" ry="29.29"/>
						<circle class="st10" cx="1600.63" cy="861.1" r="22.11"/>
						<path class="st12" d="M1624.6,870.11L1624.6,870.11c3.06,0,5.54-2.48,5.54-5.54v-25.57h-11.08v25.57
							C1619.06,867.63,1621.54,870.11,1624.6,870.11z"/>
						<circle class="st12" cx="1634.2" cy="846.28" r="15.14"/>
						<g>
							<path class="st13" d="M1657,1175.17c-5.46,0-11-1.17-16.26-3.66l-138.07-65.08c-10.06-4.74-17.55-13.63-20.52-24.34
								c-2.97-10.71-1.13-22.19,5.05-31.43l55.43-82.94c11.72-17.54,35.44-22.25,52.98-10.53c17.54,11.72,22.25,35.44,10.53,52.98
								l-30.79,46.07l97.96,46.18c19.08,9,27.26,31.76,18.26,50.84C1685.06,1167.07,1671.33,1175.17,1657,1175.17z"/>
						</g>
						<circle class="st10" cx="1661.41" cy="1136.96" r="49.09"/>
						<circle class="st10" cx="1958.54" cy="1001.77" r="49.09"/>
						<path class="st6" d="M1630.96,1312.2h-47.86c-27.61,0-49.99-22.38-49.99-49.99v-62.05L1630.96,1312.2z"/>
						<g>
							<path class="st6" d="M1539.18,1284.88c11.9,22.64,38.94,32.2,62.15,22.75c1.48-0.6,2.96-1.28,4.39-2.04l13.35-7.01l10.46-5.5
								l94.95-49.87l12.75-6.7l25,31.49l86.72,109.25l37.15,46.8c0.58,0.72,1.17,1.43,1.77,2.1h73.68c2.04-2.29,3.83-4.73,5.37-7.3
								c10.32-17.11,9.54-39.53-3.61-56.1l-17.97-22.64l-156.27-196.87c-0.13-0.16-0.26-0.33-0.39-0.48
								c-14.48-17.8-39.32-23.21-59.85-13.15c-0.42,0.21-0.85,0.43-1.28,0.64l-17.09,8.98l-74.99,39.39l-73.34,38.53l-2.22,1.17
								c-2.5,1.31-4.83,2.8-7,4.47c-7.01,5.33-12.28,12.32-15.53,20.12C1531.87,1256,1532.06,1271.34,1539.18,1284.88z"/>
						</g>
					</g>
					<g>
						<polygon class="st0" points="1717.42,1124.6 1950.9,1124.6 2006.08,962.37 1772.6,962.37 1720.71,1114.94 						"/>
						
							<ellipse transform="matrix(0.754 -0.6569 0.6569 0.754 -227.4417 1479.6555)" class="st14" cx="1861.75" cy="1043.48" rx="15.68" ry="11.15"/>
						<path class="st0" d="M1605.5,1175.22l130.54-68.3l9.25,17.68l-130.54,68.3c-4.88,2.55-10.91,0.67-13.46-4.21h0
							C1598.73,1183.8,1600.62,1177.77,1605.5,1175.22z"/>
					</g>
					<path class="st15" d="M1783.61,962.63c0,0,6.27,105.25,87.42,161.96h79.87l55.18-162.23h-221.44L1783.61,962.63z"/>
				</g>
				<path class="st5" d="M1887.85,1383.28h75.54c10.21-9.08,23.65-14.6,38.38-14.6c31.92,0,57.79,25.87,57.79,57.79h-115.57
					c0,0,0,0,0,0h-56.13V1383.28z"/>
			</g>
		</g>
		<rect x="1394.68" y="578.12" class="st2" width="223.48" height="1.61"/>
		<rect x="1077.4" y="592.17" class="st2" width="540.06" height="2.03"/>
	</g>
</g>
</svg>
