<?xml version="1.0" encoding="utf-8"?>
<!-- Generator: Adobe Illustrator 25.2.2, SVG Export Plug-In . SVG Version: 6.00 Build 0)  -->
<svg version="1.1" id="Layer_1" xmlns="http://www.w3.org/2000/svg" xmlns:xlink="http://www.w3.org/1999/xlink" x="0px" y="0px"
	 viewBox="0 0 5900 3540" style="enable-background:new 0 0 5900 3540;" xml:space="preserve">
<style type="text/css">
	.st0{fill:#FED5CF;}
	.st1{fill:#FEC1BC;}
	.st2{fill:#E39E98;}
	.st3{fill:#A5ADBA;}
	.st4{fill:#8993A4;}
	.st5{fill:#253858;}
	.st6{fill:#FFFFFF;}
	.st7{fill:#172B4D;}
	.st8{fill:#F05448;}
	.st9{fill:#173782;}
	.st10{fill:#4377CD;}
	.st11{fill:#7596CD;}
	.st12{fill:#FFB69E;}
	.st13{fill:#F68A73;}
	.st14{fill:#DFE1E5;}
	.st15{fill:#122B66;}
	.st16{fill:#262D4F;}
	.st17{fill:#1C2139;}
	.st18{fill:#594E8A;}
	.st19{fill:#3C68B8;}
	.st20{fill:#974034;}
	.st21{fill:#662C24;}
	.st22{fill:#260E14;}
	.st23{fill:#4376CF;}
	.st24{fill:#F6F6F6;}
	.st25{fill:#091E42;}
	.st26{fill:#E84438;}
	.st27{fill:#FE584C;}
	.st28{fill:#F4F5F7;}
</style>
<g>
	<rect class="st0" width="5900" height="3540"/>
	<path class="st1" d="M359.69,2977.36c-61.18-2.35-107.94-7.74-107.94-18.82c-11.37-137.51,92.62-258.42,206.57-336.22
		c66.85-45.64,161.66-84.89,185.8-164.17c28.16-92.5,4.52-221.11-21.23-311.43c-86.31-302.76-258.47-587.29-160.66-914.27
		c53.14-177.64,201.33-321.63,377.84-378.41s376.56-28.12,535.1,68.03c88.42,53.63,163.55,126.09,243.69,191.45
		c329.75,268.96,714.67,401.13,1137.58,336.28c194.84-29.88,386.23-82.47,568.68-157.13c232.61-95.19,449.77-224.84,681.38-322.46
		c231.61-97.62,486.2-163.13,733.87-120.35c138.71,23.96,270.39,81.34,388.77,157.49c139.53,89.75,267.13,214.57,309.62,374.95
		c51.04,192.68-28.73,392.66-97.62,579.7s-126.84,401.22-37.59,579.45c69.77,139.34,227.09,265.37,179.59,413.79
		C5432.33,2958.12,467.75,2981.51,359.69,2977.36z"/>
	<path class="st2" d="M5599.14,2948.12c-103.97-5.63-209.25-4.96-313.69-5.01c-100.83-0.05-201.65-0.11-302.48-0.16
		c-205.39-0.11-410.78-0.21-616.17-0.32c-466.36-0.24-932.71-0.27-1399.07-0.26c-5.91-0.01-11.82,0-17.73,0s-11.82,0-17.73,0
		c-466.36,0-932.72,0.03-1399.07,0.27c-205.39,0.11-410.78,0.21-616.17,0.32c-100.83,0.05-201.66,0.11-302.48,0.16
		c-104.44,0.05-209.71-0.62-313.69,5.01c-47.37,2.57-47.46,38.46,0,41.03c181.4,9.82,366.8,5.04,548.95,5.13
		c182.98,0.1,365.96,0.19,548.94,0.29c365.97,0.19,731.93,0.33,1097.9,0.33h433.27h40.15h433.27c365.96,0,731.93-0.14,1097.9-0.33
		c182.98-0.1,365.96-0.19,548.94-0.29c182.15-0.09,367.55,4.69,548.95-5.13C5646.6,2986.58,5646.51,2950.68,5599.14,2948.12z"/>
	<path class="st3" d="M3373.09,2918.53v22.74h-846.22v-22.74c0,0,176.76-29.26,180.7-180.7c1.57-59.63,1.73-126.02,1.42-181.09
		c-0.31-67.18-1.42-117.37-1.42-117.37h484.9c0,0-2.83,136.41-0.79,260.54c0.16,12.82,0.47,25.49,0.79,37.92
		C3196.4,2889.27,3373.09,2918.53,3373.09,2918.53z"/>
	<path class="st4" d="M3191.68,2699.92c-121.31-106.28-384.44-135.7-482.7-143.17c-0.31-67.18-1.42-117.37-1.42-117.37h484.9
		C3192.47,2439.37,3189.64,2575.78,3191.68,2699.92z"/>
	<path class="st5" d="M4433.74,576.1h-2967.4c-27.06,0-48.95,21.81-48.95,48.87v1602.42v83.26v139.87
		c0,27.06,21.9,48.95,48.95,48.95h2967.4c27.06,0,48.87-21.9,48.87-48.95v-139.87v-83.26V624.97
		C4482.61,597.91,4460.8,576.1,4433.74,576.1z"/>
	<rect x="1517.26" y="675.98" class="st0" width="1432.76" height="861.79"/>
	<rect x="2950.02" y="675.98" class="st6" width="1432.68" height="861.79"/>
	<rect x="1517.26" y="1537.77" class="st6" width="1432.76" height="861.79"/>
	<rect x="2950.02" y="1537.77" class="st0" width="1432.68" height="861.79"/>
	<rect x="2485.28" y="2918.56" class="st5" width="929.43" height="45.35"/>
	<g>
		<path class="st7" d="M5262.01,1941.62c-15.28,8.27-27.92,20.68-40.02,32.96c-12.38,12.57-24.13,25.7-34.84,39.72
			c-21.47,28.1-40.12,58.31-55.74,90.03c-24.31,49.4-41.8,102.83-50.2,157.47c-0.2-3.71-0.4-7.42-0.6-11.14
			c-2.29-41.21-4.67-82.41-7.52-123.58c-5.4-78.06-13.18-156.07-32.08-232.17c-10.52-42.35-25.04-82-45.59-120.49
			c-2.27-4.26-9.58-1.35-7.92,3.34c25.7,72.66,42.46,148.3,52.02,224.68c9.83,78.53,13.41,157.56,18.63,236.48
			c0.82,12.43,1.62,24.84,2.48,37.24c-3.7-10.66-7.6-21.25-11.99-31.66c-24.31-57.64-60.03-110.47-108.69-150.36
			c-23.89-19.59-61.11-48.62-93.24-31.79c-3.16,1.65-1.47,6.2,1.72,6.36c32.54,1.63,58.95,20,82.43,41.16
			c21.25,19.15,39.12,41.41,54.32,65.59c32.99,52.5,53.89,111.13,68.15,171.24c4.21,17.76,7.81,35.64,11.18,53.57
			c3.61,19.2,6.71,38.3,14.27,56.33c3.84,9.17,16.7,8.17,17.56-2.38c1.31-15.98-0.12-32.44-2.78-48.85c0.1-2.31,0.17-4.63,0.12-6.94
			c-0.17-9.06-0.27-18.14-0.25-27.21c0.04-16.65,0.73-33.36,2.1-49.95c2.79-33.79,8.25-67.37,16.91-100.15
			c17.34-65.63,45.9-127.85,85.69-182.93c11.24-15.56,23.12-30.8,35.66-45.34c12.25-14.19,26.02-27.19,36.89-42.51
			C5274.61,1944.83,5267.2,1938.81,5262.01,1941.62z"/>
		<path class="st8" d="M5417.16,2344.89v349.44h-0.08c0,5.43-0.16,10.86-0.47,16.21c-0.08,4.09-0.39,8.1-0.71,12.11
			c-7.87,97.07-55.46,182.9-126.49,241.27h-442.74c-8.81-7.24-17.23-14.95-25.33-22.97c-58.84-58.76-96.84-138.45-101.88-227.03
			c-0.16-3.38-0.31-6.76-0.39-10.15c-0.08-3.15-0.16-6.29-0.16-9.44v-349.44H5417.16z"/>
		<path class="st9" d="M4691.28,1975.96c-69.1,39.63-114.32,123.72-95.83,201.21c19.49,81.68,107.64,137.49,191.22,129.42
			c83.58-8.07,156.17-72.76,183.63-152.11c20.12-58.16,15.14-154.09-44.66-189.34C4860.43,1926.71,4753.46,1940.3,4691.28,1975.96z"
			/>
		<path class="st9" d="M4930.38,1885.01c-82.27-33.03-142.98-114.35-151.27-202.61c-8.28-88.26,36.24-179.46,110.92-227.22
			c74.69-47.76,176.15-49.91,252.79-5.36c76.64,44.55,124.99,133.78,120.45,222.32c-1.09,21.35-5.06,42.66-13.04,62.5
			c-9.16,22.77-23.44,43.19-39.72,61.57C5141.83,1873.76,5031.66,1925.67,4930.38,1885.01z"/>
		<path class="st9" d="M5191.07,1917.44c-22.53,25.41-41.56,55.45-46.41,89.06c-6.37,44.15,13.03,89.14,42.97,122.21
			c29.94,33.08,69.47,55.85,109.59,75.34c37.88,18.4,77.73,34.58,119.71,38.06c41.97,3.48,86.72-7.22,116.96-36.53
			c26.8-25.98,39.63-64.34,38.96-101.66c-0.67-37.32-13.88-73.61-32.9-105.73C5475.04,1888.62,5291.75,1803.84,5191.07,1917.44z"/>
		<path class="st7" d="M4887.24,2061.17c-0.58-2.42-1.62-4.75-2.68-6.99c-1.05-2.24-2.57-4.19-4.16-6.08
			c-2.29-2.71-5.36-4.57-8.67-5.75c-1.51-0.54-3.22-0.78-4.8-0.75c-1.31,0.03-2.66,0.17-3.92,0.52c-1.26,0.36-2.65,0.92-3.78,1.58
			c-6.71,3.9-8.79,11.97-9.48,19.15c-0.09,0.88-0.1,1.77-0.01,2.65c0.19,1.88,0.33,3.9,0.99,5.71c0.58,1.58,1.18,3.31,2.15,4.72
			c0.94,1.36,1.98,2.83,3.26,3.92c1.23,1.05,2.57,2.18,4.04,2.92c1.48,0.75,3.11,1.52,4.76,1.86c0.26,0.05,0.55,0.09,0.82,0.14
			c0.13,0.04,0.23,0.12,0.36,0.16c2.97,0.98,6.9,1.03,9.87-0.01c4.05-1.42,7.1-3.8,9.48-7.37
			C4888.63,2072.83,4888.51,2066.49,4887.24,2061.17z"/>
		<path class="st7" d="M5030.12,1765.96c-0.08-0.48-0.2-0.96-0.36-1.42c-0.53-1.51-1.12-3.03-1.9-4.44c-1-1.79-2.3-3.54-3.9-4.84
			c-1.19-0.96-2.39-2.07-3.77-2.76c-1.43-0.72-2.94-1.42-4.5-1.85c-1.51-0.41-3.21-0.54-4.7-0.69c-0.5-0.05-0.99-0.06-1.49-0.02
			c-1.59,0.12-3.23,0.31-4.8,0.66c-1.05,0.23-2,0.7-2.99,1.11c-0.92,0.39-1.89,0.74-2.76,1.26c-1.34,0.81-2.59,1.85-3.78,2.86
			c-0.36,0.3-0.68,0.64-0.97,1c-0.92,1.12-2.09,2.42-2.81,3.79c-0.74,1.4-1.4,2.89-1.84,4.42c-0.07,0.22-0.11,0.45-0.15,0.68
			c-0.24,1.41-0.5,2.89-0.55,4.33c-0.01,0.23-0.01,0.47,0.01,0.71c0.1,1.39,0.3,2.86,0.56,4.23c0.11,0.56,0.27,1.08,0.49,1.61
			c0.61,1.48,1.12,3.08,2.01,4.43c0.91,1.39,1.92,2.75,3.08,3.94c0.29,0.3,0.66,0.51,0.98,0.78c0.22,0.27,0.49,0.6,0.63,0.77
			c2.04,2.46,5.38,4.26,8.42,5.1c3.34,0.93,7.14,0.89,10.47-0.06c3.46-0.99,6.05-2.63,8.72-4.98c1.17-1.03,2.05-2.42,2.97-3.65
			c0.31-0.41,0.59-0.84,0.82-1.3c0.89-1.8,1.83-3.79,2.15-5.82c0.22-1.42,0.59-3.33,0.57-4.94
			C5030.7,1769.24,5030.39,1767.58,5030.12,1765.96z"/>
		<path class="st7" d="M5260.26,1968.87c-0.19-1.23-0.48-2.41-0.95-3.57c-0.56-1.38-1.24-3.4-2.18-4.8
			c-0.77-1.14-1.68-2.29-2.56-3.34c-0.2-0.23-0.39-0.46-0.62-0.66c-1.21-1.07-2.53-2.2-3.98-2.94c-2.96-1.52-5.21-2.09-8.53-2.29
			c-3.44-0.21-7.68,0.96-10.51,2.95c-1.47,1.03-3.04,2.11-4.26,3.46c-1.29,1.43-2.5,3.01-3.55,4.63c-1.56,2.41-2.73,5.16-3.67,7.85
			c-0.7,2-0.86,4.15-1.11,6.22c-0.1,0.86-0.13,1.7-0.05,2.56c0.19,1.85,0.3,3.88,0.96,5.66c0.66,1.8,1.34,3.76,2.45,5.36
			c0.86,1.25,1.83,2.53,2.84,3.66c0.66,0.74,1.51,1.3,2.29,1.9c0.73,0.57,1.54,1.3,2.39,1.75c1.38,0.74,2.97,1.39,4.44,1.88
			c1.89,0.62,3.97,0.9,5.95,0.74c1.15-0.09,3.53-0.27,5.04-0.79c0.27-0.09,0.55-0.25,0.84-0.36c0.03-0.01,0.06,0,0.09-0.01
			c1.78-0.34,3.51-1.11,5.06-2.03c1.19-0.71,2.35-1.7,3.4-2.59c0.28-0.23,0.53-0.47,0.77-0.75c1.12-1.28,2.31-2.69,3.09-4.24
			c0.82-1.63,1.65-3.43,2.09-5.24c0.44-1.8,0.59-3.7,0.8-5.53c0.08-0.69,0.12-1.39,0.15-2.09
			C5261.03,1973.8,5260.64,1971.33,5260.26,1968.87z"/>
		<path class="st9" d="M5068.35,2274.18c-14.25,21.71-20.72,48.09-20.06,74.06c0.38,15.12,3.18,30.4,10.1,43.85
			c10.33,20.09,28.94,34.59,48.19,46.41c22.76,13.98,47.73,25.31,74.26,28.4c26.54,3.09,54.88-2.81,75.31-20.02
			c16.25-13.69,26.4-33.35,33.18-53.49c9.55-28.33,13.17-59.27,5.92-88.28C5270.86,2207.61,5120.94,2194.03,5068.35,2274.18z"/>
		<path class="st7" d="M5163.12,2287.74c-0.06-0.26-0.13-0.51-0.23-0.76c-0.46-1.29-1.02-2.57-1.6-3.8
			c-0.12-0.26-0.26-0.51-0.42-0.75c-0.72-1.12-1.6-2.16-2.43-3.19c-0.18-0.22-0.36-0.43-0.57-0.63c-0.96-0.92-2.08-1.68-3.14-2.47
			c-0.23-0.17-0.45-0.32-0.7-0.46c-1.19-0.65-2.49-1.14-3.76-1.61c-0.25-0.09-0.5-0.17-0.75-0.22c-0.69-0.15-1.52-0.22-2.15-0.3
			c-0.64-0.09-1.4-0.23-2.1-0.26c-0.88-0.04-1.81,0.16-2.65,0.27c-0.79,0.11-1.69,0.16-2.49,0.39c-0.16,0.04-0.31,0.09-0.46,0.15
			c-1.16,0.44-2.34,0.94-3.46,1.46c-0.25,0.12-0.5,0.24-0.73,0.39c-1.18,0.74-2.26,1.66-3.33,2.54c-0.23,0.19-0.46,0.4-0.66,0.62
			c-0.93,1-1.73,2.15-2.54,3.24c-0.18,0.24-0.34,0.5-0.49,0.77c-0.07,0.12-0.13,0.25-0.19,0.37c-0.53,1.13-1.03,2.33-1.47,3.5
			c-0.09,0.23-0.1,0.49-0.17,0.73c-0.07,0.19-0.14,0.38-0.18,0.57c-0.03,0.12-0.05,0.24-0.07,0.36c-0.02,0.09-0.02,0.19-0.04,0.28
			c-0.11,0.63-0.19,1.23-0.24,1.85c-0.08,0.58-0.19,1.16-0.23,1.72c-0.02,0.24-0.01,0.47,0.01,0.71c0.11,1.22,0.29,2.6,0.51,3.81
			c0.02,0.12,0.04,0.25,0.08,0.37c0.19,0.75,0.6,1.55,0.88,2.22c0.28,0.66,0.56,1.51,0.96,2.17c0.06,0.1,0.13,0.2,0.2,0.3
			c0.67,0.97,1.49,1.99,2.24,2.9c0.15,0.19,0.31,0.37,0.49,0.54c0.55,0.52,1.24,0.99,1.81,1.43c0.62,0.48,1.25,1.04,1.94,1.44
			c0.2,0.12,0.41,0.22,0.62,0.32c1.23,0.57,2.5,1.14,3.79,1.58c1,0.35,2.09,0.42,3.13,0.56c1.05,0.14,2.14,0.38,3.21,0.27
			c1.37-0.15,2.78-0.3,4.13-0.56c0.24-0.05,0.49-0.11,0.72-0.19c1.26-0.43,2.52-0.99,3.72-1.56c0.22-0.1,0.44-0.22,0.65-0.35
			c0.09-0.06,0.17-0.12,0.26-0.18c0.96-0.7,2.03-1.49,2.93-2.27c0.17-0.15,0.34-0.31,0.49-0.49c0.79-0.91,1.57-1.96,2.28-2.94
			c0.07-0.09,0.14-0.19,0.2-0.29c0.45-0.7,0.74-1.56,1.05-2.3c0.29-0.68,0.68-1.47,0.9-2.22c0.23-0.81,0.29-1.75,0.4-2.54
			c0.15-1.13,0.36-2.16,0.24-3.28C5163.56,2290.56,5163.44,2289.11,5163.12,2287.74z"/>
		<path class="st0" d="M5417.16,2518.51v11.01c-12.66-0.47-25.41-0.94-38.07-1.42c-133.42-4.72-266.92-7.16-400.41-7.47
			c-66.79-0.16-133.5,0.31-200.29,1.18c-19.82,0.24-39.65,0.63-59.47,1.1v-9.36c28-0.79,56.01-1.34,84.02-1.89
			c133.42-2.36,266.99-1.89,400.49,0.71c66.71,1.26,133.42,3.15,200.13,5.58C5408.11,2518.12,5412.6,2518.28,5417.16,2518.51z"/>
		<path class="st0" d="M5417.16,2594.66v11.01c-4.4,0.16-8.81,0.31-13.22,0.47c-152.14,5.82-304.2,13.14-456.19,21.87
			c-76.31,4.33-152.61,9.05-228.84,14.08v-9.13c8.81-0.71,17.62-1.34,26.43-1.97c151.91-10.78,303.97-19.82,456.03-27.14
			C5273.28,2600.48,5345.26,2597.34,5417.16,2594.66z"/>
		<path class="st0" d="M5416.61,2710.54c-0.08,4.09-0.39,8.1-0.71,12.11c-139.32,0.63-278.56-0.24-417.88-2.44
			c-71.75-1.1-143.49-2.67-215.23-4.64c-21.08-0.55-42.24-1.1-63.33-1.65c-0.16-3.38-0.31-6.76-0.39-10.15
			c30.05,0.63,60.02,1.42,90.07,1.97c142.78,2.91,285.56,4.72,428.42,5.03C5297.19,2710.93,5356.9,2710.85,5416.61,2710.54z"/>
	</g>
	<path class="st10" d="M502.41,2230.43c0,0,0,0.24,0.08,0.71l40.12,732.78h508.82l7.71-139.63l0.63-12.11
		c21.24-0.47,42.48-5.03,62.15-13.06c63.64-26.04,113.36-76.86,151.2-133.18c37.68-56.09,64.51-124.85,55.7-193.36
		c-4.72-37.29-17.86-70.64-41.46-99.99c-19.9-24.62-47.36-42.01-76.7-53.18c-30.52-11.56-64.19-12.04-95.74-4.48
		c-9.91,2.44-19.43,6.61-28.56,11.56l0.24-4.64l5.03-91.41H502.41z M1063.77,2739.01l1.57-28.08l16.21-296.73l1.73-31.39
		c4.33-1.65,8.65-3.31,13.22-4.48c8.1-2.05,10.86-2.12,17.15-2.83c3.7-0.47,7.39-0.94,11.01-1.5c-2.75,0.47-2.28,0.39,1.42,0
		c3.15-0.16,6.21-0.39,9.36-0.47c4.25-0.08,8.42,0,12.66,0.24c0.32,0.08,5.11,0.63,6.06,0.63c6.29,1.1,12.67,2.52,18.88,4.17
		c2.83,0.79,5.59,1.73,8.42,2.67c0.55,0.24,4.01,1.57,5.11,1.97c5.43,2.52,10.7,5.35,15.81,8.5c2.52,1.57,4.96,3.3,7.47,5.03
		c0.94,0.79,3.78,2.91,4.33,3.38c4.4,3.85,8.57,7.95,12.59,12.27c1.97,2.2,3.85,4.41,5.82,6.61c0.39,0.39,0.63,0.63,0.87,0.94
		c0.24,0.31,0.47,0.63,0.71,1.02c3.23,4.96,6.53,9.75,9.28,15.03c0.55,0.94,3.85,8.26,4.01,8.26c0.55,1.57,1.18,3.07,1.73,4.64
		c2.2,6.45,4.01,13.14,5.35,19.82c0.16,0.55,0.87,5.11,1.18,6.45c0.23,2.6,0.55,5.11,0.71,7.71c0.47,6.84,0.47,13.77,0.24,20.69
		c-0.24,3.7-0.55,7.47-0.94,11.17c-0.24,1.42-0.79,5.82-0.87,6.37c-1.26,6.77-2.83,13.45-4.64,20.06
		c-1.81,6.69-3.93,13.22-6.29,19.67c-1.02,2.68-2.05,5.43-3.07,8.02c-0.24,0.71-0.86,2.12-1.42,3.3
		c-11.56,25.72-26.28,49.8-43.03,72.53c-0.24,0.31-0.39,0.47-0.55,0.71c-1.42,1.73-2.75,3.46-4.17,5.19
		c-2.12,2.6-4.33,5.19-6.61,7.79c-4.41,5.19-9.05,10.23-13.77,15.18c-8.34,8.73-17.07,17.15-26.28,25.02
		c-0.79,0.63-6.14,5.03-7,5.82c-1.89,1.42-3.86,2.91-5.82,4.33c-5.19,3.78-10.62,7.32-16.13,10.7c-5.51,3.3-11.17,6.37-16.91,9.13
		c-0.79,0.31-5.59,2.28-5.9,2.44c-1.97,0.71-4.01,1.5-6.06,2.2c-7,2.28-14.08,3.78-21.32,5.35c-0.47,0.16-0.87,0.24-1.26,0.39
		C1064.33,2738.94,1064.01,2739.01,1063.77,2739.01z"/>
	<path class="st0" d="M795.05,2069.5c-16.52-21.62-38.44-40.63-51.74-63.75c-15.59-27.12-13.8-61.63-7.81-92.01
		c3.18-16.13,8.05-31.68,14.54-46.79c7.09-16.5,16.67-31.29,25.39-46.92c9.72-17.42,16.25-35.97,14.83-56.16
		c-0.69-9.81-13.1-44.84-28.86-33.06c-5.58,4.17-3.95,9.72-3.87,15.62c0.1,7.23-1.41,16.04-3.6,22.94
		c-4.84,15.2-14.19,28.56-22.53,41.97c-18.72,30.1-32.51,62.12-39.68,96.95c-7.19,34.92-8.71,73.76,6.14,106.98
		c11.48,25.68,30.36,47.01,49.35,67.39c10.69,11.47,22.17,22.75,32.09,34.82c8.61,10.47,15.15,21.79,22.34,33.35
		c4.8,7.71,15.02,2.94,17.01-4.1c1.92-6.77,2.07-12.81,1.11-19.76c-1-7.22-1-13.72-3.87-20.7
		C810.45,2093.01,803.77,2080.91,795.05,2069.5z"/>
	<path class="st0" d="M887.36,1678.29c-6.41-14.97-13.34-29.96-20.84-44.41c-7.76-14.95-15.19-29.5-26.62-41.98
		c-5.16-5.64-16.19-6.67-19.31,2.07c-2.22,6.23-2.93,11.77-3.06,17.98c-2.91,13.32,2.98,29.14,7.89,41.3
		c5.33,13.21,12.37,25.77,18.09,38.82c10.42,23.75,17.44,47.01,12.51,72.39c-9.55,49.23-48.34,88.22-63.77,135.75
		c-4.95,15.23-8.12,30.83-6.15,46.93c1.58,12.87,9.58,33.67,23.35,38c6.46,2.03,16.02-0.45,16.5-8.86c0.36-6.24-2.1-11.34-2.4-17.38
		c-0.26-5.32-0.16-11.17,0.43-16.51c1.39-12.68,5.23-24.43,10.54-35.96c11-23.85,25.29-45.84,38.32-68.58
		c13.01-22.69,24.56-46.99,28.45-73.11C905.73,1735.02,899.04,1705.6,887.36,1678.29z"/>
	<path class="st11" d="M639.11,2828.36c-0.39-9.12-0.78-18.23-1.18-27.35c-0.8-18.23-1.63-36.46-2.48-54.69
		c-1.74-37.11-3.6-74.21-5.56-111.31c-3.9-73.53-7.97-147.2-14.36-220.56c-1.77-20.31-3.25-40.72-5.99-60.92
		c-1.4-10.37-2.85-20.73-4.4-31.08c-1.54-10.32-2.96-21.12-8.9-29.97c-3.76-5.6-13.47-7.06-16.88,0
		c-7.51,15.6-5.49,34.84-5.52,51.74c-0.03,18.89,0.79,37.7,1.56,56.57c1.5,37.09,3.79,74.16,5.67,111.23
		c3.72,73.54,7.71,147.07,11.11,220.62c0.97,20.83,1.9,41.67,2.79,62.5c0.45,10.42,0.89,20.84,1.31,31.25
		c0.54,13.05-0.41,24.54,8.91,34.84c8.99,9.93,22.76,5.26,29.65-3.82C641.39,2848.8,639.54,2838.49,639.11,2828.36z"/>
	<path class="st11" d="M1306.16,2478.4c-1.3-15.48-2.58-46.28-19.42-53.47c-0.58-0.25-1.45-0.23-1.77,0.46
		c-2.95,6.6-1.72,13.95-0.24,20.82c2.3,10.69,4,21.23,4.4,32.19c0.77,20.78-1.49,41.55-6.77,61.66
		c-10.36,39.46-31.23,76.42-54.22,109.85c-6.07,8.82,7.99,16.58,14.17,8.28c26.33-35.35,48.27-73.39,58.45-116.69
		C1305.6,2520.94,1307.92,2499.5,1306.16,2478.4z"/>
	<g>
		<path class="st9" d="M2715.83,2399.57H1684.51c29.81-60.18,98.41-193.13,151.12-253.23c7.87-9.05,15.42-16.36,22.42-21.63
			c17.31-12.9,48.3-24.31,84.8-34.06c2.52-0.71,4.96-1.34,7.47-2.05c54.99-14.16,121.07-24.94,172.52-32.02h0.08
			c22.03-3.07,41.46-5.43,56.09-7.16c1.73-0.16,3.46-0.39,5.04-0.63c2.99-0.24,5.82-0.55,8.26-0.87v-1.65c0,0,2.83,0.24,7.95,0.86
			c5.04-0.63,7.87-0.86,7.87-0.86l0.08,1.65c15.65,1.73,42.01,4.8,73.32,9.2c47.04,6.61,105.33,16.13,156.15,28.4
			c3.31,0.79,6.61,1.57,9.83,2.36c40.91,10.46,75.99,22.73,94.87,36.82c27.61,20.61,63.64,74.42,96.84,131.29
			C2670.43,2309.65,2699.23,2365.98,2715.83,2399.57z"/>
		<path class="st12" d="M1728.56,2031.98c-4.56-32.44-3.57-66.32-4.89-99.07c-0.45-11.31-0.89-22.78,1.74-33.79
			c3.67-15.35,15.18-28.99,30.21-34.27c10.22-3.59,17.08-0.23,26.93,0.61c11.43,0.98,23.48-88.74,31.03-100.39
			c5.73-8.83,11.96-4.52,16.09-1.25c1.03,0.82,1.7,2,2.21,3.21c1.95,4.62,1.93,9.8,1.82,14.81c-0.84,37.66-4.88,75.25-12.06,112.22
			c3.38-17.4,35.95-116.51,39.1-119.91c6-6.48,15.49-2.92,17.88,4.64c2.39,7.56-12.78,102.54-13.48,110.33
			c-0.47,5.3-1.83,23.72-5.26,27.44c10.03-10.9,19.83-21.87,29.62-32.85c4.19-4.73,8.85-9.69,14.96-11.81
			c2.98-1.02,6.47-1.04,9.51-0.06c4.52,1.45,6.54,6.92,4.72,11.31c-8.93,21.52-21.47,39.64-32.43,60.53
			c-16.97,32.2-33.25,83.21-56.02,113.44C1823.65,2065.88,1730.46,2045.52,1728.56,2031.98z"/>
		<path class="st13" d="M1764.71,1968.68c14.43,9.92,24.76,25.64,28.12,42.83c3.53-15.95,7.11-32.06,14.1-46.83
			s17.79-28.29,32.46-35.48c-14.44-0.29-28.64-6.92-38.12-17.82c0.34,13.44-10.73,22.3-21.84,27.35
			c-6.35,2.89-12.98,3.06-19.93,2.24c-1.99-0.23-20.2-3.03-20.27-4.58C1739.88,1951.99,1753.21,1960.77,1764.71,1968.68z"/>
		<polygon class="st12" points="2773.72,2117.78 2773.72,2399.57 2608.68,2399.57 2639.2,2256 2661.23,2152.4 2668.55,2117.78 		"/>
		<path class="st14" d="M2627.8,1940.08l1.42,26.51l0.08,1.34c-2.6-1.49-5.35-2.67-8.26-3.38c-9.12-2.12-18.88-2.04-27.77,1.26
			c-8.42,3.22-16.36,8.34-22.18,15.5c-6.77,8.42-10.62,18.09-11.96,28.87c-2.52,19.82,5.19,39.81,16.13,55.93
			c10.93,16.36,25.33,31.15,43.74,38.62c5.66,2.28,11.88,3.62,18.01,3.78l0.16,3.46l2.28,40.43h147.26l1.89-34.61l7.47-136.8v-0.08
			l2.2-40.59c0.08-0.16,0.08-0.24,0.08-0.24H2627.8z M2635.59,2087.34c-0.16-0.08-0.24-0.08-0.39-0.16
			c-2.05-0.47-4.09-0.87-6.14-1.57c-0.55-0.16-1.18-0.39-1.81-0.63c0-0.08-1.49-0.55-1.65-0.71c-1.65-0.79-3.3-1.65-4.88-2.67
			c-1.57-0.94-3.15-1.97-4.64-3.07c-0.63-0.39-1.26-0.79-1.73-1.26c-0.24-0.24-1.81-1.49-2.05-1.65c-2.6-2.28-5.19-4.72-7.55-7.24
			c-1.42-1.42-2.75-2.91-4.09-4.4c-0.55-0.79-1.26-1.5-1.81-2.28c-0.47-0.47-0.87-0.94-1.26-1.49c-0.08-0.08-0.16-0.08-0.16-0.24
			c-4.8-6.61-9.12-13.53-12.51-20.93c-0.08-0.39-0.24-0.79-0.32-1.02c-0.31-0.71-0.63-1.49-0.94-2.28
			c-0.63-1.89-1.26-3.78-1.81-5.74c-0.47-1.81-1.02-3.78-1.34-5.74c-0.08-0.16-0.24-1.42-0.31-1.89c0-1.02-0.08-2.12-0.16-3.23
			c-0.08-1.97-0.08-4.01,0.08-5.98c0-0.71,0.08-1.49,0.08-2.2c0.16-0.39,0.31-1.73,0.39-1.89c0.39-1.97,0.94-3.85,1.57-5.74
			c0.16-0.39,0.31-0.87,0.47-1.34c0.08,0,1.02-2.12,1.18-2.36c0.79-1.57,1.73-2.91,2.68-4.33c0.08-0.16,0.08-0.24,0.16-0.31
			c0.08-0.16,0.16-0.16,0.31-0.31c0.55-0.63,1.1-1.26,1.65-1.89c1.18-1.26,2.44-2.44,3.7-3.62c0.16-0.08,0.94-0.71,1.26-0.94
			c0.71-0.55,1.42-0.94,2.12-1.42c1.49-0.94,3.07-1.81,4.64-2.44c0.24-0.16,1.26-0.55,1.42-0.63c0.79-0.31,1.65-0.55,2.44-0.79
			c1.81-0.47,3.62-0.87,5.51-1.18c0.24,0,1.65-0.16,1.73-0.24c1.26-0.08,2.44-0.08,3.62-0.08c0.94,0.08,1.81,0.16,2.75,0.16
			c0.24,0,0.47,0.08,0.63,0.08c0.16,0,0.31,0.08,0.31,0c0.87,0.16,1.73,0.24,2.6,0.39c1.89,0.24,2.68,0.24,5.04,0.79
			c1.26,0.31,2.52,0.87,3.85,1.34l0.39,9.13l4.72,85.82l0.47,8.18H2635.59z"/>
		<path class="st12" d="M2765.74,1997.19c-8.52,11.38-11.79,25.76-14.24,39.76c-3.51,20.09-5.52,41.92,4.21,59.84
			c9.72,17.93,35.56,28.2,51.31,15.24c7.94-6.53,11.37-16.97,13.84-26.95c5.2-21.03,7.8-42.7,7.74-64.38
			C2828.49,1984.51,2789.92,1964.92,2765.74,1997.19z"/>
		<path class="st14" d="M2684.57,1869.68c-3.03-4.17-5.04-9.03-5.97-14.09c-2.21-12.09,4.18-21.71,7.71-32.77
			c3.23-10.13,4.13-21,2.84-31.54c-1.11-9.09-3.49-22.41-11.01-28.43c-1.53-1.23-3.48-0.08-3.18,1.85
			c0.92,5.94,4.28,11.19,5.93,17.01c1.58,5.58,2.46,11.32,2.61,17.12c0.16,6.3-0.51,12.59-2.06,18.71
			c-1.56,6.12-4.3,11.73-6.53,17.6c-3.72,9.81-3.76,20.12,0.44,29.8c1.93,4.45,4.71,8.92,8.37,12.16c0.62,0.55,5.72,4.29,6.26,1.62
			C2690.73,1874.92,2686.58,1872.45,2684.57,1869.68z"/>
		<path class="st14" d="M2722.74,1805.13c-1.28-12.51-5.07-24.43-8.44-36.49c-3.52-12.61-5.92-25.21-5.16-38.36
			c0.36-6.26,1.4-12.46,3.05-18.52c1.6-5.88,5.05-11.92,5.68-17.91c0.27-2.53-3.19-3.56-4.79-1.99c-3.8,3.72-5.76,10.56-7.27,15.57
			c-1.76,5.85-2.93,11.84-3.61,17.91c-1.4,12.39-0.06,24.73,2.92,36.78c3.09,12.54,7.61,24.73,10.1,37.42
			c1.2,6.12,1.78,12.31,1.63,18.55c-0.15,6.39-2.29,12.36-2.71,18.64c-0.09,1.27,1.66,1.93,2.5,1.04
			C2724.03,1829.9,2723.76,1815.09,2722.74,1805.13z"/>
		<path class="st14" d="M2755.68,1819.59c-2.28-14.26-4.63-28.51-6.85-42.78c-0.95-6.12-1.74-12.33-1.66-18.53
			c0.04-3.28,0.33-6.61,1.03-9.82c0.68-3.14,2.41-5.96,2.92-9.07c0.12-0.76-0.68-1.68-1.46-1.12c-4.06,2.87-5.92,9.42-6.75,14.13
			c-1.06,6.02-0.83,12.19-0.15,18.23c1.62,14.47,4.26,28.87,6.45,43.26c1.17,7.68,2.79,15.46,3.19,23.23
			c0.36,6.97-1.2,13.3-3.81,19.71c-4.17,10.22-12.03,22.61-7.64,34.02c0.69,1.78,3.29,1.57,3.39-0.46
			c0.3-6.07,1.17-11.42,3.32-17.16c2.07-5.52,4.75-10.78,6.89-16.28C2759.44,1844.38,2757.75,1832.56,2755.68,1819.59z"/>
		<path class="st15" d="M2114.5,2313.03c-1.89,29.81-9.99,58.37-19.27,86.53h-9.83c11.33-33.59,21.24-67.81,20.29-103.52
			c-0.47-22.66-5.51-46.18-18.41-65.14c-5.74-8.42-13.22-15.81-22.5-20.53c-9.12-4.72-19.51-6.06-29.74-6.14
			c-20.06-0.16-40.51,4.48-60.34-0.08c-19.19-4.4-32.41-19.12-36.97-37.92c-5.04-20.53-1.65-42.48,2.28-62.85
			c0.79-4.33,1.73-8.58,2.83-12.74c2.52-0.71,4.96-1.34,7.47-2.05c-2.05,8.81-3.85,17.86-5.19,26.83
			c-3.15,21.24-5.74,47.67,8.1,65.92c12.66,16.83,34.46,17.07,53.49,15.81c19.59-1.18,40.28-4.01,58.76,3.93
			C2106.87,2218.87,2117.09,2273.07,2114.5,2313.03z"/>
		<path class="st15" d="M2447.51,2087.93c-5.54,15.66-11.16,31.39-17.98,46.52c-6.44,14.08-15.5,29.06-29.96,36.1
			c-17.9,8.69-35.06,1.05-52.66-3.97c-9.21-2.62-18.2-3.45-27.42-0.45c-8.69,2.77-16.4,8.24-23.29,14.01
			c-14.91,12.36-27.64,27.27-45.54,35.51c-17.23,7.94-36.56,7.57-50.79-6.07c-13.18-12.73-20-32.13-24.64-49.36
			c-9.96-37-8.17-74.91,3.82-110.79c1.12-3.37,2.32-6.74,3.6-10.04c1.05-2.62,5.24-1.5,4.27,1.12c-1.05,2.77-1.95,5.54-2.85,8.31
			c-12.36,39.4-10.49,83.82,3.82,122.25c5.69,15.21,14.16,34.31,31.31,39.25c18.13,5.24,36.56-7.64,49.44-19.03
			c13.03-11.53,25.02-24.87,41.05-32.28c7.72-3.52,15.96-5.62,24.42-5.17c8.92,0.45,17.38,3.3,25.84,5.99
			c8.47,2.7,17.45,5.69,26.52,4.27c7.19-1.12,13.41-4.94,18.5-10.04c11.31-11.16,17.23-26.74,22.7-41.35
			c3.37-9.06,6.74-18.13,10.04-27.19C2440.99,2086.35,2444.29,2087.1,2447.51,2087.93z"/>
		<path class="st15" d="M2548.89,2399.57h-15.18c-1.57-1.97-3.38-3.85-5.43-5.43c-8.89-7-19.82-9.36-26.12-19.51
			c-12.9-21-2.44-48.54-1.02-71.04c1.34-19.98-4.48-42.09-26.75-46.57c-21.71-4.33-46.1,6.14-64.43,16.83
			c-38.55,22.66-70.56,58.45-93.53,96.45c-5.74,9.52-10.93,19.27-15.5,29.26h-12.51c7.95-18.41,17.62-36.11,28.95-52.79
			c13.45-19.67,29.03-37.92,46.57-53.97c18.41-16.91,38.78-31.78,61.99-41.14c20.45-8.34,48.3-14.32,68.05-0.86
			c20.53,13.92,22.66,40.75,19.82,63.25c-1.73,13.3-4.88,26.75-3.85,40.2c0.39,5.03,1.65,10.46,4.64,14.63
			c3.46,4.72,9.05,6.92,13.92,9.75C2537.57,2383.76,2544.25,2391.07,2548.89,2399.57z"/>
		<path class="st15" d="M1963.3,2373.06c-1.26,8.89-2.68,17.7-4.41,26.51h-13.29c1.89-9.68,3.7-19.43,5.27-29.26
			c4.25-26.43,5.51-58.21-16.36-77.57c-10.86-9.6-25.09-14.55-39.02-17.54c-14.24-3.07-28.79-3.7-43.27-2.36
			c-7.32,0.71-14.47,1.97-21.32,3.78c-20.92,5.43-40.04,15.34-58.14,27.69c-3.15,2.12-6.53-2.52-4.01-5.03
			c16.68-16.76,39.18-27.53,62.46-33.04c10.23-2.44,20.45-3.85,30.52-4.25c28.95-1.26,64.19,4.88,85.12,26.67
			C1968.49,2311.15,1967.47,2344.26,1963.3,2373.06z"/>
		<path class="st12" d="M2122.23,2055.92c0,0,68.22,66.74,159.54,3.54l-6.5-58.03l-5.73-53.88l-138.43,11.83l-4.15,45.19
			L2122.23,2055.92z"/>
		<path class="st13" d="M2126.96,2004.57c19.5,8.51,42.87,13.56,70.83,13.56c31.23,0,56.74-6.33,77.49-16.7l-5.73-53.88
			l-138.43,11.83L2126.96,2004.57z"/>
		<path class="st16" d="M2034.31,1640.45c12.25-16.66,29.56-29,47.81-38.71c10.31-5.48,21.37-10.31,33.04-10.7
			c49.48-1.64,93.02-26.33,143.35-21.93c11.32,0.99,23.81,3.9,30.08,13.39c1.31,1.99,2.36,4.26,4.29,5.66
			c2.09,1.51,4.82,1.69,7.39,1.96c20.51,2.12,39.13,14.12,51.26,30.54c12.39,16.79,11.34,33.71,17.02,52.42
			c4.2,13.85,13.83,25.48,14.4,41.6c0.62,17.58-11.28,29.44-18.14,44.73c-7.01,15.6,1.48,29.85-4.31,45.44
			c-4.59,12.38-19.19,20.75-29.79,27.24c-15,9.19-30.72,18.62-48.24,20.14c-12.04,1.05-24.07-1.74-35.71-5.03
			c-22.46-6.36-44.31-14.65-65.99-23.29c-14.59-5.81-29.46-11.86-45.14-12.72c-22.33-1.21-45.21,8.18-66.65,1.82
			c-13.79-4.09-25.14-14.45-32.65-26.72c-7.51-12.27-11.52-26.37-14.15-40.51C2015.81,1711.59,2012.67,1669.88,2034.31,1640.45z"/>
		<path class="st12" d="M2339.4,1795.93c0,0,23.3-24.27,38.84-8.74c15.54,15.54,2.91,97.1-50.49,95.15L2339.4,1795.93z"/>
		<path class="st12" d="M2062.83,1795.93c0,0-23.3-24.27-38.84-8.74c-15.54,15.54-2.91,97.1,50.49,95.15L2062.83,1795.93z"/>
		<path class="st12" d="M2061.69,1848.35c11.64,62.16,44.67,143.68,139.85,143.68c95.11,0,128.14-81.52,139.78-143.68
			c7.66-40.62-0.07-107.47-6.36-148.81c-0.07-0.14-0.07-0.36-0.14-0.58c-7.08-31.29-29.85-38.96-49.07-39.39
			c-14.74-0.36-28.91,4.84-43.07,8.96c-24.5,7.23-50.66,11.27-75.45,5.13c-12.36-3.03-24.28-8.6-37-9.54
			c-16.33-1.23-40.69-0.87-51.17,11.64c-10.05,11.99-11.13,30.64-15.39,56.81c0,0.07,0,0.14-0.07,0.14
			C2059.02,1771.24,2055.91,1817.35,2061.69,1848.35z"/>
		<path class="st17" d="M2239.51,1748.04c4.71-8.97,17.91-9.27,26.8-9.52c10.93-0.31,21.73,1.79,31.3,7.62
			c5.6,3.42,2.19,13.93-4.27,12.55c-9.28-1.97-18.35-4.43-27.89-3.75c-8,0.58-15.24,5.23-23.06,2.35
			C2238.53,1755.88,2237.76,1751.37,2239.51,1748.04z"/>
		<path class="st17" d="M2177.05,1748.77c-4.5-8.76-17.65-9.58-26.52-10.18c-10.89-0.74-21.73,0.82-31.4,6
			c-5.67,3.03-2.5,13.2,3.97,12.16c9.31-1.5,18.41-3.48,27.91-2.44c7.97,0.88,15.09,5.62,22.96,3.19
			C2177.85,1756.29,2178.71,1752.02,2177.05,1748.77z"/>
		<path class="st18" d="M2212.96,1848.07c0.15,0,0.15,0.24,0,0.24S2212.81,1848.07,2212.96,1848.07z"/>
		<path class="st13" d="M2343.13,1843.08c3-5.98,6.25-11.81,9.76-17.5c2.05-3.33,4.5-9.22,8.9-9.41c0.32-0.01,0.57,0.23,0.67,0.51
			c1.54,4.24-3.15,9.12-5.21,12.62c-0.53,0.9-1.02,1.83-1.54,2.74c0.47,0.27,0.93,0.54,1.34,0.79c2.02,1.23,4.27,2.92,4.58,5.37
			c0.13,1.01-1.01,2.05-1.97,1.97c-1.99-0.15-3.64-1.72-5.32-2.7c-0.4-0.23-0.86-0.43-1.33-0.62c-1.65,3.04-3.26,6.1-4.83,9.18
			C2346.46,1849.38,2341.44,1846.43,2343.13,1843.08z"/>
		<path class="st13" d="M2044.26,1815.65c4.4,3.56,7.89,8.96,10.69,13.84c2.24,3.92,5.98,9.53,4.62,14.19
			c-0.31,1.05-1.61,1.68-2.59,1.05c-2.88-1.85-4.36-5.45-5.88-8.77c-0.81,0.07-1.6,0.13-2.42,0.38c-1.25,0.37-2.15,0.97-3.16,1.77
			c-2.62,2.05-5.9-1.08-3.69-3.69c1.49-1.75,4.07-2.98,6.63-3.23c-2.72-4.17-5.98-7.89-8.78-12
			C2037.66,1816.24,2041.87,1813.72,2044.26,1815.65z"/>
		<path class="st17" d="M2261.67,1796.89c0.37-3.59,1.31-7.52,4.84-9.21c3.46-1.65,7.35,0.15,9.31,3.22
			c1.83,2.86,2.03,6.67,1.24,9.9c-0.3,1.22-0.81,2.57-1.52,3.81c-0.61,1.94-1.55,3.64-2.93,4.7c-2.96,2.29-7.21,1.37-9.07-1.88
			C2261.79,1804.35,2261.31,1800.35,2261.67,1796.89z"/>
		<path class="st17" d="M2147.13,1796.89c0.37-3.59,1.31-7.52,4.84-9.21c3.46-1.65,7.35,0.15,9.31,3.22
			c1.83,2.86,2.03,6.67,1.24,9.9c-0.3,1.22-0.81,2.57-1.52,3.81c-0.61,1.94-1.55,3.64-2.93,4.7c-2.96,2.29-7.21,1.37-9.07-1.88
			C2147.25,1804.35,2146.77,1800.35,2147.13,1796.89z"/>
		<path class="st13" d="M2202.53,1841.08c2.97-0.91,5.48-0.35,8.49-0.2c1.27,0.06,2.52,0.02,3.77-0.23c0.59-0.12,1.9-0.43,2.87-0.85
			c-0.33-1.51-0.9-2.99-1.38-4.42c-0.81-2.42-1.53-4.84-2.14-7.31c-1.2-4.76-2.16-9.58-2.9-14.44c-0.74-4.9-1.3-9.83-1.6-14.78
			c-0.29-4.88-0.9-10.19,1.11-14.77c0.98-2.22,4.91-2.24,5.88,0c1.58,3.64,1.49,7.61,1.8,11.52c0.28,3.57,0.68,7.13,1.23,10.67
			c1.21,7.73,3.11,15.27,5.37,22.76c1.05,3.5,2.98,7.32,3.17,10.99c0.22,4.29-3.21,6.85-6.91,8.02c-5.93,1.87-15.07,1.24-19.79-3
			C2200.12,1843.79,2200.92,1841.57,2202.53,1841.08z"/>
		<path class="st13" d="M2171.13,1876.96c2.7-0.13,5.43,1.05,7.99,1.8c2.49,0.73,4.89,1.37,7.36,2.24
			c5.32,1.87,10.87,3.24,16.47,3.93c5.47,0.67,11.06,0.88,16.55,0.53c2.52-0.16,5.02-0.4,7.47-1.06c2.48-0.68,4.5-1.67,7.11-1.89
			c1.77-0.15,3.23,1.92,2.7,3.54c-1.87,5.72-8.62,6.98-13.92,7.76c-6.43,0.96-12.88,1.33-19.36,0.68
			c-6.3-0.63-12.53-1.86-18.55-3.81c-3.34-1.08-6.12-2.38-9.06-4.27c-2.46-1.58-5.34-3.37-6.74-6
			C2168.32,1878.84,2169.37,1877.05,2171.13,1876.96z"/>
		<path class="st12" d="M1841.05,2038.17c-0.16,0.71-0.32,1.65-0.47,3.07c0,0.08,0,0.08,0,0.16c-1.49,12.43-3.15,53.42-4.95,104.94
			c-1.34,36.82-2.83,78.9-4.41,119.89c-0.08,3.46-0.16,6.92-0.31,10.38c-1.81,46.57-3.7,90.78-5.66,122.96h-156.23
			c11.88-133.97,54.28-349.04,58.06-379.8v-0.08c0-0.24,0.08-0.47,0.08-0.71C1730.13,1992.31,1843.33,2029.76,1841.05,2038.17z"/>
	</g>
	<g>
		<path class="st19" d="M1929.16,1537.77h-248.19l3.93-16.2c47.04-232.38,187.94-305.93,187.94-305.93L1929.16,1537.77z"/>
		<path class="st19" d="M2647.46,1537.77h-242.92l59.47-301.84c0,0,108.01,36.74,163,206.74c4.8,14.79,9.12,30.44,13.06,47.28
			L2647.46,1537.77z"/>
		<polygon class="st20" points="2294.8,1204.16 2281.3,1261.91 2174.7,1534.9 2062,1203.44 2094.74,1192.82 2097.98,1121.4 
			2098.52,1107.19 2100.32,1065.45 2250.9,1092.25 2252.88,1128.23 2253.24,1134.89 2256.66,1194.62 		"/>
		<path class="st21" d="M2252.88,1128.23c-18.89,13.49-42.64,21.77-72.86,21.77c-25.37,0-46.42-5.94-63.69-15.65
			c-0.18-0.18-0.54-0.35-0.72-0.35c-6.3-3.6-12.24-7.92-17.63-12.6l0.54-14.21l1.8-41.73l150.58,26.8L2252.88,1128.23z"/>
		<path class="st22" d="M2018.45,949.7c0,0-9.72-69.33,2.75-127.54c12.48-58.21,23.15-91.62,91.41-100.12
			c68.26-8.51,163.44-12.26,191.33,31.57c27.89,43.83,40.61,130.1,21.53,205.3s-278.92,7.85-278.92,7.85L2018.45,949.7z"/>
		<path class="st20" d="M2318.01,948.06c0,0-1.08,0-3.06,0.18c-0.18,5.94-0.18,11.69-0.18,17.45c-0.54,5.03-1.08,10.25-1.98,14.93
			c-0.18,2.51-0.54,5.03-1.26,7.19c-2.87,16.55-3.59,31.12-8.81,46.95c-5.4,16.19-12.24,32.39-22.3,46.24l-2.52,3.78
			c-6.66,8.09-14.04,15.28-22.67,21.58c-19.25,14.4-43.71,23.39-75.19,23.39c-25.37,0-46.42-5.94-63.69-15.65
			c-0.18-0.18-0.54-0.36-0.72-0.36c-12.05-6.83-22.31-15.83-31.12-26.09c-0.18-0.54-0.72-0.9-0.9-1.26
			c-23.74-28.43-35.8-66.02-41.92-98.59c-1.98-11.88-2.87-25.91-2.87-40.84c0-2.88,0.18-5.75,0.36-8.64c0-0.18-0.18-0.18-0.36-0.36
			c0,0,0.18-1.08,0.72-3.24c0.72-9.17,2.34-18.71,4.86-28.24c4.5-24.82,6.29-34.9,8.45-45.7c3.78-18.35,8.1-55.23,50.55-61.71
			c42.45-6.65,143.75-9.53,180.99,10.98C2321.6,830.57,2318.01,948.06,2318.01,948.06z"/>
		<path class="st18" d="M2191.24,987.74c0.15,0,0.15,0.23,0,0.23C2191.09,987.97,2191.09,987.74,2191.24,987.74z"/>
		<path class="st20" d="M2042.38,934.6c0,0-17.54-33.76-39.42-16.51c-17.04,13.43-2.88,95.89,49.86,93.97L2042.38,934.6z"/>
		<path class="st21" d="M2022.98,946.2c4.35,3.52,7.8,8.85,10.55,13.67c2.21,3.87,5.91,9.42,4.57,14.01
			c-0.3,1.04-1.59,1.66-2.56,1.04c-2.85-1.83-4.31-5.38-5.81-8.66c-0.8,0.06-1.58,0.13-2.39,0.37c-1.24,0.37-2.12,0.96-3.12,1.75
			c-2.59,2.03-5.83-1.07-3.65-3.65c1.47-1.73,4.02-2.95,6.55-3.19c-2.69-4.12-5.91-7.79-8.67-11.85
			C2016.47,946.78,2020.62,944.29,2022.98,946.2z"/>
		<path class="st20" d="M2314.38,934.6c0,0,17.54-33.76,39.42-16.51c17.04,13.43,2.88,95.89-49.86,93.97L2314.38,934.6z"/>
		<path class="st21" d="M2333.78,946.2c-4.35,3.52-7.8,8.85-10.55,13.67c-2.21,3.87-5.91,9.42-4.57,14.01
			c0.3,1.04,1.59,1.66,2.56,1.04c2.85-1.83,4.31-5.38,5.81-8.66c0.8,0.06,1.58,0.13,2.39,0.37c1.24,0.37,2.12,0.96,3.12,1.75
			c2.59,2.03,5.83-1.07,3.65-3.65c-1.47-1.73-4.02-2.95-6.55-3.19c2.69-4.12,5.91-7.79,8.67-11.85
			C2340.3,946.78,2336.14,944.29,2333.78,946.2z"/>
		<path class="st22" d="M2255.21,1106.37c-19.25,14.4-43.71,23.39-75.19,23.39c-25.37,0-46.42-5.94-63.69-15.65
			c-0.18-0.18-0.54-0.36-0.72-0.36c-2.88-8.27-1.99-20.51-2.16-28.79c0-11.33,0.36-22.49,1.26-33.64
			c1.63-16.19,2.35-32.92,11.34-46.59c10.44-16.01,37.77-19.97,53.25-14.21c3.42,1.26,3.42,6.66,0,7.91
			c-9.72,3.6-20.15,3.96-29.69,7.91c-7.91,3.06-10.61,11.16-12.59,19.98c-2.7,11.51-1.8,22.13-0.54,34.18
			c1.07,10.25,3.06,27.88,9.71,35.62c5.4,10.44,13.85,19.07,24.29,21.05c2.34,0.54,4.86,0.54,6.83-0.72
			c1.99-0.9,3.24-2.88,5.04-3.95c3.42-1.99,7.38-1.08,10.97,0.54c3.42,1.62,6.66,3.78,10.44,4.31c7.38,1.08,14.21-4.67,18.71-11.51
			c9.36-14.21,12.59-28.25,12.24-46.24c-0.37-15.65-0.18-41.01-12.6-50.55c-4.86-3.78-10.61-5.76-16.55-6.84
			c-3.24-0.54-20.7-6.65-10.08-11.51c5.75-2.35,12.05-0.36,17.63,1.26c5.39,1.62,11.16,3.06,16.37,5.22
			c10.61,4.5,16.91,13.31,19.97,25.72c3.06,12.42,4.14,25.91,5.22,38.69C2255.21,1068.24,2255.21,1098.09,2255.21,1106.37z"/>
		<path class="st22" d="M2132.23,917.51c-0.81-0.07-1.66-0.08-2.6,0.08c-9.48,1.59-10.09,14.26-7.23,21.37
			c1.39,3.45,4.22,6.45,8.18,6.43c4.39-0.03,7.28-3.62,8.76-7.38C2142.02,931.24,2141.86,917.72,2132.23,917.51z"/>
		<path class="st22" d="M2153.86,881.47c-4.96-8.97-18.79-9.55-28.11-9.99c-11.46-0.54-22.78,1.3-32.8,6.85
			c-5.87,3.25-2.27,13.72,4.49,12.5c9.73-1.75,19.24-3.98,29.23-3.1c8.39,0.74,15.99,5.51,24.18,2.83
			C2154.9,889.24,2155.7,884.8,2153.86,881.47z"/>
		<path class="st22" d="M2247.43,913.69c0.81-0.06,1.66-0.04,2.59,0.13c9.44,1.77,9.81,14.46,6.8,21.51
			c-1.46,3.42-4.35,6.37-8.31,6.26c-4.39-0.12-7.21-3.77-8.61-7.56C2237.37,927.23,2237.8,913.71,2247.43,913.69z"/>
		<path class="st22" d="M2223.58,880.3c4.72-9.65,18.57-10.24,27.91-10.7c11.47-0.56,22.89,1.44,33.09,7.43
			c5.98,3.51,2.67,14.76-4.15,13.44c-9.81-1.9-19.4-4.32-29.41-3.39c-8.39,0.78-15.88,5.89-24.17,3
			C2222.75,888.66,2221.83,883.87,2223.58,880.3z"/>
		<path class="st18" d="M2163.69,1002.6c-0.16,0-0.16,0.25,0,0.25C2163.85,1002.85,2163.85,1002.6,2163.69,1002.6z"/>
		<path class="st21" d="M2201.48,951.49c-2-9.85-4-20.13-7.77-29.47c-1.2-2.98-5.21-1.91-4.8,1.27c1.3,10.06,4.02,19.99,5.79,29.99
			c0.7,3.92,3.39,11.19,2.49,15.05c1.7,4.6-0.35,5.5-6.15,2.68c-2.46-0.68-4.94-1.21-7.46-1.59c-3.27-0.59-6.03,4.08-2.52,5.81
			c6.17,3.04,22.1,8.44,23.91-2.24C2206,966.93,2202.7,957.49,2201.48,951.49z"/>
		<path class="st23" d="M2480.53,1537.77h-654.11l46.41-322.14c0,0,72.61-23.6,221.84-22.81c7.08,46.1,63.88,183.45,83.15,229.31
			c4.17,9.6,6.53,15.18,6.53,15.18c8.26-13.14,19.67-40.67,31.31-73.71c19.35-54.67,39.65-124.45,47.59-167.32v-0.08
			c0.08-0.08,0.08-0.16,0.08-0.24c152.77,13.3,200.68,39.96,200.68,39.96S2470.7,1365.49,2480.53,1537.77z"/>
		<path class="st6" d="M2016.19,947.03c5.18-13.53,23.59,2.05,27.21,12.7c2.28,6.74,0.48,16.9-4.96,21.81
			c3.71,5.97,7.65,11.98,10.63,18.32c2.6,5.54-4.44,11.96-9.05,6.83c-11.97-13.33-27.15-35.16-24.96-54.64
			C2015.28,950.06,2015.67,948.39,2016.19,947.03z"/>
		<path class="st21" d="M2224.77,1018.79c-2.47-1.59-4.67-0.73-7.36-0.25c-2.74,0.48-5.51,0.55-8.26,1.01
			c-5.58,0.92-11.22,1.7-16.86,2.13c-5.66,0.43-11.36,0.44-17.02,0.03c-2.78-0.21-5.55-0.51-8.31-0.95
			c-2.81-0.44-5.79-1.46-8.53-0.32c-1.79,0.76-2.34,2.57-1.09,4.11c1.89,2.32,4.87,2.77,7.64,3.38c3.05,0.67,6.13,1.2,9.22,1.63
			c6.19,0.85,12.43,1.26,18.68,1.13c6.29-0.12,12.59-0.81,18.68-2.4c3.03-0.79,5.92-2.2,8.82-3.37c2.42-0.98,4.19-1.73,5.13-4.3
			C2225.76,1019.93,2225.34,1019.16,2224.77,1018.79z"/>
		<path class="st20" d="M2808.18,1103.06c-17.54,101.72-39.57,147.19-39.57,147.19c5.9,87.16,9.44,174.64,10.7,261.96
			c0.08,6.77,0.39,15.34,0.94,25.57h-165.67c0.55-3.38,1.02-6.76,1.42-10.07c3.54-28.32,7.39-56.64,11.01-85.04l3.22-24.78
			c5.27-41.38,10.46-82.91,15.03-124.37l1.18-16.83l1.26-28.16c0,0-29.03-32.65-35.01-62.62c-5.9-29.97-33.9-67.89-40.59-74.1
			c-6.61-6.14-2.75-32.1,21.01-20.06c23.6,12.04,55.62,45.86,55.62,45.86s11.25-157.25,23.52-166.46
			c10.23-7.55,16.99,13.85,19.75,89.13l2.36,37.05v0.39l0.16,3.7c0.08-0.39,0.39-1.73,0.71-3.78c0-0.08,0.08-0.16,0.08-0.31
			c3.31-15.97,14.79-74.18,20.3-107.14c6.45-38,18.41-31.78,24.31-23.76c5.74,8.18,5.98,63.4,0.63,106.99l-1.81,24.47l-0.08,0.55
			v0.08l-0.16,3.07c0,0,0.31-1.02,1.02-2.91v-0.08c0-0.16,0.08-0.31,0.16-0.55c2.12-7,7-24.54,13.22-54.75
			c6.92-34.22,6.29-58.69,21.08-59.32c17.23-0.87,5.11,97,1.5,121.46c-0.08,0.71-0.24,1.42-0.24,1.97
			c-0.16,0.63-0.24,1.26-0.24,1.65c0.08-0.39,0.16-0.86,0.31-1.49c0-0.08,0-0.08,0-0.08c0.16-0.47,0.31-1.18,0.47-1.89
			c2.91-10.07,11.41-38.62,26.2-72.92C2806.53,1021.88,2822.81,1019.05,2808.18,1103.06z"/>
		<g>
			<path class="st21" d="M2774.82,1106.96c-7.19-4.53-16.93-5.54-25.19-6.94c-8.74-1.48-17.52-2.45-26.38-2.87
				c-8.44-0.4-16.89-0.4-25.33,0.04c-8.37,0.44-17.52,1.02-25.44,3.9c-0.3,0.11-0.29,0.62,0.06,0.65
				c7.86,0.66,16.05-0.23,23.93-0.37c9.24-0.17,18.48,0.16,27.69,1.02c8.49,0.8,16.97,1.9,25.36,3.43
				c8.1,1.48,16.47,4.59,24.73,4.42C2776.16,1110.22,2776.11,1107.78,2774.82,1106.96z"/>
			<path class="st21" d="M2693.01,1175.28c-3.74-6.96-8.56-13.3-14.32-18.7c-4.89-4.57-12.19-10.61-19.34-10.07
				c-1.04,0.08-1.55,1.54-0.68,2.19c2.77,2.08,6.1,3.35,9,5.24c2.84,1.85,5.44,4.07,7.85,6.45c5.41,5.35,9.84,11.74,13.14,18.58
				c6.35,13.18,7.99,27.73,8.19,42.19c0.02,1.67,2.29,1.46,2.7,0.12C2704.25,1205.92,2700.49,1189.21,2693.01,1175.28z"/>
		</g>
		<g>
			<g>
				<path class="st24" d="M2124.74,980.78c-27.21,0-49.35-22.14-49.35-49.35s22.14-49.35,49.35-49.35s49.35,22.14,49.35,49.35
					S2151.95,980.78,2124.74,980.78z M2124.74,887.93c-23.98,0-43.49,19.51-43.49,43.49c0,23.98,19.51,43.5,43.49,43.5
					c23.98,0,43.5-19.51,43.5-43.5C2168.24,907.44,2148.73,887.93,2124.74,887.93z"/>
			</g>
			<g>
				<path class="st24" d="M2257.51,980.78c-27.21,0-49.35-22.14-49.35-49.35s22.14-49.35,49.35-49.35s49.35,22.14,49.35,49.35
					S2284.73,980.78,2257.51,980.78z M2257.51,887.93c-23.98,0-43.5,19.51-43.5,43.49c0,23.98,19.51,43.5,43.5,43.5
					c23.98,0,43.49-19.51,43.49-43.5C2301.01,907.44,2281.5,887.93,2257.51,887.93z"/>
			</g>
			<g>
				<path class="st24" d="M2210.18,934.21c-23.91-7.81-37.43-0.32-37.56-0.24l-2.91-5.08c0.64-0.37,15.93-8.85,42.29-0.24
					L2210.18,934.21z"/>
			</g>
		</g>
	</g>
	<g>
		<path class="st25" d="M4000.95,867.84c14.56,21.65,29.81,43.21,50.23,59.37c21.87,17.3,48.45,27.43,72.33,41.82
			c23.89,14.39,46.42,35.35,51.31,62.81c4.55,25.53-7,51.7-3.48,77.39c3.9,28.47,25.59,51.79,31.15,79.99
			c7.67,38.93-18.81,78.9-54.44,96.38c-61.86,30.36-114.72-3.84-176.67-4.88c-57.17-0.96-112.66,17.62-166.64,36.48
			c-14.44,5.04-29.09,10.17-44.35,11.13c-61.73,3.89-108.99-58.76-170.21-67.57c-40.87-5.88-84.75,12.89-122.72-3.32
			c-40.32-17.2-56.24-69-46.7-111.79c9.54-42.78,38.15-78.43,66.29-112.04c28.14-33.61,57.47-68.38,68.98-110.68
			c7.12-26.2,7-54.09,15.6-79.85c22.99-68.89,103.97-126.38,173.15-140.04c54.48-10.76,107.13,6.09,154.73,32.06
			c44.14,24.08,70.56,86.62,97.82,127.35C3998.54,864.25,3999.74,866.04,4000.95,867.84z"/>
		<path class="st6" d="M3642.91,1039.96c-0.5-1.19-1.54-2.3-2.78-2.99c2.33-4.59,2.68-10.22,0.77-15.04
			c-0.13-0.34-0.38-0.63-0.54-0.96c-0.45-3.71-2.45-7.19-4.99-9.94c-5.05-5.49-13.79-8.85-21.14-6.48
			c-1.05-0.37-2.25-0.51-3.39-0.39c0.2-0.02,0.76-0.16-0.28,0c-0.59,0.09-1.06,0.26-1.59,0.57c-0.59,0.35-1.12,0.81-1.65,1.23
			c-1.26,1.01-2.41,2.08-3.26,3.46c-2.93,4.78-4.36,10.56-3.91,16.16c0.49,6.02,2.67,11.56,6.74,16.07
			c3.7,4.08,8.97,6.98,14.34,8.14c6.08,1.31,12.2,0.66,17.82-1.89c0.02-0.01,0.04-0.01,0.06-0.02c0.46-0.22,0.95-0.35,1.4-0.59
			C3643.09,1045.92,3643.99,1042.52,3642.91,1039.96z"/>
		<g>
			<path class="st12" d="M3362.54,1537.77h-138.38c-5.82-27.22-11.33-54.12-16.05-78.43c-1.18-5.74-2.2-11.41-3.23-16.83
				c-4.48-23.13-8.1-42.95-10.7-57.35c-2.68-15.18-4.25-24.15-4.25-24.15s49.25,10.23,93.53-29.03c0,0,1.26,3.15,3.54,8.81
				C3297.72,1367.93,3331.55,1453.68,3362.54,1537.77z"/>
		</g>
		<g>
			<path class="st12" d="M3264.89,1179.27c0.81,2.81,1.41,5.71,1.9,8.48c2.69,15.25,5.12,30.69,10.89,45.06
				c3.03,7.54,6.95,14.72,9.59,22.41c5.26,15.33,5.19,31.9,4.89,48.1c-0.46,25.19-3.86,57.77-33.28,64.94
				c-18.04,4.39-31.1,31.89-50.05,26.3c-13.58-4.01-23.86-20.55-32.69-30.7c-11.99-13.79-23.4-28.12-33.24-43.54
				c-16.76-26.25-29-56.09-30.49-87.2c-1.28-26.74,7.95-56.88,31.92-68.78c5.65-2.81,12.49-4.41,18.21-1.74
				c3.44,1.61,6.04,4.56,8.54,7.42c8.33,9.58,16.66,19.15,24.99,28.73c5.71,6.57,11.56,13.27,18.74,18.28
				c5,3.48,16.35,10.37,22.56,6.64c6.49-3.89,5.81-18.53,5.97-24.86c0.27-10.57-0.61-21.18,0.83-31.69c0.16-1.18,0.37-2.4,1.07-3.36
				c1.57-2.15,4.85-2.07,7.32-1.09C3259.3,1165.35,3262.8,1172.04,3264.89,1179.27z"/>
		</g>
		<path class="st13" d="M3239.66,1325.18c-5.74-13.08-9.41-25.02-7.57-39.43c1.81-14.17,9.11-25.83,13.53-39.12
			c0.24-0.72-0.71-1.44-1.29-0.86c-19.73,19.46-28.19,59.76-9.13,82.38C3237.24,1330.55,3240.86,1327.92,3239.66,1325.18z"/>
		<path class="st26" d="M3560.78,1537.77h-185.57c4.72-18.8,9.36-38.31,14-58.61c43.19-188.72,109.66-231.91,109.66-231.91
			C3549.69,1230.9,3559.76,1413.48,3560.78,1537.77z"/>
		<path class="st27" d="M4136.78,1537.77h-199.34c1.34-12.04,2.68-24.62,4.17-37.52c1.57-13.22,3.22-26.83,5.11-40.36
			c8.65-64.58,20.53-129.72,35.87-168.27c9.83-24.78,21.16-38.63,34.06-34.46l1.49,0.63
			C4070.86,1281.01,4103.58,1383.98,4136.78,1537.77z"/>
		<path class="st12" d="M3895.28,1212.79c0,0-87.04,321.5-163.37,305.44c-76.33-16.06-120.99-317.39-120.99-317.39l63.46-33.32
			c8.5-4.38,14.07-12.88,14.87-22.3l0.66-8.23l6.11-74.87l110.45,12.21l3.58,42.35l2.92,33.98c0.8,9.03,5.84,16.99,13.54,21.51
			L3895.28,1212.79z"/>
		<path class="st13" d="M3810.06,1116.68c-21.9,19.38-51.24,31.33-90.4,26.95c-10.88-1.2-20.84-3.45-29.74-6.64l6.11-74.87
			l110.45,12.21L3810.06,1116.68z"/>
		<path class="st12" d="M3866.54,950.86c0,0,23.93-20.02,36.68-4.13c12.75,15.89-7.13,89.79-56.16,82.6L3866.54,950.86z"/>
		<path class="st12" d="M3621,855.13c25.14-53.35,117.39-52.62,117.39-52.62s14.72,43.35,129.62,107.65c0,0,12.05,33.13-4.97,89.23
			c-17.02,56.1-55.18,117.79-143.41,118.32c-72.19,0.44-109.89-88.14-114.35-146.6C3600.82,912.66,3621,855.13,3621,855.13z"/>
		<path class="st18" d="M3744.73,986.14c0.14,0.02,0.12,0.23-0.02,0.22C3744.56,986.35,3744.59,986.13,3744.73,986.14z"/>
		<path class="st17" d="M3776.83,931.36c0.74,0.02,1.51,0.11,2.34,0.36c8.41,2.47,7.6,14.01,4.23,20.15
			c-1.64,2.98-4.53,5.39-8.11,4.93c-3.98-0.5-6.21-4.07-7.14-7.64C3766.48,942.75,3768.08,930.51,3776.83,931.36z"/>
		<path class="st17" d="M3668.12,923.34c-0.73-0.14-1.5-0.22-2.37-0.16c-8.75,0.58-10.45,12.03-8.49,18.75
			c0.95,3.26,3.25,6.24,6.85,6.58c3.99,0.37,6.94-2.63,8.62-5.91C3675.76,936.7,3676.85,924.4,3668.12,923.34z"/>
		<path class="st27" d="M4018.15,1257.8l-10.07,86.93h-0.16l-0.16,0.79l-22.26,192.26H3479.6c-12.35-27.85-21.95-64.27-4.72-89.76
			c25.65-37.68,34.69-77.17,36.19-111.08c1.26-28.24-2.6-52.55-6.37-68.75c-2.75-12.35-5.51-19.9-5.66-20.77
			c-0.16-0.16-0.16-0.16-0.16-0.16l138.92-63.56c0.24,0.87,0.47,1.73,0.71,2.67c13.22,50.66,16.36,224.2,93.38,224.2
			c18.96,0,36.11-12.98,51.21-32.8c43.11-56.33,69.46-167.32,74.03-187.54c0.47-2.12,0.71-3.22,0.71-3.22l145.3,64.35l1.57,0.63
			h0.16l11.8,5.19L4018.15,1257.8z"/>
		<path class="st13" d="M3712.17,958.51c3-7.09,2.82-16.43,7.38-22.39c0.22-0.28,0.6-0.39,0.88-0.11c5.96,5.81,2.24,16.56-0.27,23.4
			c-1.76,4.8-3.94,9.44-6.13,14.05c-0.73,1.54-4.24,6.35-3.86,8.11c1.04,4.84,9.94,4.71,13.3,4.34c5.57-0.62,5.61,8.24,0,8.77
			c-7.95,0.75-24.13-3.26-22.22-13.61C3702.63,973.53,3709.17,965.6,3712.17,958.51z"/>
		<path class="st13" d="M3880.47,965.67c2.15-0.81,4.16,2.51,2.31,3.96c-4.76,3.73-9.55,7.43-13.59,11.96
			c4.24-0.11,8.72,0.88,12.35,2.19c2.87,1.04,2.67,5.76-0.76,5.63c-5.29-0.2-11.67,0.78-16.84-0.43c-1.9,3.28-3.56,6.69-5.46,10.1
			c-1.84,3.28-6.67,1.01-5.9-2.49C3855.49,983.41,3868.05,970.35,3880.47,965.67z"/>
		<path class="st26" d="M3991.41,1294.14c-31,79.38-33.91,161.35-26.83,243.63h-15.18c-0.55-8.02-1.02-16.05-1.42-24.07
			c-0.55-12.19-0.95-24.31-1.1-36.42c-0.08-5.74-0.16-11.49-0.16-17.39c-0.39-57.27,3.54-120.12,35.87-168.27
			c0.24-0.31,0.39-0.63,0.63-0.94C3985.9,1286.83,3993.37,1289.11,3991.41,1294.14z"/>
		<path class="st17" d="M3751.96,898.87c0.87-0.33,1.75-0.66,2.62-0.97c-0.7,0.4-1.4,0.82-2.1,1.22c2.53-2.01,4.92-2.09,8.04-2.21
			c2.19-0.09,4.38-0.1,6.56-0.03c4.83,0.14,9.65,0.66,14.42,1.45c4.67,0.78,9.12,2.04,13.55,3.7c4.34,1.64,8.89,3.3,12.08,6.78
			c1.52,1.65,0.52,4.6-1.89,4.55c-4.35-0.08-8.4-1.66-12.58-2.68c-4.39-1.07-8.91-1.9-13.38-2.57c-4.19-0.62-8.43-0.89-12.67-0.91
			c-2.19-0.02-4.38,0.04-6.56,0.18c-1.07,0.07-2.2,0.3-3.27,0.26c-1.34-0.04-2.42-0.63-3.73-0.79
			C3748.47,906.32,3747.52,900.57,3751.96,898.87z"/>
		<path class="st17" d="M3636.18,895.95c0.8-1.89,3.43-3.5,5.3-4.17c2.22-0.8,4.55-1.38,6.86-1.83c4.67-0.9,9.6-0.88,14.31-0.4
			c4.59,0.45,9.27,1.21,13.6,2.83c2.31,0.87,4.6,1.86,6.8,2.99c0.97,0.49,2.1,0.97,2.89,1.74c0.88,0.84,1.6,2.04,2.38,2.98
			c1.56,1.9,0.08,4.4-2.33,3.99c-0.98-0.17-1.87-0.16-2.85-0.22c-1.18-0.08-2.16-0.61-3.24-1.02c-1.97-0.74-3.98-1.35-6.03-1.87
			c-3.97-0.99-7.92-1.85-12.01-2.1c-4.25-0.26-8.42,0.11-12.64,0.5c-3.79,0.35-8.53,2.19-12.09,0.21
			C3635.77,898.83,3635.63,897.24,3636.18,895.95z"/>
		<path class="st13" d="M3704.23,1024.01c1.06,0.13,2.04-0.12,3.1-0.04c1.18,0.08,2.33,0.47,3.48,0.73
			c2.04,0.46,4.09,0.79,6.17,0.97c4.11,0.36,8.29,0.63,12.41,0.45c4-0.18,7.93-0.85,11.79-1.93c4.19-1.18,8.21-3.41,12.43-4.36
			c3.87-0.88,6.8,3.76,3.91,6.73c-3.33,3.42-8.52,5.3-12.98,6.7c-4.77,1.48-9.76,2.33-14.73,2.68c-4.89,0.33-9.71,0.07-14.49-1.1
			c-2.28-0.56-4.53-1.25-6.72-2.1c-1.07-0.4-2.28-0.77-3.27-1.34c-1.21-0.71-1.74-1.7-2.47-2.26
			C3701.01,1027.7,3701.16,1023.62,3704.23,1024.01z"/>
		<g>
			<path class="st14" d="M3232.41,1118.15h-110.77c0,0-65.09,159.07,51.28,162.52v158.7c-26.63,0.78-47.58,9.41-47.58,19.98h47.58
				c0,0.02,7.87,0.02,7.87,0.02c0-0.02,47.6-0.02,47.6-0.02c0-10.58-20.97-19.2-47.6-19.98v-158.72
				C3296.72,1276.91,3232.41,1118.15,3232.41,1118.15z"/>
			<path class="st27" d="M3222.44,1243.84c-3.04,4.44-12.18,18.09-45.74,18.09c-33.57,0-42.61-13.57-45.66-18
				c-12.78-19.13-10.52-51.83-4.61-80.01h100.97C3233.22,1192.09,3235.31,1224.88,3222.44,1243.84z"/>
		</g>
		<path class="st6" d="M3882.7,1028.81c-5.74-10.26-18.94-16.13-29.79-12.51c-9.58,0.64-18.43,9.19-21.88,17.62
			c-4.83,11.8-1.56,26.43,7.85,35.06c5.17,4.74,12.2,7.93,19.31,7.64c7.27-0.3,13.73-4.14,18.64-9.35
			C3886.51,1056.98,3889.77,1041.46,3882.7,1028.81z"/>
		<path class="st6" d="M3867.49,1095.85c-0.08-0.78-0.16-1.6-0.37-2.37c-0.29-1.03-0.73-2.08-1.31-2.99
			c-2.6-4.08-7.47-6.61-12.31-5.3c-0.15,0.04-0.29,0.13-0.44,0.18c-0.2,0.03-0.4,0.04-0.59,0.07c-0.33,0.06-0.65,0.14-0.97,0.25
			c-1.6,0.57-2.71,1.23-4.01,2.31c-0.24,0.2-0.46,0.42-0.66,0.66c-0.5,0.59-1.03,1.21-1.4,1.9c-1.37,2.55-1.64,5.34-1.04,8.14
			c0.07,0.33,0.17,0.66,0.3,0.97c0.29,0.76,0.59,1.55,1.02,2.25c0.57,0.93,1.27,1.86,2.1,2.57c1.56,1.33,3.39,2.41,5.45,2.71
			c1.06,0.15,2.08,0.33,3.14,0.22c1.03-0.11,2.11-0.21,3.1-0.56c0.93-0.33,1.91-0.71,2.75-1.25c0.84-0.54,1.69-1.17,2.36-1.92
			c0.66-0.75,1.33-1.57,1.75-2.49c0.7-1.54,1.05-2.75,1.17-4.47C3867.53,1096.45,3867.52,1096.15,3867.49,1095.85z"/>
		<path class="st6" d="M3627.45,1068.9c-0.4-2.44-1.84-4.84-3.57-6.58c-1.74-1.75-4.18-3.23-6.65-3.6
			c-1.83-0.28-3.32-0.32-5.16,0.08c-1.19,0.26-2.39,0.78-3.42,1.43c-2.05,1.28-3.94,3.18-4.97,5.38c-0.51,1.09-1,2.21-1.2,3.4
			c-0.3,1.83-0.31,3.2,0,5.03c0.4,2.31,1.8,4.63,3.48,6.24c1.71,1.64,3.93,2.94,6.26,3.47c2.29,0.52,4.9,0.59,7.12-0.28
			c1.59-0.62,3.03-1.38,4.23-2.63c0.66-0.68,1.21-1.52,1.67-2.41c0.19-0.26,0.46-0.43,0.63-0.7c0.69-1.07,1.24-2.34,1.51-3.59
			C3627.78,1072.28,3627.75,1070.74,3627.45,1068.9z"/>
	</g>
	<g>
		<path class="st20" d="M4295.15,1934.52c-22.67,23.54-38.86,44.31-44.51,51.65c-0.36,0.53-0.73,1.06-1.01,1.4c0,0,0,0-0.03,0.06
			c-0.34,0.47-0.56,0.83-0.76,1.13c0.14-0.32,0.42-0.81,0.76-1.28c0.2-0.45,0.56-0.98,0.87-1.54
			c11.31-18.92,54.88-95.31,42.49-99.89c-10.59-4.03-18.92,16.2-36.04,42.08c-15.19,22.82-24.9,35.69-28.9,40.77
			c-0.14,0.17-0.25,0.27-0.31,0.4l-0.03,0.06c-1.17,1.33-1.76,2.07-1.76,2.07l1.21-2.46l0.03-0.06l0.25-0.43l10.04-19.47
			c19.38-34.03,39.01-79.31,37.92-87.78c-1.26-8.38-7.41-17.14-25.56,11.99c-15.68,25.29-44.6,69.42-52.64,81.48
			c-0.06,0.13-0.14,0.17-0.17,0.23c-0.95,1.58-1.66,2.58-1.85,2.87l1.22-3.07l0.14-0.32l11.63-31.06
			c25.06-62.47,27.99-82.07,18.11-79.03c-11.9,3.77-76.17,129.05-76.17,129.05s-10.32-37.52-22.55-54.62
			c-12.34-17.15-18.11,2.52-15.68,9.57c2.46,7.14,13.08,28.19,0,66.78c-8.73,25.74-2.26,68.75-2.26,68.75l-15.66,63.29
			c3.21,1.07,5.14,4.43,5.03,7.87c0.07-0.09,0.14-0.18,0.21-0.28c0.17-1.87-0.49-3.15-0.85-3.68c-0.31-0.35-0.23-0.34,0,0
			c0.24,0.27,0.69,0.73,1.54,1.45c1.7,1.45,3.38,2.92,5.1,4.34c4.42,3.65,8.94,7.19,13.48,10.68c9.93,7.62,19.54,13.65,30.93,19.07
			c14.34,6.82,29.18,12.62,44.32,17.53c3.18-47.82,3.32-87.31,4.72-91.46c0,0,27.06-20.75,75.83-98.63
			C4314.65,1929.78,4302.21,1927.1,4295.15,1934.52z"/>
		<path class="st19" d="M4107.05,2399.57h-256.93c22.11-94.4,65.29-252.28,105.65-244.18c0,0,53.73,27.85,99.59,105.65
			C4076.13,2296.28,4095.25,2341.75,4107.05,2399.57z"/>
		<path class="st22" d="M3435.24,2036.34c12.97,2.71,25.96,5.17,35.63,13.83c15.68,14.02,17.57,40.36,35.63,51.14
			c11.48,6.86,26.19,5.09,38.8,0.66c12.62-4.42,24.41-11.25,37.45-14.21c45.91-10.41,75.47,27.22,110.83,47.67
			c35.29,20.41,78.51,25.37,116.17,7.87c36.22-16.82,69.38-33.57,111.05-33.1c8.53,0.1,17.21,0.86,25.49-1.23
			c14.85-3.76,26.67-17.39,28.28-32.63c1.11-10.51-1.33-23.37,7.08-29.77c4.92-3.75,11.7-3.48,17.63-5.21
			c14.73-4.29,22.66-20.19,26.57-35.03c3.91-14.84,5.9-30.98,15.6-42.87c9.21-11.29,24.25-17.14,32.03-29.46
			c9.58-15.17,5.15-35.32-2.9-51.35c-7.32-14.57-17.61-28.78-17.55-45.09c0.05-14.13,8.01-28.4,3.53-41.79
			c-6.91-20.65-38.05-24.52-45.5-44.97c-3.18-8.73-1.12-18.39-1.52-27.67c-0.83-19.35-13.51-37.71-31.31-45.33
			c-19.49-8.34-44.65-5.2-59.19-20.63c-5.75-6.09-8.77-14.19-13.22-21.28c-16.26-25.88-50.83-35.62-80.91-30.17
			c-16.56,3-34.09,9.77-49.52,3.05c-11.03-4.8-18.45-15.65-29.32-20.78c-28.54-13.44-62.05,18.16-92.12,8.64
			c-8.58-2.72-15.83-8.57-24.22-11.82c-26.39-10.22-55.36,7.63-74.62,28.36c-6.04,6.5-12.06,13.64-20.4,16.7
			c-6.84,2.51-14.37,1.92-21.65,1.58c-28.07-1.34-59.82,3.26-76.7,25.72c-12.97,17.25-14.03,41.26-26.95,58.54
			c-14.84,19.86-43.9,29.07-50.74,52.9c-6.27,21.86,9.97,44.4,7.86,67.04c-1.16,12.47-4.61,23.36-10.48,34.36
			c-10.19,19.11-8.85,46.54,9.24,58.46c9.36,6.17,21.88,7.47,29.47,15.73c18.67,20.3-9.68,58.57,8.78,79.06
			c3.79,4.21,9.06,6.81,14.42,8.67C3423.52,2033.84,3429.38,2035.12,3435.24,2036.34z"/>
		<path class="st19" d="M3479.68,2357.01c0,0-8.97,17.23-24.94,42.56h-232.85c19.9-29.11,47.83-68.91,78.43-108.64
			c19.12-24.94,39.25-49.87,59.08-72.14c0-0.16,0-0.16,0-0.16c31.7-35.32,72.61-67.34,86.93-73.79l0.23-0.08
			C3456.16,2144.77,3479.68,2357.01,3479.68,2357.01z"/>
		<path class="st20" d="M3835.25,2111.12c0,0-68.13,138.86-143.03,123.1c-74.9-15.76-135.99-134.82-135.99-134.82l62.27-32.7
			c8.34-4.3,13.81-12.64,14.59-21.88l0.65-8.08l5.99-73.47l108.38,11.98l3.52,41.55l2.87,33.35c0.78,8.86,5.73,16.67,13.29,21.1
			L3835.25,2111.12z"/>
		<path class="st21" d="M3751.62,2016.81c-21.49,19.02-50.28,30.74-88.71,26.44c-10.68-1.17-20.45-3.39-29.18-6.51l5.99-73.47
			l108.38,11.98L3751.62,2016.81z"/>
		<path class="st20" d="M3807.05,1854.1c0,0,23.49-19.64,36-4.05c12.51,15.59-7,88.11-55.11,81.06L3807.05,1854.1z"/>
		<path class="st20" d="M3566.11,1760.17c24.67-52.35,115.19-51.64,115.19-51.64s14.44,42.54,127.18,105.63
			c0,0,11.83,32.51-4.88,87.56c-16.71,55.05-54.66,125.54-140.72,116.1c-86.07-9.44-107.83-86.48-112.21-143.85
			C3546.31,1816.62,3566.11,1760.17,3566.11,1760.17z"/>
		<path class="st18" d="M3687.52,1888.72c0.14,0.02,0.11,0.23-0.02,0.21S3687.38,1888.71,3687.52,1888.72z"/>
		<path class="st22" d="M3724.98,1841.49c0.73,0.02,1.48,0.11,2.3,0.35c8.26,2.42,7.46,13.75,4.15,19.77
			c-1.6,2.92-4.44,5.29-7.96,4.84c-3.9-0.49-6.09-4-7-7.5C3714.82,1852.67,3716.39,1840.66,3724.98,1841.49z"/>
		<path class="st22" d="M3617.47,1829.7c-0.71-0.14-1.47-0.21-2.32-0.16c-8.58,0.57-10.26,11.81-8.33,18.4
			c0.93,3.2,3.19,6.12,6.72,6.45c3.92,0.36,6.81-2.58,8.46-5.8C3624.97,1842.81,3626.03,1830.75,3617.47,1829.7z"/>
		<path class="st23" d="M3955.77,2155.39l-28.4,244.18h-510.7c-4.88-20.22-5.11-41.22,6.06-57.66
			c62.93-92.67,23.6-197.06,23.6-197.06l0.23-0.08l86.93-39.73l49.09-22.42c0.24,0.87,0.47,1.73,0.71,2.6
			c0.24,0.71,0.47,1.49,0.71,2.28c2.28,7.71,4.48,15.42,7.08,22.89c1.42,4.25,2.99,8.42,4.72,12.51
			c12.51,29.19,33.75,51.76,87.63,51.76c24.78,0,45.55-9.2,62.3-21.71c4.96-3.7,9.6-7.71,13.85-11.88
			c4.41-4.17,8.42-8.57,12.04-12.9c13.92-16.68,22.42-33.04,25.57-39.49c0.87-1.89,1.34-2.91,1.34-2.91l72.37,32.02L3955.77,2155.39
			z"/>
		<path class="st21" d="M3655.57,1861.61c2.94-6.96,2.77-16.12,7.24-21.97c0.21-0.28,0.59-0.38,0.87-0.11
			c5.85,5.7,2.2,16.25-0.27,22.96c-1.73,4.71-3.86,9.26-6.01,13.79c-0.72,1.51-4.16,6.23-3.79,7.95c1.02,4.75,9.76,4.62,13.05,4.26
			c5.47-0.6,5.5,8.09,0,8.6c-7.8,0.73-23.68-3.2-21.8-13.36C3646.21,1876.35,3652.63,1868.57,3655.57,1861.61z"/>
		<path class="st21" d="M3820.71,1868.63c2.11-0.8,4.08,2.47,2.26,3.89c-4.67,3.66-9.37,7.29-13.33,11.73
			c4.16-0.11,8.55,0.86,12.12,2.15c2.81,1.02,2.62,5.65-0.75,5.52c-5.19-0.2-11.45,0.76-16.53-0.43c-1.86,3.22-3.49,6.56-5.36,9.91
			c-1.8,3.22-6.55,0.99-5.79-2.44C3796.2,1886.04,3808.53,1873.22,3820.71,1868.63z"/>
		<path class="st22" d="M3704.72,1803.17c8.88-4.24,18.94-2.23,28.1,0.45c8.07,2.36,20.49,6.3,24.05,14.53
			c1.09,2.51-0.16,5.29-3.11,5.42c-8.12,0.36-16.42-5.75-24.24-7.98c-8.24-2.35-17.06-2.44-24.8-6.19
			C3702.38,1808.25,3702.36,1804.3,3704.72,1803.17z"/>
		<path class="st22" d="M3591.63,1792.16c10.91-11.44,36.82-6.49,48.51,1.36c3.72,2.5,2.82,9.9-2.53,9.34
			c-8.48-0.89-16.45-3.72-25.07-3.53c-7.11,0.16-13.72,2.02-20.19-1.57C3590.3,1796.62,3590.08,1793.79,3591.63,1792.16z"/>
		<path class="st21" d="M3655.95,1913.97c-1.13,0-1.13,1.76,0,1.76S3657.09,1913.97,3655.95,1913.97z"/>
		<path class="st21" d="M3696.66,1919.47c-10.2,2.9-19.38,8.54-30.12,9.87c-5.22,0.64-10.68,0.53-15.89-0.18
			c-2.59-0.35-5.16-0.94-7.66-1.68c-2.61-0.78-5.37-1.95-8.15-1.64c-1.56,0.18-2.55,1.62-1.78,3.11c2.59,4.99,10.35,6.96,15.37,8.25
			c6.06,1.56,12.34,1.98,18.57,1.39c11.76-1.1,26.14-5.06,31.6-16.59C3699.21,1920.7,3698.2,1919.03,3696.66,1919.47z"/>
		<path class="st23" d="M4208.29,2399.57h-176.61c6.92-43.5,15.5-92.83,23.68-138.53c15.02-83.39,28.87-154.34,28.87-154.34l14,3.3
			l98.1,23.44l9.28,2.2C4205.62,2135.64,4213.72,2276.3,4208.29,2399.57z"/>
		<g>
			<path class="st21" d="M4249.48,1987.02c-3.41-5.91-9.88-9.73-15.17-13.41c-5.6-3.89-11.4-7.39-17.46-10.45
				c-5.77-2.91-11.7-5.51-17.77-7.74c-6.02-2.21-12.65-4.54-19.24-4.61c-0.25,0-0.42,0.42-0.19,0.55
				c5.27,2.96,11.33,4.74,16.91,7.04c6.54,2.7,12.9,5.8,19.04,9.34c5.66,3.26,11.22,6.77,16.54,10.6c5.15,3.7,9.9,8.81,15.75,11.21
				C4249.25,1990.1,4250.1,1988.08,4249.48,1987.02z"/>
			<path class="st21" d="M4167.63,2017.83c-0.12-6.84-1.23-13.51-3.34-19.71c-1.79-5.24-4.74-12.43-9.95-14.18
				c-0.76-0.25-1.64,0.78-1.26,1.58c1.2,2.55,3.07,4.62,4.43,7.06c1.33,2.38,2.35,5,3.19,7.69c1.87,6.04,2.69,12.63,2.55,19.25
				c-0.27,12.74-4.34,25.16-9.38,37.05c-0.58,1.38,1.08,1.9,1.85,0.93C4164.53,2046.37,4167.89,2031.53,4167.63,2017.83z"/>
		</g>
		<path class="st20" d="M3078.8,1934.52c22.66,23.54,38.86,44.31,44.51,51.65c0.36,0.53,0.73,1.06,1.01,1.4c0,0,0,0,0.03,0.06
			c0.34,0.47,0.56,0.83,0.76,1.13c-0.14-0.32-0.42-0.81-0.76-1.28c-0.2-0.45-0.56-0.98-0.87-1.54
			c-11.31-18.92-54.88-95.31-42.49-99.89c10.59-4.03,18.92,16.2,36.04,42.08c15.19,22.82,24.9,35.69,28.9,40.77
			c0.14,0.17,0.25,0.27,0.31,0.4l0.03,0.06c1.17,1.33,1.76,2.07,1.76,2.07l-1.21-2.46l-0.03-0.06l-0.25-0.43l-10.04-19.47
			c-19.38-34.03-39.01-79.31-37.92-87.78c1.26-8.38,7.41-17.14,25.56,11.99c15.68,25.29,44.6,69.42,52.64,81.48
			c0.06,0.13,0.14,0.17,0.17,0.23c0.95,1.58,1.66,2.58,1.85,2.87l-1.22-3.07l-0.14-0.32l-11.63-31.06
			c-25.06-62.47-27.99-82.07-18.11-79.03c11.9,3.77,76.17,129.05,76.17,129.05s10.32-37.52,22.55-54.62
			c12.34-17.15,18.11,2.52,15.68,9.57c-2.46,7.14-13.08,28.19,0,66.78c8.73,25.74,2.26,68.75,2.26,68.75l15.66,63.29
			c-3.21,1.07-5.14,4.43-5.03,7.87c-0.07-0.09-0.14-0.18-0.21-0.28c-0.17-1.87,0.49-3.15,0.85-3.68c0.32-0.35,0.23-0.34,0,0
			c-0.24,0.27-0.69,0.73-1.54,1.45c-1.7,1.45-3.38,2.92-5.1,4.34c-4.42,3.65-8.94,7.19-13.48,10.68
			c-9.93,7.62-19.54,13.65-30.93,19.07c-14.34,6.82-29.18,12.62-44.32,17.53c-3.18-47.82-3.32-87.31-4.71-91.46
			c0,0-27.06-20.75-75.83-98.63C3059.3,1929.78,3071.73,1927.1,3078.8,1934.52z"/>
		<path class="st23" d="M3342.25,2399.57h-176.61c-5.43-123.27,2.68-263.93,2.68-263.93l9.28-2.2l98.18-23.44l14-3.3
			c0,0,17.31,88.74,34.14,184.24C3330.45,2327.67,3336.82,2365.43,3342.25,2399.57z"/>
		<g>
			<path class="st21" d="M3124.47,1987.02c3.41-5.91,9.88-9.73,15.17-13.41c5.6-3.89,11.4-7.39,17.46-10.45
				c5.77-2.91,11.7-5.51,17.77-7.74c6.02-2.21,12.65-4.54,19.24-4.61c0.25,0,0.42,0.42,0.19,0.55c-5.27,2.96-11.33,4.74-16.91,7.04
				c-6.54,2.7-12.9,5.8-19.04,9.34c-5.66,3.26-11.22,6.77-16.54,10.6c-5.15,3.7-9.9,8.81-15.75,11.21
				C3124.7,1990.1,3123.85,1988.08,3124.47,1987.02z"/>
			<path class="st21" d="M3206.32,2017.83c0.12-6.84,1.23-13.51,3.34-19.71c1.78-5.24,4.74-12.43,9.95-14.18
				c0.76-0.25,1.64,0.78,1.26,1.58c-1.2,2.55-3.07,4.62-4.43,7.06c-1.33,2.38-2.35,5-3.19,7.69c-1.87,6.04-2.69,12.63-2.55,19.25
				c0.27,12.74,4.34,25.16,9.38,37.05c0.58,1.38-1.08,1.9-1.85,0.93C3209.42,2046.37,3206.06,2031.53,3206.32,2017.83z"/>
		</g>
		<path class="st28" d="M3773.84,2069.55c-0.42-5.3-8.61-5.43-8.36,0c2.64,56.92-9.94,116.51-53.07,156.77
			c-9.58,8.94-20.52,16.79-32.44,22.32c-14.17,6.57-28.55,6.05-41.78-2.45c-11.92-7.65-19.91-19.98-25.79-32.6
			c-6.13-13.17-10.43-27.29-13.25-41.52c-3.25-16.42-4.29-33.27-3.26-49.97c1.05-17.01,5.58-32.88,8.81-49.48
			c0.36-1.86-2.3-3.3-3.26-1.37c-6.81,13.66-9.39,29.76-11.03,44.81c-1.72,15.8-1.54,31.77,0.47,47.54
			c2.01,15.77,5.78,31.29,11.49,46.13c5.26,13.66,12.19,27.23,23.03,37.33c10.42,9.71,24.66,16.39,39.14,15.26
			c15.09-1.17,29.18-9.64,41.08-18.49c22.68-16.86,40.32-40.02,51.59-65.88C3772.02,2144.01,3776.78,2106.3,3773.84,2069.55z"/>
		<path class="st28" d="M3803.08,1921.78c-0.36-1.3-1.02-2.42-1.97-3.38c-0.52-0.4-1.03-0.8-1.55-1.2
			c-1.19-0.69-2.48-1.04-3.86-1.04c-0.1,0.01-0.21,0.02-0.31,0.03c-1.05-0.04-2.03,0.18-2.94,0.66c-0.94,0.31-1.76,0.83-2.45,1.58
			c-0.74,0.69-1.27,1.51-1.57,2.45c-0.48,0.91-0.7,1.89-0.66,2.94c0.09,0.68,0.18,1.35,0.27,2.03c0.36,1.29,1.01,2.41,1.96,3.36
			c0.51,0.4,1.03,0.79,1.54,1.19c1.19,0.69,2.47,1.04,3.85,1.04c0.1,0.01,0.21,0.02,0.31,0.03c1.05,0.04,2.04-0.18,2.95-0.66
			c0.95-0.31,1.77-0.84,2.46-1.58c0.75-0.69,1.27-1.51,1.58-2.46c0.48-0.91,0.7-1.89,0.66-2.95
			C3803.26,1923.14,3803.17,1922.46,3803.08,1921.78z"/>
	</g>
	<g>
		<path class="st6" d="M948.84,1401.88c-0.08,0.08-0.08,0.08-0.08,0.08H472.14c0,0,103.51-138.61,83.25-476.09h476.61
			C1051.94,1258.55,951.71,1397.95,948.84,1401.88z"/>
		<path class="st0" d="M920.31,1143.27c-1.86-8.28-8.99-13.49-16.98-15.13c-9-1.85-18.39-0.42-27.32,1.12
			c-10.1,1.74-20.02,4.45-29.66,7.9c-19.58,7-38.03,16.88-55.41,28.24c-37.03,24.21-69,55.08-104.51,81.32
			c-8.13,6.01-16.55,12.96-25.78,17.21c-5.11,2.36-15.18,5.81-19.63,0.49c-3.26-3.9-0.94-9.92,0.45-14.11
			c1.52-4.57,3.19-9.1,4.98-13.57c3.6-8.99,7.79-17.76,12.41-26.27c18.23-33.58,43.47-62.81,71.91-88.14
			c29.15-25.96,61.58-46.61,94.82-66.81c14.63-8.89,29.58-21.51,28.68-40.31c-0.37-7.75-3.6-15.32-10.14-19.82
			c-7.96-5.48-18.04-4.94-27.11-3.22c-37.25,7.08-73.96,23.36-106.22,42.95c-32.94,20.01-62.81,45.32-87.28,75.14
			c-5.9,7.19-11.36,14.56-16.38,22.39c-1.11,1.73,1.55,3.87,2.9,2.23c24.21-29.49,50.58-56.34,81.85-78.41
			c30.99-21.87,65.4-38.81,101.74-49.74c9.2-2.77,18.67-5.68,28.2-7.04c9.34-1.34,19.96,0.19,23.2,10.39
			c6.11,19.24-13.89,32.26-27.85,40.36c-32.38,18.77-63.43,39.78-91.5,64.61c-27.56,24.38-52.28,52.46-70.76,84.39
			c-9.14,15.79-16.97,32.62-22.47,50.04c-2.5,7.92-3.04,17.31,4.33,22.83c5.4,4.05,12.68,3.82,18.95,2.28
			c8.16-2,15.04-6.58,21.88-11.25c8.9-6.09,17.53-12.55,26.04-19.18c17.18-13.39,33.72-27.56,50.68-41.21
			c32.27-25.98,67.3-50.72,107.76-61.84c10.45-2.87,48.19-13.85,50.08,5.29c0.97,9.81-8.83,18.33-15.3,24.32
			c-6.28,5.81-12.78,11.36-19.33,16.87c-13.31,11.18-26.9,22.12-39.13,34.51c-11.3,11.44-22.45,24.64-28.62,39.67
			c-3.04,7.41-4.8,15.24-5.79,23.16c-0.48,3.79,5.79,4.56,6.64,0.9c8.08-34.76,35.02-59.46,61.1-81.7
			c6.93-5.91,13.92-11.74,20.77-17.74c6.9-6.04,14.21-12.12,19.94-19.32C917.63,1160.51,922.25,1151.92,920.31,1143.27z"/>
	</g>
</g>
</svg>
