<?xml version="1.0" encoding="utf-8"?>
<!-- Generator: Adobe Illustrator 26.3.1, SVG Export Plug-In . SVG Version: 6.00 Build 0)  -->
<svg version="1.1" id="Layer_1" xmlns="http://www.w3.org/2000/svg" xmlns:xlink="http://www.w3.org/1999/xlink" x="0px" y="0px"
	 viewBox="0 0 4813.1 2414.3" style="enable-background:new 0 0 4813.1 2414.3;" xml:space="preserve">
<style type="text/css">
	.st0{fill:#FFFFFF;}
	.st1{fill-rule:evenodd;clip-rule:evenodd;fill:url(#SVGID_1_);}
	.st2{fill-rule:evenodd;clip-rule:evenodd;fill:#BEE4E6;}
	.st3{fill-rule:evenodd;clip-rule:evenodd;fill:#FCC78E;}
	.st4{fill-rule:evenodd;clip-rule:evenodd;fill:#2DAFDB;}
	.st5{fill-rule:evenodd;clip-rule:evenodd;fill:#EBF4E5;}
	.st6{fill-rule:evenodd;clip-rule:evenodd;fill:#FFF5F1;}
	.st7{fill-rule:evenodd;clip-rule:evenodd;fill:#23B3AF;stroke:#23B3AF;stroke-width:0.216;stroke-miterlimit:2.6131;}
	.st8{fill-rule:evenodd;clip-rule:evenodd;fill:#2BB4BD;}
	.st9{fill-rule:evenodd;clip-rule:evenodd;fill:#7ECFDC;}
</style>
<rect x="-12.5" y="-0.1" class="st0" width="4845.5" height="2414.4"/>
<g>
	<linearGradient id="SVGID_1_" gradientUnits="userSpaceOnUse" x1="4876.0029" y1="1121.3411" x2="-39.2929" y2="1292.9871">
		<stop  offset="0" style="stop-color:#00A56C"/>
		<stop  offset="1" style="stop-color:#3B8AC9"/>
	</linearGradient>
	<rect x="4.3" class="st1" width="4828.6" height="2414.3"/>
	<polygon class="st2" points="4622.2,-0.1 4044.1,791.7 4028.5,780.3 4598.3,-0.1 	"/>
	<path class="st2" d="M4523.2,1319.9l160.1,108.4l-193.3,5.7l-53.6,185.8l-65.1-182.1l-193.2,6.4l153-118.2l-65.8-181.8l159.7,109
		l152.6-118.8L4523.2,1319.9L4523.2,1319.9z M4563.7,1154.8l-138.4,107.8l-144.9-98.9l59.7,165l-138.8,107.2l175.3-5.8l59.1,165.2
		l48.7-168.6l175.4-5.1l-145.3-98.4L4563.7,1154.8z"/>
	<path class="st3" d="M3121.9,1918l94.5,64l-114.1,3.3l-31.7,109.7l-38.4-107.5l-114.1,3.8l90.4-69.8l-38.9-107.4l94.3,64.4
		l90.1-70.1L3121.9,1918L3121.9,1918z M3145.9,1820.5l-81.7,63.6l-85.5-58.4l35.3,97.4l-82,63.3l103.5-3.4l34.9,97.5l28.7-99.5
		l103.6-3l-85.8-58.1L3145.9,1820.5z"/>
	<path class="st4" d="M742.2,1962.7c-6.6-4.1-13.1-8.1-19.7-12.1l857.7-335.2c3.3,7.8,6.4,15.6,9.4,23.4l-840.3,328.4
		C747,1965.6,744.6,1964.2,742.2,1962.7L742.2,1962.7z M696.5,1934.7l874-341.6c-3.5-7.7-7.1-15.3-10.8-22.9l-890.5,348.1
		C678.3,1923.7,687.4,1929.1,696.5,1934.7L696.5,1934.7z M642.8,1902.5l905.8-354c-4-7.5-8.1-14.9-12.3-22.3l-921.1,360
		C624.4,1891.6,633.6,1897,642.8,1902.5L642.8,1902.5z M588.6,1870.6l935.1-365.5c-4.5-7.3-9.2-14.5-13.9-21.6l-949.1,370.9
		C569.9,1859.7,579.2,1865.1,588.6,1870.6L588.6,1870.6z M533.8,1838.9l961.8-375.9c-5.1-7.1-10.3-14.1-15.7-21l-974.2,380.8
		C515,1828.1,524.3,1833.5,533.8,1838.9L533.8,1838.9z M478.6,1807.3l985.3-385.1c-5.7-6.8-11.6-13.6-17.6-20.2l-995.9,389.2
		L478.6,1807.3L478.6,1807.3z M423.2,1775.8l1005-392.8c-6.5-6.6-13.1-13-19.9-19.3L394.9,1759.8L423.2,1775.8L423.2,1775.8z
		 M367.8,1744.3l1020.3-398.8c-7.3-6.2-14.7-12.4-22.3-18.4L339.7,1728.2C349,1733.5,358.4,1738.9,367.8,1744.3L367.8,1744.3z
		 M312.8,1712.7L1343.1,1310c-8.2-5.9-16.7-11.6-25.3-17.2L285,1696.5C294.1,1701.8,303.4,1707.2,312.8,1712.7L312.8,1712.7z
		 M258.4,1680.8l1033.7-404c-9.4-5.5-18.8-10.9-28.4-16L231.1,1664.4C240,1669.8,249.1,1675.3,258.4,1680.8L258.4,1680.8z
		 M205.2,1648.5l1029.2-402.3c-10.7-5-21.5-9.9-32.4-14.4l-1023.3,400C187.2,1637.3,196.1,1642.9,205.2,1648.5L205.2,1648.5z
		 M153.7,1615.5l1015.1-396.7c-12.2-4.5-24.5-8.7-36.9-12.7L128.4,1598.3C136.5,1604,145,1609.7,153.7,1615.5L153.7,1615.5z
		 M104.9,1581.4c-8.2-6-16-12-23.4-18l969.9-379.1c14.2,3.2,28.3,6.8,42.3,10.6L104.9,1581.4L104.9,1581.4z M60.3,1545.8
		c-7.3-6.4-14.1-12.8-20.5-19.1l918.5-359c16.5,2.3,33,4.9,49.3,7.8L60.3,1545.8L60.3,1545.8z M22.1,1507.5c-6-7-11.2-14-15.7-20.9
		l842.1-329.1c19.5,1,39.1,2.4,58.5,4.2L22.1,1507.5L22.1,1507.5z M-5.3,1465.1c-3.5-8.2-6-16.2-7.2-24.3l726.6-284
		c24-0.9,48.2-1.3,72.3-1.2L-5.3,1465.1L-5.3,1465.1z M-12.2,1414.7c1.9-10.6,5.9-21,12.4-31.5c0.1-0.2,0.3-0.4,0.4-0.6l534.9-209.1
		c32.4-4.7,65.5-8.7,99-11.6L-12.2,1414.7L-12.2,1414.7z M42.8,1340.1c70-52.7,204.8-107.5,367.2-143.5L42.8,1340.1L42.8,1340.1z
		 M1598.1,1661.4L775,1983.1c8.9,5.6,17.7,11.2,26.5,16.8l804.9-314.6C1603.7,1677.3,1601,1669.4,1598.1,1661.4L1598.1,1661.4z
		 M1613.5,1708.5l-786.8,307.5c8.8,5.6,17.5,11.3,26.1,16.9l767.6-300C1618.2,1724.8,1615.9,1716.7,1613.5,1708.5L1613.5,1708.5z
		 M1626.4,1756.6l-748.6,292.6c8.7,5.7,17.3,11.3,25.9,17l728.5-284.7C1630.4,1773.2,1628.5,1764.9,1626.4,1756.6L1626.4,1756.6z
		 M1637.1,1805.6l-708.7,277c8.6,5.7,17.2,11.4,25.7,17.1l687.6-268.8C1640.3,1822.5,1638.7,1814,1637.1,1805.6L1637.1,1805.6z
		 M1645.5,1855.4l-666.9,260.7c8.6,5.7,17.1,11.5,25.5,17.1l644.8-252C1647.9,1872.6,1646.8,1864,1645.5,1855.4L1645.5,1855.4z
		 M1651.7,1906.1l-623.1,243.5l25.5,17.1l600-234.5C1653.4,1923.6,1652.6,1914.9,1651.7,1906.1L1651.7,1906.1z M1655.7,1957.7
		l-577.2,225.6c8.6,5.8,17.1,11.5,25.5,17.1l552.8-216.1C1656.6,1975.5,1656.2,1966.6,1655.7,1957.7L1655.7,1957.7z M1657.5,2010.1
		c0.1,9.1,0.1,18.2,0,27.1l-503.2,196.7c-8.5-5.6-17-11.3-25.7-17.1L1657.5,2010.1L1657.5,2010.1z M1656.9,2063.5
		c-0.3,9.3-0.7,18.5-1.2,27.6l-450.6,176.1c-8.6-5.5-17.2-11.2-26-16.9L1656.9,2063.5L1656.9,2063.5z M1653.8,2117.8
		c-0.8,9.5-1.7,18.9-2.6,28.1l-394.3,154.1c-8.7-5.4-17.6-11-26.6-16.7L1653.8,2117.8L1653.8,2117.8z M1647.9,2173.3
		c-1.3,9.8-2.8,19.4-4.3,28.8l-333.2,130.2c-9-5.2-18.2-10.7-27.6-16.3L1647.9,2173.3L1647.9,2173.3z M1638.5,2230.1l-300.9,117.6
		c10,5.5,19.8,10.7,29.4,15.6l265.1-103.6C1634.3,2250.2,1636.5,2240.3,1638.5,2230.1L1638.5,2230.1z M1624.4,2288.7l-227.8,89
		c11.5,5.3,22.6,10,33.3,14.1l184.4-72.1C1617.8,2310.1,1621.2,2299.8,1624.4,2288.7L1624.4,2288.7z M1601.3,2350.9
		c-3.2,6.7-6.5,12.8-9.8,18.1c-25.6,41.3-68,49.7-125.2,34.7L1601.3,2350.9z"/>
	<path class="st2" d="M4760.8,153.4c7.3,5.3,9,15.6,3.7,22.9c-5.3,7.4-15.6,9-22.9,3.7c-7.4-5.3-9-15.6-3.7-22.9
		C4743.2,149.8,4753.5,148.1,4760.8,153.4L4760.8,153.4z M3981.8,1235.4c7.4,5.3,9,15.6,3.7,22.9c-5.3,7.4-15.6,9-22.9,3.7
		c-7.4-5.3-9-15.6-3.7-22.9C3964.2,1231.8,3974.4,1230.1,3981.8,1235.4L3981.8,1235.4z M4015.2,1189c7.3,5.3,9,15.6,3.7,22.9
		c-5.3,7.4-15.6,9-22.9,3.7c-7.4-5.3-9-15.6-3.7-22.9C3997.6,1185.4,4007.8,1183.7,4015.2,1189L4015.2,1189z M4048.6,1142.6
		c7.4,5.3,9,15.6,3.7,22.9c-5.3,7.4-15.6,9-22.9,3.7c-7.4-5.3-9-15.6-3.7-22.9C4031,1139,4041.3,1137.3,4048.6,1142.6L4048.6,1142.6
		z M4082,1096.2c7.4,5.3,9,15.6,3.7,22.9c-5.3,7.4-15.5,9-22.9,3.7c-7.4-5.3-9-15.6-3.7-22.9
		C4064.4,1092.6,4074.7,1090.9,4082,1096.2L4082,1096.2z M4115.5,1049.8c7.4,5.3,9,15.6,3.7,22.9c-5.3,7.4-15.6,9-22.9,3.7
		c-7.4-5.3-9-15.6-3.7-22.9C4097.8,1046.1,4108.1,1044.5,4115.5,1049.8L4115.5,1049.8z M4148.9,1003.3c7.4,5.3,9,15.6,3.7,22.9
		c-5.3,7.4-15.6,9-22.9,3.7c-7.4-5.3-9-15.6-3.7-22.9C4131.3,999.7,4141.5,998,4148.9,1003.3L4148.9,1003.3z M4182.3,956.9
		c7.4,5.3,9,15.6,3.7,22.9c-5.3,7.4-15.6,9-22.9,3.7c-7.4-5.3-9-15.6-3.7-22.9C4164.7,953.3,4175,951.6,4182.3,956.9L4182.3,956.9z
		 M4215.7,910.5c7.4,5.3,9,15.6,3.7,22.9s-15.6,9-22.9,3.7c-7.4-5.3-9-15.6-3.7-22.9C4198.1,906.9,4208.4,905.2,4215.7,910.5
		L4215.7,910.5z M4249.2,864.1c7.4,5.3,9,15.6,3.7,22.9c-5.3,7.4-15.6,9-22.9,3.7c-7.3-5.3-9-15.6-3.7-22.9
		C4231.6,860.5,4241.8,858.8,4249.2,864.1L4249.2,864.1z M4282.6,817.7c7.4,5.3,9,15.6,3.7,22.9c-5.3,7.4-15.6,9-22.9,3.7
		c-7.4-5.3-9-15.6-3.7-22.9C4265,814,4275.2,812.4,4282.6,817.7L4282.6,817.7z M4319.4,766.6c7.4,5.3,9,15.6,3.7,22.9
		c-5.3,7.4-15.6,9-22.9,3.7c-7.4-5.3-9-15.6-3.7-22.9C4301.8,762.9,4312,761.3,4319.4,766.6L4319.4,766.6z M4356.2,715.5
		c7.4,5.3,9,15.6,3.7,22.9c-5.3,7.4-15.6,9-22.9,3.7c-7.4-5.3-9-15.6-3.7-22.9C4338.5,711.8,4348.8,710.2,4356.2,715.5L4356.2,715.5
		z M4393,664.4c7.4,5.3,9,15.6,3.7,22.9c-5.3,7.4-15.6,9-22.9,3.7c-7.4-5.3-9-15.6-3.7-22.9C4375.3,660.8,4385.6,659.1,4393,664.4
		L4393,664.4z M4429.7,613.3c7.4,5.3,9,15.6,3.7,22.9c-5.3,7.4-15.6,9-22.9,3.7c-7.4-5.3-9-15.6-3.7-22.9
		C4412.1,609.7,4422.4,608,4429.7,613.3L4429.7,613.3z M4466.5,562.2c7.4,5.3,9,15.6,3.7,22.9c-5.3,7.4-15.6,9-22.9,3.7
		c-7.3-5.3-9-15.6-3.7-22.9C4448.9,558.6,4459.2,556.9,4466.5,562.2L4466.5,562.2z M4503.3,511.1c7.4,5.3,9,15.6,3.7,22.9
		c-5.3,7.4-15.6,9-22.9,3.7c-7.4-5.3-9-15.6-3.7-22.9C4485.7,507.5,4496,505.8,4503.3,511.1L4503.3,511.1z M4540.1,460
		c7.4,5.3,9,15.6,3.7,22.9c-5.3,7.4-15.6,9-22.9,3.7c-7.4-5.3-9-15.6-3.7-22.9C4522.5,456.4,4532.7,454.7,4540.1,460L4540.1,460z
		 M4576.9,408.9c7.4,5.3,9,15.6,3.7,22.9c-5.3,7.4-15.5,9-22.9,3.7c-7.4-5.3-9-15.6-3.7-22.9
		C4559.3,405.3,4569.5,403.6,4576.9,408.9L4576.9,408.9z M4613.7,357.8c7.4,5.3,9,15.6,3.7,22.9c-5.3,7.4-15.5,9-22.9,3.7
		c-7.4-5.3-9-15.6-3.7-22.9C4596.1,354.2,4606.3,352.5,4613.7,357.8L4613.7,357.8z M4650.5,306.7c7.4,5.3,9,15.6,3.7,22.9
		c-5.3,7.4-15.5,9-22.9,3.7c-7.4-5.3-9-15.6-3.7-22.9C4632.9,303.1,4643.1,301.4,4650.5,306.7L4650.5,306.7z M4687.2,255.6
		c7.4,5.3,9,15.6,3.7,22.9c-5.3,7.4-15.5,9-22.9,3.7c-7.4-5.3-9-15.6-3.7-22.9C4669.6,252,4679.9,250.3,4687.2,255.6L4687.2,255.6z
		 M4724,204.5c7.4,5.3,9,15.6,3.7,22.9c-5.3,7.4-15.6,9-22.9,3.7c-7.4-5.3-9-15.6-3.7-22.9C4706.4,200.9,4716.7,199.2,4724,204.5z"
		/>
	<polygon class="st5" points="1855,2143.4 1870.5,2154.8 1681.1,2414.3 1657.2,2414.3 	"/>
	<polygon class="st5" points="2669.5,2038 2685.1,2049.4 2418.6,2414.3 2394.7,2414.3 	"/>
	<polygon class="st5" points="998.9,1036.1 1014.4,1047.4 16.4,2414.3 -7.5,2414.3 	"/>
	<path class="st5" d="M1114.9,1329.7c7.4,5.3,9,15.6,3.7,22.9c-5.3,7.4-15.6,9-22.9,3.7c-7.4-5.3-9-15.6-3.7-22.9
		C1097.2,1326.1,1107.5,1324.4,1114.9,1329.7L1114.9,1329.7z M335.8,2411.7c1.1,0.8,2,1.6,2.8,2.6h-24.8
		C319.3,2407.9,328.8,2406.7,335.8,2411.7L335.8,2411.7z M369.2,2365.3c7.4,5.3,9,15.6,3.7,22.9c-5.3,7.4-15.6,9-22.9,3.7
		c-7.4-5.3-9-15.6-3.7-22.9C351.6,2361.7,361.9,2360,369.2,2365.3L369.2,2365.3z M402.7,2318.9c7.4,5.3,9,15.6,3.7,22.9
		c-5.3,7.4-15.6,9-22.9,3.7c-7.4-5.3-9-15.6-3.7-22.9C385,2315.3,395.3,2313.6,402.7,2318.9L402.7,2318.9z M436.1,2272.5
		c7.4,5.3,9,15.6,3.7,22.9c-5.3,7.4-15.6,9-22.9,3.7c-7.4-5.3-9-15.6-3.7-22.9C418.5,2268.8,428.7,2267.2,436.1,2272.5L436.1,2272.5
		z M469.5,2226c7.4,5.3,9,15.6,3.7,22.9c-5.3,7.4-15.6,9-22.9,3.7c-7.4-5.3-9-15.6-3.7-22.9C451.9,2222.4,462.1,2220.7,469.5,2226
		L469.5,2226z M502.9,2179.6c7.4,5.3,9,15.6,3.7,22.9c-5.3,7.4-15.6,9-22.9,3.7c-7.4-5.3-9-15.6-3.7-22.9
		C485.3,2176,495.6,2174.3,502.9,2179.6L502.9,2179.6z M536.4,2133.2c7.4,5.3,9,15.6,3.7,22.9c-5.3,7.4-15.6,9-22.9,3.7
		c-7.4-5.3-9-15.6-3.7-22.9C518.7,2129.6,529,2127.9,536.4,2133.2L536.4,2133.2z M569.8,2086.8c7.4,5.3,9,15.6,3.7,22.9
		c-5.3,7.4-15.6,9-22.9,3.7c-7.4-5.3-9-15.6-3.7-22.9C552.2,2083.2,562.4,2081.5,569.8,2086.8L569.8,2086.8z M603.2,2040.4
		c7.4,5.3,9,15.6,3.7,22.9c-5.3,7.4-15.6,9-22.9,3.7c-7.4-5.3-9-15.6-3.7-22.9C585.6,2036.7,595.8,2035.1,603.2,2040.4L603.2,2040.4
		z M636.6,1993.9c7.4,5.3,9,15.6,3.7,22.9c-5.3,7.4-15.6,9-22.9,3.7c-7.4-5.3-9-15.5-3.7-22.9C619,1990.3,629.3,1988.6,636.6,1993.9
		L636.6,1993.9z M673.4,1942.8c7.4,5.3,9,15.6,3.7,22.9c-5.3,7.4-15.6,9-22.9,3.7c-7.4-5.3-9-15.6-3.7-22.9
		C655.8,1939.2,666,1937.6,673.4,1942.8L673.4,1942.8z M710.2,1891.8c7.4,5.3,9,15.6,3.7,22.9c-5.3,7.4-15.6,9-22.9,3.7
		c-7.4-5.3-9-15.6-3.7-22.9C692.6,1888.1,702.8,1886.5,710.2,1891.8L710.2,1891.8z M747,1840.7c7.4,5.3,9,15.6,3.7,22.9
		c-5.3,7.4-15.6,9-22.9,3.7c-7.4-5.3-9-15.6-3.7-22.9C729.4,1837,739.6,1835.4,747,1840.7L747,1840.7z M783.8,1789.6
		c7.4,5.3,9,15.6,3.7,22.9c-5.3,7.4-15.6,9-22.9,3.7c-7.4-5.3-9-15.6-3.7-22.9C766.1,1785.9,776.4,1784.3,783.8,1789.6L783.8,1789.6
		z M820.6,1738.5c7.4,5.3,9,15.6,3.7,22.9c-5.3,7.4-15.6,9-22.9,3.7c-7.4-5.3-9-15.6-3.7-22.9
		C802.9,1734.8,813.2,1733.2,820.6,1738.5L820.6,1738.5z M857.3,1687.4c7.4,5.3,9,15.6,3.7,22.9c-5.3,7.4-15.6,9-22.9,3.7
		c-7.4-5.3-9-15.6-3.7-22.9C839.7,1683.8,850,1682.1,857.3,1687.4L857.3,1687.4z M894.1,1636.3c7.4,5.3,9,15.6,3.7,22.9
		c-5.3,7.4-15.6,9-22.9,3.7c-7.4-5.3-9-15.5-3.7-22.9C876.5,1632.7,886.8,1631,894.1,1636.3L894.1,1636.3z M930.9,1585.2
		c7.4,5.3,9,15.6,3.7,22.9c-5.3,7.4-15.6,9-22.9,3.7c-7.4-5.3-9-15.6-3.7-22.9C913.3,1581.6,923.6,1579.9,930.9,1585.2L930.9,1585.2
		z M967.7,1534.1c7.4,5.3,9,15.6,3.7,22.9c-5.3,7.4-15.6,9-22.9,3.7c-7.4-5.3-9-15.6-3.7-22.9
		C950.1,1530.5,960.3,1528.8,967.7,1534.1L967.7,1534.1z M1004.5,1483c7.4,5.3,9,15.6,3.7,22.9c-5.3,7.4-15.6,9-22.9,3.7
		c-7.4-5.3-9-15.6-3.7-22.9C986.9,1479.4,997.1,1477.7,1004.5,1483L1004.5,1483z M1041.3,1431.9c7.4,5.3,9,15.6,3.7,22.9
		c-5.3,7.4-15.6,9-22.9,3.7c-7.4-5.3-9-15.6-3.7-22.9C1023.7,1428.3,1033.9,1426.6,1041.3,1431.9L1041.3,1431.9z M1078.1,1380.8
		c7.4,5.3,9,15.6,3.7,22.9c-5.3,7.4-15.6,9-22.9,3.7c-7.4-5.3-9-15.6-3.7-22.9C1060.5,1377.2,1070.7,1375.5,1078.1,1380.8z"/>
	<path class="st5" d="M2355.2,2082.2c7.4,5.3,9,15.6,3.7,22.9c-5.3,7.4-15.6,9-22.9,3.7c-7.3-5.3-9-15.6-3.7-22.9
		C2337.6,2078.5,2347.9,2076.9,2355.2,2082.2L2355.2,2082.2z M2134.5,2388.7c7.4,5.3,9,15.6,3.7,22.9c-0.7,1-1.5,1.9-2.4,2.7H2114
		c-6.2-5.5-7.4-15-2.4-21.9C2116.9,2385.1,2127.1,2383.4,2134.5,2388.7L2134.5,2388.7z M2171.3,2337.6c7.4,5.3,9,15.6,3.7,22.9
		c-5.3,7.4-15.6,9-22.9,3.7c-7.4-5.3-9-15.6-3.7-22.9C2153.7,2334,2163.9,2332.3,2171.3,2337.6L2171.3,2337.6z M2208.1,2286.6
		c7.4,5.3,9,15.6,3.7,22.9c-5.3,7.4-15.6,9-22.9,3.7c-7.4-5.3-9-15.6-3.7-22.9C2190.4,2282.9,2200.7,2281.3,2208.1,2286.6
		L2208.1,2286.6z M2244.9,2235.5c7.4,5.3,9,15.6,3.7,22.9c-5.3,7.4-15.6,9-22.9,3.7c-7.4-5.3-9-15.6-3.7-22.9
		C2227.2,2231.8,2237.5,2230.2,2244.9,2235.5L2244.9,2235.5z M2281.6,2184.4c7.4,5.3,9,15.6,3.7,22.9c-5.3,7.4-15.6,9-22.9,3.7
		c-7.4-5.3-9-15.6-3.7-22.9C2264,2180.7,2274.3,2179.1,2281.6,2184.4L2281.6,2184.4z M2318.4,2133.3c7.3,5.3,9,15.6,3.7,22.9
		c-5.3,7.4-15.5,9-22.9,3.7c-7.4-5.3-9-15.6-3.7-22.9C2300.8,2129.6,2311.1,2128,2318.4,2133.3z"/>
	<path class="st6" d="M406.4,141.1h14.6l-13.9,21.7h-14.6L406.4,141.1L406.4,141.1z M394.3,182.8l-15.4,24.2h-14.6l15.4-24.2H394.3
		L394.3,182.8z M366.2,226.8L351,250.5h-14.6l15.1-23.7H366.2L366.2,226.8z M643,141.1h14.6l-13.9,21.7h-14.6L643,141.1L643,141.1z
		 M631,182.8l-15.4,24.2H601l15.4-24.2H631L631,182.8z M602.9,226.8l-15.1,23.7h-14.6l15.1-23.7H602.9L602.9,226.8z M582.6,141.1
		h14.6l-13.9,21.7h-14.6L582.6,141.1L582.6,141.1z M570.6,182.8l-15.4,24.2h-14.6l15.4-24.2H570.6L570.6,182.8z M542.4,226.8
		l-15.1,23.7h-14.6l15.1-23.7H542.4L542.4,226.8z M522.2,141.1h14.6l-13.9,21.7h-14.6L522.2,141.1L522.2,141.1z M510.2,182.8
		l-15.4,24.2h-14.6l15.4-24.2H510.2L510.2,182.8z M482,226.8l-15.1,23.7h-14.6l15.1-23.7H482L482,226.8z M461.8,141.1h14.6
		l-13.9,21.7h-14.6L461.8,141.1L461.8,141.1z M449.8,182.8l-15.4,24.2h-14.6l15.4-24.2H449.8L449.8,182.8z M421.6,226.8l-15.1,23.7
		h-14.6l15.1-23.7H421.6z"/>
	<path class="st2" d="M3477.2,175.2h31.4l-29.9,46.7h-31.4L3477.2,175.2L3477.2,175.2z M3451.3,264.8l-33.2,52h-31.4l33.2-52H3451.3
		L3451.3,264.8z M3390.8,359.6l-32.6,51h-31.4l32.6-51H3390.8L3390.8,359.6z M3986.4,175.2h31.4L3988,222h-31.4L3986.4,175.2
		L3986.4,175.2z M3960.6,264.8l-33.2,52H3896l33.2-52H3960.6L3960.6,264.8z M3900,359.6l-32.6,51H3836l32.6-51H3900L3900,359.6z
		 M3856.4,175.2h31.4L3858,222h-31.4L3856.4,175.2L3856.4,175.2z M3830.6,264.8l-33.2,52H3766l33.2-52H3830.6L3830.6,264.8z
		 M3770,359.6l-32.6,51H3706l32.6-51H3770L3770,359.6z M3726.5,175.2h31.4L3728,222h-31.4L3726.5,175.2L3726.5,175.2z M3700.6,264.8
		l-33.2,52H3636l33.2-52H3700.6L3700.6,264.8z M3640,359.6l-32.6,51H3576l32.6-51H3640L3640,359.6z M3596.5,175.2h31.4L3598,222
		h-31.4L3596.5,175.2L3596.5,175.2z M3570.6,264.8l-33.2,52H3506l33.2-52H3570.6L3570.6,264.8z M3510,359.6l-32.6,51h-31.4l32.6-51
		H3510z"/>
	<path class="st7" d="M1833,0l-99.7,101.8c-2.6-14-4.3-28.4-5-43L1786,0H1833L1833,0z M1728.7,23.7L1751.8,0H1731
		C1730,7.8,1729.2,15.7,1728.7,23.7L1728.7,23.7z M1835.8,32.1l-95.8,97.9c3.4,12.1,7.6,23.9,12.3,35.4l85.9-87.8
		c-1.8-11-2.7-22.4-2.7-33.9C1835.4,39.8,1835.6,35.9,1835.8,32.1L1835.8,32.1z M1844.8,105.8c3.6,11.6,8.2,22.8,13.7,33.5
		l-77.7,79.4c-6.3-9.5-12.2-19.4-17.5-29.6L1844.8,105.8L1844.8,105.8z M1871.4,161c5.3,7.8,11.1,15.2,17.4,22.2l-75.2,76.9
		c-6.4-6.8-12.5-13.9-18.3-21.3L1871.4,161L1871.4,161z M1906.2,200.4l-75.2,76.9c7.3,6.7,14.9,13,22.8,18.9l76.1-77.7
		C1921.5,212.9,1913.6,206.9,1906.2,200.4L1906.2,200.4z M1951.7,230.9l-77.6,79.3c7.9,5,16,9.8,24.4,14.1l80.5-82.3
		C1969.5,239,1960.4,235.3,1951.7,230.9L1951.7,230.9z M2292.4,0l-39.5,40.4c-0.2-13.3-1.7-26.4-4.3-39L2250,0H2292.4L2292.4,0z
		 M2006.3,249.1c12.3,2.3,25,3.5,37.9,3.5l1.1,0l-92.1,94.1c-10.7-3.2-21.2-7-31.4-11.3L2006.3,249.1L2006.3,249.1z M2357.4,0h-30.8
		l-76.4,78.1c-4.2,25.4-13,49.3-25.5,70.7l134.2-137.1C2358.4,7.8,2357.9,3.9,2357.4,0L2357.4,0z M2083,248.9l-102.4,104.6
		c12.5,2.6,25.3,4.4,38.4,5.4l134.2-137.1C2132,234.8,2108.3,244.2,2083,248.9L2083,248.9z M2360.4,45c-0.1,13.7-1,27.2-2.7,40.5
		l-265,270.8c-13.2,2-26.7,3.2-40.4,3.6L2360.4,45L2360.4,45z M2348.6,129.6c-29.1,103.4-109.5,185.3-211.9,216.6L2348.6,129.6z"/>
	<path class="st8" d="M3505.8,1244.2c9.2,0.2,18.3,1.1,27.1,2.5l-68.6,70.1c-44.3,12.7-79.1,48.1-90.8,92.8l-68.6,70.1
		c-1.6-8.8-2.7-17.8-3.1-27L3505.8,1244.2L3505.8,1244.2z M3301.9,1430.5l181.7-185.6c-8.8,0.7-17.4,2.1-25.8,3.9l-152.5,155.9
		C3303.6,1413.1,3302.5,1421.7,3301.9,1430.5L3301.9,1430.5z M3314,1373.8l113.2-115.7C3375,1278.8,3333.6,1321,3314,1373.8
		L3314,1373.8z M3550.7,1250.5l-60.3,61.6c3.3-0.3,6.7-0.4,10.2-0.4c6.3,0,12.5,0.4,18.5,1.3l54.1-55.3
		C3565.9,1254.9,3558.4,1252.5,3550.7,1250.5L3550.7,1250.5z M3369.4,1435.8l-60.3,61.6c2.2,7.6,4.8,15.1,7.8,22.3l54.1-55.3
		c-1.1-6.9-1.7-14.1-1.7-21.3C3369.2,1440.7,3369.2,1438.2,3369.4,1435.8L3369.4,1435.8z M3588.2,1264.4c6.5,3.2,12.8,6.7,18.9,10.6
		l-48.9,50c-6.8-3.3-13.9-6.1-21.3-8.2L3588.2,1264.4L3588.2,1264.4z M3375.1,1482.2c2.3,7.3,5.2,14.4,8.6,21.1l-48.9,50
		c-4-6-7.7-12.2-11-18.7L3375.1,1482.2L3375.1,1482.2z M3619.9,1283.9c4.7,3.5,9.3,7.3,13.6,11.2l-47.3,48.4
		c-4.5-3.9-9.2-7.4-14.2-10.6L3619.9,1283.9L3619.9,1283.9z M3391.8,1516.9c3.3,4.9,7,9.6,11,14l-47.4,48.4
		c-4-4.3-7.9-8.8-11.5-13.4L3391.8,1516.9L3391.8,1516.9z M3644.5,1305.8l-47.3,48.4c4.2,4.6,8.1,9.5,11.7,14.6l47.9-48.9
		C3652.9,1315,3648.8,1310.3,3644.5,1305.8L3644.5,1305.8z M3413.7,1541.7l-47.3,48.4c4.6,4.2,9.4,8.2,14.3,11.9l47.9-48.9
		C3423.3,1549.6,3418.3,1545.8,3413.7,1541.7L3413.7,1541.7z M3665.9,1332.4l-48.9,49.9c2.8,5.5,5.3,11.1,7.4,17l50.7-51.8
		C3672.3,1342.4,3669.2,1337.3,3665.9,1332.4L3665.9,1332.4z M3442.3,1561l-48.9,49.9c5,3.2,10.1,6.1,15.3,8.9l50.7-51.8
		C3453.6,1566,3447.8,1563.7,3442.3,1561L3442.3,1561z M3682.4,1362.2c2.8,6.4,5.4,12.9,7.5,19.6l-58,59.3
		c-0.1-8.4-1.1-16.6-2.7-24.5L3682.4,1362.2L3682.4,1362.2z M3476.7,1572.4c7.7,1.4,15.7,2.2,23.9,2.2l0.7,0l-58,59.3
		c-6.7-2-13.3-4.4-19.8-7.1L3476.7,1572.4L3476.7,1572.4z M3694.6,1398.9c1.8,7.9,3.1,15.9,3.9,24.1l-84.5,86.3
		c7.9-13.5,13.4-28.5,16.1-44.5L3694.6,1398.9L3694.6,1398.9z M3525,1572.3l-64.4,65.9c7.9,1.6,16,2.8,24.2,3.4l84.5-86.3
		C3555.8,1563.4,3540.9,1569.3,3525,1572.3L3525,1572.3z M3699.6,1443.9l-193.9,198.2c8.6-0.2,17.1-1,25.4-2.3l166.8-170.5
		C3699,1461,3699.5,1452.6,3699.6,1443.9L3699.6,1443.9z M3692.1,1497.2l-133.4,136.3C3623.2,1613.8,3673.8,1562.3,3692.1,1497.2z"
		/>
	<path class="st5" d="M1396.3,886.8c-6,0-10.9-4.9-10.9-10.9c0-6,4.9-10.9,10.9-10.9c6,0,10.9,4.9,10.9,10.9
		C1407.2,881.9,1402.3,886.8,1396.3,886.8L1396.3,886.8z M279.6,492.7c-6,0-10.9-4.9-10.9-10.9s4.9-10.9,10.9-10.9
		c6,0,10.9,4.9,10.9,10.9S285.6,492.7,279.6,492.7L279.6,492.7z M279.6,630.9c-6,0-10.9-4.9-10.9-10.9c0-6,4.9-10.9,10.9-10.9
		c6,0,10.9,4.9,10.9,10.9C290.5,626,285.6,630.9,279.6,630.9L279.6,630.9z M279.6,758.8c-6,0-10.9-4.9-10.9-10.9
		c0-6,4.9-10.9,10.9-10.9c6,0,10.9,4.9,10.9,10.9C290.5,753.9,285.6,758.8,279.6,758.8L279.6,758.8z M279.6,886.8
		c-6,0-10.9-4.9-10.9-10.9c0-6,4.9-10.9,10.9-10.9c6,0,10.9,4.9,10.9,10.9C290.5,881.9,285.6,886.8,279.6,886.8L279.6,886.8z
		 M443.1,492.7c-6,0-10.9-4.9-10.9-10.9s4.9-10.9,10.9-10.9c6,0,10.9,4.9,10.9,10.9S449.1,492.7,443.1,492.7L443.1,492.7z
		 M579.3,492.7c-6,0-10.9-4.9-10.9-10.9s4.9-10.9,10.9-10.9c6,0,10.9,4.9,10.9,10.9S585.3,492.7,579.3,492.7L579.3,492.7z
		 M715.4,492.7c-6,0-10.9-4.9-10.9-10.9s4.9-10.9,10.9-10.9c6,0,10.9,4.9,10.9,10.9S721.5,492.7,715.4,492.7L715.4,492.7z
		 M851.6,492.7c-6,0-10.9-4.9-10.9-10.9s4.9-10.9,10.9-10.9c6,0,10.9,4.9,10.9,10.9S857.6,492.7,851.6,492.7L851.6,492.7z
		 M987.8,492.7c-6,0-10.9-4.9-10.9-10.9s4.9-10.9,10.9-10.9c6,0,10.9,4.9,10.9,10.9S993.8,492.7,987.8,492.7L987.8,492.7z
		 M1124,492.7c-6,0-10.9-4.9-10.9-10.9s4.9-10.9,10.9-10.9c6,0,10.9,4.9,10.9,10.9S1130,492.7,1124,492.7L1124,492.7z M1260.1,492.7
		c-6,0-10.9-4.9-10.9-10.9s4.9-10.9,10.9-10.9s10.9,4.9,10.9,10.9S1266.2,492.7,1260.1,492.7L1260.1,492.7z M1396.3,492.7
		c-6,0-10.9-4.9-10.9-10.9s4.9-10.9,10.9-10.9c6,0,10.9,4.9,10.9,10.9S1402.3,492.7,1396.3,492.7L1396.3,492.7z M443.1,630.9
		c-6,0-10.9-4.9-10.9-10.9c0-6,4.9-10.9,10.9-10.9c6,0,10.9,4.9,10.9,10.9C454,626,449.1,630.9,443.1,630.9L443.1,630.9z
		 M579.3,630.9c-6,0-10.9-4.9-10.9-10.9c0-6,4.9-10.9,10.9-10.9c6,0,10.9,4.9,10.9,10.9C590.2,626,585.3,630.9,579.3,630.9
		L579.3,630.9z M715.4,630.9c-6,0-10.9-4.9-10.9-10.9c0-6,4.9-10.9,10.9-10.9c6,0,10.9,4.9,10.9,10.9
		C726.4,626,721.5,630.9,715.4,630.9L715.4,630.9z M851.6,630.9c-6,0-10.9-4.9-10.9-10.9c0-6,4.9-10.9,10.9-10.9
		c6,0,10.9,4.9,10.9,10.9C862.5,626,857.6,630.9,851.6,630.9L851.6,630.9z M987.8,630.9c-6,0-10.9-4.9-10.9-10.9
		c0-6,4.9-10.9,10.9-10.9c6,0,10.9,4.9,10.9,10.9C998.7,626,993.8,630.9,987.8,630.9L987.8,630.9z M1124,630.9
		c-6,0-10.9-4.9-10.9-10.9c0-6,4.9-10.9,10.9-10.9c6,0,10.9,4.9,10.9,10.9C1134.9,626,1130,630.9,1124,630.9L1124,630.9z
		 M1260.1,630.9c-6,0-10.9-4.9-10.9-10.9c0-6,4.9-10.9,10.9-10.9s10.9,4.9,10.9,10.9C1271.1,626,1266.2,630.9,1260.1,630.9
		L1260.1,630.9z M1396.3,630.9c-6,0-10.9-4.9-10.9-10.9c0-6,4.9-10.9,10.9-10.9c6,0,10.9,4.9,10.9,10.9
		C1407.2,626,1402.3,630.9,1396.3,630.9L1396.3,630.9z M443.1,758.8c-6,0-10.9-4.9-10.9-10.9c0-6,4.9-10.9,10.9-10.9
		c6,0,10.9,4.9,10.9,10.9C454,753.9,449.1,758.8,443.1,758.8L443.1,758.8z M579.3,758.8c-6,0-10.9-4.9-10.9-10.9
		c0-6,4.9-10.9,10.9-10.9c6,0,10.9,4.9,10.9,10.9C590.2,753.9,585.3,758.8,579.3,758.8L579.3,758.8z M715.4,758.8
		c-6,0-10.9-4.9-10.9-10.9c0-6,4.9-10.9,10.9-10.9c6,0,10.9,4.9,10.9,10.9C726.4,753.9,721.5,758.8,715.4,758.8L715.4,758.8z
		 M851.6,758.8c-6,0-10.9-4.9-10.9-10.9c0-6,4.9-10.9,10.9-10.9c6,0,10.9,4.9,10.9,10.9C862.5,753.9,857.6,758.8,851.6,758.8
		L851.6,758.8z M987.8,758.8c-6,0-10.9-4.9-10.9-10.9c0-6,4.9-10.9,10.9-10.9c6,0,10.9,4.9,10.9,10.9
		C998.7,753.9,993.8,758.8,987.8,758.8L987.8,758.8z M1124,758.8c-6,0-10.9-4.9-10.9-10.9c0-6,4.9-10.9,10.9-10.9
		c6,0,10.9,4.9,10.9,10.9C1134.9,753.9,1130,758.8,1124,758.8L1124,758.8z M1260.1,758.8c-6,0-10.9-4.9-10.9-10.9
		c0-6,4.9-10.9,10.9-10.9s10.9,4.9,10.9,10.9C1271.1,753.9,1266.2,758.8,1260.1,758.8L1260.1,758.8z M1396.3,758.8
		c-6,0-10.9-4.9-10.9-10.9c0-6,4.9-10.9,10.9-10.9c6,0,10.9,4.9,10.9,10.9C1407.2,753.9,1402.3,758.8,1396.3,758.8L1396.3,758.8z
		 M443.1,886.8c-6,0-10.9-4.9-10.9-10.9c0-6,4.9-10.9,10.9-10.9c6,0,10.9,4.9,10.9,10.9C454,881.9,449.1,886.8,443.1,886.8
		L443.1,886.8z M579.3,886.8c-6,0-10.9-4.9-10.9-10.9c0-6,4.9-10.9,10.9-10.9c6,0,10.9,4.9,10.9,10.9
		C590.2,881.9,585.3,886.8,579.3,886.8L579.3,886.8z M715.4,886.8c-6,0-10.9-4.9-10.9-10.9c0-6,4.9-10.9,10.9-10.9
		c6,0,10.9,4.9,10.9,10.9C726.4,881.9,721.5,886.8,715.4,886.8L715.4,886.8z M851.6,886.8c-6,0-10.9-4.9-10.9-10.9
		c0-6,4.9-10.9,10.9-10.9c6,0,10.9,4.9,10.9,10.9C862.5,881.9,857.6,886.8,851.6,886.8L851.6,886.8z M987.8,886.8
		c-6,0-10.9-4.9-10.9-10.9c0-6,4.9-10.9,10.9-10.9c6,0,10.9,4.9,10.9,10.9C998.7,881.9,993.8,886.8,987.8,886.8L987.8,886.8z
		 M1124,886.8c-6,0-10.9-4.9-10.9-10.9c0-6,4.9-10.9,10.9-10.9c6,0,10.9,4.9,10.9,10.9C1134.9,881.9,1130,886.8,1124,886.8
		L1124,886.8z M1260.1,886.8c-6,0-10.9-4.9-10.9-10.9c0-6,4.9-10.9,10.9-10.9s10.9,4.9,10.9,10.9
		C1271.1,881.9,1266.2,886.8,1260.1,886.8z"/>
	<path class="st2" d="M4549.2,2193.7c-6,0-10.9-4.9-10.9-10.9c0-6,4.9-10.9,10.9-10.9c6,0,10.9,4.9,10.9,10.9
		C4560.1,2188.8,4555.2,2193.7,4549.2,2193.7L4549.2,2193.7z M3432.4,1799.6c-6,0-10.9-4.9-10.9-10.9c0-6,4.9-10.9,10.9-10.9
		c6,0,10.9,4.9,10.9,10.9C3443.3,1794.7,3438.4,1799.6,3432.4,1799.6L3432.4,1799.6z M3432.4,1937.7c-6,0-10.9-4.9-10.9-10.9
		c0-6,4.9-10.9,10.9-10.9c6,0,10.9,4.9,10.9,10.9C3443.3,1932.9,3438.4,1937.7,3432.4,1937.7L3432.4,1937.7z M3432.4,2065.7
		c-6,0-10.9-4.9-10.9-10.9c0-6,4.9-10.9,10.9-10.9c6,0,10.9,4.9,10.9,10.9C3443.3,2060.8,3438.4,2065.7,3432.4,2065.7L3432.4,2065.7
		z M3432.4,2193.7c-6,0-10.9-4.9-10.9-10.9c0-6,4.9-10.9,10.9-10.9c6,0,10.9,4.9,10.9,10.9
		C3443.3,2188.8,3438.4,2193.7,3432.4,2193.7L3432.4,2193.7z M3595.9,1799.6c-6,0-10.9-4.9-10.9-10.9c0-6,4.9-10.9,10.9-10.9
		c6,0,10.9,4.9,10.9,10.9C3606.9,1794.7,3602,1799.6,3595.9,1799.6L3595.9,1799.6z M3732.1,1799.6c-6,0-10.9-4.9-10.9-10.9
		c0-6,4.9-10.9,10.9-10.9c6,0,10.9,4.9,10.9,10.9C3743,1794.7,3738.1,1799.6,3732.1,1799.6L3732.1,1799.6z M3868.3,1799.6
		c-6,0-10.9-4.9-10.9-10.9c0-6,4.9-10.9,10.9-10.9c6,0,10.9,4.9,10.9,10.9C3879.2,1794.7,3874.3,1799.6,3868.3,1799.6L3868.3,1799.6
		z M4004.4,1799.6c-6,0-10.9-4.9-10.9-10.9c0-6,4.9-10.9,10.9-10.9c6,0,10.9,4.9,10.9,10.9
		C4015.4,1794.7,4010.5,1799.6,4004.4,1799.6L4004.4,1799.6z M4140.6,1799.6c-6,0-10.9-4.9-10.9-10.9c0-6,4.9-10.9,10.9-10.9
		s10.9,4.9,10.9,10.9C4151.6,1794.7,4146.7,1799.6,4140.6,1799.6L4140.6,1799.6z M4276.8,1799.6c-6,0-10.9-4.9-10.9-10.9
		c0-6,4.9-10.9,10.9-10.9c6,0,10.9,4.9,10.9,10.9C4287.7,1794.7,4282.8,1799.6,4276.8,1799.6L4276.8,1799.6z M4413,1799.6
		c-6,0-10.9-4.9-10.9-10.9c0-6,4.9-10.9,10.9-10.9c6,0,10.9,4.9,10.9,10.9C4423.9,1794.7,4419,1799.6,4413,1799.6L4413,1799.6z
		 M4549.2,1799.6c-6,0-10.9-4.9-10.9-10.9c0-6,4.9-10.9,10.9-10.9c6,0,10.9,4.9,10.9,10.9
		C4560.1,1794.7,4555.2,1799.6,4549.2,1799.6L4549.2,1799.6z M3595.9,1937.7c-6,0-10.9-4.9-10.9-10.9c0-6,4.9-10.9,10.9-10.9
		c6,0,10.9,4.9,10.9,10.9C3606.9,1932.9,3602,1937.7,3595.9,1937.7L3595.9,1937.7z M3732.1,1937.7c-6,0-10.9-4.9-10.9-10.9
		c0-6,4.9-10.9,10.9-10.9c6,0,10.9,4.9,10.9,10.9C3743,1932.9,3738.1,1937.7,3732.1,1937.7L3732.1,1937.7z M3868.3,1937.7
		c-6,0-10.9-4.9-10.9-10.9c0-6,4.9-10.9,10.9-10.9c6,0,10.9,4.9,10.9,10.9C3879.2,1932.9,3874.3,1937.7,3868.3,1937.7L3868.3,1937.7
		z M4004.4,1937.7c-6,0-10.9-4.9-10.9-10.9c0-6,4.9-10.9,10.9-10.9c6,0,10.9,4.9,10.9,10.9
		C4015.4,1932.9,4010.5,1937.7,4004.4,1937.7L4004.4,1937.7z M4140.6,1937.7c-6,0-10.9-4.9-10.9-10.9c0-6,4.9-10.9,10.9-10.9
		s10.9,4.9,10.9,10.9C4151.6,1932.9,4146.7,1937.7,4140.6,1937.7L4140.6,1937.7z M4276.8,1937.7c-6,0-10.9-4.9-10.9-10.9
		c0-6,4.9-10.9,10.9-10.9c6,0,10.9,4.9,10.9,10.9C4287.7,1932.9,4282.8,1937.7,4276.8,1937.7L4276.8,1937.7z M4413,1937.7
		c-6,0-10.9-4.9-10.9-10.9c0-6,4.9-10.9,10.9-10.9c6,0,10.9,4.9,10.9,10.9C4423.9,1932.9,4419,1937.7,4413,1937.7L4413,1937.7z
		 M4549.2,1937.7c-6,0-10.9-4.9-10.9-10.9c0-6,4.9-10.9,10.9-10.9c6,0,10.9,4.9,10.9,10.9
		C4560.1,1932.9,4555.2,1937.7,4549.2,1937.7L4549.2,1937.7z M3595.9,2065.7c-6,0-10.9-4.9-10.9-10.9c0-6,4.9-10.9,10.9-10.9
		c6,0,10.9,4.9,10.9,10.9C3606.9,2060.8,3602,2065.7,3595.9,2065.7L3595.9,2065.7z M3732.1,2065.7c-6,0-10.9-4.9-10.9-10.9
		c0-6,4.9-10.9,10.9-10.9c6,0,10.9,4.9,10.9,10.9C3743,2060.8,3738.1,2065.7,3732.1,2065.7L3732.1,2065.7z M3868.3,2065.7
		c-6,0-10.9-4.9-10.9-10.9c0-6,4.9-10.9,10.9-10.9c6,0,10.9,4.9,10.9,10.9C3879.2,2060.8,3874.3,2065.7,3868.3,2065.7L3868.3,2065.7
		z M4004.4,2065.7c-6,0-10.9-4.9-10.9-10.9c0-6,4.9-10.9,10.9-10.9c6,0,10.9,4.9,10.9,10.9
		C4015.4,2060.8,4010.5,2065.7,4004.4,2065.7L4004.4,2065.7z M4140.6,2065.7c-6,0-10.9-4.9-10.9-10.9c0-6,4.9-10.9,10.9-10.9
		s10.9,4.9,10.9,10.9C4151.6,2060.8,4146.7,2065.7,4140.6,2065.7L4140.6,2065.7z M4276.8,2065.7c-6,0-10.9-4.9-10.9-10.9
		c0-6,4.9-10.9,10.9-10.9c6,0,10.9,4.9,10.9,10.9C4287.7,2060.8,4282.8,2065.7,4276.8,2065.7L4276.8,2065.7z M4413,2065.7
		c-6,0-10.9-4.9-10.9-10.9c0-6,4.9-10.9,10.9-10.9c6,0,10.9,4.9,10.9,10.9C4423.9,2060.8,4419,2065.7,4413,2065.7L4413,2065.7z
		 M4549.2,2065.7c-6,0-10.9-4.9-10.9-10.9c0-6,4.9-10.9,10.9-10.9c6,0,10.9,4.9,10.9,10.9
		C4560.1,2060.8,4555.2,2065.7,4549.2,2065.7L4549.2,2065.7z M3595.9,2193.7c-6,0-10.9-4.9-10.9-10.9c0-6,4.9-10.9,10.9-10.9
		c6,0,10.9,4.9,10.9,10.9C3606.9,2188.8,3602,2193.7,3595.9,2193.7L3595.9,2193.7z M3732.1,2193.7c-6,0-10.9-4.9-10.9-10.9
		c0-6,4.9-10.9,10.9-10.9c6,0,10.9,4.9,10.9,10.9C3743,2188.8,3738.1,2193.7,3732.1,2193.7L3732.1,2193.7z M3868.3,2193.7
		c-6,0-10.9-4.9-10.9-10.9c0-6,4.9-10.9,10.9-10.9c6,0,10.9,4.9,10.9,10.9C3879.2,2188.8,3874.3,2193.7,3868.3,2193.7L3868.3,2193.7
		z M4004.4,2193.7c-6,0-10.9-4.9-10.9-10.9c0-6,4.9-10.9,10.9-10.9c6,0,10.9,4.9,10.9,10.9
		C4015.4,2188.8,4010.5,2193.7,4004.4,2193.7L4004.4,2193.7z M4140.6,2193.7c-6,0-10.9-4.9-10.9-10.9c0-6,4.9-10.9,10.9-10.9
		s10.9,4.9,10.9,10.9C4151.6,2188.8,4146.7,2193.7,4140.6,2193.7L4140.6,2193.7z M4276.8,2193.7c-6,0-10.9-4.9-10.9-10.9
		c0-6,4.9-10.9,10.9-10.9c6,0,10.9,4.9,10.9,10.9C4287.7,2188.8,4282.8,2193.7,4276.8,2193.7L4276.8,2193.7z M4413,2193.7
		c-6,0-10.9-4.9-10.9-10.9c0-6,4.9-10.9,10.9-10.9c6,0,10.9,4.9,10.9,10.9C4423.9,2188.8,4419,2193.7,4413,2193.7z"/>
	<path class="st9" d="M2899.1,444.5l-75.3,301.2h314l-75.3-301.2H2899.1L2899.1,444.5z M2910,455.1h141.5l70,280.1H2840L2910,455.1z
		"/>
	<path class="st9" d="M2113,1708.8l-63.7-107.3h198.9l63.7,107.3l-63.7,107.4h-198.9L2113,1708.8L2113,1708.8z M2066.8,1610.6
		l58.3,98.3l-58.3,98.3h174.8l58.3-98.3l-58.3-98.3H2066.8z"/>
	<path class="st9" d="M2052.3,706.9c0-66.2-53.7-119.9-119.9-119.9c-66.2,0-119.8,53.7-119.8,119.9c0,66.2,53.7,119.9,119.8,119.9
		C1998.6,826.7,2052.3,773,2052.3,706.9L2052.3,706.9z M2042.4,706.9c0,60.7-49.3,110-110,110c-60.7,0-110-49.3-110-110
		c0-60.7,49.3-110,110-110C1993.2,596.9,2042.4,646.1,2042.4,706.9z"/>
</g>
</svg>
