<svg xmlns="http://www.w3.org/2000/svg" width="15.771" height="11.052" viewBox="0 0 15.771 11.052">
  <g id="Group_699" data-name="Group 699" transform="translate(71.833 -130.31)">
    <path id="Path_913" data-name="Path 913" d="M-70.21,141.04a1.834,1.834,0,0,1-1.211-1.175c-.524-1.442-.679-7.471.33-8.659a1.95,1.95,0,0,1,1.318-.7c2.718-.293,11.124-.251,12.092.1a1.9,1.9,0,0,1,1.191,1.144c.574,1.489.592,6.911-.076,8.346a1.837,1.837,0,0,1-.853.861C-58.433,141.487-68.875,141.479-70.21,141.04Zm4.32-2.827c1.636-.847,3.256-1.687,4.9-2.538-1.644-.859-3.266-1.7-4.9-2.557Z" transform="translate(0 0)" fill="#fff" fill-rule="evenodd"/>
  </g>
</svg>
