<?xml version="1.0" encoding="utf-8"?>
<!-- Generator: Adobe Illustrator 25.0.0, SVG Export Plug-In . SVG Version: 6.00 Build 0)  -->
<svg version="1.1" id="Layer_1" xmlns="http://www.w3.org/2000/svg" xmlns:xlink="http://www.w3.org/1999/xlink" x="0px" y="0px"
	 viewBox="0 0 121.5 121.5" style="enable-background:new 0 0 121.5 121.5;" xml:space="preserve">
<style type="text/css">
	.st0{display:none;fill:#FFFFFF;}
	.st1{fill:#18313A;}
</style>
<path class="st0" d="M118.9,31.5c-1.4-5.2-5.5-9.3-10.7-10.7c-9.5-2.5-47.5-2.5-47.5-2.5s-38,0-47.5,2.5c-5.2,1.4-9.3,5.5-10.7,10.7
	C0,41,0,60.7,0,60.7S0,80.5,2.5,90c1.4,5.2,5.5,9.3,10.7,10.7c9.5,2.5,47.5,2.5,47.5,2.5s38,0,47.5-2.5c5.2-1.4,9.3-5.5,10.7-10.7
	c2.5-9.5,2.5-29.2,2.5-29.2S121.5,41,118.9,31.5z M48.6,79V42.5l31.6,18.2L48.6,79z"/>
<path class="st0" d="M147.3,73l-14.1-48.7h12l5.4,24.8l0.9,4c0.5,2.1,1,4.1,1.4,6.2h0.4l2.3-10.3l5.8-24.7h11.8L159.4,73v24.2h-12.1
	V73z"/>
<path class="st0" d="M176.3,95.6c-2.4-1.6-4.1-4.1-5.1-7.6c-1-3.4-1.5-8-1.5-13.6v-7.7c0-5.7,0.6-10.3,1.7-13.8c1.2-3.5,3-6,5.4-7.6
	c2.5-1.6,5.7-2.4,9.7-2.4c3.9,0,7.1,0.8,9.5,2.4c2.4,1.6,4.1,4.2,5.2,7.6c1.1,3.4,1.7,8,1.7,13.8v7.7c0,5.7-0.5,10.2-1.6,13.7
	c-1.1,3.4-2.8,6-5.2,7.6c-2.4,1.6-5.7,2.4-9.8,2.4C182.1,98.1,178.7,97.3,176.3,95.6z M189.8,87.3c0.7-1.7,1-4.6,1-8.5V62.2
	c0-3.8-0.3-6.6-1-8.4c-0.7-1.8-1.8-2.6-3.5-2.6c-1.6,0-2.8,0.9-3.4,2.6c-0.7,1.8-1,4.6-1,8.4v16.6c0,3.9,0.3,6.8,1,8.5
	c0.6,1.7,1.8,2.6,3.5,2.6C188,89.9,189.1,89,189.8,87.3z"/>
<path class="st0" d="M241.4,44v53.3H232l-1-6.5h-0.3c-2.4,4.9-6.1,7.4-11.1,7.4c-3.6,0-6.2-1.1-7.9-3.4c-1.7-2.3-2.6-5.9-2.6-10.9
	V44h12v39.1c0,2.3,0.3,4,0.8,5c0.5,1,1.4,1.6,2.6,1.6c1,0,2-0.3,2.9-1c0.9-0.7,1.6-1.5,2-2.6V44H241.4z"/>
<path class="st0" d="M274,34.1h-11.6v63.2h-12.2V34.1h-11.6v-9.7H274V34.1z"/>
<path class="st0" d="M303.2,44v53.3h-9.4l-1-6.5h-0.3c-2.4,4.9-6.1,7.4-11.1,7.4c-3.6,0-6.2-1.1-7.9-3.4c-1.7-2.3-2.6-5.9-2.6-10.9
	V44h12v39.1c0,2.3,0.3,4,0.8,5c0.5,1,1.4,1.6,2.6,1.6c1,0,2-0.3,2.9-1c0.9-0.7,1.6-1.5,2-2.6V44H303.2z"/>
<path class="st0" d="M360.7,74.7v2.7c0,3.4,0.1,6,0.3,7.7c0.2,1.7,0.6,3,1.3,3.7c0.6,0.8,1.6,1.2,3,1.2c1.8,0,3-0.7,3.7-2.1
	c0.7-1.4,1-3.7,1.1-7l10.3,0.6c0.1,0.5,0.1,1.1,0.1,1.9c0,4.9-1.3,8.6-4,11c-2.7,2.4-6.5,3.6-11.4,3.6c-5.9,0-10-1.9-12.4-5.6
	c-2.4-3.7-3.6-9.4-3.6-17.2v-9.3c0-8,1.2-13.8,3.7-17.5c2.5-3.7,6.7-5.5,12.6-5.5c4.1,0,7.3,0.8,9.5,2.3c2.2,1.5,3.7,3.9,4.6,7
	c0.9,3.2,1.3,7.6,1.3,13.2v9.1H360.7z M362.2,52.2c-0.6,0.8-1,2-1.2,3.7c-0.2,1.7-0.3,4.3-0.3,7.8v3.8h8.8v-3.8c0-3.4-0.1-6-0.3-7.8
	c-0.2-1.8-0.7-3-1.3-3.7c-0.6-0.7-1.6-1.1-2.8-1.1C363.8,51.1,362.8,51.5,362.2,52.2z"/>
<path class="st0" d="M342.9,52.5c-0.7-3.4-1.9-5.8-3.5-7.3c-1.6-1.5-3.9-2.3-6.7-2.3c-2.2,0-4.3,0.6-6.2,1.9
	c-1.9,1.2-3.4,2.9-4.4,4.9H322l0-28.1h-11.3v75.6h9.6l1.2-5h0.3c0.9,1.8,2.3,3.2,4.2,4.3c1.9,1,3.9,1.6,6.2,1.6c4.1,0,7-1.9,8.9-5.6
	c1.9-3.7,2.9-9.6,2.9-17.5v-8.4C343.9,60.5,343.6,55.9,342.9,52.5z M331.9,74.2c0,3.9-0.2,6.9-0.5,9.1c-0.3,2.2-0.9,3.8-1.6,4.7
	c-0.8,0.9-1.8,1.4-3,1.4c-1,0-1.9-0.2-2.7-0.7c-0.8-0.5-1.5-1.2-2-2.1V56.4c0.4-1.4,1.1-2.6,2.1-3.6c1-0.9,2.1-1.4,3.2-1.4
	c1.2,0,2.2,0.5,2.8,1.4c0.7,1,1.1,2.6,1.4,4.8c0.3,2.3,0.4,5.5,0.4,9.6V74.2z"/>
<path class="st1" d="M118.9,31.5c-1.4-5.2-5.5-9.3-10.7-10.7c-9.5-2.5-47.5-2.5-47.5-2.5s-38,0-47.5,2.5c-5.2,1.4-9.3,5.5-10.7,10.7
	C0,41,0,60.7,0,60.7S0,80.5,2.5,90c1.4,5.2,5.5,9.3,10.7,10.7c9.5,2.5,47.5,2.5,47.5,2.5s38,0,47.5-2.5c5.2-1.4,9.3-5.5,10.7-10.7
	c2.5-9.5,2.5-29.2,2.5-29.2S121.5,41,118.9,31.5z M48.6,79V42.5l31.6,18.2L48.6,79z"/>
</svg>
