<svg xmlns="http://www.w3.org/2000/svg" xmlns:xlink="http://www.w3.org/1999/xlink" width="43.497" height="42.596" viewBox="0 0 43.497 42.596">
  <defs>
    <clipPath id="clip-path">
      <rect id="Rectangle_5088" data-name="Rectangle 5088" width="43.497" height="42.596" transform="translate(0 0)" fill="#2376bc"/>
    </clipPath>
  </defs>
  <g id="ZipIcon_Blue_" data-name="ZipIcon(Blue)" transform="translate(0 0)">
    <g id="Group_7526" data-name="Group 7526" clip-path="url(#clip-path)">
      <path id="Path_73844" data-name="Path 73844" d="M32.441,34.124a.95.95,0,0,0-.95-.95H2.607a.707.707,0,0,1-.706-.706V19.78a.707.707,0,0,1,.706-.706H31.491a.707.707,0,0,1,.706.706V30.267a.95.95,0,1,0,1.9,0V19.78a2.609,2.609,0,0,0-2.606-2.606H2.607A2.61,2.61,0,0,0,0,19.78V32.468a2.61,2.61,0,0,0,2.607,2.606H31.491a.95.95,0,0,0,.95-.95" fill="#2376bc"/>
      <path id="Path_73845" data-name="Path 73845" d="M6.591,29.51a.8.8,0,0,0,.728.468h6.116v-1.6H9.077L13.238,23.6a.8.8,0,0,0-.6-1.325H6.895v1.6h3.983L6.716,28.653a.8.8,0,0,0-.125.857" fill="#2376bc"/>
      <rect id="Rectangle_5087" data-name="Rectangle 5087" width="1.6" height="7.72" transform="translate(16.123 22.267)" fill="#2376bc"/>
      <path id="Path_73846" data-name="Path 73846" d="M20.557,22.267v7.719h1.6V27.935h2.4a2.552,2.552,0,0,0,2.55-2.55v-.559a2.553,2.553,0,0,0-2.55-2.55h-2.4c0-.009-1.6-.009-1.6-.009m4,1.609a.951.951,0,0,1,.95.95v.559a.952.952,0,0,1-.95.951h-2.4v-2.46Z" fill="#2376bc"/>
      <path id="Path_73847" data-name="Path 73847" d="M33.124,4.123a1,1,0,0,0-1,1v4.93a1.741,1.741,0,0,0,1.718,1.871h4.252a1,1,0,0,0,0-2h-3.97v-4.8a1,1,0,0,0-1-1" fill="#2376bc"/>
      <path id="Path_73848" data-name="Path 73848" d="M43.244,8.8,35.7.334A1,1,0,0,0,34.956,0H13.468a1.979,1.979,0,0,0-1.977,1.976V14.588a1,1,0,0,0,2,0L13.468,2h21.04L41.5,9.844,41.52,40.6l-28.029.023V37.4a1,1,0,0,0-2,0v3.219A1.979,1.979,0,0,0,13.468,42.6H41.52A1.979,1.979,0,0,0,43.5,40.619V9.462a1,1,0,0,0-.253-.665" fill="#2376bc"/>
    </g>
  </g>
</svg>
